<?xml version="1.0" encoding="utf-8"?>
<!-- Generator: Adobe Illustrator 17.0.0, SVG Export Plug-In . SVG Version: 6.00 Build 0)  -->
<!DOCTYPE svg PUBLIC "-//W3C//DTD SVG 1.1//EN" "http://www.w3.org/Graphics/SVG/1.1/DTD/svg11.dtd">
<svg version="1.1" id="Calque_1" xmlns="http://www.w3.org/2000/svg" xmlns:xlink="http://www.w3.org/1999/xlink" x="0px" y="0px"
	 width="130.029px" height="168.233px" viewBox="0 0 130.029 168.233" enable-background="new 0 0 130.029 168.233"
	 xml:space="preserve">
<g>
	<path fill="#EEEEEE" d="M0,6.771c0,0,11.945-5.332,24.533-5.709c34.744-1.038,33.79,12.879,68.529,11.682
		c12.682-0.437,24.664-5.974,24.664-5.974v51.642c0,0-11.98,5.084-24.532,5.359C58.78,64.526,59.773,51.379,25.357,52.04
		c-12.755,0.245-24.958,5.311-24.958,5.311s7.705-9.674,17.091-17.538c8.503-7.126,18.355-12.465,18.355-12.465
		s-7.123-7.623-15.96-12.735C10.635,9.26,0,6.771,0,6.771"/>
	<path fill="#EEEEEE" d="M121.705,3.172c-0.915-0.348-1.428-0.821-1.428-1.314s0.514-0.966,1.428-1.314
		C122.62,0.196,123.861,0,125.153,0c1.293,0,2.533,0.196,3.448,0.544c0.915,0.348,1.428,0.821,1.428,1.314s-0.513,0.966-1.428,1.314
		c-0.271,0.103-0.569,0.193-0.891,0.268v164.793h-5.178V3.426C122.237,3.353,121.958,3.269,121.705,3.172"/>
</g>
</svg>
