<?xml version="1.0" encoding="utf-8"?>
<!-- Generator: Adobe Illustrator 17.0.0, SVG Export Plug-In . SVG Version: 6.00 Build 0)  -->
<!DOCTYPE svg PUBLIC "-//W3C//DTD SVG 1.1//EN" "http://www.w3.org/Graphics/SVG/1.1/DTD/svg11.dtd">
<svg version="1.1" xmlns="http://www.w3.org/2000/svg" xmlns:xlink="http://www.w3.org/1999/xlink" x="0px" y="0px"
	 width="883.745px" height="1022.37px" viewBox="0 0 883.745 1022.37" enable-background="new 0 0 883.745 1022.37"
	 xml:space="preserve">
<g id="Calque_1">
	<g>
		<defs>
			<rect id="SVGID_1_" y="0.002" width="883.745" height="1022.368"/>
		</defs>
		<clipPath id="SVGID_2_">
			<use xlink:href="#SVGID_1_"  overflow="visible"/>
		</clipPath>
		<path clip-path="url(#SVGID_2_)" fill="none" stroke="#2E2D2D" d="M131.095,212.072l1.5,0.833l1.917,0.417l2.166,0.583
			l1.834,1.417l-0.834,3.833l0.834,0.334l2.083-4.25l1.583-0.25h2.167v1.75v2.25h0.5l2.75-2.584l3.667-0.625l1.5-0.458l7.083-0.25
			l4.167-2.667l5,0.75l-0.5-1.833c0,0,3.5,0.083,3.916,0c0.417-0.083,1.667-0.75,1.667-0.75l4,0.667l-2.75,6.416l1.917,1.417
			l-0.25,2.417l-3.417,5.5l-6,5.166l-7.75,6.5l-1,1.584l-2.583,2.083l-1.667,0.917v2.583l-2.25,0.75l-3.333-0.917l-2.667-1.083
			l-0.417,1.083l3.334,1.667l3.833,1.417l2.5-1.5l1.667,0.666l2.583-1l0.667,0.75l-3,3.5l-1.5,2.5l-1.417-0.416l-1.083-0.334
			l-2.75,2.5h3.833l-1.583,2.667l-3,2.917l-1.167,1.5l-2.583-0.417l0.25,1.583h2l2.666-0.583l2.167-2.25l1.25-1.25v-1.25
			l1.583,0.833l2.584-0.833l2.583-2.167l5.083-0.25l1.75-2.083l4.75-0.833l2.417,1.416l2,0.667l2-0.167l1.333-0.916h2l4,0.833
			l6.834,0.333l1.416-1.083l1.417,0.25l0.417,0.667l2.583-0.834l1.917-0.333l2,0.833l2.416,1.584l1.084,1.583l1,3.583v2.25v1.584
			l-2.417,3.166l-2.583,3.75l-1.584,2.917l-0.25,3.25v3.167l-2,3l-0.75,3.166l-1.166,3l-2.584,3.584l-4,4.583l0.084,3.833l-3.584,3
			l-1.25,0.75l-0.333,1.667h-1.75l-0.583-1.083l-1.5,1.083l-2,0.417l-2.584-0.417l-2.583,2.5l-2.167,1.917l1.167,0.416l2.917-1.666
			l1.5-1l1.583-0.5l1.167-0.417l1.416-0.333l0.834,0.833l-0.417,3.083l5.333,1.5l-0.083,2.084l-1,2.083l-3.167,1.333h-3.916
			l-1.917,0.834l-2.25,1.583v1.833l-0.5,1.25h-2.167l-1.916,0.417l-1.834,0.917l-2.333-0.417l-4.167-0.917l-0.75,1.334l1.584,0.916
			l3.583,0.667l5.25,0.75h5.833h3.5l0.417-2.833l2.75-0.834l1.75-0.25l1.333,1.667l3.167,1.083l1.917,1.584l1.5,1.5h4.083
			l1.417,0.833l0.75,2.917l1.916,1.083l0.084,2.833l3.75,3.5l4.666,3.167l0.917,4.417l1,5.583l0.5,4.083l1.167,4.5l2.666,6.334
			l0.417,3.833l1.417,1.583l1.166,0.417l2,1.75v3.75v3.333l6.667,2.917l4.917,1.25l4.083,4.583l1.833,4l1.167,0.417v2.167l2.75,1.5
			v2.166l3.833,1.417l0.584,0.833l-3.084,3.167l0.5,2.25l1.917,4.5l3.917,5.417l2.833,4.166h-1.833l-1.917-0.666l-1.917,1.166
			l-4.166-4.25l-3.084,0.334l-1.083,0.666l-6.167-1.083l-0.083,1.667l5.25,0.75l3.75-0.834l4,3.334l5.333,4.166l2.75,1.917
			l1.667,4.5l2.083,5.667v4.333l-2.583,2.25l-2.5,1.25l-1.75,2.25l0.333,2.333l2.584,2.5l3.916,1.417l2.584-2.667l1.5-3.25
			l2.416-1.583l2.167-0.667l2.333,0.584l6.167,0.916l4.5,1.167l2.5,0.833l3.25,2.917l4.25,4.167l1.333,5.083v5.75l-2.666,5.5
			l-0.917,3.917l-0.333,2.333l-5.5,7.167l-2.584,0.416l-1.666-1l-1.167,1.584l1.75,0.5l1.5,1.416l0.25,2.084l-2.417,1.75h-3.25
			h-1.833l-0.583,5.416l-0.417,1.917l-2.5,1.75h-3.333l-1.584,1.25h-3.25l-2.25,2.25l0.917,0.75h1.583l0.834-1.333l3.5-0.084
			l1.583,0.834l-2.5,1.25l0.25,1.416l2.417-0.5l1.5-1.25l2.333,0.417l0.917,1.333l0.416,1.334h1.917l0.833-0.917l3.167-0.083
			l3.417-0.084l1.75-0.583l1,0.833l-1.25,0.834v2.083l0.166,4.167l-3.416,2.916l-3.75,1.667l-2.75,1.25l-0.25,3.583h-5l-2.417,2.667
			l-5.333,0.5l-3.75,4.167l-4.917-0.75l-2.417-1.5l-3.083-1l-2.917,0.166l-1.5,0.667h-5.083c0,0-2.667,0.333-3,0.5
			c-0.333,0.167-3.083,2.333-3.083,2.333l-2.5-3.166l-2.25-0.5l-1.084,1.083l-0.583,0.917l-2.5-0.25l-3.833-4.334l-1.917-0.5
			l-0.5,0.834l2.25,3l-3.583,2.916l-3.834,0.584l-4.166,0.416l-3.834-0.5l-1.25,0.5l0.167,1.084l1.917,0.833v2.5h-3.334l-2.416-1.5
			l-3.167-0.333l-1.833,0.083l-1.75,1.75l-2.584-2.25l-2.833-1.667l-3.333-1.333l-1.084-0.667l-1.083,0.834l-3.917,0.666l-3,0.834
			l-2.583,1.5l-2.25,2.083l-1.083,2l-1.167,2.417l-0.25,2.333l0.833,0.833l-0.25,1.334l-1.833,0.416l-1.083,2l-0.084,2.417
			l-0.333,0.464h-3.583l-1.25-2.131l-1.5-0.416l-2.25-0.75h-1.584l-0.666-1l-0.667-0.834l-1,0.75l-1.5-0.25l-1.083-1.083l-3.25-0.25
			l-0.917,1.25l-2.25-0.25l-3.25-0.25l-1.417,0.417l-0.833,2.916l-0.667,1.881h-2.75l-1.166,1.453l-1.167-0.5l-0.417-0.953
			l-0.666,0.703l0.416,2.916l-1.083,2.334l-0.5,2.25l-2.25,0.916l-1.5-2.833l-1.75-1.75l-2.333-1.167l-1.667,0.667l-1.75,1.667
			l-1.917-0.084l-0.833-1.25l0.5-1.833l2.167-1.583l1.333-0.953h1.25h1.167l1.416-0.631l3.834-3.25l1.75-1.75l0.25-1.916
			l1.666,0.166l1.5-2.916l-0.166-1.667l5.083-2.75l1.167-2.083l4.833-5.084l0.167-7.083l1.5-2.167l3.5,1.417l2.75-1l-0.084-5.917
			l4.417-1.083l5.417-1.25l3.166,0.667h2.834l2,1.083l4.083,0.083l6.083-0.25l0.917-0.833l0.333-5.333l4.084-3.667l3.5-2.583
			l1.75-2.5l2.666-3.75l2.75-3.417l-0.666-0.833l-3.667,3.5l-2.833,3.583l-3.584,3.167l-3.583-0.167l-2.583,1.417l-2.5,1.5v2.083
			l-3.5,0.417l-4.75-0.417l-4.5-3.583l-1.917-3.25l-1.75-1.084l-2.25-0.166l-0.75,2.083l-2.583-0.083l-0.917,1.25l-3.667-1.334
			l0.334-2.083l2.5-0.833l-0.084-1.417h-3.583l-0.167-4.25l-2,2.75l-4.5-0.25l-2.75,3.167c0,0-2,0.083-2.25,0.166
			c-0.25,0.084-1.166,0.834-1.166,0.834l-4.417-0.75l-1.417-1.334l4.334-0.833l-3-0.833l-2.667,0.083l-0.417-1.583l2.334-0.584
			l-0.084-2.916l-2.583-0.417l-2.083-0.833l6.25-4.5l3.5-1.417l3.916-3.083l3.584-0.417l3.333-2.167l1.333-1.416l1,0.333l3.25-2
			l1.75-2.833l1.75-5.75l0.167-1.75l-1.583-2.75l-0.334-0.834l1.167-1.416l0.5-1.417l-0.25-1.917l-1.25-1.833l-0.583-2l0.166-2
			l-1.583-1.333l-1-0.167l-1.667,0.583l-2.5,0.834l-0.916,2l-0.25,1.833l-2.5-0.917l-1.917,0.417l-1.583,0.417l-0.417-2.667
			l3.583-2.917l2.834-1.666l2.666-3.334l0.584-2.333l1.416-0.417l-0.166-1l-1.834,0.25l-1.583-0.916l-1.917-1.084l-0.5-1.666
			l-0.333-0.75h-1.917l-1-1.584l1-1l0.75,0.75h0.667l0.083-4l4.167-0.666l2,0.166l1.167,2.417l1.666,1.917l2.167,0.166l0.75,0.667
			l-1.167,1.25l1.167,1.167l2.667-1.334l1.833-0.166l2-2.75l3.167,1.416l2.666-0.083l2.75-1.917l2.5-0.5l2.667,2.5l2.25,2.584
			l0.833-2.584l-1.166-2.083l-0.917-1.667l2.167-1.166l1.083,1.833l1.5,1.667l1.917,1.5l2.416-0.75l2.334-1.167l-4-0.25l-2.584-1.75
			l-1.583-3l-1.25-3.833l0.583-1.584l0.667-2.416l-0.333-4.5l0.166-5.084l3.334-1.166v-4.75l1.75-1.5l0.5-0.917l-0.25-1.75
			l-2.334-2.167l-0.333,1.75l-2.167-1.666l-3.666,5.916l-2.167-2.166l0.417-2.834l0.416-1.916l-1.416,0.583l-1.5,0.417l-1.75-2.834
			c0,0,0.25-2.666-0.084-2.833c-0.333-0.167-3.583-4.75-3.583-4.75l-1.667-1.583l1.75-4.834l1.25-3.583l3.084-6.583l0.75-1.667
			l-1.417-0.333l-1.083,1.5l-0.75,0.083l-0.334-1.333l-1.25-0.334l-0.166-2.75l-5.584,5.667l-2.833,3.5l-4.75-1.5l-4.417-2
			l-1.416-2.083l-0.5,2.666l0.916,2.75l-0.833,3.084l-2.75-0.084l-1.583-2.666l-2.084-1.667l-4-3.083l-2.916,1.583l0.666,2.833
			l1.5,2.834l-0.25,1.916l-2.583-0.916l-1.083-4.917l-2.084-2.167l-2.333-3l1.167-1.583v-2.167l1.416,1.25l1.667,2.084l1.333-0.834
			l-2.333-3.833l1.75-3.083l1.833-3.417l1.25-1.333l0.584-4.75l1.75-2.917l2.166-0.833l0.584-1l0.416-4.334l-2.25-3.166l-4.25-3.417
			l1.167-3.5l-0.333-4.833l0.666-1.834l2.417,0.167l1.333-0.25l0.084-1.417l-2.75-1.083l-1-0.167l-0.5-2.916l-1,0.666l-0.084,3.834
			l-1.416,5l-1.917-1.5l-0.833-3.584l-1,3.334l1.5,1.666l0.75,3.25l-0.334,2.5l-2.5-2.75l-0.916-3.5l-0.917,1.5l-2.167-1.75
			l-0.75-3.333l-0.416-2.083l2.583-2.917l3.583-3.667l2.084-3.333l-2,0.25l-1.417,2.667l-2.333,2.916l-2.834,2.667l-1.416,1.5
			l-0.084,2.75l0.917,2.917l1.417,1.75l0.416,2.25l-2.75,2.083l-0.666,3l0.166,2.833l-0.666,3.917l-1.834,2.333l-0.416,1.167
			l1.75,1.25l-1,2l-2.584,1.417l-2.5,0.75l-0.333-4.584l1.167-1.333l0.5-4.667l0.416-3.75l1.334-2.5l1.083-3.25l-1.583-3.916
			l1.25-2.334l-0.667-0.833l-1.25-2l2.917-5.167l0.416-1.333l-0.583-2.5l1.583-1.833l-1.416-1.667l-1.917,2.667l0.25-4.834
			l1.833-0.5l0.834-3.416l2.5-1.417l0.166-5.25l3.75-4.75l1.417-0.25l0.25-2.667l2.417-2.75l-0.917-0.666l-4.333,3.833l-3.834,4.833
			l-2.666,1.917l-0.667,2.417l-3.583-0.417l-3.167-1.167l-2.75-3.416l4.167-0.917l1.166-0.667l-0.166-1.166c0,0-2.25,0.166-2.5,0.25
			c-0.25,0.083-2.667,0.083-2.667,0.083l-4.75-0.75v-1.25l2.667-1h5.083l0.583-3.333l2.834,0.083l-0.417-2.333l-3.167-0.25
			l0.834-3.084l0.916-2.25l2.167,1.084l-1.75,1.083l1.167,0.667l4.333-0.084l0.583-0.75l-2.75-1.583l-0.583-1.5l-2.5-0.833
			l1.167-1.584l1.25-0.75l2.25,1l1.75,0.167l-1.417-2.5l-2.583-0.917l1.166-1.833l-1.416-0.583l-2,2.333c0,0-0.667,2.167-0.917,2.25
			c-0.25,0.083-1.833,2.417-1.833,2.417l-3.25,0.666l1.25-3.166l0.083-2.167l-1-1.833l-0.75,2.166l-1.5-0.25l-0.5-1.666l-1.75,1.666
			l-2.583-1.25l-3.417-2.666v-2.584l1.417-1.583l-3-2.417l-1.25,0.084v2.166v0.75l-4.25-2.916v-3.25l3.333,0.416l0.333-5.583
			l3.167,3.583l2,0.5l0.25-2.333l-0.833-1.833l-0.25-1.75l1.833-2.25l2.917,1.166l1.916,2.917l-0.333,6.417l0.25,4.25l2.333,3.583
			h1.084l0.75-2.167l0.666,3l3.334-0.083l2.166-1.5l0.417-2h1.583c0.834,0,2.5-0.5,2.5-0.5l1.667-2.083l-0.667-1.084l-1.666,1.334
			l-1.417-0.417l-1.583,0.083l-1.167,1.834l-2.667-2.417l-0.75-2.833l1-4.167l2.75,0.25l0.667-1.167l-3.167-3.333l0.917-1.417
			l1.5-1.333l-0.333-1.333l-1.25-0.75l0.083-4l1.417-0.75l1.416,3.25l0.334,0.833l1.083-1.75l-0.75-3.083l1.167-1.25l1.416,1.083
			v1.75l1.167-0.083l1-2.167l1.917,1.75l0.416-1.417l-1-1.166l3.667,0.333l-0.083,1.5l2,0.25l-0.25-1.5l-1-2l-1.584-1h-1.333
			l-0.25-1.25l-2.75-2l-0.25-2.583l3.667,1.333l0.166-2.5l-0.916-0.833l-0.834-4.334l2.584,0.334l2.166-0.917l0.25-6.667l2-1.916
			l-1.333-1.834L131.095,212.072z"/>
		<polygon clip-path="url(#SVGID_2_)" fill="none" stroke="#2E2D2D" points="219.762,152.989 220.594,149.406 221.678,148.322 
			221.678,143.739 222.678,141.989 222.678,139.489 222.678,136.989 223.178,136.072 222.678,133.572 222.262,131.572 
			223.762,130.322 224.594,130.322 223.094,127.322 220.594,123.906 219.762,127.489 217.678,128.739 217.678,126.739 
			218.762,122.656 218.094,119.156 214.762,122.156 212.428,122.906 211.762,125.072 214.344,125.156 215.262,127.656 
			215.678,131.072 218.594,129.739 219.178,130.406 218.178,132.322 215.678,133.656 211.762,133.572 209.928,135.239 
			211.094,137.406 214.344,137.739 214.512,139.989 216.344,140.072 217.262,137.739 219.094,137.822 219.512,140.989 
			218.678,147.072 218.094,152.572 		"/>
		<polygon clip-path="url(#SVGID_2_)" fill="none" stroke="#2E2D2D" points="224.595,124.155 226.095,121.155 226.095,119.572 
			226.095,117.572 226.595,115.822 225.465,113.738 223.845,114.322 223.845,116.655 221.845,118.572 221.512,121.572 
			223.012,124.155 		"/>
		<polygon clip-path="url(#SVGID_2_)" fill="none" stroke="#2E2D2D" points="228.845,115.239 230.595,112.989 231.262,111.572 
			231.262,109.656 231.262,107.906 229.178,107.906 228.178,110.906 227.678,113.739 		"/>
		<polygon clip-path="url(#SVGID_2_)" fill="none" stroke="#2E2D2D" points="229.47,121.322 231.262,120.822 231.262,118.947 
			229.845,118.155 228.678,118.572 228.345,119.739 		"/>
		<polygon clip-path="url(#SVGID_2_)" fill="none" stroke="#2E2D2D" points="175.262,204.905 173.094,203.072 173.094,200.988 
			170.512,198.238 168.844,199.905 170.928,203.488 173.512,204.905 		"/>
		<polygon clip-path="url(#SVGID_2_)" fill="none" stroke="#2E2D2D" points="175.262,198.572 178.928,196.655 180.262,198.572 
			181.594,200.239 183.762,199.489 182.594,196.655 180.012,195.155 177.178,195.155 177.344,193.655 178.428,192.655 
			176.344,189.905 173.512,187.905 170.928,189.905 170.928,193.572 170.928,197.239 173.428,195.989 174.262,197.572 
			174.762,198.239 		"/>
		<polygon clip-path="url(#SVGID_2_)" fill="none" stroke="#2E2D2D" points="178.678,188.739 179.595,186.656 177.345,186.156 
			177.345,187.906 		"/>
		<polygon clip-path="url(#SVGID_2_)" fill="none" stroke="#2E2D2D" points="182.678,193.489 183.761,193.489 183.761,190.989 
			181.428,192.239 181.428,193.489 		"/>
		<polygon clip-path="url(#SVGID_2_)" fill="none" stroke="#2E2D2D" points="188.178,184.155 190.595,182.988 192.178,182.988 
			191.761,180.905 190.178,181.905 189.345,180.905 188.678,181.988 186.928,184.155 		"/>
		<polyline clip-path="url(#SVGID_2_)" fill="none" stroke="#2E2D2D" points="180.928,200.739 180.261,203.156 178.928,203.156 
			179.595,204.906 180.345,205.989 182.095,202.489 180.511,200.739 		"/>
		<polygon clip-path="url(#SVGID_2_)" fill="none" stroke="#2E2D2D" stroke-miterlimit="10" points="84.595,252.489 86.512,249.656 
			88.512,249.072 87.928,246.406 88.512,245.156 90.428,246.072 91.345,245.156 91.345,244.239 93.012,243.322 95.178,243.322 
			95.178,240.822 98.928,240.239 97.928,237.489 96.428,237.489 96.012,235.906 97.845,233.822 98.345,232.156 97.845,230.239 
			99.678,228.906 100.595,227.072 102.595,225.739 102.178,219.656 100.845,216.989 97.845,220.656 93.595,223.572 91.762,225.406 
			88.428,228.906 88.762,230.156 87.928,230.822 86.178,229.739 86.428,231.406 86.012,231.989 83.012,230.322 80.928,231.822 
			80.928,235.322 81.845,238.406 80.928,241.656 82.428,242.906 85.678,243.322 85.595,244.739 83.928,246.239 81.512,248.906 
			80.928,249.822 		"/>
		<polygon clip-path="url(#SVGID_2_)" fill="none" stroke="#2E2D2D" stroke-miterlimit="10" points="100.595,231.155 
			102.595,228.822 103.262,229.988 102.595,232.572 100.595,232.572 		"/>
		<polygon clip-path="url(#SVGID_2_)" fill="none" stroke="#2E2D2D" stroke-miterlimit="10" points="73.511,266.322 74.428,262.489 
			73.511,260.322 71.594,259.405 70.761,258.322 70.761,256.072 76.928,256.655 78.094,254.739 80.261,256.822 78.261,258.072 
			79.844,259.155 79.511,262.572 77.594,264.739 78.011,267.072 		"/>
		<polygon clip-path="url(#SVGID_2_)" fill="none" stroke="#2E2D2D" stroke-miterlimit="10" points="72.678,268.239 76.595,268.656 
			77.678,271.406 77.678,273.572 76.845,275.739 76.678,279.906 72.678,279.906 		"/>
		<polygon clip-path="url(#SVGID_2_)" fill="none" stroke="#2E2D2D" stroke-miterlimit="10" points="69.678,286.989 72.678,287.322 
			72.095,283.072 		"/>
		<polygon clip-path="url(#SVGID_2_)" fill="none" stroke="#2E2D2D" stroke-miterlimit="10" points="99.011,287.322 95.594,284.322 
			98.011,283.072 100.261,283.072 100.261,286.155 		"/>
		<polygon clip-path="url(#SVGID_2_)" fill="none" stroke="#2E2D2D" stroke-miterlimit="10" points="103.928,290.989 
			101.428,289.906 103.261,288.072 		"/>
		<path clip-path="url(#SVGID_2_)" fill="none" stroke="#2E2D2D" stroke-miterlimit="10" d="M86.345,305.072
			c-0.25,0-3.667,1.75-3.667,1.75l1.084,2.333l3.083-0.833l1.25-1.583L86.345,305.072z"/>
		<polygon clip-path="url(#SVGID_2_)" fill="none" stroke="#2E2D2D" stroke-miterlimit="10" points="91.761,302.905 93.178,302.905 
			96.261,299.905 95.594,298.488 90.844,302.155 		"/>
		<path clip-path="url(#SVGID_2_)" fill="none" stroke="#2E2D2D" stroke-miterlimit="10" d="M99.178,304.405
			c0,0,2.917,1.5,2.75,1.667c-0.167,0.166-1.333,1.416-1.333,1.416l2,0.584l3.083-0.959l0.917,0.959l-3.334,1.416l-1.833,1.75
			l1.25,1.334l1.667-0.5l2.25-0.75v2.166l-4,0.834l-4.084-1.084v1.584v1.25l2.084,0.5l3.333-0.334l2.667-1.333l1.666-1.167
			l2.084-0.833v1l1.5,0.333l2.416-2.333v-2l-0.416-1.917l-2.25-0.875l-2.084-0.708l-2-2l-2.083-3.25l-2.75-1.167l-0.75,2
			L99.178,304.405z"/>
		<polygon clip-path="url(#SVGID_2_)" fill="none" stroke="#2E2D2D" stroke-miterlimit="10" points="113.095,322.239 
			108.928,326.489 107.512,327.656 107.512,330.322 105.512,330.656 104.845,335.656 105.928,337.072 107.762,336.239 
			109.512,332.072 111.845,328.322 		"/>
		<polygon clip-path="url(#SVGID_2_)" fill="none" stroke="#2E2D2D" stroke-miterlimit="10" points="95.595,341.489 95.178,338.406 
			96.262,336.239 96.845,333.656 98.512,333.656 101.428,333.239 102.678,331.406 103.512,333.239 104.845,337.406 105.262,340.239 
			105.262,342.739 102.595,343.489 101.928,345.656 99.678,346.156 98.512,344.739 99.845,342.489 99.512,340.906 99.095,340.156 
			99.428,337.072 97.928,338.072 97.428,339.906 		"/>
		<polygon clip-path="url(#SVGID_2_)" fill="none" stroke="#2E2D2D" stroke-miterlimit="10" points="120.845,343.155 
			122.928,341.072 124.512,340.655 125.928,341.905 126.678,343.738 127.428,346.822 127.428,349.238 128.262,350.072 
			127.762,351.405 125.428,351.822 123.595,351.155 122.845,348.655 		"/>
		<path clip-path="url(#SVGID_2_)" fill="none" stroke="#2E2D2D" stroke-miterlimit="10" d="M136.262,402.405
			c0.667-0.583,2.583-2.167,2.583-2.167l1.584-2.166c0,0,1.916-2.167,2.166-2.334c0.25-0.166,2.084-1.083,2.084-1.083l0.75-0.75
			v2.833v2.417l-1.334,5.167l-0.333,2.166h-2.333l-1.5,1.75l-4.334-1.25l-1-2.416L136.262,402.405z"/>
		<polygon clip-path="url(#SVGID_2_)" fill="none" stroke="#2E2D2D" stroke-miterlimit="10" points="212.678,540.822 
			215.011,541.239 215.678,543.072 217.345,544.072 219.678,544.072 221.761,541.989 222.928,538.989 219.095,538.155 
			215.761,539.655 		"/>
		<path clip-path="url(#SVGID_2_)" fill="none" stroke="#2E2D2D" stroke-miterlimit="10" d="M68.761,370.322l2.917-2.083
			l0.833-2.667l-2.333-3.917v-1.75l2.333-1.416l1.667-1.75v-3.084l3.666,2.084l4.417,2.916l2.417,1.834l-4.75,2.916l-2.334,3.584
			l1.75,1.416l3.334-0.166l1.5-4.334l3.916-0.333l3.25-1.917l4.25-1.5l4.625,1l4.625,0.167v7.083l2.584-0.083l-0.5,2l3,3l0.75,2.667
			l3.25,2v2.333l-4.584,3.667l1.25,1.75l2.5-1.5l3.084,0.333l2.416,2.583l1.167,3.834l-1,5.583l-1.25,0.417l0.083-2.167v-3.667
			l-2.5-3.083l-1.25,1.25l1.167,3.167l-0.333,3.75l2.333,0.75l0.833,2.416l-2.333,2.25l-4.167-0.583l-1.916,2.25l0.166,2.167
			l-2.75,2.75l-1.583,1.583l-2.917-2.167l-0.666,1.167l2.333,1.833l-0.667,1.584l-3.125-1.167l-2.125-0.167v2.334l0.25,2.833
			l2.334,1.917l1.083,1.833l-1.083,0.833l0.833,4.334l1.667,2.666l1.5,2.25c0,0-1.334,2.75-1.334,3.167c0,0.417,0.584,4,0.584,4
			l0.5,4.25l0.833,3.167l0.333,5l0.167,2.916h1.583l-2.166,2.834c0,0-1.667,5.5-1.834,5.916c-0.166,0.417-1.666,3.417-1.666,3.417
			l0.083,4.75l-3.167,3.917l-0.166,1.666l-0.25,2.084h-2.084l0.084,1.75l1.5,0.833l1.333,0.667l-0.167,2.75
			c0,0-2.333,0.833-2.75,0.666c-0.416-0.166-3.916-0.416-3.916-0.416s-0.584-1.25-1.167-1.25s-3.583-0.084-3.833,0.166
			s-1.834,2-1.834,2l-0.666-2.666l-1.084,0.333l-0.25,3.083h-2.416l-2.584-1l-4.666,1.667l-5.584,1.667v1.083l1,1.333l-1.583,1.417
			h-1.5l-0.417,1.5h-2.583l-1.417,1.75l-3.833,3.25l-4.5,0.5l0.333-1.75l-2.75,0.333l1.167,1.417l-0.5,2.417l-5.333,2.166
			l-0.417,1.334h-3.167v2.666l-2.916-0.833l-1.417,0.833l-0.583,1.584l-2.084-1.334l-3.583,0.834l-1.25,2.083h-5l-0.5-1l-3.5-0.333
			l-4.417,2.583l-1.416-1.667l5.5-2.833c0,0,0.75-1.083,0.166-1.083c-0.583,0-5.666,2.25-5.666,2.25v-1.334l7.5-3l1-2.083
			l-4.084,0.5l-3.5,1.583l-2.833-0.083l-1.667,2l-2.833,0.417l0.333-2.5l4.5-2.75l2.084-2.167l2.5-2.083l-0.834-0.25l-3.75,1.75
			l-4.416,2.083l-1.5,0.583l-0.417-2.5l-2.5-0.5l-2.25-0.666l-1.083-2.834l1.416-0.666l1.25,0.166l0.084-2.333l4.916-2l3.5-1.833
			l2.084-1.084l-0.5-2.25l-2.417,1.417l-1.583-0.417l-1.917,1.25l-4.583,0.084l-2.25-0.5l-0.917,1.166l-0.667-4.25l1.584,0.167
			l0.583-1.583l2.583-0.667l2.5-1.333v1.5l2.084-0.084l3.583,0.584l2.833-0.667l-1.083-1.417l-0.417-3.083l-1.75-2.75l2.834-0.167
			l2.583-2.083l0.833-2.833l4.584,0.166l3.166-0.166l3.25-0.667l3.334-1.667c0,0,3.166-0.833,3.416-0.833s3.334-0.583,3.334-0.583
			s-0.167-0.917-0.417-0.917s-3.5,0.75-3.5,0s0.083-3.583,0.083-3.583l-2.083,1.333l-0.833,2.75l-2.417,2.167l-4.75,0.25l-2.583-0.5
			l-3.5-0.75l-3.417,2.916l-3-0.583l7.083-5.917l3.25-0.416l0.417-4l1.917-2l-1.667-2.5l3.417-7.334l1.916,0.75l4.667-2.083
			l-0.083-2.333l-4.084-0.5l-5.166,0.666l-3.5-0.666l-3.667,1l0.167-2.75l1.583,0.083l1.417-1.583l-2.25-1.334l-2.084,2.667
			l-3.333-0.25l-0.083-2.083l1.75-1.084l-1.25-1.25l-1.75,1.417l-4.667-0.583l-0.583-2.417l2.666,0.167l-1.5-4l2.75-0.334
			l0.917-1.666l2.25-0.5l-0.75-5.584l8.25-1.083l-1.083-1.083l-0.5-3.084l-4.25-0.5l-1.25,0.75l-3.584-0.333l-1.333-3.583
			l-4.25-0.084l4.417-1.833l1.5-0.167l0.916,2.5h2.334l-0.417-5.5l-0.75,1.084l-1.333-4.584l-2-1.25l-0.584-1.833l1.75-1.667
			l2,2.917l1.834-2l-1.584-2.75l14.667,1.083c0,0,4.667,5.417,4.667,5.167s1-4.083,1-4.083l5.583,0.833l3.917,0.583l0.833,1.584
			l-0.25-4.167l-0.75-1.75l4.583-2.833l0.084-1.084l2.916,0.167l3.667-5l1.75-1.917l-2.833,0.584l-1.334-1.5l-1.666,1.833l-1-0.75
			l-3.834,0.25l-4.333-1.75l0.583-3.583l1.084-0.667l2.25-0.25l1.833-3.333l2.833,0.166l-1.5-3h1.417l-1.583-2.916l2.583-1.584
			l1-5.25l4.167,0.5l2.583-3.666l3.25,3.416l0.667-2.75l1.083-0.416l3.083-2.167l1.167,3l0.917,1.417l0.666,1.833l-1.666,3.167
			L68.761,370.322z"/>
		<path clip-path="url(#SVGID_2_)" fill="none" stroke="#2E2D2D" stroke-miterlimit="10" d="M34.595,994.489l4.875-8.875
			l0.875-5.375v-9.25l-1.125-3.375l-1.75-0.875l2.875-3.375v-11h1.875v-2.25h-2.875l-1.625-0.75l-3.75,2.625l-3.375,0.5v-4.5
			l-2.625-3.375h-3.25v-7.875l1.5-6.375l0.625-7.125l5.375-6l3.875-10.125l1.5-6.875l3.375-18.125l1.25,1.375l1.875-1.375l-2-2.125
			l0.5-8l-1.625-11.75l-3-22.625l3.125-2.875l1.625-2.625l-4,1.125l3.75-5.375h-2.5l0.125-8.125l-4.875,4.375l-2-3.375l2.875-4.25
			h-2.75l-0.875-2.875l-4-3.5l0.75-5.5l4.5-2.25l2.25-3.125l4-1.875l2.625,1.875l4.125-1l2.5-2.125l1.25,1l3.75,0.5l-2.125-4.5
			l1.5-3.125l7.875-5.875v1.5l3,0.25l2-3l2,1v1.875l2.75-0.875l5.375,4.75l8.625,0.125l14.5,1.125l2.25-1.625l2.125,0.875l6.5-3.5
			c0,0,2.5,2.875,3,3.125s10.75,1.625,10.75,1.625l12.125,3l9.75,0.875l8.625-1.5l5.5-0.25l4.625-1.125l4.375,2.5l6.75,2.75
			c0,0,2.625-3.25,3.125-3.375s4.125,0.5,4.125,0.5l5.875,1.5l3.5,3l10.25-0.625l8.125-3.25l5.5-14.125l2.5-15.5l1.75-10.875
			c0,0,3.25-0.5,3.625-0.625s0.625-1.625,0.625-1.625l-3.375-2.125h-1.5l2.875-25.625l2,1.375l4.625,5.125l2.25,6.5l1.125-0.5
			l-1.875-8.125l-2.375-4.375l-6.875-4.375l-1.5-3l2.75-3.75l1-3.375l0.25-3.875l-3-3.5l0.5-2.25l0.5-2.25h-2.5l-2.75-1.875
			c0,0-2.875-2-3.375-2.25s-4.875-1-4.875-1l-4-5.875l-6.375-8.125l2.625-4l0.25-3.375l-4.125-2.875l0.375-3l-1.5-2
			c0,0-1.625,1.125-2.125,1.125s-5.25-1.75-5.25-1.75l1.625-7.125h-8.125l-0.125-1.625h2.5l-1.625-2.875l-3.875,0.75l0.375,1.25
			l-0.5,0.75l-4.25-0.5l-5.125-6.625l-1.75,1.875l-3.75-1.875l-6-1.375l-3.5-3.75l-3,1l-2.375,2.875h-4l-0.625-5.5l-6.75-3.875
			l4.5-1h3.5l0.875-4.25l-6.375-1.375l-0.25-2.875l4.375,0.875l4.625-0.875l-4.375-1c0,0-3.875-1-4.25-1s-4.875,2.125-4.875,1.25
			s0.625-6.25,0.625-6.25l7.375-5l3.125-0.875l1,1l3.375-2.125h3.875l2.5,2.25l0.5-2.25l4.375,1l2.5-1l0.125-4h4.625l5.25-1
			l5.75,6.375l2.25,3.625l3,0.875l7.625-4.625l2.625,2.125l4-0.5l4.125-2.5l1.25,3h10.875l-5.125-6.125l1.125-6l-1.5-6.75
			l1.708-3.125l-2.958-0.75l-1-3.875l-2.875-1.75l-0.5-4.375l-1-0.625l0.75-1.375l-0.25-3.125l-1.625-2.75l4.25,1.5
			c0,0,3,1.125,3.75,1s3.375-1.25,3.375-1.25l4.5,0.25l1.125,2.125l-1.5,1.5c0,0,2.5,6.75,2.5,7.25s0.875,1.5,0.875,1.5l3.125-1.75
			l3.625,0.75l4.25,1.375l7.375-0.125l3.375,2.25l4.875-1l4.875-3.75l4.875-1.125l-6.125-0.5l-1-3.75l1.375-4.625l9.625-5.625
			l7.75-2.125l7.375-1.75l7.25-6.5l0.75-3.453h3l-2-2.547l1.125-11.667l0.25-10.208l6.875-4.875l15.625-3.125l8.375-6l10.25-5.625
			h6.875l4,1.625l4.25-1.625l3.625,1.25l3.25,1.625v-2l-2.75-1.75l-3.875-1.875l-2.875,1.625l-4.375-1.625l-4.375-1.125l-0.875-3
			l3.875-1.5l1.125,2.875l2-0.375l-1.5-2.5l2.75-1.125l2.75,3l4.5,3.5l1.875,0.75l0.25-3.25l-3.625-0.625l-3.125-3.375l-3.125-3
			h-2.125l2-0.75h4l2.875,2.375c0,0,1.875-0.125,1.875-0.5s-3.625-4.25-3.625-4.25l-1.625-0.875h-1.25l1.75-1.625h2.125l0.125-2.125
			l-1.875-2.5h2l2.5,1.375l0.875-1.375l-1.375-1.75l5.75-6.75l3.75-6.75l2.5-14.75l2.25-4.375v-3.875h2.625l0.75,2.875l3.375-2.125
			v6.5l5.875,1.125l1,1.125l-5.625,1.625c0,0-0.5,3.75-0.5,4.625s0.125,6.75,0.125,6.75l0.875,1.625l1-0.5l0.25-2.25l5.625-2.875
			l3.25-2.75l0.625-4.125l1-4.25l1.125-3.25l-3.25,0.625l-1.75-1.625l-0.125-11.125l5.125-5.875l7.75-3.875h8.5l7.875-1.875h5.5
			l0.625,3.875l3.625,2l2.875,2.375l2.25-2.875l-3.25-1l-2.375-0.625v-5.875l2.125-1.375l-1.875-1.5l5.375-3.375l5.125-0.75l7-1.125
			h4.75l2.125,2.125l1.5,2.375v2.75l-1.125,1l1.75,1.875c0,0,1,1.625,1.375,1.625s2.5-3.375,2.5-3.375l-1.125-2.125l1.125-2.75
			l3.625,1.875v4.125l3-3.375l-2-6.125l3.5-7.375l4.375,3l8-1.625l-4-1.375l-3.75-6.625h3.5l-2.375-3.5h-1.75l0.25-5.625
			l-2.125-1.375l-2,0.625l-0.125-1.875l1.25-2.375h3l2.875-1.75l1.625-1.125l-1-2.375l-2.5,2.375l-1.625-0.625l2.125-2.875
			l-2.375-5.25l-4.625-6.75l1.5-6l-0.375-2.5l0.375-13.25l-4.125-3.75h-1l-4.125-6l-0.625,3.875l-4.625-3.875l2.125-4.125
			l0.25-10.375l3.25,3.25l1.875-2.125l-2.875-7.25l-1.875-0.75l-1.625,3.625l1.125-13.625h2.5l-3-4.625l0.125-7.75h3.125
			l1.875,3.125h3.25l2.5-0.375v3.125l2.75,0.5l0.375-3.75v-3.25l2.375-1.75l2-3.625l2.625-3.25c0,0,2.375,2,2.375,2.375
			s-2.125,6.875-2.125,6.875l3,0.125c0,0,3.875-0.75,3.875-1.125s-2.625-4.625-2.625-5.125s-0.125-8-0.125-8l2.75-2.75l7.25,1.5
			l2.375-2.25l3.625-0.875l-1.75-2.125l-3.875,1.875l-5,0.75l-3.875,1.125l-1.75-0.375l-2.25-0.875l-2,1.25c0,0-3,0.25-3.375,0.375
			s-5.125,3.75-5.125,3.75l1.375,1l4.625-2.875l0.125,1.375l-1.875,4.125v2.75l-1.875,3.75l-2.75-0.25l-1.375-3.375l1.5-3.125
			l-1.75,0.5l-1.625,2.875l2.5,3.75l-0.875,2.5l-5.625-4.625l-2.75-3.625l8.25-13.375h6.75l2.125-1.875l7.25,1.125l7.375-4.5
			l5.625-9.125l4.125-6.625l4.625-0.625l5.25-2.125l4.625-4.25l0.75,1l-4.25,5.625l1.375,3.75l1.375,3l-0.5,4.25l0.625,4.375
			l-3.75,6.5l-1.875,6.375l-0.875,4l1.875,8.625l0.25,4.375l2,2.375l7.125-1.75l4.25,3.375v4.125l-4.125,6.625l-0.75,3.125
			l-2.25-3.875l-1.625,2v3.5l-1.875-2.5h-1.625l-0.375-1.625l2.5-1.25l-2.75-2.75l-2.875,5.625l-0.75,1.875l0.375,2.625l-0.5,7.875
			l-3.75,0.25l-4-0.125l0.25,1.875l3,0.75l-0.125,1.5l-0.625,1.875l-3.125,2.5l-4.25-2.25v4.5l2.875,2.125l6-1.875l4.5-1.625
			c0,0,3.75,5.125,3.75,5.5s0.875,2.125,0.875,2.125l4.625-4.125l1.75,4l0.125,3.875l2.625,4.125l-1.875,7.375l-2.25,2.875
			l-0.5,2.75l-2.25-0.375v-2l-4.625-1.75l-2.875-0.75l-2.625-0.125l0.5-2.5l-4.875-4.25l-2.625-5.75l-2.5-3.875l-3.125,2.25
			l2.125,5.375l0.25,3.25l-4.875,3.125l1.375,1.625l-1.5,2.125c0,0,0.625,1.625,1.125,1.625h1.75l3.875,3.125h1.875l-3.5-4.25
			l1.75-1.125l3.75,1.75l3.125,5l-2.25,0.625l-5-0.5l-0.875,1.5l-3.625-1.125l-2.125,1.875l1.375,1l5.875,1.375h3.125l2.25,2.375
			l-0.875,2.5l0.625,1.25l-0.375,3.75l-2.375,4.125l5.5-1.25l1.875,0.875l-1.375,4.25l3.25-1.75l4.125-0.75l5.125,4.125l5.25-0.375
			l3-1.75l2.625-2.25l-2.5-2.125l3.25-2.125l2.875,2.875l1,1.625l-3.75,1.125l-1.5,3.25l-0.875,4.875l-4.375,3.75l-2.25,3.375
			l3,1.25l4-0.25l4.25,1l3.25,2l2.625,0.25c0,0-0.375-2.875-0.75-2.75s-1.375-0.375-1.375-0.375l2.125-1.875l1.5,0.5l2.625-4.625
			l10-1.125l5.25-5l3.875-0.375l2.625-3.125l-3.125-0.25l2.25-3.625l2.25,1.125l6.5-0.375l-4.5,1.5l2.125,1.75l2.375-0.5l2.5-2.125
			l1,5l1.5-2.375l3-0.5l-2-3.25l0.875-1.75l1.75-1.25l4.25,1.75v-2.875l-3-0.75l-1.25,0.25l0.125-3.5l4.125-0.75l-0.875,2l3,1.75
			l3.125,0.75l-2,3.25l2,2.625l1.75,3.125v1.5l-5.5-1.5l-3,3.875l-3.375-1.125l-1.75-1.75l-0.625,1.5l4.75,3.125l2.875,4.375
			l4.5-1.75l2.125,0.5l1.625-0.875l2.25,3.75l-2.625,2.5l1.25,2.25v3.875l7.5,5.25l3.75-0.375l5.25,3.75l0.75-3l0.875-2.75
			l-3.25-3.375l-2-1.25l-1.875,2.375l-2.5-1.625l-2-0.25l-5.5,0.625l0.625-4.75l2.125,1.125l0.875-3.875l4.25,4.125l4.375,0.75
			l7.125-3.875l0.625,2.375l2.625-3.625l7.75-1.75l4.625-3.125l15.375-2.75l2.625-0.875l6.5-6.5l6.875-6.25l5.375,0.75l7.25-5.375
			l15.5-4.5l11.125-1.25l1.75,3.875l2.375,5.5l1.125,6.125l5.5,3l10.625,1.25l3,3.625l9.5-7l5.375-3.75l10.25-5.875h-6.25
			l-3.375-1.875c0,0-4.75,8.25-3.125,3.5s3-7.5,3-8.375s-3.5-3.625-1.625-4.125s8.5-0.875,8.5-0.875l7.5,0.125l8.75,1.875h5.375
			v-10.875l4.625-5.375l3,4.25l8,4l9.25,2.375c0,0,7.75-2.125,8-1.625s5,6.875,5,6.875l2,2.125l-4.375,13.625l2.375,5.5l5.625,1.125
			l5,3.875l5.875,4.5l5.75,29l3.125,6.25l1.375,8.25l1.125,13.875l-7,5.125l-5.125,2.25c0,0-3.625,7.625-4,8s-1.5,3.75-1.5,3.75
			l6.75,2.75l3.125,4.5l-1.75,11.375c0,0,1.125,6.125,1.25,6.5s1.375,12,1.375,12l3.625,4l2.5,5.625l5.75,5.375l-4.125,2.375
			l1.875,4.125l-1.125,9.375l-6.875,2.875l-16,17.25l-8.875,12.375l0.75,7.5l0.25,7.125l2.5,2l0.5,3l-6.5-0.75l-6,12l-4.125,5.25
			l-0.125,5.625l3.875,3.5l0.75,3.125l4.125-0.25l1.75,3.875l5.5,1.375l1,2.625l2,0.625l-6.75,8.5l-4.75-1l-1.125,1.375
			l-2.625-0.375l-3,5.625l-2.75,2.375c0,0-0.125,4-0.375,4.5s-3.125,1.875-3.125,1.875l-2.25,8l-4,2.5l0.25,2.5l-3.875,7.375v2.25
			l-2,1.375l-0.875,1.875l-2.5-0.25l0.125,8.75l-3.875,3.875l-7.375-1.25l-2,3.875l-3.125,1.625l-2.125-1.125l-3.5,1.375h-2.25
			l4.25,7.375l3.25,0.625l1.375,3.75l3.625,0.125l-0.375,6.5l4,6.5l4.625,3l2.875,1.375l4.75,3l-1,5l2.875,3.5l-5.125,3l1.375,1.625
			l4.125,0.75l3.375,3.625l7.75,1.25l3.875,4.875l6.25-7.75l7.875,5.125l-6.375,1l-1.25,4l4.625,4.75l-1.25,6.625l-4.25,2.25
			l-1.25,9l2.5,5.5l8.625,8.75l4.375,3.5l-4.5,6l-7.875,5.125l-1.5,2l0.75,1.375l-1.5,5.625l3.25,1.5l-1.5,4.625l-2.125,1.125
			l2.25,4.75l4.25,2.875l4.75,2l2.125,4.625l1.125,9.875l-1.25,8.875l8.25-2.875h6.875l8.25-1.875l3-0.125l0.75-2.625l1.875,1
			l2.625-2.25l1.75,2l3.75-1.625l2.75,4.375l4,2.5c0,0,0.75-1.875,1.75-1.875s5.375,2.375,5.375,2.375l4.875,2l5.875-1.125
			l10.625-0.375l3.75-1.25c0,0-0.25-4,0-4.375s-1.75-6.75-1.75-6.75s2.875-1.5,3.875-1.375s6,2.75,6,2.75l3.25,4.125l-1.125,7.875
			l-6.25,1.5l0.75,6.75l-6.125,9.375l-4.375-3.875l-4.25,0.875l-5.125-1.375l-6.375-2.5l-4-1.875l-8.375,5.75l-3.5-4l-5.875,2.875
			l-1.625,2.375l-5.25,2.125l-4.75-2.625l-2.75,3l2.25,3.5l1.25,1.25l-0.75,2.75l1.25,2.5l3-1l1.875,1.875l4.375,2.25l2.5,4.625
			l-0.75,1l-4.625-4.375l-3.75-1.625l-3.625-1.125l-2.625,0.375l-0.125,2.25l2.875,2.25l3.25,2.5l0.5,4c0,0-1.625,1-2,0.75
			s-3-3.625-3.25-4s-3.875-4.375-3.875-4.375s-3.5-1.25-4-1.375s-2.875,0.25-2.875,0.25s-1.5,1-1.875,1s-5-2.875-5-2.875
			s-2.375-1.875-3.125-2s-2.5-3.125-2.5-3.125l3.5-0.875l-2.625-3.875l-2.25,3l-3.125,0.75l0.125,4.25l-0.125,3l-1.875,3.375
			l1.375,3.875l1.75,2.125l3.25,4.125l2.25,7.625l6.875,4.125l3.5,7.25l-1.75,3.5l-4.375,0.875l1.875-1.625l0.875-3l-3.875-1.5
			l-5.375,0.375l1.25,3.25l2.875,2.375l0.5,3.25l-4.125,2.625l-4.25,0.375l-2.5,0.25c0,0,0.375,1.25,0.75,1.25s6.75,1,6.75,1
			l4,2.125l5.625,4l5.625,4l2.25-1.125c0,0-2.5-3.125-2.875-3.125s-4.25-2.875-4.25-2.875l-4.875-3.625l-3.5,0.375l0.375-1.5
			c0,0-2.375,0.125-1.625-0.25s8.375-4.375,8.375-4.375l3.875-0.125l6.875,5.5l3.5,3.625c0,0,2.75,2.5,3.25,2.625
			s3.375-0.5,3.375-0.5l1,2l1.375,2.5l-0.625,3.5l0.125,3.875l4.125,3.25h5l-1,5.875l-5.5-2.875c0,0-3.875-4.125-4.375-4.125
			s-2.5,1.875-2.5,1.875v7.125l0.5,6l-4.75-3.75l-4.5-4l-2.375-2.625l-6.25,1.75l-6.625,2.75l3.125,1.625l-0.75,6.75l4.125,1.875
			l1.125-2l1.25-0.375l-0.375,2.875l3.125,2.125l0.125,1.125l-4.5,0.75l-1.375,2.25l-2.75,0.125l-1.75-1.75l0.75-1.875l-8.625-3.75
			l1.625,6.75l2.125,5.875l2.125,3.5l2.5,5.25l-0.75,2.375l-1.25,2.875l2.75,3.375l0.75,3.125l-5.5-3.125l-2.625-3.625
			c0,0-0.875,0.625-0.75,0s3.125-3.5-0.375-3.5s-5.125-0.375-5.125,0.5s-0.5,4.125-0.5,4.125l-1,0.625l0.25,2.875l-0.625,2.125
			c0,0-2.625-3.375-2.625-3.75s-2.25-5.375-2.25-5.375l-1.625-4.25l-1.25-0.25v-3.5l-4.25-0.25l-1,8.5l-4.75-1.25l-2-5.625
			l-2.125-3.25l0.875-4.125l1.125-2l-0.125-4.75l-4.375-4.625l-3-2.25l-0.875-3.375l-4-2l3-3.625l2-4.25l3.75-1.625l2.125,1.25
			l3.875-2.625l1.375-2.75l3.625,0.25l3.125,1.75l3.125,1.75l5.75,1.625l6.875,2.875l4.125,2.5l-0.875-2.875h7l0.125-3l-6.875-1.75
			l-3.125-2.625l-3-2.25l-0.75,2.375l-1.75-1.75c0,0-2.375-3.625-2.5-3.25s-1.375,3-1.375,3l-5.375-0.375c0,0-6.25-0.75-6.625-0.75
			s-3.25,1.75-3.25,1.75l-5,0.625c0,0-2.125-3.625-3.125-3.5s-4.625,3.75-4.625,3.75l-2.625-1.5l0.375-4.75l-4.25-5.875l-3.625-3.25
			l-0.125-1.75l0.125-2.5l5,1.875l3.75,0.375l-0.125-3.875l-3.875-1.625l-1.875-0.5l-2.375-0.25l-1.5,3.125l-5.75-8.125l-4.5-3
			l-3.5-6.625l-2.375-6.5l-2.5-5.75l-6.375-4.875l-7.25-4.125l-0.625-4.75l2.75,2.25l-0.375-6.375l-1-6.375l0.875-4.625
			l-0.125-1.375l1,0.375l-0.75-2.625l-0.625-12.25l1.875-4l-0.75-2.125l2.125-0.625l-0.125-8.25l-5.5-2l-6.125-3.375l-4-4l-4-3.875
			l-7.625-6.25l-12-9.5l-4.25-2l-4.625-1.625c0,0-3.75-2.875-4.25-2.875s-7.125-1.5-7.125-1.5l6.25-0.5l5.125,3.375l-4.75-6
			l-10.375-9.125l-9.125-3.125l-5-2.25l0.625,2l-3.5-1l-3.5,1.125l-2.75-4.25l-0.5-3.125l-7.125-4.875l-3.875-3.375l-6.25-8.25
			l2-2.5h3.5l-8.375-9l-4.75-5.125l0.5-8.5l-3-5.125l-6-6.5l-4.25-0.875l-2.375,5.125l-2.5,7.125l-3.375,4.875l-5.625-5.625
			l-2-4.125l-2.25-8.625v-5.125l3.875-1.375l2-2.5l-3.75-3.125l-1.625-2.875l-2.375,3.5l-7.125-2.75l-1.875,3.125v3l-4.75,0.375
			l-6.5,3.875l-10.125,3.25l0.5,1.625l-3.75,0.375l5.5,3.125l1.375,5.375l3.125,3.5l-2.375,4.375l-3.75,0.5l0.625,6.125l1.75,7.75
			l1.75,7l5.875,4.25l9.125,7.375l9.5,7.625l3.875,0.25l1.875,4v3.25l1.75,1.625l2,3.625l1.5,8.625l1.5,5.75l2.625,5.875l6.125,7
			l6.5,5.375l1.625,1l2.25,3.25l4.25,2.5l5.25,3l6.625,0.375l12.125-1.5h4.375l2.125,3.125c0,0-1.75,3-2.125,3.375
			s-4.125,3.875-4.125,3.875l-1,4.375l2.375,3.25l2.375-0.25l12.5,5.75l6.25,2.625l7.875,3.375l4.75,5l5.5,3.25l5.875,2.625l3,1.875
			l1.125,2l7.375,5.75l2.625,6.875l-2.125,4.375l-0.75,6.25l-8.875-3.875l-1.375-8.625l-3.375-2.625l-7.5-0.375l-7-3.75
			c0,0,3.125-2.125,1.625-2.125s-6.5-0.25-6.5-0.25l-4.125,5l-3,5.375l-2.25,6.125l-0.875,4.25l-0.25,5.25l4.375,0.25l4.375,3.125
			l4.875,3.75v5.625l0.625,8.75l-3.875,1l-5.5,2l-4.25,1.25l-0.125,5l0.875,6.75l-5.75,4.25l-3.125,3.875l-2,6l-6,1.5l-5.5-0.875
			v-8.125l3.75-1.625l2.75-6.75l-2.875-4.125l4.5-2.625c0,0,4.375-0.125,4.375-0.75s-0.75-5.375-0.75-5.375l-2.25-6.875l-2.25-9.625
			l-3.75-7.5l-1.5-8.375c0,0-3.375-3.375-3.75-3.375s-4.25,1.875-4.25,1.875l-10.875-7.125l0.5-4.5l-5-9.125l-10.25,3.125
			l2.75-5.125l-5-3.25c0,0-2,2.25-2.875,2s-2.5-1.375-2.5-1.375l-3.125-7.75l-4.125-5.25l-4.75,0.375l-4.625-2.875l-5.5,1.75
			l-5.25-5.625l-5.25-0.5l-6.875-8.625l-3.25-2l-2-3.5l-5.875-4.25l-3.625-3.5l-9.125-8.875l-6.125,0.75l2.25-3.75l-6.375-8.125
			h-3.25l-0.625-4.75l-6.5-1.375l1.25-6.5l-1.25-6.375l-5.125-5.125l-0.5-8l-1.75-4.75l-3.125-4.75l-4.75-1.5l-5.375-3.625
			l-8.375-4.25l-3.75-2.125l-8.25-1.25l-5.875,3.375l-2,3.5l-3.875,1.5l-2.625,5.5l-4.25,5.125l-5.75,0.75l-6.375,2.5l-6.75,3.25
			l-2.625,4.375l-2.75-1.125l-0.875,3.875l-4.25,0.375l-3.125,4.625l1.625,0.75l-2.25,2.75h-3.75l-2.25,1.625l-3.125,0.625
			l-3.375,0.75h-5.125l-2.5-2.25l-4.375-2.125l-4.25-0.375c0,0-0.25-3.5-0.75-3.5s-4.625,0.25-4.625,0.25l-5.125-1.125l0.25-2.125
			l-2.125,0.5v2.25l-2.625-1.125l-0.5-1.875l-1.625,3l-2.125-1.375l1-3l-3.625-0.375h-5.625h-2l-2.875-3.875l-5,3.625l-0.25,1.875
			l-3.125,1.625l-1-2.375l-2.75,2.375l0.375,1.625l-2.75,1l-4.125,3.25l-3.125,4.5l-2.5,6.5l0.375,6.75l1,3.5l2.625,3.5l0.5,3.25
			l1.875,0.125l0.375,2.25l-3.625,1.125l0.375,3.75l1,5.625l-6.875,6.625l-9.625,5.75l-5.375,3.625l-6,4.75l-7.5,2.25l-10.625,3.5
			l-5.5,2.375l-7.875,7.5l2.375,1.5l0.5,1.375l-6.5,3.625l-6.875,11.125l-8.125,14.375l-4.25,6v3.375l-0.5,4.375l0.5,2.5l1.5,4.5
			l2.75,5.125l4.625,1.75l2.875,3.5l-7.375,4.375l-8.25,6.625l-3.125,6.125l-2.375,5.375l-2,5.75l-2.25,3.5l2.75,1.875l-3.875,1.875
			l-7.625,1.125l-6.125,2.75l-7.125,5.75l-3.625,8.5l-5.125,7.5l-6.25-4l-11,4.125l-12.875-0.625l-15.875,0.25l-12.375,3.875
			l-2.5,2.75l-7.75,0.75l-6.5,3.875l-2.375,3.5l-2.875,2.75l-3.125,1l-7.625-0.625l-6.375-4.5l-1.375-7.75l-3-3.25l0.25-3.5
			l-3.5-6.625l-6.5-4.375l-10.625-2.375l-6.375,1.625l-7.25,5l-2.5,0.625l-6.125-3.25l-7.25-0.25L34.595,994.489z"/>
		<path clip-path="url(#SVGID_2_)" fill="none" stroke="#2E2D2D" stroke-miterlimit="10" d="M511.845,379.905l5.5,2.833l4.333,3
			l5.334-1.5h3.166l1-4.333h1.167v6.333l1,2.625l1.667-6.791l3.5-6.334l-4.5-1.333l1-2.667l2.333-0.666l1.167-3.834v-2.333h-2
			l2-3.167l3.833-1.166l2.333-1.667l0.834-2.833l-4.667-3.5l-0.667-1.834l3.334-5.666l6.166,1.333l1.334-3.5l-1.667-5.333
			l-0.167-5.334v-3.833h3.5l2,6l4.167,4.667v4.166l-1.833,2.667l1,6.667c0,0-3.334,0.5-3,1c0.333,0.5,5.5,0.666,5.5,0.666l3.5,0.834
			l3.333,1.5l8.5-3.834l7.5,0.834l3.333,0.666l4.167-5.833l-1.833-7l-1.667-5.833l5.833-7.167l3.334-2l1.5,1.667l2.833-0.834
			l-2.5-4.666l7-1h3.667h5.333h4.167l1.833-1.667l2.167,1l5.166,2.5l4.167-7.667l1.5-7c0,0,2.667-5.833,2.833-6.666
			c0.167-0.834,3.667-3,3.667-3v-6.834v-5.833l2.667-3.333h2l-3.5-6.167l2-4.333l3.5-5.834v-7.666v-4.334l1.5-5.833
			c0,0-3.5,0.833-3.5,0c0-0.833-1.834-3.667-1.834-3.667l1.167-1.166l1.5,3.333l2.667,0.167l1.666-5l-1.833-5.334
			c0,0-0.167-1.5,0.5-1.5h2.167v-5.166l-1.5-2h1.5l1.666,1.5v-3l-0.666-4.667l-2.334,1.833l-2.666-0.5l0.166-3.166l5.5-0.834v-1
			c0,0-3.666-5.666-4.166-5.666h-6h-6.334l0.5-2.834l12.667,2c0,0,3.167,0.667,3.333,0.667c0.167,0,1.334-1.167,1.334-1.167l1-1.5h3
			v-2.166l6-1l0.666-2.5l1,5c0,0,2.334,0,1.834-1.834c-0.5-1.833,1.333-7.833,1.333-7.833l3-0.667v-6.166c0,0-0.167-4.667,0-4
			c0.167,0.666,1.5,9.833,1.5,9.833l1,4.833l2.333-3.166l1-3.667c0,0,3,0,3.5-0.333c0.5-0.334,2-2,2-2l-4.833,0.666l3.5-4.166
			l3.167-0.167l2.666-3.333l-0.833-4.834h3.5h3.833l0.834-4.833l-5.334-1.167c0,0-5-2.833-3.333-3.833c1.667-1,5.333,0,5.333,0
			l3.334,3.667c0,0,1.166-0.334,0.833-1.5c-0.333-1.167-3.167-5-3.167-5l3.227-1.334l3.273-1.5c0,0,5.667-0.666,5.167-0.666
			s-4.5-3.834-4.5-3.834h3.5v-3.5l-0.833-2.666h1.864l-4.364-6.334l-2.334-7l-3.666-1.833l-2.334,1.167l-2.333-3.667l2.167-0.667
			l0.166-3.333l-0.333-5l-2.167-5l-0.833,7l-3.5-0.5l-3.833-5l-2.5-2.667v-3.666h-2.834l-4.5,3.833l-2-6.167l-7.833-1.666
			c0,0-2.5-1-1.5-1.667s2.667-2.333,2.667-2.333l-0.834-4l-0.166-2.834l-3.334-3.166l0.667-5l0.5-9.667l0.333-3.667l-2-3.5v-2.333
			c0-0.5,0.167-4.5,0.167-4.5l0.333-3.667l1.834-4.333c0,0-4-0.667-3.5-0.833c0.5-0.167,4.5,0,4.5,0l4.333,5l1.5-5.074l-3-1.926
			v-2.5l-1.333-4.334l1-5.166l2.5-6.334l4-6l-4-2l-2.167-3.5l-0.5-5.166l2.333,3.833l-0.666-3.833l-7.834-6.334
			c0,0-10.166-10-8.833-9.166c1.333,0.833,16.667,13,16.667,13l1.666-0.667l0.5,3.167l2.5,0.666l2.167-4l2.5,0.167l2.667-3.5
			l1.666-2l-2.5-2.667l1.5-4.216l3.834-1.284l3-3.666l-0.334-3l1.834,2.5l3.5-1.834l-1.5-4.166H440.845l-7,2.333h-5.667
			c0,0-2.333-1.833-3.333-2.333s-9.833,1.833-9.833,1.833l3,3l2.5,1.833l-3.5,1l-1.167,3.5l5.833,0.167l6.334-3h3.833l-6.833,3.167
			l1.5,1.833l4-1l9.5-2.833l3.166,2.666l-0.333,4.834l0.667,6.833l-3.834-12l-5.833,1.833l-5,1.167l0.667,2.833l-4.167-1
			l2.167,3.667l5.5-0.833l1.333,1.333l-4.667,1.833c0,0-3.166-1-3.666-1.333s-5-3.833-5.834-3.833c-0.833,0-2.5-1.334-3.166-1.167
			c-0.667,0.167-2.834,0.333-2.834,0.333v2.5c0,0-3.333-3.166-3.833-3.166s-4.333,3-4.333,3l-4.834-0.167l-2.833,1.5l0.833,2.333
			l7-0.666l-6,1.666l-5,1.667c0,0-0.166,2.333,0,2.5c0.167,0.167,4.5,0.5,4.5,0.5l9.667-3l3.333,0.833l3.167,4.5l-0.167,3
			c0,0,4.167,0.834,4.667,0.834s3,0.166,3,0.166s1.667,1.167,0,1.167c-1.667,0-6.667-0.333-6.667,0.167s-0.5,8.166-0.5,8.166h-2.666
			l2-5l-1-5.333l-4-6.5l-4.667,2.167l-2-0.5l-2.167,2.5l4.334,7.166l0.333,4l-5.333-9.666l-2.167-2.167l-8.167,7.167l2.167,2.5
			l4.833,3.5l1.167,1.5l-3.5-0.334l-2.5-1.666l-2.167,1.5l-0.833-5l-3.5,1l-6-0.667l-2,2l3.333,2l-1.333,3.167l-6.5-8.167l-2.333,1
			v3.5l3.333,0.833l1.833,1.834l-0.666,3.333l-3,1.833l-1.5-2.666l-2.334,0.166v2.334l2.5,1.666l14.667-0.166l6,0.666l-0.167,1
			h-5.833l1.333,2l5.167-0.333h3.333l5,0.333l1.5,1l2.667-2.333l2.833-0.833l2,1.5l-5.833,3.833l-5.833-1.667l-3.5,2.5l-4-3.166
			l-5.667,0.5l-1.833-3.667l-7.667,1.333l-0.833,3.5l-3.5,0.834l1.333,2.5l-3.667-0.334l-1.166,5.167l5.5,0.667l1,2.833l4.666-1.167
			l-3.5,2.834l-5.166-0.167l6.166,3l7.167-0.833l5.333,1l-5.666,1.166l-9.834,0.167l-3.666,2.167l-0.667,1.833l-2.167,0.333
			l0.834,2.334l2-0.167l5.166-2l3.334-0.667l-9.167,4.667v3l6.667,0.833l-5.667,1l3.167,3.167l4.5,1.833l9.5-5.166l5,1.333
			l6.833,1.833h4.167l2.5-5.166l2.333-4.5l-1.167,5.666l6,0.834l2.167,2.833l3.5-0.167l4.833-1.666l-0.833-6.167l1.133-2.267
			l0.867-1.733l3.833-5.333l1.334,1l-5.334,8.166v2.834l2.667,1l5.333-1.167l-0.5,2.333l-5,1.5l-2,2.667l-5.666-0.333l-2.334,2.333
			l3,3.833l0.167,4.667l-2.167-1.167l-2.666-5.666l-1.334-1.834l-1-0.166c0,0-0.5-3-1.666-3c-1.167,0-4.334-0.167-4.334-0.167
			s-0.333,2.333-0.833,2.5s-3.333,2.167-3.333,2.167l-5.5-2.334l-4.334-0.5h-3.833l-0.667,2l-2.333-1.5l-4.5,3.334l-3,0.833
			c0,0-4.5-2.667-5-2.667s-3.833,0.167-3.833,0.167l0.5,3.5l1.166,0.833l-1.5,3.834l0.5,2.833h3.334v0.833l3-2.5l3.333-1.166
			l-1.833,2.833l-1.667,2.833l1.167,1.834l1,2.666l-3.667-1.666l-5.167-3l-3-1.167l-1.5,2.167l1,3.666l3.667,4.5l4.333,4.167
			l0.334,5.5l-0.667,4l1.667,4.333l0.833,1.5c0,0,2.5,0.667,2.833,0c0.334-0.666,1.834-3.333,1.834-3.333l2.833-4
			c0,0-0.667,4-0.5,4.5c0.167,0.5,1.333,5.5,1.333,5.5l1.167,2.167v3.166l2.333,0.667l1.5-2.833l-0.166-4l1-2.334l2-3l1.833,0.667
			l1.333-5.5l7.334-3.167l4-2.333l2.833,0.667l4.333-4.75c0,0,0.667,2.083,1.167,2.25c0.5,0.166,1.833,0.666,1.833,0.666l-5.333,2.5
			l-3.167,2.834l-1.833,8.333c0,0-1.333,7-1.667,6.333c-0.333-0.666,1.167-13.666,1.167-13.666l0.5-2l-3,0.333
			c0,0-1.167,1.667-1.833,1.667c-0.667,0-2.834,0.333-2.834,0.333l-1,4.833l-3.333,3.667l2,1.667l-3,4.333l-3.167,4.333l-3.333,2
			l-2.167,3.834l2.834,3l0.166,1.166l2.5-3.166c0,0-1.166,3.166,0.5,2.666c1.667-0.5,3.167-2,3.167-2l2.833-1l0.834,0.334
			l-4.5,4.333l-3.667,0.333l-4,3.167v2l-4.5-3.167l-0.333,6.167l-1.5-2l0.833-4.333l-1.167-2.834l1.834-1.666l-1.667-5.584
			l-2.833-2.25l-1.5-0.5l0.333,4.334l1.5,4.166l1.333,4.167l-2.5,4.167l-2.166,3.166l-0.5,9.834l-0.667,7.333l1.667,0.833
			l1.333-0.833l0.167-7.833l2.5,1.833h3l2.333-5.333l0.667,5.5l1.833-2.167h3.5l-1-3.833l-2.5-0.5l0.833-1.5l2-0.334l-0.333-2.833
			c0,0,2.167-1,2,0.167l-0.167,1.166l4,1v0.834l-3.833,0.5l1.333,3.833l3.5,0.667l0.667,4.166l-2.333,2.667v2.5l-5,3.667l2.666,3.11
			l1.667,1.723l2.333,5l-5.166-4.167l-3,1.334l-2.5-2.5l0.333-4.167l1-1.667l-4-1.833l0.833,4l-0.833,5.667l-0.333,6.833
			l-1.167,5.667l5.5,6.333c0,0,7,5.667,7.5,6c0.5,0.333,6.667,4.5,6.667,4.5l6.666,4c0,0,1.667-2,2.167-2s1.167,1.167,1.167,1.167
			l-2,2.166l-2,2.834l2.333,2.833c0,0,2-1.167,2.333-1.833c0.334-0.667,1.167-1.5,1.167-1.5l1.667,3l3.5,0.666l-0.5,1.834l2.5,0.833
			l0.5-1.833l5.833-0.167l2.833,2.667l4.5-3l7-3.334l2.334,0.334l9.5-7.167l6.666-8.333l5-6l3.834-3l1.833-3.334l4.167-2.833v-3
			l-2.834-0.5l0.667-1.833l3.833,1.5l5.834-6.167v-4.5l1.833,1.833l2.167,3.5l4.333-3l1.5,0.667h2.167l0.333-1.667l1.333,0.667
			l-0.166-4.5l1.333-1l0.667,2l3.166-6.167l0.167-2.666l-1-1.834l-0.5-2.666l-2.667-3.834l1-1.5l-0.166-6.5l-3.667-3.666l2-0.667
			l2.167,2.167l0.833,7.833l2.333,0.333c0,0,1.334-1,1.334-1.666c0-0.667-1-6.167-1-6.167l-0.834-4.167l0.167-4.666h2.833v3.5
			l-0.5,4.333l0.5,4.667l1.334,7l-0.5,3.166l2.833,10.334l4,1.833l6,0.833l-1.667,4.667l-0.166,4.833c0,0-0.334,2.667-0.167,3.667
			c0.167,1,1.5,3.5,1.5,3.5l1.167,5.667c0,0,1.166,3,0.666,3.5s0.334,4.333,0.334,4.333l-1.167,3.167l4.333,3.5v1.666
			c0,0-0.166,3.667-0.166,4.167s1.333,6,1.333,6l1.5-1.5l2.5-1.333l0.667,1l-1,2.333l-2.167,2.667l1.5,3.666
			c0,0,2.667-2,2.667-2.666c0-0.667,0.5-3.5,0.833-4.667c0.333-1.167,2.667-3.167,2.667-3.167l-0.167,4.334l-2.167,6.333
			l-1.666,2.833l2.5,4.5l1.833,2.834l0.5,5.333l0.833,6.833l2.334,3.334c0,0-0.334-6.5,0.333-6.5c0.667,0,3,5.166,3,5.166
			l-0.667,4.334l0.5,3.333l2.334,3.667l3.333,8.666l2,1l3.167,3.667v3.667l3.5,3c0,0,3-1,3.166-0.5
			c0.167,0.5,1.167,7.166,1.167,7.166l-1.167,1.667l-5.833-0.333c0,0,0.167,3.166,0.833,3.5c0.667,0.333,4.167,4.166,4.167,4.166
			l-2.333,2.667l-5.834-3.167l4,8.667l-6.833-1.5l-6.333,0.5l-4.667,5.167l0.5,5.833l-2.333,4.667v1.666l-4.834-2v-5.666l0.334-3.5
			l-3.667,4l-2.833,4.5c0,0-1.167,1.666-1.834,2c-0.666,0.333-7.333-0.834-7.333-0.834l3.333,7.5v5.5v4c0,0,1.834,1.667,2,2.5
			c0.167,0.834,2.167,3.334,2.167,3.334l5.167,0.333l5.333,1.833l3.667,6l-0.5,3.167l-3-1l-0.5,2h-2.334l-1.5,1.833l-5.5-1.833
			l-5.5-2.333l-2.333,2.666l-0.333,3.167L511.845,379.905z"/>
		<path clip-path="url(#SVGID_2_)" fill="none" stroke="#2E2D2D" stroke-miterlimit="10" d="M100.22,406.989l-8.625,3.375v-6.5
			l-3.5-1l-1.125-2.625c0,0-4.625-6.542-5.25-6.333c-0.625,0.208-2.625,3.833-2.625,3.833v2.75c0,0,0,3-0.875,3
			s-2.375,1.125-2.375,1.125v2.625l-2.75-2.25l-2.25,0.75c0,0-3.375-2.625-4-2.875s-3.625-0.588-4.125-0.732
			c-0.5-0.143-0.5-1.393-1.5-2.643s-6.125-5.588-6.125-5.588l5.083-5.037c0,0,1.792,0.125,2.417,0s3-2.75,3-2.75h-3.75l-1.667-4.25
			l1.917-1.5l2.875,1.5l4.125-1.5l2.625-7.5l4.25-5.375"/>
		<polyline clip-path="url(#SVGID_2_)" fill="none" stroke="#2E2D2D" stroke-miterlimit="10" points="454.955,374.422 
			461.595,375.113 469.095,376.863 470.845,378.738 475.572,376.801 		"/>
		<path clip-path="url(#SVGID_2_)" fill="none" stroke="#2E2D2D" stroke-miterlimit="10" d="M515.465,191.701l4.13-1.713
			l1.875,3.375l1.25,4.25v3l2.875-0.75l2.75-5.181c0,0,1.125-4.194,1.375-4.694s1.25-6.25,1.25-6.25l-2-10.125l0.5-8l4.75-3.125
			l-2.75-7.25l3.307-2.25l4.943,0.625l5.5-7.625l3.125-5.25v-8.625l1.375-5.125l-2.625-9.25l-3.75-10l-3-8.25l9.375-1.875l1.5-2.375
			l3.625-9l0.625-4.5l-7.375-10.25h-3.25l-5.75-7.125l0.375-7.875l2.375-14.625l-0.5-10.75l-4.125-10l0.875-10.25l-0.625-6.875
			l1.75-3.487"/>
		<path clip-path="url(#SVGID_2_)" fill="none" stroke="#2E2D2D" stroke-miterlimit="10" d="M420.22,441.864l0.875,6.375l-2.125,10
			l-2.125,7.75l-7.125-1l1.375,3.375l-2.25,0.75l0.75,3.375h6.5l1.375,4.375l-0.875,5.125l-6.25,5.5l-4.625,6.25l-3.875,1.875
			h-5.625v1.625l-3.25-0.875l-1.625,2.375l2.125,4.25l1.875,1.625l2,7.25l-2.375,5.25l-0.5,4.875h1.25l-3.25,3.75l-2.375,1.625
			v1.875l2.75,0.875l1.25,1.625l-1.375,4.625l-0.125,0.875l-2.5,0.75h-4.5l-1.25-0.75v-3.875l2-3.875l2.25-5.5l-2.25-1.875
			l-2.75-1.375l-3.125-3.375l-4.25,0.25l-3.375,0.25l-3.75-6.25v-1.875l-3.5,3.75l-2.25-0.5l-0.625-3.25l-2.625,3.25l-2.75-0.125
			c0,0,0.75-2.25,0-2.25s-3.375,0.875-3.375,0.875v3.125l-3,0.5l-2.35,0.825l-2.9,3.925l-3.625,0.375l-3.125-0.5l-2.375-2.125
			l-2.375-0.625l-1.75,2l-1.875-2.5l-1.625-2.25"/>
		<path clip-path="url(#SVGID_2_)" fill="none" stroke="#2E2D2D" stroke-miterlimit="10" d="M392.595,537.239l2.5,3l1.875,2.75h2
			l-2.375,3.5l4.25,1.875l1.125,5.375l-3.625,2.625l-3.5,4.5h-1.375l-2.375-0.625l-4.75,6.917l-1,3.458l3.375,4.125l-0.25,4.875
			l-0.5,3.125h-2.625l-3.5,1.75h-2.75c0,0-1.625-2.75-2.25-3.25s-2.625-2.375-2.625-2.375l-4.75-5l-5.625-6.708l1.125-2.417
			l0.875-5.125l-2-0.25l-2.625,5.125c0,0-0.625,2.125-1.25,2.125s-9.375,1.375-9.375,1.375l-2.25-2.875l1.5-2.375l-2.25-1.875
			l1.375-4.625l-2.125-0.125l-3.125-3l-5.5,0.625l-1.75,0.125v-6.25l-8.875-1.375l-1.25-6.625l-3.5-3.625l-4.25,3.5l-4.875-3.5
			l-2.5-3.25l-0.875-6.875"/>
		<polyline clip-path="url(#SVGID_2_)" fill="none" stroke="#2E2D2D" stroke-miterlimit="10" points="395.673,559.799 
			395.673,564.738 397.595,568.613 401.095,571.863 401.97,574.863 401.97,580.238 401.97,585.488 398.095,584.488 394.97,585.488 
			392.095,586.113 387.97,582.738 		"/>
		<path clip-path="url(#SVGID_2_)" fill="none" stroke="#2E2D2D" stroke-miterlimit="10" d="M401.97,585.489l4,2.375l2.5,5.25
			l1.5,3.375h1.625l1.375-2.25l2.625,0.875l1.25,2.25h5.875l5.625-1.375l2.75,3.375l5.75,1.625h3.625l5,2.75l-3.75,4.875l-6.375,8
			l-0.875,5.875l-1.625,6.625c0,0-3.125,4.5-3.25,5.25s0.5,7.625,0.5,7.625l-1.375,5.75l2.375,4.75l-3.75,4.25l-4.25,1.625h-2.25
			c0,0-0.75-1.875-1.25-1.875s-5.5,0.375-5.5,0.375l-0.875,4.5h2.875l1.125,1.875l-7.875,8.75l-6.375,4l-1,5.5l-3.875,5
			l-3.125,2.625v4.25l1.767,2.945l1.233,2.055c0,0,2.375,2.5,1.875,2.5s-4.875,2.625-4.875,2.625l-3.75-1c0,0,3.625-2.375,3.75-2.75
			s1.125-2.125,1.125-2.125l3.375-1.375l3.5-2.25h4.375l3.75-0.375l0.125,3.375l1.875,1.5l-0.625,5l1.25,1.625l1.375,3.25
			l1.875,0.625l-0.625,2.375l-3.875,3.375v3.875l2.625,2.75l0.375,3l2.875,3.125l1.625,1.75l-1.625,2.125l0.625,1.875l-2.625,2.375
			l-4.5,2.5l-2.375-0.625l-2.125,2.5l1.375,1.75h1.75l0.125,2.875l2.875,1.75l2.375,2l1.375,3.5l-2.375,2.375l-1.5,3.75l0.75,2.5
			l-0.125,2.875l1.625,3.75l4.5,2.875l5.25,1l3.25,0.625l3.75-1.5l0.5,3l-3,4.375l-1.375,4.375l2.35,1.186"/>
		<path clip-path="url(#SVGID_2_)" fill="none" stroke="#2E2D2D" stroke-miterlimit="10" d="M207.776,796.691l2.069,3.172
			l3.125,0.625h3v6.875h1.125l1.875-2.875v2.875l5.25,1.375l7.5,0.625l0.625,3.125c0,0,2.25,3.125,3.25,3.125s7-1.5,7-1.5
			s5.875,4.5,6.375,4.5s5.375-1.5,5.375-1.5l2.125,2.125c0,0,1.875-1.625,2.5-1.625s4.75,0.75,5.125,0.625s2.875-5.5,2.875-5.5
			l6.5,2.125l4.125,2.75l4.25,0.375l2.25,2.5l8,2.75l5,5.125h3.625c0,0,5-2.625,5.125-2s0.875,2.25,2.25,2.625s4.375-0.5,5.125,0
			s5.5-2.625,5.5-2.625l5.88-0.16"/>
		<path clip-path="url(#SVGID_2_)" fill="none" stroke="#2E2D2D" stroke-miterlimit="10" d="M38.848,844.238l4.622-5l5.625-1.625
			l5.125-1.625l1.5,2.625l0.875,1.5l-2,3.25l2,2.75h2.125l2-3.25l1.875,3.25c0,0,3.125-1.5,3.625-1.5s5,1.5,5,1.5h5.625l2.875-3.75
			l12.625-0.125l1.5,1v5.625l0.75,2.375l5.625,0.75l1.5,2.125l-1.25,3.375l-1.75,3.5h-2.125l-2,3.5h-3.25l-3.875,6.5l-3.875,0.75
			l2.875,4.25l0.75,10.25l-0.125,4.625l1.125,1.875l-5,3.875l-1.125,3.75l3.25,2.5l-0.625,5.5l-2.875,6H70.284l4.186,4.375l2,6.125
			l2.125,5.25l4.75,3.125l-1,4.25l-4.5,4.875l-1.5,2.875l-1.125,5.75l1.125,3.5l4,5.75c0,0,3.75-2,3.75-1.375s-1.5,6-1.5,6h-4.5
			l-1.875,2.75c0,0-2.5,3.75-2.625,4.125s-2.75,7.25-2.75,7.25l1.125,7.375l1.461,3.339"/>
		<path clip-path="url(#SVGID_2_)" fill="none" stroke="#2E2D2D" stroke-miterlimit="10" d="M416.463,710.914l2.548,2.824
			l7.084-3.25l4.833-1.333l4,2.292c0,0,1.667,0.208,1.917,0c0.25-0.209,1.113-2.792,1.113-2.792s0.803,0.083,1.137,0
			c0.333-0.083,0.916-3.083,0.916-3.083s2.834-1.084,3.084-1.25c0.25-0.167,0-5.834,0-5.834l7-5.916l0.416,6.666l4.167,4.417
			c0,0,6.417,1.833,6,2.083c-0.417,0.25-2.25,2.917-2.25,2.917l2.27,1.25l0.397,4.833c0,0,2.666,0.417,2.916,0.334
			c0.25-0.084,1.584-3.334,1.334-3.334s-1.167-3.25-1.167-3.25s0.562-2.583,1.198-2.75c0.635-0.166,3.885-3.583,3.969-3.833
			c0.083-0.25,0.916-9.917,1.25-9.917c0.333,0,3.666-0.25,3.916-0.333s0.5,2.25,0.5,2.25l3.834,4.25l7.416-2.75l2.417,5.167
			l2.75,0.5l-0.75-3.167v-2.917l-0.083-1.333c0,0-1.917-0.25-1.917-0.583c0-0.334,1.417-5.167,1.417-5.167s2.666-1.583,2.916-1.583
			s1.584,3.166,1.584,3.166l4.333,0.167c0,0-1.667-4.417-1.667-4.667s1.667-6.916,1.667-6.916l-0.583-3.334l-2.5-0.75l-3.5,2.917
			l0.833,1.417h-3.083l-3.5-1.25c0,0-1.75-0.917-1.834-1.334c-0.083-0.416,0-1.75,0-1.75l-9.333-2l0.215-5.109l1.452-3.474
			l2.166-2.167l-0.833-2.583l-0.917-1.75"/>
		<path clip-path="url(#SVGID_2_)" fill="none" stroke="#2E2D2D" stroke-miterlimit="10" d="M430.798,652.825h1.463v2.664l3.5-1.917
			l5.25,0.585l5-1.835l4.334,1.083l3.625-2.333l-3.875-0.833l3.875-4.75l3.725,1.166c0,0,0.316,3.25,0.566,3.25s2-2.25,2-1.75
			s0.917,2.334,0.917,2.334h7.083"/>
		<path clip-path="url(#SVGID_2_)" fill="none" stroke="#2E2D2D" stroke-miterlimit="10" d="M498.928,678.739h4.333l1.5,1.833l1.5,1
			l4.084,0.5h2.083l2.5-5.083l2.583-2.833h7.334l3.416,0.416h4.334l7-3.583l-1.167,5.542l4.917,2.208l-1,2.75l3.833,3.25l7.833,2.25
			l12,2l10,1.333l-0.833,3.417l-3,0.333l-4.25,4.417l1.5,2.833c0,0,6.083,0.5,5.833,0.584c-0.25,0.083-4.416,6.416-4.416,6.416
			l4,1.167l-2.04,6.247"/>
		<path clip-path="url(#SVGID_2_)" fill="none" stroke="#2E2D2D" stroke-miterlimit="10" d="M618.178,957.822l-4.833,2.417
			l-0.834-2.917l-1.833,3.5l-2,0.667l-4.083-2.084l-3.5,1.5l-2.75,2.5l-5.334,1.334l-6.833-0.5c0,0-4.5,0.083-4.75,0.5
			c-0.25,0.416-3.5,2-3.917,2c-0.416,0-6.25-2.667-6.25-2.667s0.084-2-0.416-2.042c-0.5-0.041-3.084,0-3.084,0
			s-1.416-2.875-2.083-2.708c-0.667,0.167-3.917,0.833-4.083,1.083c-0.167,0.25,0.583,3,0,3.084
			c-0.584,0.083-2.834,1.333-3.334,1.333s-3.166-1-3.416-1.25s-1.5-3.583-1.5-3.583l-1.667,2.041l-3.167,0.792l-1.166,3.083
			c0,0-1.084,2.834-1.167,3.334c-0.083,0.5,0.417,3.5,0.417,3.5s2.5,3.083,2.75,3.25c0.25,0.166,2.5,2.333,2.5,2.333h4.916
			l5.167,2.833l5.583,2.917l5.667,3.917l3.667,2.75l3.25,1.833l6.75,0.333l2.166,1l3.25,4.584l2.084,3.25l6.166,1.666
			c0,0,6.167,1.084,6.417,1.084h2.75l0.083-5.167l3.584-5.333l-1.5-5l1.166-1.75l-4-1.25l-0.666-5.917l3-3.667l0.5-4.166
			l3.833-5.667l3.083-5.333l1.084-2.834L618.178,957.822z"/>
		<path clip-path="url(#SVGID_2_)" fill="none" stroke="#2E2D2D" stroke-miterlimit="10" d="M445.678,872.405l0.333,4.917h2.917
			l2.833,1.166l2.209-1.5l2.875-1.541c0,0,2.5-0.209,2.75-0.375c0.25-0.167,2.666-4.084,2.666-4.084l1.917-2.583
			c0,0,3.25,0.417,3.333,0c0.084-0.417,1-3.167,1-3.167h3.584l0.916,2.5c0,0,0.584,1.834,0.834,1.834s2.25-1.584,2.25-1.584
			l0.666,1.584c0,0,0.417,2.166,0.417,2.291s0.917,1.709,0.917,1.709v1.5l1.25,1.916l0.333,2.834c0,0,0.583,1.75,0.833,1.916
			c0.25,0.167,2.167,3.834,2.167,3.834l0.75,3.083l-2,3.583c0,0-2.5,2.5-2.583,3c-0.084,0.5,0.166,2.834,0.166,2.834l1.25,2.333
			l-0.166,4.167l0.083,6.916l-1.25,7.25l-1.25,7.417l-0.417,5.25l-1.75-0.75l-4.166-1.917l-3.417-0.083c0,0-0.833,0.917-1.167,0.917
			c-0.333,0-2.833-0.584-2.833-0.584l0.625,4.084c0,0-1.708,3.333-1.958,3.416c-0.25,0.084-3.084,1.584-3.084,1.584l-3.666-0.75
			l-1.5-1.084l-3.584-5.666l-1.833-2.75c0,0,1-1.417,1-1.667s-1.25-5-1.25-5l1.833-2.583l0.5-5.667l2.084-1.917l0.083-3.333
			l-3.583-0.75l0.833-4c0,0,1.417-0.083,1.417-0.583s-1-2-1-2l-0.417-6l-1.833-1.5l-0.084-4.834l-2.416-2.666l-2.084,0.25l0.5-1.5
			l-0.5-3.584v-5.083L445.678,872.405z"/>
		<path clip-path="url(#SVGID_2_)" fill="none" stroke="#2E2D2D" stroke-miterlimit="10" d="M469.595,859.739v-2l0.75-1.083v-3.084
			l2.667-0.75l1.25-10.916l1.166-3.667l1.334-0.583v-11.917l-1.834-5.667l-0.083-11.083l-3-0.917v9.917l-1.75,0.417l-1.333-0.917
			l-3.75,0.583v1.667l-4.25,0.917l-4,3.333l-0.667,2l-2.125,2.75v2.083l2.125,0.584l-2.125,2.166l0.375,3.25l2.75,1.167v1.917
			c0,0-2,2.25-2.5,2.666c-0.5,0.417,2.333,1.75,2.333,1.75l1.834,0.25l0.333,1.25l-2.167,1.75l0.25,1.5l3.5,1.417l0.5,1.333
			l-1.416,0.667l-1,1.167l1.916,2.583l3.417,1.083l3.417,2.417l1.833,0.75L469.595,859.739z"/>
		<polyline clip-path="url(#SVGID_2_)" fill="none" stroke="#2E2D2D" stroke-miterlimit="10" points="282.262,939.322 
			284.012,937.072 285.262,936.655 286.428,933.655 287.012,932.155 286.262,930.989 282.262,932.489 280.844,934.322 
			278.094,935.905 278.594,938.239 280.512,939.322 281.844,939.322 		"/>
		<path clip-path="url(#SVGID_2_)" fill="none" stroke="#2E2D2D" stroke-miterlimit="10" d="M322.762,926.072l1.667-1.083l2.5-2.917
			l0.833-3.333l1.833-1.917l1.334-1.833v-3.334c0,0-1.834-0.666-2.084-0.5c-0.25,0.167-1.416,1.334-2,1.334
			c-0.583,0-2.916-1.36-2.916-1.36l0.916-2.557c0,0-2-0.083-2.083-0.417c-0.083-0.333,0-2.166,0-2.166s-2.5,1-2.75,1.25
			s-3.917,1-3.917,1l-3.25,2.5l-1.333,1.416l-2.667,1.084l-2.25,1.833l-0.75,2.083l2.25,3.084l1.834-0.667c0,0,1.5-1.917,1.75-1.917
			s1.75,0.5,1.75,0.5l0.666,2.417l0.667,1.583c0,0,1.5,1,1.75,1.084c0.25,0.083,1.5,0.583,1.875,0.75
			c0.375,0.166,1.625,0.833,2.208,1.166C321.178,925.489,322.762,926.072,322.762,926.072z"/>
		<polygon clip-path="url(#SVGID_2_)" fill="none" stroke="#2E2D2D" stroke-miterlimit="10" points="341.345,905.572 
			341.345,901.739 347.262,902.072 348.762,903.155 349.928,905.572 351.428,906.905 351.428,909.072 349.595,909.072 
			346.928,907.239 343.928,906.572 341.345,906.405 		"/>
		<path clip-path="url(#SVGID_2_)" fill="none" stroke="#2E2D2D" stroke-miterlimit="10" d="M481.345,655.489l1.25-3.875l1.75,3.875
			h3.25v2.25h2.625l-0.875,4c0,0,1.25-0.5,1.625-0.625s2-0.875,2-0.875v4.25l5-4.625l0.958-6l2.042,0.75l1.5-0.75
			c0,0,1.875,1.25,2.25,1.625s4.25,0,4.25,0l1.625,3.125l3.125,0.75l5.875,0.25l1.5-0.5c0,0-0.875-3.5,0-3.625s3.75,0,3.75,0
			l2.25-2.875l6.625-1l6,0.875v-3.75l1.625-1.25l1.125,2.25l3.5,0.125c0,0-0.125,1.875,0.75,1.875s8-1.25,8-1.25l-1.125,3.625
			c0,0,5.5,4.125,5.625,3.625s1.875-7.25,1.875-7.25l-1.875-1.5l-2.625-0.125l1.875-4.75l-4.625-10l5.875-4.375l5.25-1.875
			c0,0,2.625-0.875,2.875-2.375s2.625-7.375,2.625-7.375h3.375l2.167,2.625l2.583-2.625v-9l-2.375-2.5h-1.5v-1.75h-4l-4-4.875
			l-2.75-0.875l-5.375-7.625l-4.375-1.75l-6.125-8.5l-3.125-5.125l3.125-6.25l-8-7V559.8l-2.5-3.686l0.25-2l2.5,1.625
			c0,0,2.375,5.621,2.375,4.061c0-1.561,3.875-7.186,3.875-7.186l5.25-1l4.125-2.75l2,1.375l2.125-4.125c0,0,3.375-0.25,4.125,0
			s4-3.5,4-3.5s1.25,1.125,1.625,0.625s3.375-4.375,3.375-4.375h6.375l3.375-3.75l8.25-1.875c0,0-2.5-3.25-1.875-4.75
			s0.875-2.625,0.875-2.625s1.125,1.375,1.625,1.375s3.25-0.375,3.25-0.375s1.375,1,1.125,2.25s-0.814,3.125,0.03,2.875
			c0.845-0.25,1.97-1.125,1.97-1.125l-0.875,2.75c0,0,1.75,0.5,2.375,0.5s3.25-1.75,3.25-1.75l2-6.5l2.125-6.75l-1.125-7.5l-5.125-3
			l-1.25-7.5c0,0-2.25-3.125-2.375-3.5s2.75-8.375,2.75-8.375l-0.625-3.375l0.125-5.25l-3.875-2.25l2.25-9l-10-10.25l-1.625-4.375
			l1.25-2.75l4.125-3.375l0.875-6.75l-0.25-6.5l-2-10.75l-0.766-2.411"/>
		<path clip-path="url(#SVGID_2_)" fill="none" stroke="#2E2D2D" stroke-miterlimit="10" d="M601.498,533.286l3.972,0.577l1.625-3.5
			l1.375-2.125l2.5,0.625l2.75,1l1.625,7.375l2.5-1.125l2,1.125l2.625,0.875h3.75v1.375c0,0,3.125-0.25,3.5,0.625
			s0.875,3.75,0.875,3.75l3.625-1.875h5.375l1.25,2.875l-5.25,5.625l1.375,1.625h1.875l5.125,6.875l4.125,4c0,0,3.125-4.531,4-4.703
			s3,0,3,0l-3.25-9.047l7.25,1.75c0,0-0.75,3,0,3s3.375-0.375,3.5,0.125s0,2.125,0,2.125h4.25l2.75-0.5v-1.875l1.75,2.5l-1.5,2.625
			v2.25l4.75,5.5l4.625-0.75c0,0-0.125-2.75,0-2.25s6,5.375,6,5.375s3.625-0.625,4.25-0.625s3.125,1.625,3.125,1.625v5.5l5,3.125
			c0,0-0.875,3.5-0.875,3.875s1.5,2,1.5,2h2.875l0.875,3h5c0,0-0.25-3.5,0.625-3.875s2-0.5,2.75-0.875s2.25-2.875,2.25-2.875
			l2.125,4.5c0,0,1.625,1,2.125,1s0.5,2.125,0.5,2.125s3.25-0.75,3.25,0.75v6.125h-1h4.875l3.375,1.5l1.25-4.5l4-1l1.5-3.25
			c0,0,4.25,2,5,1.875s4.375-0.75,4.375-0.75l3,2.75l4-1.875v-1.875l2.875,0.25l2.875-1.125l1.25,1.125l6-1.375l3.875,3.375
			l1.25-0.625l3.5,1.875v3.5l14.5,6.125"/>
		<path clip-path="url(#SVGID_2_)" fill="none" stroke="#2E2D2D" stroke-miterlimit="10" d="M578.595,611.364l4.375,2.375v3.375
			l6.625,1.75l4-3.75l6.75,1.25l1.75-5.75h3.25l0.75-8.875l3.25,0.625c0,0,0.875,0.375,0.875,0.75v1.625h2.5l1-2.125l9,4.125
			l1.625,0.875l2.875-0.375l6.75,4.375l2.5,0.375h3.125l5-2.25l2.375,1.375c0,0-1.125,1.25,0,1.25s4.125,0.375,4.125,0.375
			l1.25,3.375l3.625-3.625l3.25-4.75l5.375,1.625l6.25-3.375l4.5-0.125v-4.125l4.375-1.25l1.75-8c0,0,4.25-1,4.625-1.375
			s2.5-3.25,2.5-3.25l2.5-2.75l7.125-0.5"/>
		<path clip-path="url(#SVGID_2_)" fill="none" stroke="#2E2D2D" stroke-miterlimit="10" d="M652.345,616.114l-1.75,4.25v4.125
			l4.375,8.25l1.5,5.25l6,1.5l7.25,5.125l3.25,2.5c0,0,9.125-0.25,10.625,0s11.75,0,11.75,0l2.875-10.5l13.375-1
			c0,0,1.125-2.75,1.625-3.25s4.125-2.375,4.125-2.375l6,3.625l7.125-4.375h3.625l5.75-10.375l6.375-1c0,0,6,2.625,6.625,2.625
			s7.5-2.75,7.5-2.75l6.25,7.125l11.036-0.79"/>
		<path clip-path="url(#SVGID_2_)" fill="none" stroke="#2E2D2D" stroke-miterlimit="10" d="M576.011,690.322l5.458,0.917
			l5.25,2.123l6.625,0.877l3.5,1.125l7.875-8.5c0,0,0.5,1.125,1.625,0.75s1.25-1.364,2.375-1.62c1.125-0.255,8.375-0.63,8.375-0.63
			l1.75,2.375c0,0,3.25-3,3.625-3.375s8,0,8,0l1.375,1.63l-1.25-6.88h4h3.813l0.687,4l1.25,1.5v2l1.5,2.875l3.75,2.5l4.125,3.375
			l3.75,5.875l4.125,1.375c0,0,2,3.5,2.25,3.875s4,3.375,4,3.375s3,0.25,3.25,0.625s7.125,5.247,7.125,5.247l12,1.878
			c0,0,3.25-2.131,3.625-1.878s4.452-3.622,4.452-3.622l4.423,0.625v2.344l1.625,1.781c0,0-0.125,1.5,0,2.125s0,3.375,0,3.375
			l3.75,3c0,0-2.875,2.125-2.875,2.875s2.875,3.125,2.875,3.125l6.625,3.75h-4.375l-0.25,2.875h-2.5c0,0,0.625,3.875,0.5,4.5
			s1.75,2.875,1.75,2.875l4.875,0.875l-0.75,5.5l-4.625,5.875l-0.875,4.125l4.375,5.5l6.5,5.25v2.875c0,0-0.75,1.5-1.375,1.75
			s-6.625-2.25-6.625-2.25l3.75,5.5l1.875,4.5v5.125h-1.25l-2.5-1.75c0,0-1,2.5-1,2.875s5.5,8.625,5.5,8.625l8.125,4.875l4,0.875
			l3.875,3.625l4.875,3.5l-3.5,1.25l-0.875,3.125l-4.125-1.375l0.625,3.625l1,3.625l4.125,7.25l5.375,3.375l2.125,7.625l-1.375,9.5
			l1.375,2.75l-3.125,3.25l2.5,3.75l-1.375,3.875l2,6h2.875v4.75l3.625-0.625l3.875,3.625l7.5-2l5.5,0.875l3.75-1.875l1.875-0.125
			l5.5-6.75h3.375c0,0,1.25-1,1.875-1s6.5,1.625,6.5,1.625l3-1.75c0,0,1.625,2.125,1.875,1.375s1.375-6.375,1.375-6.375l4.011-0.089
			"/>
		<polyline clip-path="url(#SVGID_2_)" fill="none" stroke="#2E2D2D" stroke-miterlimit="10" points="749.72,877.989 
			749.72,881.364 749.72,885.114 747.345,889.739 744.22,890.989 742.47,896.739 741.22,901.364 735.345,901.364 733.595,903.239 
			733.595,906.364 735.345,908.989 734.47,910.614 732.095,909.114 732.095,914.114 727.655,913.672 		"/>
		<polyline clip-path="url(#SVGID_2_)" fill="none" stroke="#2E2D2D" stroke-miterlimit="10" points="739.226,841.935 
			742.345,843.988 743.22,838.613 751.845,834.738 755.095,837.238 756.595,837.238 759.595,832.988 762.72,831.863 762.72,828.613 
			765.095,828.613 		"/>
		<path clip-path="url(#SVGID_2_)" fill="none" stroke="#2E2D2D" stroke-miterlimit="10" d="M762.72,831.864l3.125,1.5l2-1.5
			c0,0,1.25-1.75,1.75-1.625s3.375,0.5,3.75,0.5s3,0.25,3.5,0.25s4.25-2.375,4.25-2.375l2.622,3.883"/>
		<path clip-path="url(#SVGID_2_)" fill="none" stroke="#2E2D2D" stroke-miterlimit="10" d="M710.595,843.239v-4.375l-1.375-4.75
			l4.125-6.625l5.75-7.875c0,0,2.375,5.75,2.75,5.75s6.32-1.719,6.32-1.719"/>
		<polyline clip-path="url(#SVGID_2_)" fill="none" stroke="#2E2D2D" stroke-miterlimit="10" points="690.645,828.614 
			689.095,824.739 686.845,821.989 690.645,821.989 691.345,818.864 689.095,814.364 691.345,811.739 693.47,808.239 
			693.47,802.114 698.47,797.989 700.97,799.114 703.345,798.989 701.47,794.739 706.22,791.364 708.859,789.167 		"/>
		<path clip-path="url(#SVGID_2_)" fill="none" stroke="#2E2D2D" stroke-miterlimit="10" d="M686.845,821.989l-7.375-4.5l-5.75-4.75
			l-5.75-8.125l-5-4.5c0,0-1.625-6.625-2-6.75s-8.5-6.5-8.5-6.5l-8.75-9.5l-8.75-8.375l-0.75-5.375l-2.75-6.5v-3
			c0,0-3.5-2-4.125-2.125s-4.75-3.25-4.75-3.25l2.375-1.5l-0.375-8.5c0,0,1.75-3.125,2.125-3.25s2.75,0.375,3.125,0s4,3,4,3
			l3.625,3.875l5.125-6.904c0,0,8-0.154,8.375,0c0.375,0.154,2.25-1.721,2.25-1.721s3,2.625,3.625,2.875s4.5-1.375,4.5-1.375
			s5.375,3.375,5.75,3.375s3.375-0.25,3.375-0.25s1.125,2.125,3,1.875s5.5-3,5.5-3l2.625,2.25l2-1.5l6.125,2.625l3.375-1l1.5-0.125
			l2.125,2.875v3l3.875,1.5l2.875-0.125l1.49-2.527"/>
		<path clip-path="url(#SVGID_2_)" fill="none" stroke="#2E2D2D" stroke-miterlimit="10" d="M572.095,726.739l5,0.75l5.5-0.375
			l0.625-2l7.375,1.188l3.875-2.063l1.625-4.5l3.875,5.625l3.25,0.875l2.75-1.25c0,0,6,2.125,6.625,2.5s3-1.375,3-1.375l-2.625-4
			l2.625-1.75l-2.875-1.75l5.125-3.531l4.75-1.969v-6.5l-0.875-6.125l2.75-0.625c0,0,2.75-1.625,3.25-1.625s4.25-0.875,4.25-0.875
			v-2.875l6.438,0.875l-1.938-4.625h1.938l4.158-0.769"/>
		<path clip-path="url(#SVGID_2_)" fill="none" stroke="#2E2D2D" stroke-miterlimit="10" d="M633.72,678.364l2.75-3.875h4.5v-1.625
			l1.596,0.75l-1.596-1.625l1.596-1c0,0-1.471-0.75-1.096-1s1.096-1.5,1.096-1.5l-2.971-2.625l2.125-1.375l-0.375-5.25l4.375-1
			l0.875-3.375c0,0-0.625-3-1.25-3s-5.188-1.125-5.188-1.125l2.409-3.514h4.529l0.875,2.389l2.625-1.625c0,0-0.5,1.25,0.875,1.375
			s6-0.375,6-0.375l-3.25-5.625l3.25-2.5l-1-2.875"/>
	</g>
</g>
<g id="dot">
	<circle fill="#FFDE01" cx="194" cy="455.37" r="8"/>
</g>
</svg>
