<?xml version="1.0" encoding="utf-8"?>
<!-- Generator: Adobe Illustrator 19.1.0, SVG Export Plug-In . SVG Version: 6.00 Build 0)  -->
<!DOCTYPE svg PUBLIC "-//W3C//DTD SVG 1.1//EN" "http://www.w3.org/Graphics/SVG/1.1/DTD/svg11.dtd">
<svg version="1.1" id="Calque_1" xmlns="http://www.w3.org/2000/svg" xmlns:xlink="http://www.w3.org/1999/xlink" x="0px" y="0px"
	 viewBox="-829 1098.8 48.8 61.9" style="enable-background:new -829 1098.8 48.8 61.9;" xml:space="preserve">
<g>
	<polygon points="-3311.9,4460.5 -3314.4,4460.5 -3314.4,4434.1 -3293.4,4434.1 -3283.1,4444.4 -3283.1,4460.5 -3285.6,4460.5 
		-3285.6,4445.4 -3294.5,4436.6 -3311.9,4436.6 	"/>
	<polygon points="-3284.4,4446.2 -3295.2,4446.2 -3295.2,4435.3 -3292.7,4435.3 -3292.7,4443.7 -3284.4,4443.7 	"/>
	<polygon points="-3298.7,4472.7 -3315.8,4460.3 -3314.3,4458.2 -3298.7,4469.6 -3283.2,4458.2 -3281.7,4460.3 	"/>
	<polygon points="-3281.2,4483.4 -3316.3,4483.4 -3316.3,4458.6 -3313.9,4456.8 -3312.3,4458.8 -3313.8,4459.9 -3313.8,4480.9 
		-3283.8,4480.9 -3283.8,4459.9 -3285.2,4458.8 -3283.6,4456.8 -3281.2,4458.6 	"/>
	<polygon points="-3289.5,4451.7 -3308.1,4451.7 -3308.1,4449.2 -3289.5,4449.2 	"/>
	<polygon points="-3289.5,4465.7 -3308.1,4465.7 -3308.1,4463.1 -3289.5,4463.1 	"/>
	<polygon points="-3294.5,4458.7 -3308.1,4458.7 -3308.1,4456.1 -3294.5,4456.1 	"/>
</g>
<g>
	<polygon points="-2481.6,3351.6 -2484.1,3351.6 -2484.1,3325 -2463.1,3325 -2452.7,3335.3 -2452.7,3351.6 -2455.2,3351.6 
		-2455.2,3336.4 -2464.1,3327.5 -2481.6,3327.5 	"/>
	<polygon points="-2454,3337.2 -2464.8,3337.2 -2464.8,3326.2 -2462.3,3326.2 -2462.3,3334.6 -2454,3334.6 	"/>
	<polygon points="-2468.4,3363.8 -2485.5,3351.3 -2484,3349.3 -2468.4,3360.7 -2452.8,3349.3 -2451.3,3351.3 	"/>
	<polygon points="-2450.8,3374.6 -2486.1,3374.6 -2486.1,3349.7 -2483.7,3347.8 -2482.1,3349.8 -2483.5,3350.9 -2483.5,3372 
		-2453.3,3372 -2453.3,3350.9 -2454.8,3349.8 -2453.2,3347.8 -2450.8,3349.7 	"/>
	<polygon points="-2459.1,3342.7 -2477.8,3342.7 -2477.8,3340.1 -2459.1,3340.1 	"/>
	<polygon points="-2459.1,3356.7 -2477.8,3356.7 -2477.8,3354.2 -2459.1,3354.2 	"/>
	<polygon points="-2464.1,3349.7 -2477.8,3349.7 -2477.8,3347.1 -2464.1,3347.1 	"/>
</g>
<g>
	<polygon points="-1651.3,2241.6 -1654,2241.6 -1654,2213.5 -1631.7,2213.5 -1620.8,2224.4 -1620.8,2241.6 -1623.5,2241.6 
		-1623.5,2225.5 -1632.9,2216.1 -1651.3,2216.1 	"/>
	<polygon points="-1622.1,2226.4 -1633.6,2226.4 -1633.6,2214.8 -1630.9,2214.8 -1630.9,2223.7 -1622.1,2223.7 	"/>
	<polygon points="-1637.4,2254.5 -1655.5,2241.3 -1653.9,2239.1 -1637.4,2251.2 -1620.9,2239.1 -1619.3,2241.3 	"/>
	<polygon points="-1618.8,2265.9 -1656,2265.9 -1656,2239.6 -1653.5,2237.6 -1651.8,2239.7 -1653.4,2240.9 -1653.4,2263.2 
		-1621.5,2263.2 -1621.5,2240.9 -1623,2239.7 -1621.3,2237.6 -1618.8,2239.6 	"/>
	<polygon points="-1627.5,2232.2 -1647.3,2232.2 -1647.3,2229.5 -1627.5,2229.5 	"/>
	<polygon points="-1627.5,2247 -1647.3,2247 -1647.3,2244.4 -1627.5,2244.4 	"/>
	<polygon points="-1632.8,2239.6 -1647.3,2239.6 -1647.3,2236.9 -1632.8,2236.9 	"/>
</g>
<g>
	<polygon points="-820.5,1131.7 -823.6,1131.7 -823.6,1099.4 -798,1099.4 -785.4,1112 -785.4,1131.7 -788.5,1131.7 -788.5,1113.3 
		-799.3,1102.5 -820.5,1102.5 -820.5,1131.7 	"/>
	<polygon points="-787,1114.2 -800.2,1114.2 -800.2,1100.9 -797.1,1100.9 -797.1,1111.1 -787,1111.1 -787,1114.2 	"/>
	<polygon points="-804.5,1146.6 -825.3,1131.4 -823.5,1128.9 -804.5,1142.7 -785.6,1128.9 -783.8,1131.4 -804.5,1146.6 	"/>
	<polygon points="-783.1,1159.6 -826,1159.6 -826,1129.4 -823,1127.1 -821.1,1129.5 -822.9,1130.9 -822.9,1156.5 -786.2,1156.5 
		-786.2,1130.9 -788,1129.5 -786.1,1127.1 -783.1,1129.4 -783.1,1159.6 	"/>
	<polygon points="-793.2,1120.9 -815.9,1120.9 -815.9,1117.8 -793.2,1117.8 -793.2,1120.9 	"/>
	<polygon points="-793.2,1138 -815.9,1138 -815.9,1134.9 -793.2,1134.9 -793.2,1138 	"/>
	<polygon points="-799.3,1129.4 -815.9,1129.4 -815.9,1126.3 -799.3,1126.3 -799.3,1129.4 	"/>
</g>
</svg>
