<?xml version="1.0" encoding="utf-8"?>
<!-- Generator: Adobe Illustrator 17.0.0, SVG Export Plug-In . SVG Version: 6.00 Build 0)  -->
<!DOCTYPE svg PUBLIC "-//W3C//DTD SVG 1.1//EN" "http://www.w3.org/Graphics/SVG/1.1/DTD/svg11.dtd">
<svg version="1.1" id="Calque_1" xmlns="http://www.w3.org/2000/svg" xmlns:xlink="http://www.w3.org/1999/xlink" x="0px" y="0px"
	 width="400px" height="400px" viewBox="0 0 400 400" enable-background="new 0 0 400 400" xml:space="preserve">
<g>
	<g>
		<g>
			<defs>
				<rect id="SVGID_1_" width="400" height="400"/>
			</defs>
			<clipPath id="SVGID_2_">
				<use xlink:href="#SVGID_1_"  overflow="visible"/>
			</clipPath>
			<g clip-path="url(#SVGID_2_)">
				<g>
					<defs>
						<rect id="SVGID_3_" width="400" height="400"/>
					</defs>
					<defs>
						<rect id="SVGID_4_" width="400" height="400"/>
					</defs>
					<clipPath id="SVGID_5_">
						<use xlink:href="#SVGID_3_"  overflow="visible"/>
					</clipPath>
					<clipPath id="SVGID_6_" clip-path="url(#SVGID_5_)">
						<use xlink:href="#SVGID_4_"  overflow="visible"/>
					</clipPath>
					<path clip-path="url(#SVGID_6_)" fill="#FAD211" d="M282.609,119.526c-1.933,0-3.5-1.567-3.5-3.5
						c0-17.329-14.098-31.427-31.427-31.427c-1.932,0-3.5-1.567-3.5-3.5s1.568-3.5,3.5-3.5c21.189,0,38.427,17.238,38.427,38.427
						C286.109,117.959,284.542,119.526,282.609,119.526"/>
					<g clip-path="url(#SVGID_6_)">
						<g>
							<g opacity="0.05">
								<defs>
									<rect id="SVGID_7_" x="65.842" y="69.384" opacity="0.05" width="136.035" height="191.954"/>
								</defs>
								<clipPath id="SVGID_8_">
									<use xlink:href="#SVGID_7_"  overflow="visible"/>
								</clipPath>
								<g clip-path="url(#SVGID_8_)">
									<g>
										<defs>
											<polygon id="SVGID_9_" points="156.537,69.384 65.848,69.394 65.842,261.338 201.869,261.33 201.877,114.725 											
												"/>
										</defs>
										<clipPath id="SVGID_10_">
											<use xlink:href="#SVGID_9_"  overflow="visible"/>
										</clipPath>
										
											<linearGradient id="SVGID_11_" gradientUnits="userSpaceOnUse" x1="99.5102" y1="-98.9659" x2="100.5102" y2="-98.9659" gradientTransform="matrix(0 -197.5241 197.5241 0 19682.0098 19986.6719)">
											<stop  offset="0" style="stop-color:#FFFFFF"/>
											<stop  offset="1" style="stop-color:#231F20"/>
										</linearGradient>
										<rect x="65.842" y="69.384" clip-path="url(#SVGID_10_)" fill="url(#SVGID_11_)" width="136.035" height="191.954"/>
									</g>
								</g>
							</g>
							<g>
								<defs>
									<rect id="SVGID_12_" width="400" height="400"/>
								</defs>
								<defs>
									<rect id="SVGID_13_" width="400" height="400"/>
								</defs>
								<defs>
									<rect id="SVGID_14_" width="400" height="400"/>
								</defs>
								<clipPath id="SVGID_15_">
									<use xlink:href="#SVGID_12_"  overflow="visible"/>
								</clipPath>
								<clipPath id="SVGID_16_" clip-path="url(#SVGID_15_)">
									<use xlink:href="#SVGID_13_"  overflow="visible"/>
								</clipPath>
								<clipPath id="SVGID_17_" clip-path="url(#SVGID_16_)">
									<use xlink:href="#SVGID_14_"  overflow="visible"/>
								</clipPath>
								<polygon clip-path="url(#SVGID_17_)" fill="#FFFFFF" points="166.537,59.384 75.848,59.394 75.842,251.338 211.869,251.33 
									211.877,104.725 								"/>
								<polygon clip-path="url(#SVGID_17_)" fill="#FAD211" points="166.537,104.724 211.877,104.725 166.537,59.384 								"/>
								<g id="figure" clip-path="url(#SVGID_17_)">
									<g>
										<g opacity="0.05">
											<defs>
												<rect id="SVGID_18_" x="178.123" y="166.246" opacity="0.05" width="136.035" height="191.954"/>
											</defs>
											<clipPath id="SVGID_19_">
												<use xlink:href="#SVGID_18_"  overflow="visible"/>
											</clipPath>
											<g clip-path="url(#SVGID_19_)">
												<g>
													<defs>
														<polygon id="SVGID_20_" points="268.818,166.246 178.129,166.256 178.123,358.2 314.15,358.192 314.158,211.588 
																													"/>
													</defs>
													<clipPath id="SVGID_21_">
														<use xlink:href="#SVGID_20_"  overflow="visible"/>
													</clipPath>
													
														<linearGradient id="SVGID_22_" gradientUnits="userSpaceOnUse" x1="99.1445" y1="-98.7685" x2="100.1445" y2="-98.7685" gradientTransform="matrix(0 -144.2224 144.2224 0 14490.7754 14688.5176)">
														<stop  offset="0" style="stop-color:#FFFFFF"/>
														<stop  offset="1" style="stop-color:#231F20"/>
													</linearGradient>
													<rect x="178.123" y="166.246" clip-path="url(#SVGID_21_)" fill="url(#SVGID_22_)" width="136.035" height="191.954"/>
												</g>
											</g>
										</g>
										<g>
											<defs>
												<rect id="SVGID_23_" width="400" height="400"/>
											</defs>
											<defs>
												<rect id="SVGID_24_" width="400" height="400"/>
											</defs>
											<defs>
												<rect id="SVGID_25_" width="400" height="400"/>
											</defs>
											<defs>
												<rect id="SVGID_26_" width="400" height="400"/>
											</defs>
											<defs>
												<rect id="SVGID_27_" width="400" height="400"/>
											</defs>
											<defs>
												<rect id="SVGID_28_" width="400" height="400"/>
											</defs>
											<clipPath id="SVGID_29_">
												<use xlink:href="#SVGID_23_"  overflow="visible"/>
											</clipPath>
											<clipPath id="SVGID_30_" clip-path="url(#SVGID_29_)">
												<use xlink:href="#SVGID_24_"  overflow="visible"/>
											</clipPath>
											<clipPath id="SVGID_31_" clip-path="url(#SVGID_30_)">
												<use xlink:href="#SVGID_25_"  overflow="visible"/>
											</clipPath>
											<clipPath id="SVGID_32_" clip-path="url(#SVGID_31_)">
												<use xlink:href="#SVGID_26_"  overflow="visible"/>
											</clipPath>
											<clipPath id="SVGID_33_" clip-path="url(#SVGID_32_)">
												<use xlink:href="#SVGID_27_"  overflow="visible"/>
											</clipPath>
											<clipPath id="SVGID_34_" clip-path="url(#SVGID_33_)">
												<use xlink:href="#SVGID_28_"  overflow="visible"/>
											</clipPath>
											<polygon clip-path="url(#SVGID_34_)" fill="#FFFFFF" points="278.818,156.246 188.129,156.256 188.123,348.2 
												324.15,348.192 324.158,201.588 											"/>
											<polygon clip-path="url(#SVGID_34_)" fill="#FAD211" points="278.818,201.586 324.158,201.588 278.818,156.246 
																							"/>
											<path clip-path="url(#SVGID_34_)" d="M270.895,297.942l-2.657-8.36h-24.49l-2.656,8.36h-17.016l24.59-68.85h14.654
												l24.885,68.85H270.895z M256.043,248.764l-8.459,28.326h16.721L256.043,248.764z"/>
											<path clip-path="url(#SVGID_34_)" d="M136.696,156.325h-27.002v-6.84h27.002V156.325z M134.608,180.231v22.105h-14.402
												v2.737h-7.272v-24.842H134.608z M134.104,166.406h-20.955v-6.481h20.955V166.406z M113.149,170.007h20.955v6.553h-20.955
												V170.007z M134.032,146.028h-20.451v-6.553h20.451V146.028z M127.19,187.071h-6.984v8.354h6.984V187.071z
												 M171.618,166.477h6.408v7.562h-41.762v-7.562h8.928c0.431-2.231,0.863-4.679,1.297-7.271h-6.194v-7.346h7.346
												c0.287-1.727,0.504-3.527,0.719-5.183h-9.362v-7.417h36.364v7.417h-18.576c-0.217,1.656-0.504,3.384-0.793,5.183h15.625
												L171.618,166.477L171.618,166.477z M141.592,205.145v-27.218h31.682v26.859h-8.424v-2.377h-15.121v2.736L141.592,205.145
												L141.592,205.145z M164.85,185.632h-15.121v9.072h15.121V185.632z M163.266,159.206h-8.426
												c-0.431,2.52-0.863,5.04-1.295,7.271h9.721V159.206z"/>
											<path clip-path="url(#SVGID_34_)" fill="#FAD211" d="M247.416,93.264c-0.896,0-1.791-0.342-2.475-1.025l-8.999-8.998
												c-0.656-0.657-1.025-1.547-1.025-2.476c0-0.928,0.369-1.818,1.025-2.475l8.599-8.598c1.367-1.366,3.582-1.366,4.949,0
												c1.367,1.367,1.367,3.583,0,4.95l-6.123,6.123l6.524,6.524c1.367,1.367,1.367,3.583,0,4.95
												C249.208,92.922,248.311,93.264,247.416,93.264"/>
											<path clip-path="url(#SVGID_34_)" fill="#FAD211" d="M282.71,128.958c-0.929,0-1.818-0.369-2.475-1.025l-8.598-8.599
												c-1.367-1.367-1.367-3.583,0-4.95c1.367-1.366,3.582-1.366,4.949,0l6.124,6.124l6.523-6.523
												c1.366-1.367,3.582-1.367,4.95-0.001c1.367,1.368,1.367,3.583,0,4.95l-8.998,8.999
												C284.528,128.589,283.639,128.958,282.71,128.958"/>
										</g>
									</g>
								</g>
							</g>
						</g>
					</g>
				</g>
			</g>
		</g>
	</g>
</g>
</svg>
