<?xml version="1.0" encoding="utf-8"?>
<!-- Generator: Adobe Illustrator 17.0.0, SVG Export Plug-In . SVG Version: 6.00 Build 0)  -->
<!DOCTYPE svg PUBLIC "-//W3C//DTD SVG 1.1//EN" "http://www.w3.org/Graphics/SVG/1.1/DTD/svg11.dtd">
<svg version="1.1" id="Calque_1" xmlns="http://www.w3.org/2000/svg" xmlns:xlink="http://www.w3.org/1999/xlink" x="0px" y="0px"
	 width="400px" height="400px" viewBox="0 0 400 400" enable-background="new 0 0 400 400" xml:space="preserve">
<g id="figure">
	
		<rect x="91.825" y="255.735" transform="matrix(0.7071 0.7071 -0.7071 0.7071 238.2277 1.3229)" fill="#FAD211" width="51.384" height="64.986"/>
	
		<rect x="49.352" y="297.45" transform="matrix(0.7071 0.7071 -0.7071 0.7071 253.9418 39.2617)" fill="#FFFFFF" width="60.452" height="57.43"/>
	<polygon points="0,356.597 0,400 54.391,400 108.764,345.58 59.989,296.635 	"/>
	<polygon fill="#FFFFFF" points="288,149.832 223.866,85.712 88.137,221.433 184.328,317.613 288,213.953 	"/>
	<polygon fill="#FAD211" points="255.94,181.893 288,213.953 288,149.832 	"/>
	
		<rect x="173.607" y="182.258" transform="matrix(-0.7071 -0.7071 0.7071 -0.7071 238.0361 475.202)" fill="#EEEEEE" width="87.657" height="12.089"/>
	
		<rect x="153.417" y="197.751" transform="matrix(-0.7071 -0.7071 0.7071 -0.7071 173.2617 479.3612)" fill="#EEEEEE" width="64.986" height="12.091"/>
	
		<rect x="125.518" y="230.346" transform="matrix(-0.7071 -0.7071 0.7071 -0.7071 121.9372 523.2919)" fill="#EEEEEE" width="87.655" height="12.091"/>
	<g>
		<g>
			<defs>
				<rect id="SVGID_1_" width="400" height="400"/>
			</defs>
			<clipPath id="SVGID_2_">
				<use xlink:href="#SVGID_1_"  overflow="visible"/>
			</clipPath>
			<path clip-path="url(#SVGID_2_)" fill="#FAD211" d="M164.004,297.31l-54.502-54.503l-13.529,13.531
				c-6.694,6.692-6.694,17.541,0,24.235l30.265,30.266c6.694,6.694,17.543,6.694,24.237,0.001L164.004,297.31z"/>
		</g>
		<g>
			<defs>
				<rect id="SVGID_3_" width="400" height="400"/>
			</defs>
			<clipPath id="SVGID_4_">
				<use xlink:href="#SVGID_3_"  overflow="visible"/>
			</clipPath>
			<path clip-path="url(#SVGID_4_)" fill="#FAD211" d="M153.496,269.345c4.624-4.624,4.624-12.118,0-16.741l-18.524-18.526
				c-4.622-4.622-12.119-4.622-16.742,0l-0.357,0.358c-4.624,4.624-8.371,8.371-8.371,8.371l26.895,26.895
				c4.624,4.623,12.119,4.623,16.744,0L153.496,269.345z"/>
		</g>
		<g>
			<defs>
				<rect id="SVGID_5_" width="400" height="400"/>
			</defs>
			<clipPath id="SVGID_6_">
				<use xlink:href="#SVGID_5_"  overflow="visible"/>
			</clipPath>
			<path clip-path="url(#SVGID_6_)" fill="#EFBA11" d="M124.463,257.769c0,0,9.084,9.084,1.604,16.563l30.457,30.457l7.48-7.479
				L124.463,257.769z"/>
		</g>
		<g>
			<defs>
				<rect id="SVGID_7_" width="400" height="400"/>
			</defs>
			<clipPath id="SVGID_8_">
				<use xlink:href="#SVGID_7_"  overflow="visible"/>
			</clipPath>
			<path clip-path="url(#SVGID_8_)" fill="#EEEEEE" d="M110.838,332.04c1.254-1.254,1.254-3.286,0-4.541
				c-1.255-1.255-3.287-1.255-4.541,0c-1.255,1.255-1.255,3.287,0,4.541C107.551,333.295,109.583,333.295,110.838,332.04"/>
		</g>
		<g>
			<defs>
				<rect id="SVGID_9_" width="400" height="400"/>
			</defs>
			<clipPath id="SVGID_10_">
				<use xlink:href="#SVGID_9_"  overflow="visible"/>
			</clipPath>
			<path clip-path="url(#SVGID_10_)" fill="#FAD211" d="M321.463,82.907c-0.992-1.042-2.344-1.639-3.708-1.639
				c-1.199,0-2.314,0.456-3.133,1.281l-15.475,15.477c-1.788,1.799-1.857,4.72-0.156,6.507l0.091,0.097
				c0.857,0.898,2.024,1.393,3.287,1.393c1.194,0,2.338-0.449,3.227-1.269l16.031-14.882c0.869-0.801,1.369-1.914,1.408-3.132
				c0.042-1.346-0.494-2.705-1.468-3.723L321.463,82.907z"/>
		</g>
		<g>
			<defs>
				<rect id="SVGID_11_" width="400" height="400"/>
			</defs>
			<clipPath id="SVGID_12_">
				<use xlink:href="#SVGID_11_"  overflow="visible"/>
			</clipPath>
			<path clip-path="url(#SVGID_12_)" fill="#FAD211" d="M203.233,31.322l-0.283-0.005c-1.388,0-2.717,0.536-3.647,1.469
				c-0.844,0.846-1.307,1.955-1.303,3.113v21.887c0.008,2.535,2.026,4.65,4.504,4.715l0.235,0.005h0.001
				c2.469,0,4.481-1.981,4.583-4.516l0.804-21.858c0.048-1.18-0.384-2.319-1.217-3.209C205.989,31.941,204.65,31.357,203.233,31.322
				 M202.739,60.5L202.739,60.5v0.006V60.5z"/>
		</g>
		<g>
			<defs>
				<rect id="SVGID_13_" width="400" height="400"/>
			</defs>
			<clipPath id="SVGID_14_">
				<use xlink:href="#SVGID_13_"  overflow="visible"/>
			</clipPath>
			<path clip-path="url(#SVGID_14_)" fill="#FAD211" d="M89.873,78.373c-0.837-0.91-2.003-1.411-3.283-1.411
				c-1.311,0-2.582,0.523-3.58,1.476l-0.104,0.099c-1.026,0.979-1.623,2.313-1.637,3.658c-0.013,1.219,0.443,2.349,1.279,3.182
				l15.477,15.476c0.891,0.885,2.119,1.393,3.369,1.393h0.001c1.186,0,2.302-0.441,3.143-1.242l0.091-0.087
				c1.8-1.716,1.857-4.636,0.124-6.514L89.873,78.373z"/>
		</g>
		<g>
			<defs>
				<rect id="SVGID_15_" width="400" height="400"/>
			</defs>
			<clipPath id="SVGID_16_">
				<use xlink:href="#SVGID_15_"  overflow="visible"/>
			</clipPath>
			<path clip-path="url(#SVGID_16_)" fill="#FAD211" d="M57.991,192.677l-21.858-0.805l-0.175-0.004
				c-2.532,0-4.568,2.15-4.634,4.891l-0.004,0.152c-0.036,1.413,0.481,2.775,1.418,3.735c0.851,0.874,1.974,1.354,3.161,1.354H57.78
				c2.538,0,4.656-2.017,4.723-4.52l0.002-0.104C62.569,194.887,60.547,192.779,57.991,192.677"/>
		</g>
		<g>
			<defs>
				<rect id="SVGID_17_" width="400" height="400"/>
			</defs>
			<clipPath id="SVGID_18_">
				<use xlink:href="#SVGID_17_"  overflow="visible"/>
			</clipPath>
			<path clip-path="url(#SVGID_18_)" fill="#FAD211" d="M197.511,337.499l-0.251-0.006c-2.468,0-4.482,1.981-4.584,4.516
				l-0.805,21.859c-0.047,1.181,0.386,2.321,1.22,3.209c0.92,0.983,2.259,1.566,3.655,1.6l0.301,0.007
				c1.28,0,2.491-0.443,3.41-1.246c0.98-0.858,1.543-2.075,1.543-3.337v-21.88C202,339.681,199.981,337.563,197.511,337.499
				 M197.047,366.677L197.047,366.677v0.007V366.677z"/>
		</g>
		<g>
			<defs>
				<rect id="SVGID_19_" width="400" height="400"/>
			</defs>
			<clipPath id="SVGID_20_">
				<use xlink:href="#SVGID_19_"  overflow="visible"/>
			</clipPath>
			<path clip-path="url(#SVGID_20_)" fill="#FAD211" d="M301.975,299.146c-0.905-0.897-2.102-1.392-3.37-1.392
				c-1.185,0-2.301,0.441-3.147,1.246l-0.085,0.082c-1.802,1.713-1.861,4.633-0.127,6.513l14.881,16.033
				c0.838,0.909,2.004,1.41,3.283,1.41c1.312,0,2.583-0.524,3.578-1.474l0.107-0.102c1.027-0.98,1.623-2.313,1.636-3.66
				c0.012-1.219-0.445-2.349-1.281-3.179L301.975,299.146z"/>
		</g>
		<g>
			<defs>
				<rect id="SVGID_21_" width="400" height="400"/>
			</defs>
			<clipPath id="SVGID_22_">
				<use xlink:href="#SVGID_21_"  overflow="visible"/>
			</clipPath>
			<path clip-path="url(#SVGID_22_)" fill="#FAD211" d="M367.261,199.352c-0.852-0.872-1.974-1.352-3.159-1.352H342.22
				c-2.537,0-4.655,2.018-4.721,4.488l-0.004,0.138c-0.062,2.487,1.96,4.595,4.515,4.697l21.858,0.804l0.177,0.004
				c2.529,0,4.564-2.15,4.633-4.89l0.004-0.152C368.717,201.675,368.198,200.313,367.261,199.352 M364.045,206.122L364.045,206.122
				v0.009V206.122z"/>
		</g>
	</g>
</g>
</svg>
