<?xml version="1.0" encoding="utf-8"?>
<!-- Generator: Adobe Illustrator 17.0.0, SVG Export Plug-In . SVG Version: 6.00 Build 0)  -->
<!DOCTYPE svg PUBLIC "-//W3C//DTD SVG 1.1//EN" "http://www.w3.org/Graphics/SVG/1.1/DTD/svg11.dtd">
<svg version="1.1" id="Calque_1" xmlns="http://www.w3.org/2000/svg" xmlns:xlink="http://www.w3.org/1999/xlink" x="0px" y="0px"
	 width="1799.04px" height="1343.2px" viewBox="0 0 1799.04 1343.2" enable-background="new 0 0 1799.04 1343.2"
	 xml:space="preserve">
<g id="Calque_1_1_">
	<g>
		<g>
			<defs>
				<rect id="SVGID_1_" y="-0.001" width="1799.042" height="1343.201"/>
			</defs>
			<clipPath id="SVGID_2_">
				<use xlink:href="#SVGID_1_"  overflow="visible"/>
			</clipPath>
			<polyline clip-path="url(#SVGID_2_)" fill="none" stroke="#2D2D2D" stroke-width="6" stroke-miterlimit="10" points="
				853.06,1.562 853.06,19.562 866.06,44.562 874.06,68.562 888.06,95.562 894.06,131.562 899.358,176.562 910.06,223.562 
				918.06,239.562 918.06,265.562 934.06,296.562 947.06,340.562 956.06,354.562 956.06,369.562 962.06,384.562 962.06,401.562 
				953.06,430.562 946.06,443.562 945.06,471.562 950.06,490.562 957.06,507.562 962.06,525.562 962.06,565.562 962.06,592.562 
				962.06,622.562 969.06,639.803 974.06,655.562 982.06,665.562 993.06,659.562 1003.06,670.562 1003.06,685.562 1003.06,712.562 
				966.06,717.562 942.06,724.562 917.06,742.562 905.06,759.562 894.06,781.562 878.06,788.562 878.06,794.562 853.06,816.562 
				830.06,856.562 820.06,883.562 820.06,918.562 834.06,952.562 843.06,991.562 855.06,1059.562 860.06,1087.562 855.06,1130.562 
				846.06,1160.562 834.06,1178.562 825.06,1192.562 827.06,1217.562 834.06,1259.562 827.06,1282.562 820.06,1312.562 
				801.06,1339.562 			"/>
		</g>
		<g>
			<defs>
				<rect id="SVGID_3_" y="-0.001" width="1799.042" height="1343.201"/>
			</defs>
			<clipPath id="SVGID_4_">
				<use xlink:href="#SVGID_3_"  overflow="visible"/>
			</clipPath>
			<polyline clip-path="url(#SVGID_4_)" fill="none" stroke="#2D2D2D" stroke-width="6" stroke-miterlimit="10" points="
				1798.06,1274.562 1752.06,1274.562 1709.06,1274.562 1662.06,1244.562 1634.06,1217.562 1562.06,1185.562 1493.06,1133.562 
				1469.06,1117.562 1434.06,1108.562 1407.06,1095.562 1378.06,1078.562 1366.06,1066.562 1356.06,1040.562 1308.06,997.562 
				1244.06,940.562 1171.06,887.562 1136.06,860.562 1120.06,849.562 1069.06,859.562 1021.06,859.562 976.06,840.562 
				933.06,812.562 899.358,795.562 860.06,782.562 842.06,766.562 801.06,775.562 769.06,790.562 727.06,791.562 700.06,781.562 
				693.06,760.562 679.06,739.562 664.06,732.562 644.06,732.562 619.06,718.562 590.06,694.562 569.06,677.562 555.06,652.562 
				536.06,602.562 511.06,576.562 477.06,554.562 432.06,513.562 381.06,465.562 353.06,446.562 325.06,439.562 281.06,430.562 
				240.06,423.562 182.06,413.562 123.06,405.562 74.06,400.562 48.06,395.562 31.06,371.562 20.06,356.562 2.06,339.562 			"/>
		</g>
		<g>
			<defs>
				<rect id="SVGID_5_" y="-0.001" width="1799.042" height="1343.201"/>
			</defs>
			<clipPath id="SVGID_6_">
				<use xlink:href="#SVGID_5_"  overflow="visible"/>
			</clipPath>
			<polyline clip-path="url(#SVGID_6_)" fill="none" stroke="#2D2D2D" stroke-width="6" stroke-miterlimit="10" points="
				2.06,556.562 16.06,562.562 37.06,562.562 66.06,559.562 84.06,547.562 110.06,521.562 127.06,481.562 156.06,445.562 
				182.06,413.562 			"/>
		</g>
	</g>
	<polyline fill="none" stroke="#2D2D2D" stroke-width="6" stroke-miterlimit="10" points="981.322,715.499 981.322,699.561 
		981.322,685.561 969.06,675.561 982.06,665.561 	"/>
	<g>
		<g>
			<defs>
				<rect id="SVGID_7_" y="-0.001" width="1799.042" height="1343.201"/>
			</defs>
			<clipPath id="SVGID_8_">
				<use xlink:href="#SVGID_7_"  overflow="visible"/>
			</clipPath>
			<path clip-path="url(#SVGID_8_)" fill="none" stroke="#2D2D2D" stroke-miterlimit="10" d="M1733.06,510.562l-9,21l-18,11l-15,10
				l-14,10h-18h-14h-14l-18,9l-13,8l-19,15h-19l-24,10l-34,11l-22,10h-19l-18-7l-12-15l-11-15l-18,2l-9,2h-8l-7-3l-16,7l-21,3l-9,8
				l-10,3l-10,4l-8-3l-17,8l-14-1l-13,2v9l-16,6l1,5.333l-6.333,1.5l-11.334-1l-7.5,0.334l-4.666,4.833h-7l-5.334,0.833h-5.333h-3
				l-8.333-6.166l-1.667-2.667l-5.667,4.667v4.833v4.5v1.833l-5.5-3.166l-3.5-0.167l0.834,4.167l1,4l-1,0.833l-8.167,1l-5.167,2.667
				l-8.166,5l-7.667,3.333h-7l1.167,7.5l-7.334,3.167l-6,3.666l-14.666-8.666l-6.667,5.666l-12.167-1.5l-12.166-5.833l-17.334-3
				l-21-3.167l-20.5-2.833l-9.166-1l-7.667,2.25l-11,10.25l-4.75,3.75l-3.25,1l-12,4.5l-8,4.75l-9.5,1.75l-6.5,7.75l-4,6.5
				l-4.25,4.75l-9.25,2.188l-6.5,3.562l-9.25,8l-8,8.75l-6.75,7.25l-0.702,3.25v3l-4.548,4.5l-7.25,5.25l-4,3.5l-6,2l-6.5-1.5
				l-7.25-5.25l-4,0.5l-12,10.5l-4.5,4.25h-6.5l-5.75,2.75l-5.25,4.25l-6.75,5l-2.25,3.25l-1.5,2.5l-5.25,4.25l-5.5,1.5v4.5
				l-3.5,4.75l-3.5,4l-3.75,6.75l-6.75,7l-3,4.75l1.25,8.25v2l-5.5,2.25l5.75,5.75l2.25,2l-5.25,7l2,4.25l-4.75,3l3,3l0.75,5.75
				l-3.75,5.75l-2.5,7.75l1.25,3l2.25,5.75l0.5,4.25h-8.25l-6.5-1.5l-6,3.25h-9.25l-2,22.5h-8.5h-6.75h-4.5l-5.5,4.25l-6.75-9
				l-15.5-0.75h-11.5h-7.5l-6.25,12.5l-3.5,8l-6.5,8.75l-5.5,9.5l-3,9.25l-3,3h-12.75l-6.5-5c0,0-11.5-2-12.25-2h-22.75l-11,5.75
				l-7.75,9.25l-4.75,6.75l-30.75-1.5l-8.5,8.75l-7.25,7.5l5.5,7l2.5,5.75l-2,3h-8.5l-4-5.25l-5.75-0.75h-5.25l-6,3.5l-7.75,3.75
				l-4.5,4v5.25l8.5,2.5h8.75l5.25,1.25l2.75,2.5l1.25,5.5l-2.25,5.25l-4.75,7l0.75,4.5l1,4.75l-6.25,3.75l-9,2.75l-8,4.5
				l-8.75,3.25l-4-9.5l-2.5-8.25l-6.25-0.75l-19.25,7.5l-16,13l-13.25,11.25l-25.5,11.75l-24.75,9.75v7.75l3.5,9.5l5.75,5.25l6.25,5
				l6.5,2.25l7.5,7.75l-4,9l-5.5,9.75l-5,6.5l-16.5,11l-25.5,5.5l-33.5,4.5l-30.75,4l-12.75,15l-17.75,12l-21.5,3.5l-8.5,1.75
				l-2,3.5h-13.75l-17.75,5.75l-3.25,10.75l-8.75,8.75l2.5,12.25l-1.25,7.75l-8.25,8.5l-4,15.25v8l1.25,7.25l1.75,12l2,16"/>
		</g>
		<g>
			<defs>
				<rect id="SVGID_9_" y="-0.001" width="1799.042" height="1343.201"/>
			</defs>
			<clipPath id="SVGID_10_">
				<use xlink:href="#SVGID_9_"  overflow="visible"/>
			</clipPath>
			<polyline clip-path="url(#SVGID_10_)" fill="none" stroke="#2D2D2D" stroke-miterlimit="10" points="239.06,524.228 
				248.393,514.561 259.06,510.561 270.727,508.228 282.06,503.561 289.393,500.895 297.727,500.895 308.727,507.561 
				331.06,533.228 341.727,547.561 350.727,561.228 350.727,572.895 357.06,583.561 363.727,595.895 378.727,601.895 
				392.06,605.561 401.727,612.895 408.727,624.895 408.727,645.228 411.727,659.228 421.727,669.895 433.727,682.895 
				436.393,693.561 436.393,707.228 444.727,720.895 455.393,738.228 455.393,748.895 464.393,761.895 476.727,779.895 
				489.06,790.895 489.06,801.561 491.393,804.561 491.393,814.895 485.393,825.228 481.06,834.228 477.393,834.228 
				476.727,839.228 471.06,847.228 465.06,851.561 462.06,853.895 463.06,859.228 456.727,862.561 454.727,868.561 450.727,875.895 
				424.06,889.561 406.393,887.895 392.393,884.895 391.393,888.228 377.727,891.228 365.227,901.228 348.727,911.228 
				339.727,918.895 323.393,926.061 316.06,929.895 316.727,902.561 323.06,881.228 326.06,856.228 327.727,819.228 325.06,814.228 
				312.06,803.228 296.06,793.561 288.727,781.228 			"/>
		</g>
		<g>
			<defs>
				<rect id="SVGID_11_" y="-0.001" width="1799.042" height="1343.201"/>
			</defs>
			<clipPath id="SVGID_12_">
				<use xlink:href="#SVGID_11_"  overflow="visible"/>
			</clipPath>
			<polyline clip-path="url(#SVGID_12_)" fill="none" stroke="#2D2D2D" stroke-miterlimit="10" points="316.06,929.895 
				303.393,939.895 297.727,939.895 297.727,945.228 288.727,947.895 288.727,929.895 288.727,917.562 276.393,898.228 
				257.727,883.895 239.06,873.895 227.06,868.228 215.727,857.895 211.727,846.895 			"/>
		</g>
		<g>
			<defs>
				<rect id="SVGID_13_" y="-0.001" width="1799.042" height="1343.201"/>
			</defs>
			<clipPath id="SVGID_14_">
				<use xlink:href="#SVGID_13_"  overflow="visible"/>
			</clipPath>
			<polyline clip-path="url(#SVGID_14_)" fill="none" stroke="#2D2D2D" stroke-miterlimit="10" points="184.727,808.562 
				171.393,785.562 168.393,769.895 162.059,756.895 162.059,747.229 162.059,739.895 156.727,732.895 143.393,729.229 
				139.059,723.895 131.727,720.895 128.727,719.229 128.727,710.562 133.393,696.895 132.727,690.229 144.727,674.229 
				145.059,664.562 159.393,627.562 			"/>
		</g>
		<g>
			<defs>
				<rect id="SVGID_15_" y="-0.001" width="1799.042" height="1343.201"/>
			</defs>
			<clipPath id="SVGID_16_">
				<use xlink:href="#SVGID_15_"  overflow="visible"/>
			</clipPath>
			<polyline clip-path="url(#SVGID_16_)" fill="none" stroke="#2D2D2D" stroke-miterlimit="10" points="288.727,947.895 
				277.393,952.895 272.059,956.562 267.727,963.228 263.893,972.228 261.727,981.895 261.727,993.228 260.059,1000.562 
				256.059,1012.562 252.393,1028.228 252.393,1039.895 242.727,1049.562 239.059,1063.562 233.727,1069.562 220.059,1067.895 
				220.059,1076.895 222.059,1092.562 220.059,1101.228 213.393,1109.895 207.727,1119.895 207.727,1131.562 211.727,1133.895 
				215.059,1135.228 213.727,1145.228 218.059,1157.228 223.059,1172.228 226.393,1186.562 228.393,1198.562 213.727,1207.562 
				207.727,1212.895 196.059,1224.895 187.559,1235.062 			"/>
		</g>
		<g>
			<defs>
				<rect id="SVGID_17_" y="-0.001" width="1799.042" height="1343.201"/>
			</defs>
			<clipPath id="SVGID_18_">
				<use xlink:href="#SVGID_17_"  overflow="visible"/>
			</clipPath>
			<polyline clip-path="url(#SVGID_18_)" fill="none" stroke="#2D2D2D" stroke-miterlimit="10" points="228.393,1198.562 
				231.393,1203.895 244.393,1207.229 259.726,1204.229 275.568,1200.611 			"/>
		</g>
		<g>
			<defs>
				<rect id="SVGID_19_" y="-0.001" width="1799.042" height="1343.201"/>
			</defs>
			<clipPath id="SVGID_20_">
				<use xlink:href="#SVGID_19_"  overflow="visible"/>
			</clipPath>
			<polyline clip-path="url(#SVGID_20_)" fill="none" stroke="#2D2D2D" stroke-miterlimit="10" points="372.81,1112.228 
				380.06,1110.228 387.06,1111.228 397.06,1110.228 401.06,1108.895 412.727,1105.228 420.727,1100.561 423.727,1099.228 
				428.727,1105.728 432.06,1113.895 439.727,1115.228 448.06,1110.561 448.06,1097.895 455.727,1086.228 460.06,1077.895 
				467.393,1064.561 471.56,1052.561 			"/>
		</g>
		<g>
			<defs>
				<rect id="SVGID_21_" y="-0.001" width="1799.042" height="1343.201"/>
			</defs>
			<clipPath id="SVGID_22_">
				<use xlink:href="#SVGID_21_"  overflow="visible"/>
			</clipPath>
			<polyline clip-path="url(#SVGID_22_)" fill="none" stroke="#2D2D2D" stroke-miterlimit="10" points="458.755,1080.403 
				471.559,1076.896 481.059,1076.896 488.393,1080.403 499.059,1078.649 509.726,1078.649 519.393,1081.896 528.726,1091.479 
				538.393,1091.479 552.726,1096.561 566.059,1100.561 584.059,1100.561 594.059,1094.896 602.059,1094.561 612.726,1088.729 
				620.393,1088.729 631.393,1093.896 644.059,1098.229 653.393,1102.561 655.393,1106.896 659.059,1104.561 664.059,1108.229 
				664.059,1113.229 677.393,1123.896 683.726,1130.896 683.726,1134.229 683.726,1139.229 689.393,1143.896 693.059,1149.896 
				690.059,1159.561 680.726,1171.228 673.393,1181.228 668.393,1190.896 666.059,1202.896 666.059,1210.896 669.393,1226.228 
				661.393,1237.561 655.393,1240.896 651.393,1248.561 648.059,1248.561 648.059,1252.561 637.393,1261.228 631.726,1267.561 
				630.059,1276.228 629.726,1282.561 621.393,1289.228 598.059,1299.561 			"/>
		</g>
		<g>
			<defs>
				<rect id="SVGID_23_" y="-0.001" width="1799.042" height="1343.201"/>
			</defs>
			<clipPath id="SVGID_24_">
				<use xlink:href="#SVGID_23_"  overflow="visible"/>
			</clipPath>
			<polyline clip-path="url(#SVGID_24_)" fill="none" stroke="#2D2D2D" stroke-miterlimit="10" points="688.824,1161.106 
				697.726,1164.896 702.726,1171.561 705.393,1181.896 710.06,1196.229 714.06,1209.561 717.06,1222.228 727.06,1230.561 
				731.393,1243.228 753.06,1249.228 768.06,1253.228 780.06,1265.228 793.393,1277.228 801.06,1270.896 			"/>
		</g>
		<g>
			<defs>
				<rect id="SVGID_25_" y="-0.001" width="1799.042" height="1343.201"/>
			</defs>
			<clipPath id="SVGID_26_">
				<use xlink:href="#SVGID_25_"  overflow="visible"/>
			</clipPath>
			<path clip-path="url(#SVGID_26_)" fill="none" stroke="#2D2D2D" stroke-miterlimit="10" d="M684.727,916.812l12-8.083
				l6.833-6.334l6.167-14l1.333-7.833l2-21l-4.833-10l-6-5.5l-3.333-16.333l-3.5-24.5l1.833-19.5l7.333-10.834l7.667-8.833
				l5.667-9.333l1.833-12.5l1-10.5l4.333-7.667l3.167-15.167l1.333-8l9.334,3.5l11.5,4.5l4.333-1l4.167-9.333
				c0,0,5.666-15.5,5.666-16.5s1.167-12.167,1.167-12.833c0-0.667-6.5-14.5-6.5-14.5l-10.5-8l-14.833-12.167l-14.667-14.333l-1.5-13
				l4.167-25.334l3.333-18.333l26.833-22.833l11.167-12.167l4.833-9l3.334-13.667l-0.834-11l0.834-6.333l3.166-4.333l-6.833-13.334
				l-11.5-10.5l-10-6.333l-8.833-1.5l-1.167-4.667l5-4.333l8.833-9.5l5-12.667l1-13.5l-0.166-9.333l-5-18.833l-13.5-14.667
				l-14.167-6.667l-13-7.166l-6.333-3.667l-6.834-8.667l-8-18.833l-8.833-15.833l-12.667-4.5l-22.166-1.667l-11,7.167l-20.667,7
				l-21.833,2.166l-7.667-6.166l6.333-14.667l-5.666-23.667l-9.5-21.5l-6-7.666c0,0-11.667-8.667-12-9.167
				c-0.334-0.5-17.834-13.167-17.834-13.167l-24.166-15.666l-16.334-11.167l-19.333-17.333l-24-14.334l-15.667-8.833h-13.5
				l-4.833,7.667l-6,9l-6.833,5.5l-7.167,6.666l-10.667,8l-17.166,3l-10.334-0.5l-12.666,11l-3.667,3l-13.167-1.333l-10.166-6.333
				l-5.5-14.5v-17.167l4.5-23l7.166-24.833l3.334-18"/>
		</g>
		<g>
			<defs>
				<rect id="SVGID_27_" y="-0.001" width="1799.042" height="1343.201"/>
			</defs>
			<clipPath id="SVGID_28_">
				<use xlink:href="#SVGID_27_"  overflow="visible"/>
			</clipPath>
			<polyline clip-path="url(#SVGID_28_)" fill="none" stroke="#2D2D2D" stroke-miterlimit="10" points="540.314,218.941 
				547.393,218.941 551.393,216.895 552.393,210.728 550.727,201.728 546.354,191.728 547.56,186.895 546.354,170.228 
				547.727,154.061 549.393,151.395 551.56,154.561 551.393,157.061 554.893,156.061 556.893,153.561 564.393,146.395 
				565.227,141.728 561.393,139.728 561.893,135.895 579.06,121.728 590.06,112.228 604.727,106.561 612.56,98.061 616.727,90.061 
				611.393,84.395 601.893,79.728 587.227,75.228 			"/>
		</g>
		<g>
			<defs>
				<rect id="SVGID_29_" y="-0.001" width="1799.042" height="1343.201"/>
			</defs>
			<clipPath id="SVGID_30_">
				<use xlink:href="#SVGID_29_"  overflow="visible"/>
			</clipPath>
			<polyline clip-path="url(#SVGID_30_)" fill="none" stroke="#2D2D2D" stroke-miterlimit="10" points="737.393,452.562 
				742.06,460.562 743.56,463.812 745.81,474.562 745.81,485.812 745.81,491.312 			"/>
		</g>
		<g>
			<defs>
				<rect id="SVGID_31_" y="-0.001" width="1799.042" height="1343.201"/>
			</defs>
			<clipPath id="SVGID_32_">
				<use xlink:href="#SVGID_31_"  overflow="visible"/>
			</clipPath>
			<path clip-path="url(#SVGID_32_)" fill="none" stroke="#2D2D2D" stroke-miterlimit="10" d="M734.69,555.509l5.87-7.947l5.25-6.75
				l-4.209-5.5l-5.291-6l-1.62-6.5l2.703-7.5v-2.5c0,0,2,0,4.208-0.75c2.209-0.75,4.209-2.75,4.209-2.75l4-4.25v-4.167"/>
		</g>
		<g>
			<defs>
				<rect id="SVGID_33_" y="-0.001" width="1799.042" height="1343.201"/>
			</defs>
			<clipPath id="SVGID_34_">
				<use xlink:href="#SVGID_33_"  overflow="visible"/>
			</clipPath>
			<polyline clip-path="url(#SVGID_34_)" fill="none" stroke="#2D2D2D" stroke-miterlimit="10" points="724.357,725.306 
				730.31,726.312 733.31,726.312 734.69,730.062 734.69,736.312 739.31,740.312 743.56,743.812 749.81,746.812 755.31,743.562 
				763.56,736.059 769.06,725.306 773.06,715.5 785.31,713.062 795.31,710.562 798.31,709.312 798.31,699.812 806.81,692.812 
				815.81,685.312 823.31,683.812 824.81,679.062 834.31,679.062 838.56,673.562 835.06,669.312 837.31,662.312 843.81,662.312 
				850.81,665.562 865.81,659.562 877.81,644.562 888.81,625.562 900.06,599.062 913.31,596.062 910.06,573.812 919.81,566.812 
				930.81,540.062 927.06,522.312 933.56,517.812 929.56,512.812 932.06,508.02 928.31,500.895 933.56,496.812 928.56,487.812 
				932.06,484.562 930.56,464.312 937.31,459.312 931.31,447.562 925.31,437.062 930.31,430.562 925.06,421.562 921.81,418.562 
				925.31,408.062 928.81,408.062 928.06,391.562 933.56,386.812 931.31,383.312 933.06,380.312 928.06,373.812 929.31,363.562 
				922.56,367.062 921.56,361.312 915.31,359.562 922.31,351.062 916.31,346.062 913.06,339.562 906.81,344.562 902.06,343.312 
				895.31,348.562 887.56,347.312 882.56,341.562 867.06,333.312 851.56,318.562 835.31,313.312 829.06,304.062 821.31,302.812 
				811.56,287.562 811.31,275.312 807.31,266.312 803.81,250.062 812.56,209.812 819.31,187.312 823.31,154.812 830.834,117.062 
				830.834,90.062 830.834,61.812 824.81,38.312 817.81,15.312 816.31,1.562 815.31,0.312 			"/>
		</g>
		<g>
			<defs>
				<rect id="SVGID_35_" y="-0.001" width="1799.042" height="1343.201"/>
			</defs>
			<clipPath id="SVGID_36_">
				<use xlink:href="#SVGID_35_"  overflow="visible"/>
			</clipPath>
			<path clip-path="url(#SVGID_36_)" fill="none" stroke="#2D2D2D" stroke-miterlimit="10" d="M914.06,341.562v-10l-4-3.5l2-3.25
				v-7.75l-3.5-13.75l5.5-3.25l-2.75-6.75l5-7h9l6.5-8.5l12.25-2.75l14.25-16.75l12.25-9.75l16.5-13.25l6.25,6.75
				c0,0,3.25,0.5,3.25-0.25v-10l8.75-4.75l9.5-2h3.25l2,5.5l6.75-0.5l4.5-10.75l7.75,2.25l6.75-2.25v-6h9.5l4.75-2l6.25-3l7.5-6.5
				h3.25l-2.25,6l2.25,0.5l4.75-3.25l8.75-1l-3.25-3.5l-1.5-4.5l17.5,3.25l3.75-2l7.5,4.25l6.25-1l4.25,0.75l3.75-7.5l1.5,1.75
				l1.75-1.75"/>
		</g>
		<g>
			<defs>
				<rect id="SVGID_37_" y="-0.001" width="1799.042" height="1343.201"/>
			</defs>
			<clipPath id="SVGID_38_">
				<use xlink:href="#SVGID_37_"  overflow="visible"/>
			</clipPath>
			<polyline clip-path="url(#SVGID_38_)" fill="none" stroke="#2D2D2D" stroke-miterlimit="10" points="1120.81,200.562 
				1109.31,192.062 1110.56,189.062 1122.31,189.062 1132.06,187.812 1139.56,182.062 1154.56,163.562 1165.31,155.812 
				1172.56,155.812 1176.06,154.312 1182.06,147.062 1185.31,130.312 1189.81,107.562 1189.81,97.812 1193.56,92.562 
				1195.56,87.062 1191.81,75.812 1192.31,69.562 1184.81,61.812 1183.81,50.812 1179.56,40.312 1181.81,29.562 1185.06,22.312 
				1195.56,16.812 1207.56,11.312 1210.81,1.562 			"/>
		</g>
		<g>
			<defs>
				<rect id="SVGID_39_" y="-0.001" width="1799.042" height="1343.201"/>
			</defs>
			<clipPath id="SVGID_40_">
				<use xlink:href="#SVGID_39_"  overflow="visible"/>
			</clipPath>
			<path clip-path="url(#SVGID_40_)" fill="none" stroke="#2D2D2D" stroke-miterlimit="10" d="M1133.269,186.885l7.791,1.177
				l4-3.167c0,0,5.833-10,6.5-10.333c0.667-0.333,5.667-9,5.667-9l-1.711-2.69"/>
		</g>
		<g>
			<defs>
				<rect id="SVGID_41_" y="-0.001" width="1799.042" height="1343.201"/>
			</defs>
			<clipPath id="SVGID_42_">
				<use xlink:href="#SVGID_41_"  overflow="visible"/>
			</clipPath>
			<polyline clip-path="url(#SVGID_42_)" fill="none" stroke="#2D2D2D" stroke-miterlimit="10" points="932.06,508.02 
				937.31,508.02 943.81,510.562 948.81,512.062 956.06,512.062 962.81,514.312 969.56,518.062 976.31,522.062 984.56,522.062 
				997.56,522.062 1007.56,518.062 1016.31,510.562 1027.81,495.812 1036.31,478.812 1042.31,467.312 1046.81,463.062 
				1046.81,440.562 1050.06,420.562 1055.81,407.562 1060.31,399.562 			"/>
		</g>
		<g>
			<defs>
				<rect id="SVGID_43_" y="-0.001" width="1799.042" height="1343.201"/>
			</defs>
			<clipPath id="SVGID_44_">
				<use xlink:href="#SVGID_43_"  overflow="visible"/>
			</clipPath>
			<polyline clip-path="url(#SVGID_44_)" fill="none" stroke="#2D2D2D" stroke-miterlimit="10" points="1046.81,463.062 
				1067.81,455.312 1083.56,448.562 1097.81,440.562 1113.06,427.562 1128.06,412.812 1143.81,399.562 			"/>
		</g>
		<g>
			<defs>
				<rect id="SVGID_45_" y="-0.001" width="1799.042" height="1343.201"/>
			</defs>
			<clipPath id="SVGID_46_">
				<use xlink:href="#SVGID_45_"  overflow="visible"/>
			</clipPath>
			<polyline clip-path="url(#SVGID_46_)" fill="none" stroke="#2D2D2D" stroke-miterlimit="10" points="929.06,430.562 
				933.81,427.812 939.06,426.562 944.81,425.062 957.81,420.312 969.56,411.812 978.31,405.312 983.56,405.312 988.56,395.812 
				997.81,385.312 1003.06,374.562 1012.81,364.562 1019.06,350.062 1020.31,337.062 1022.81,321.062 			"/>
		</g>
		<g>
			<defs>
				<rect id="SVGID_47_" y="-0.001" width="1799.042" height="1343.201"/>
			</defs>
			<clipPath id="SVGID_48_">
				<use xlink:href="#SVGID_47_"  overflow="visible"/>
			</clipPath>
			<polyline clip-path="url(#SVGID_48_)" fill="none" stroke="#2D2D2D" stroke-miterlimit="10" points="1523.56,1.562 
				1532.06,11.062 1536.56,20.562 1540.56,28.562 1535.56,47.562 1535.56,64.062 1543.56,82.062 1543.56,101.062 1548.06,116.062 
				1556.06,111.062 			"/>
		</g>
		<g>
			<defs>
				<rect id="SVGID_49_" y="-0.001" width="1799.042" height="1343.201"/>
			</defs>
			<clipPath id="SVGID_50_">
				<use xlink:href="#SVGID_49_"  overflow="visible"/>
			</clipPath>
			<polyline clip-path="url(#SVGID_50_)" fill="none" stroke="#2D2D2D" stroke-miterlimit="10" points="1563.06,1.562 
				1568.06,10.562 1578.56,15.562 1585.56,23.062 1592.56,35.062 1604.06,49.562 1597.56,61.562 			"/>
		</g>
		<g>
			<defs>
				<rect id="SVGID_51_" y="-0.001" width="1799.042" height="1343.201"/>
			</defs>
			<clipPath id="SVGID_52_">
				<use xlink:href="#SVGID_51_"  overflow="visible"/>
			</clipPath>
			<polyline clip-path="url(#SVGID_52_)" fill="none" stroke="#2D2D2D" stroke-miterlimit="10" points="1534.56,216.062 
				1528.06,221.562 1523.56,239.062 1529.06,252.562 1534.56,259.562 1544.06,273.562 1563.06,284.562 1580.56,288.562 
				1597.56,295.062 1607.56,295.062 1627.06,309.562 1637.06,319.562 1649.06,312.062 1660.56,298.562 1670.06,293.562 
				1680.56,287.062 1694.56,282.562 1717.06,273.562 1733.06,258.062 1743.56,253.562 1749.56,245.062 			"/>
		</g>
		<g>
			<defs>
				<rect id="SVGID_53_" y="-0.001" width="1799.042" height="1343.201"/>
			</defs>
			<clipPath id="SVGID_54_">
				<use xlink:href="#SVGID_53_"  overflow="visible"/>
			</clipPath>
			<path clip-path="url(#SVGID_54_)" fill="none" stroke="#2D2D2D" stroke-miterlimit="10" d="M1637.06,319.562l-15.5,6.5l-9.5,2.5
				l-4.5,7l2.5,6l-2.5,14.5l-3.5,26v12l-6,12.5l-14,12.5l-3.5,12.25l-5,11.75l-15,13.5h-12l-11,12l2.25,18.5v19l-2.25,16l-3.5,10.5
				l-18,12l-18,6l-17-3l-7.5-3.5l-21,20.5l-13,4l-6,9l-5,3l-6.5,8l-10.5-3l-6-13l-7-31l-5-1.5c0,0-18-45.5-18-48.75v-12.75l-12-21
				l-13.5-16.5v-13l-10.5-13.5l-8.5-20l-12-21l-9-32l-2.5-36v-33v-13"/>
		</g>
		<g>
			<defs>
				<rect id="SVGID_55_" y="-0.001" width="1799.042" height="1343.201"/>
			</defs>
			<clipPath id="SVGID_56_">
				<use xlink:href="#SVGID_55_"  overflow="visible"/>
			</clipPath>
			<polyline clip-path="url(#SVGID_56_)" fill="none" stroke="#2D2D2D" stroke-miterlimit="10" points="1795.56,944.062 
				1795.56,952.562 1795.56,966.562 1790.06,982.562 1783.56,990.062 1783.56,998.562 1780.56,1016.562 1785.06,1031.062 
				1780.56,1045.062 1780.56,1057.062 1775.06,1062.562 1775.06,1067.562 1770.06,1075.562 1766.06,1086.062 1754.56,1091.562 
				1754.56,1110.562 1751.06,1123.562 1755.56,1131.062 1759.56,1143.062 1760.06,1167.562 1757.06,1183.562 1751.06,1202.062 
				1743.06,1237.562 1743.06,1263.562 1743.06,1280.062 1740.06,1306.562 			"/>
		</g>
		<g>
			<defs>
				<rect id="SVGID_57_" y="-0.001" width="1799.042" height="1343.201"/>
			</defs>
			<clipPath id="SVGID_58_">
				<use xlink:href="#SVGID_57_"  overflow="visible"/>
			</clipPath>
			<polyline clip-path="url(#SVGID_58_)" fill="none" stroke="#2D2D2D" stroke-miterlimit="10" points="1754.56,1091.562 
				1749.06,1082.062 1740.06,1073.062 1747.31,1066.062 1733.06,1047.062 1716.56,1040.562 1701.56,1032.562 1676.56,1023.062 
				1656.06,1014.062 1641.56,1011.062 1624.56,1006.062 1615.06,997.062 1596.56,997.062 1585.06,997.062 1567.06,974.562 
				1558.56,944.062 1546.56,929.062 1534.56,916.062 1531.56,905.062 1519.56,887.062 1510.06,865.562 1497.56,865.562 			"/>
		</g>
		<g>
			<defs>
				<rect id="SVGID_59_" y="-0.001" width="1799.042" height="1343.201"/>
			</defs>
			<clipPath id="SVGID_60_">
				<use xlink:href="#SVGID_59_"  overflow="visible"/>
			</clipPath>
			<polyline clip-path="url(#SVGID_60_)" fill="none" stroke="#2D2D2D" stroke-miterlimit="10" points="1114.06,1121.062 
				1114.06,1135.062 1122.56,1161.107 1135.56,1188.229 1155.56,1216.562 1190.06,1234.562 1223.06,1239.062 1235.56,1243.562 
				1252.56,1248.062 1275.56,1254.562 1297.06,1260.062 1305.06,1260.062 1309.06,1269.562 1327.56,1281.562 1342.06,1285.062 
				1342.06,1294.062 1356.06,1319.062 1360.56,1339.562 			"/>
		</g>
		<g>
			<defs>
				<rect id="SVGID_61_" y="-0.001" width="1799.042" height="1343.201"/>
			</defs>
			<clipPath id="SVGID_62_">
				<use xlink:href="#SVGID_61_"  overflow="visible"/>
			</clipPath>
			<polygon clip-path="url(#SVGID_62_)" fill="none" stroke="#2D2D2D" stroke-miterlimit="10" points="1315.56,1150.562 
				1348.56,1121.062 1387.56,1102.062 1391.56,1096.062 1349.56,1116.562 1342.06,1117.062 1337.06,1109.062 1333.56,1109.562 
				1333.06,1121.062 1315.56,1132.062 1306.56,1143.562 			"/>
		</g>
		<g>
			<defs>
				<rect id="SVGID_63_" y="-0.001" width="1799.042" height="1343.201"/>
			</defs>
			<clipPath id="SVGID_64_">
				<use xlink:href="#SVGID_63_"  overflow="visible"/>
			</clipPath>
			<polygon clip-path="url(#SVGID_64_)" fill="none" stroke="#2D2D2D" stroke-miterlimit="10" points="1297.06,1260.062 
				1291.06,1241.062 1291.06,1235.562 1285.06,1233.062 1281.56,1219.168 1285.06,1222.062 1289.31,1219.168 1281.56,1197.562 
				1281.56,1185.562 1293.06,1172.062 1302.06,1161.107 1309.56,1150.562 1300.56,1157.062 1291.06,1165.562 1281.56,1174.562 
				1272.06,1188.229 1267.56,1196.062 1256.56,1198.062 1256.56,1202.562 1268.06,1205.312 1271.56,1222.062 1277.56,1223.562 
				1279.56,1233.062 1279.06,1241.562 1288.56,1251.062 			"/>
		</g>
		<g>
			<defs>
				<rect id="SVGID_65_" y="-0.001" width="1799.042" height="1343.201"/>
			</defs>
			<clipPath id="SVGID_66_">
				<use xlink:href="#SVGID_65_"  overflow="visible"/>
			</clipPath>
			<polyline clip-path="url(#SVGID_66_)" fill="none" stroke="#2D2D2D" stroke-miterlimit="10" points="1012.06,1225.062 
				1032.56,1246.562 1036.56,1260.062 1041.56,1281.562 1050.56,1292.062 1060.06,1304.062 1066.06,1314.562 1084.56,1319.062 
				1098.56,1319.062 1114.06,1316.062 1140.56,1314.562 			"/>
		</g>
		<g>
			<defs>
				<rect id="SVGID_67_" y="-0.001" width="1799.042" height="1343.201"/>
			</defs>
			<clipPath id="SVGID_68_">
				<use xlink:href="#SVGID_67_"  overflow="visible"/>
			</clipPath>
			<polyline clip-path="url(#SVGID_68_)" fill="none" stroke="#2D2D2D" stroke-width="3" stroke-miterlimit="10" points="
				1795.56,430.562 1774.06,463.062 1761.06,488.062 1754.56,508.02 1749.56,515.562 1720.06,547.562 1689.06,583.562 
				1652.06,609.562 1626.06,627.562 1579.06,665.562 1523.56,690.531 1445.06,702.562 1391.56,709.562 1306.56,718.062 
				1262.06,726.562 1210.81,715.5 1169.06,726.562 1124.06,718.062 1084.06,726.562 1022.81,715.395 1003.06,712.562 			"/>
		</g>
		<g>
			<defs>
				<rect id="SVGID_69_" y="-0.001" width="1799.042" height="1343.201"/>
			</defs>
			<clipPath id="SVGID_70_">
				<use xlink:href="#SVGID_69_"  overflow="visible"/>
			</clipPath>
			<polyline clip-path="url(#SVGID_70_)" fill="none" stroke="#2D2D2D" stroke-width="3" stroke-miterlimit="10" points="
				1626.06,627.562 1637.06,646.562 1655.06,646.562 1683.06,642.395 1718.06,642.395 1754.56,639.803 1779.06,637.062 
				1795.56,632.562 			"/>
		</g>
		<g>
			<defs>
				<rect id="SVGID_71_" y="-0.001" width="1799.042" height="1343.201"/>
			</defs>
			<clipPath id="SVGID_72_">
				<use xlink:href="#SVGID_71_"  overflow="visible"/>
			</clipPath>
			<polyline clip-path="url(#SVGID_72_)" fill="none" stroke="#2D2D2D" stroke-width="3" stroke-miterlimit="10" points="
				969.06,646.562 1003.06,627.562 1040.06,609.562 1068.06,598.562 1082.06,588.562 1102.06,555.509 1102.06,510.562 
				1113.06,463.062 1160.06,399.562 1189.06,341.562 1219.06,302.562 1234.06,267.687 1295.06,259.562 1324.06,230.562 
				1338.06,216.062 1369.06,208.562 1410.06,193.812 1453.06,175.467 1492.06,158.562 1518.06,147.085 1547.06,138.562 
				1578.06,110.562 1604.06,75.229 1610.62,64.998 1632.06,31.562 1637.06,1.562 			"/>
		</g>
		<g>
			<defs>
				<rect id="SVGID_73_" y="-0.001" width="1799.042" height="1343.201"/>
			</defs>
			<clipPath id="SVGID_74_">
				<use xlink:href="#SVGID_73_"  overflow="visible"/>
			</clipPath>
			<polyline clip-path="url(#SVGID_74_)" fill="none" stroke="#2D2D2D" stroke-width="3" stroke-miterlimit="10" points="
				1617.075,54.93 1610.059,79.562 1610.059,111.562 1617.075,147.084 1637.059,175.466 1659.059,193.812 1678.059,211.562 
				1696.059,244.562 1717.059,273.562 1706.059,288.562 1710.809,319.561 1710.809,364.561 1733.059,394.561 1744.059,413.561 
				1754.559,445.561 1771.383,468.209 1798.059,491.311 			"/>
		</g>
		<g>
			<defs>
				<rect id="SVGID_75_" y="-0.001" width="1799.042" height="1343.201"/>
			</defs>
			<clipPath id="SVGID_76_">
				<use xlink:href="#SVGID_75_"  overflow="visible"/>
			</clipPath>
			<polyline clip-path="url(#SVGID_76_)" fill="none" stroke="#2D2D2D" stroke-width="3" stroke-miterlimit="10" points="
				990.06,715.499 1003.06,726.561 1040.06,739.561 1055.06,751.561 1076.31,786.561 1095.31,821.561 1114.06,846.895 
				1136.06,860.561 1136.06,865.561 1126.06,865.561 1126.06,881.561 1150.06,916.811 1190.06,978.561 1210.06,1009.561 
				1219.06,1047.561 1219.06,1062.561 1182.06,1076.895 1125.06,1083.895 1080.06,1083.895 1046.81,1091.561 1027.06,1110.561 
				1012.06,1136.561 1012.06,1169.561 1022.81,1198.561 1046.81,1239.561 1055.06,1260.061 1046.81,1299.561 1036.06,1339.561 			
				"/>
		</g>
		<g>
			<defs>
				<rect id="SVGID_77_" y="-0.001" width="1799.042" height="1343.201"/>
			</defs>
			<clipPath id="SVGID_78_">
				<use xlink:href="#SVGID_77_"  overflow="visible"/>
			</clipPath>
			<polyline clip-path="url(#SVGID_78_)" fill="none" stroke="#2D2D2D" stroke-width="3" stroke-miterlimit="10" points="
				697.227,783.728 688.825,797.561 670.06,822.561 641.06,846.895 584.06,897.395 546.477,929.895 491.394,978.561 466.06,997.561 
				443.06,997.561 415.06,992.561 372.81,1027.53 340.06,1052.561 295.06,1052.561 251.981,1064.561 220.06,1076.895 
				200.06,1083.895 187.56,1096.061 156.727,1043.561 138.06,1016.561 108.06,1003.561 83.06,968.561 83.06,934.561 62.06,908.561 
				44.06,865.561 33.06,853.561 2.06,853.561 			"/>
		</g>
		<g>
			<defs>
				<rect id="SVGID_79_" y="-0.001" width="1799.042" height="1343.201"/>
			</defs>
			<clipPath id="SVGID_80_">
				<use xlink:href="#SVGID_79_"  overflow="visible"/>
			</clipPath>
			<polyline clip-path="url(#SVGID_80_)" fill="none" stroke="#2D2D2D" stroke-width="3" stroke-miterlimit="10" points="
				187.56,1096.062 195.06,1121.062 184.727,1144.562 164.56,1181.562 136.06,1225.062 104.06,1274.562 79.06,1306.562 
				42.06,1306.562 14.06,1319.062 2.06,1319.062 			"/>
		</g>
		<g>
			<defs>
				<rect id="SVGID_81_" y="-0.001" width="1799.042" height="1343.201"/>
			</defs>
			<clipPath id="SVGID_82_">
				<use xlink:href="#SVGID_81_"  overflow="visible"/>
			</clipPath>
			<polyline clip-path="url(#SVGID_82_)" fill="none" stroke="#2D2D2D" stroke-width="3" stroke-miterlimit="10" points="
				184.727,1144.562 195.059,1161.107 211.727,1174.562 220.059,1182.562 221.331,1202.895 239.059,1214.562 271.059,1219.168 
				308.059,1219.168 360.059,1219.168 394.059,1225.062 409.059,1242.562 440.059,1265.562 502.06,1306.562 575.907,1332.562 
				591.06,1332.562 615.06,1332.562 635.06,1341.562 656.06,1332.562 724.357,1323.562 780.06,1327.562 805.401,1333.394 			"/>
		</g>
		<g>
			<defs>
				<rect id="SVGID_83_" y="-0.001" width="1799.042" height="1343.201"/>
			</defs>
			<clipPath id="SVGID_84_">
				<use xlink:href="#SVGID_83_"  overflow="visible"/>
			</clipPath>
			<polyline clip-path="url(#SVGID_84_)" fill="none" stroke="#2D2D2D" stroke-width="3" stroke-miterlimit="10" points="
				830.833,1274.562 864.06,1283.562 915.06,1294.562 937.31,1299.562 958.06,1323.562 969.06,1339.562 			"/>
		</g>
		<g>
			<defs>
				<rect id="SVGID_85_" y="-0.001" width="1799.042" height="1343.201"/>
			</defs>
			<clipPath id="SVGID_86_">
				<use xlink:href="#SVGID_85_"  overflow="visible"/>
			</clipPath>
			<path clip-path="url(#SVGID_86_)" fill="none" stroke="#2D2D2D" stroke-width="3" stroke-miterlimit="10" d="M942.185,324.062
				l6.625-32.5l8.25-23.75l25-15.25l38.25-13l34.75-20.62l40.25-8.38l19.25-9l29.25,9l20.25-35.095l16-12.595l16-39.31
				c0,0,11-29,9-35s-6-27-6-27l-11-14v-16l37-30"/>
		</g>
	</g>
</g>
<g id="Calque_3">
	<g enable-background="new    ">
		<path fill="#939697" d="M919.66,749.235l-1.258-3.638h-9.654l-1.225,3.638h-3.264l8.193-23.798h2.244l8.227,23.798H919.66z
			 M913.609,730.502l-3.91,12.273h7.752L913.609,730.502z"/>
		<path fill="#939697" d="M936.898,744.985c0,3.094-2.584,4.624-6.052,4.624c-3.399,0-6.391-1.836-6.391-5.575h2.89
			c0,2.346,1.563,3.229,3.638,3.229c1.869,0,3.094-0.68,3.094-2.21c0-1.733-1.836-1.903-4.93-2.958
			c-2.346-0.747-4.182-1.462-4.182-4.249c0-2.89,2.55-4.454,5.745-4.454c3.366,0,5.949,2.108,5.949,5.202h-2.855
			c0-1.802-1.088-2.822-3.128-2.822c-1.632,0-2.855,0.748-2.855,2.142c0,1.564,1.598,1.802,4.454,2.72
			C934.621,741.381,936.898,742.062,936.898,744.985z"/>
		<path fill="#939697" d="M941.115,725.437h2.958v11.083c0.918-1.87,2.821-3.128,5.439-3.128c2.142,0,3.705,0.748,4.623,2.04
			c0.851,1.156,1.19,2.516,1.19,4.691v9.111h-2.958v-8.193c0-2.855-1.02-5.031-3.909-5.031c-2.958,0-4.386,2.516-4.386,5.27v7.955
			h-2.958V725.437z"/>
		<path fill="#939697" d="M963.282,749.235h-2.957v-23.798h2.957v11.015c0.986-1.869,3.128-3.06,5.372-3.06
			c4.759,0,7.955,3.74,7.955,8.126c0,4.352-3.196,8.091-7.955,8.091c-2.244,0-4.386-1.19-5.372-3.06V749.235z M973.651,741.518
			c0-2.958-2.04-5.474-5.134-5.474c-3.195,0-5.235,2.516-5.235,5.474c0,2.957,2.04,5.439,5.235,5.439
			C971.611,746.957,973.651,744.475,973.651,741.518z"/>
		<path fill="#939697" d="M979.433,741.518c0-4.386,3.195-8.126,8.091-8.126c4.964,0,8.159,3.74,8.159,8.126
			c0,4.352-3.195,8.091-8.159,8.091C982.628,749.609,979.433,745.87,979.433,741.518z M992.759,741.518
			c0-2.958-2.04-5.474-5.235-5.474c-3.128,0-5.168,2.516-5.168,5.474c0,2.957,2.04,5.439,5.168,5.439
			C990.719,746.957,992.759,744.475,992.759,741.518z"/>
		<path fill="#939697" d="M1013.634,733.8v15.435h-2.957v-2.754c-0.918,1.87-2.856,3.128-5.439,3.128
			c-2.142,0-3.74-0.748-4.658-2.006c-0.85-1.156-1.155-2.55-1.155-4.691V733.8h2.957v8.159c0,2.855,1.021,5.031,3.876,5.031
			c2.991,0,4.42-2.481,4.42-5.27V733.8H1013.634z"/>
		<path fill="#939697" d="M1028.493,736.52c-0.612-0.136-0.918-0.17-1.462-0.17c-3.434,0-5.134,2.414-5.134,6.119v6.766h-2.958
			V733.8h2.958v3.025c0.816-1.938,2.958-3.264,5.134-3.264c0.578,0,1.054,0.068,1.462,0.238V736.52z"/>
		<path fill="#939697" d="M1031.349,733.8h2.958v2.72c0.918-1.87,2.821-3.128,5.439-3.128c2.142,0,3.706,0.748,4.624,2.04
			c0.85,1.156,1.189,2.516,1.189,4.691v9.111h-2.958v-8.193c0-2.855-1.02-5.031-3.909-5.031c-2.958,0-4.386,2.516-4.386,5.27v7.955
			h-2.958V733.8z"/>
		<path fill="#939697" d="M1052.292,742.299c0.136,2.618,1.394,4.828,4.793,4.828c2.312,0,3.434-1.122,3.91-2.448h2.991
			c-0.51,2.618-3.025,4.93-6.901,4.93c-5.201,0-7.717-3.638-7.717-8.091c0-4.658,2.754-8.126,7.615-8.126
			c4.012,0,7.14,3.026,7.14,6.97c0,0.441,0,1.088-0.137,1.938H1052.292z M1052.327,740.056h8.94c0-2.687-1.869-4.386-4.352-4.386
			C1054.264,735.67,1052.394,737.268,1052.327,740.056z"/>
	</g>
	<g enable-background="new    ">
		<path fill="#9E9E9E" d="M1142.153,650.155h-6.521v6.142h-1.82v-14.003h1.82v6.222h6.521v-6.222h1.82v14.003h-1.82V650.155z"/>
		<path fill="#9E9E9E" d="M1148.11,652.216c0.08,1.54,0.82,2.841,2.821,2.841c1.36,0,2.021-0.66,2.3-1.44h1.761
			c-0.3,1.54-1.78,2.9-4.061,2.9c-3.062,0-4.541-2.14-4.541-4.761c0-2.74,1.62-4.781,4.481-4.781c2.359,0,4.2,1.78,4.2,4.102
			c0,0.26,0,0.64-0.08,1.14H1148.11z M1148.13,650.895h5.261c0-1.58-1.1-2.58-2.561-2.58
			C1149.27,648.315,1148.17,649.256,1148.13,650.895z"/>
		<path fill="#9E9E9E" d="M1157.59,647.215h1.74v1.601c0.54-1.101,1.66-1.841,3.201-1.841c1.26,0,2.18,0.44,2.721,1.2
			c0.5,0.681,0.699,1.48,0.699,2.761v5.361h-1.74v-4.821c0-1.68-0.6-2.96-2.301-2.96c-1.74,0-2.58,1.479-2.58,3.101v4.681h-1.74
			V647.215z"/>
		<path fill="#9E9E9E" d="M1180.652,656.297v-5.221c0-1.681-0.681-2.561-1.921-2.561c-1.34,0-2.22,1.04-2.22,3.16v4.621h-1.741
			v-5.121c0-1.841-0.68-2.66-1.9-2.66c-1.32,0-2.24,1.04-2.24,3.16v4.621h-1.74v-9.082h1.74v1.62c0.34-1,1.341-1.86,2.682-1.86
			c1.68,0,2.58,0.78,2.92,1.94c0.381-1.04,1.5-1.94,2.921-1.94c2.421,0,3.24,1.581,3.24,3.581v5.741H1180.652z"/>
		<path fill="#9E9E9E" d="M1184.629,651.756c0-2.58,1.881-4.781,4.761-4.781c2.921,0,4.802,2.201,4.802,4.781
			c0,2.561-1.881,4.761-4.802,4.761C1186.51,656.516,1184.629,654.316,1184.629,651.756z M1192.471,651.756
			c0-1.74-1.201-3.221-3.081-3.221c-1.841,0-3.04,1.48-3.04,3.221s1.199,3.201,3.04,3.201
			C1191.27,654.957,1192.471,653.496,1192.471,651.756z"/>
		<path fill="#9E9E9E" d="M1202.191,648.815c-0.36-0.08-0.54-0.101-0.86-0.101c-2.021,0-3.021,1.421-3.021,3.602v3.98h-1.74v-9.082
			h1.74v1.78c0.479-1.14,1.74-1.92,3.021-1.92c0.34,0,0.62,0.04,0.86,0.14V648.815z"/>
		<path fill="#9E9E9E" d="M1204.69,652.216c0.08,1.54,0.82,2.841,2.82,2.841c1.359,0,2.02-0.66,2.301-1.44h1.76
			c-0.3,1.54-1.78,2.9-4.061,2.9c-3.061,0-4.541-2.14-4.541-4.761c0-2.74,1.62-4.781,4.48-4.781c2.361,0,4.201,1.78,4.201,4.102
			c0,0.26,0,0.64-0.08,1.14H1204.69z M1204.709,650.895h5.262c0-1.58-1.102-2.58-2.561-2.58
			C1205.85,648.315,1204.75,649.256,1204.709,650.895z"/>
		<path fill="#9E9E9E" d="M1219.229,642.294h4.781c3.381,0,4.261,2.141,4.261,3.741c0,1.7-1.22,2.9-2.501,3.16
			c1.081,0.08,2.602,1.24,2.602,3.221c0,1.601-0.961,3.881-4.342,3.881h-4.801V642.294z M1224.05,648.395c1.82,0,2.4-1.28,2.4-2.221
			c0-0.96-0.58-2.24-2.44-2.24h-2.961v4.461H1224.05z M1221.049,650.056v4.601h3.061c1.841,0,2.441-1.24,2.441-2.3
			c0-0.94-0.66-2.301-2.4-2.301H1221.049z"/>
		<path fill="#9E9E9E" d="M1236.67,648.815c-0.361-0.08-0.541-0.101-0.861-0.101c-2.02,0-3.02,1.421-3.02,3.602v3.98h-1.74v-9.082
			h1.74v1.78c0.48-1.14,1.74-1.92,3.02-1.92c0.34,0,0.621,0.04,0.861,0.14V648.815z"/>
		<path fill="#9E9E9E" d="M1237.149,651.756c0-2.58,1.879-4.781,4.76-4.781c2.922,0,4.801,2.201,4.801,4.781
			c0,2.561-1.879,4.761-4.801,4.761C1239.028,656.516,1237.149,654.316,1237.149,651.756z M1244.991,651.756
			c0-1.74-1.201-3.221-3.082-3.221c-1.84,0-3.039,1.48-3.039,3.221s1.199,3.201,3.039,3.201
			C1243.79,654.957,1244.991,653.496,1244.991,651.756z"/>
		<path fill="#9E9E9E" d="M1248.348,651.756c0-2.58,1.881-4.781,4.762-4.781c2.92,0,4.801,2.201,4.801,4.781
			c0,2.561-1.881,4.761-4.801,4.761C1250.229,656.516,1248.348,654.316,1248.348,651.756z M1256.19,651.756
			c0-1.74-1.199-3.221-3.08-3.221c-1.84,0-3.041,1.48-3.041,3.221s1.201,3.201,3.041,3.201
			C1254.991,654.957,1256.19,653.496,1256.19,651.756z"/>
		<path fill="#9E9E9E" d="M1263.889,651.756l4.141,4.541h-2.199l-3.801-4.121v4.121h-1.74v-14.003h1.74v9.062l3.801-4.141h2.199
			L1263.889,651.756z"/>
	</g>
	<g enable-background="new    ">
		<path fill="#9E9E9E" d="M1054.453,530.573h-3.629v-1.645h9.103v1.645h-3.648v12.391h-1.825V530.573z"/>
		<path fill="#9E9E9E" d="M1061.729,528.928h1.744v6.536c0.542-1.103,1.665-1.845,3.208-1.845c1.264,0,2.186,0.441,2.728,1.203
			c0.501,0.682,0.701,1.484,0.701,2.768v5.373h-1.744v-4.832c0-1.685-0.602-2.968-2.306-2.968c-1.744,0-2.587,1.484-2.587,3.108
			v4.691h-1.744V528.928z"/>
		<path fill="#9E9E9E" d="M1074.078,538.873c0.08,1.544,0.822,2.847,2.827,2.847c1.363,0,2.025-0.661,2.306-1.443h1.765
			c-0.301,1.544-1.784,2.907-4.07,2.907c-3.067,0-4.551-2.146-4.551-4.772c0-2.746,1.624-4.792,4.491-4.792
			c2.365,0,4.21,1.785,4.21,4.11c0,0.261,0,0.642-0.08,1.144H1074.078z M1074.098,537.55h5.273c0-1.584-1.104-2.587-2.566-2.587
			C1075.241,534.963,1074.138,535.906,1074.098,537.55z"/>
		<path fill="#9E9E9E" d="M1096.572,536.206h6.757v1.645h-1.504c-0.542,3.228-2.808,5.433-6.717,5.433
			c-4.611,0-7.198-3.549-7.198-7.338c0-3.81,2.747-7.338,7.198-7.338c3.147,0,5.533,1.904,5.874,4.23h-1.844
			c-0.361-1.444-1.945-2.587-4.03-2.587c-3.328,0-5.334,2.747-5.334,5.694s1.865,5.694,5.555,5.694c2.727,0,4.271-1.685,4.551-3.789
			h-3.308V536.206z"/>
		<path fill="#9E9E9E" d="M1111.044,535.464c-0.361-0.08-0.541-0.1-0.862-0.1c-2.025,0-3.027,1.423-3.027,3.608v3.99h-1.744v-9.103
			h1.744v1.784c0.481-1.143,1.744-1.925,3.027-1.925c0.341,0,0.622,0.04,0.862,0.141V535.464z"/>
		<path fill="#9E9E9E" d="M1113.549,538.873c0.08,1.544,0.822,2.847,2.827,2.847c1.363,0,2.024-0.661,2.306-1.443h1.765
			c-0.301,1.544-1.785,2.907-4.07,2.907c-3.068,0-4.552-2.146-4.552-4.772c0-2.746,1.624-4.792,4.491-4.792
			c2.366,0,4.211,1.785,4.211,4.11c0,0.261,0,0.642-0.08,1.144H1113.549z M1113.569,537.55h5.273c0-1.584-1.103-2.587-2.566-2.587
			C1114.712,534.963,1113.609,535.906,1113.569,537.55z"/>
		<path fill="#9E9E9E" d="M1124.074,538.873c0.08,1.544,0.822,2.847,2.827,2.847c1.363,0,2.024-0.661,2.306-1.443h1.765
			c-0.301,1.544-1.785,2.907-4.07,2.907c-3.068,0-4.552-2.146-4.552-4.772c0-2.746,1.624-4.792,4.491-4.792
			c2.366,0,4.211,1.785,4.211,4.11c0,0.261,0,0.642-0.08,1.144H1124.074z M1124.093,537.55h5.273c0-1.584-1.103-2.587-2.566-2.587
			C1125.237,534.963,1124.133,535.906,1124.093,537.55z"/>
		<path fill="#9E9E9E" d="M1133.576,533.861h1.744v1.604c0.541-1.103,1.664-1.845,3.208-1.845c1.263,0,2.186,0.441,2.727,1.203
			c0.501,0.682,0.702,1.484,0.702,2.768v5.373h-1.744v-4.832c0-1.685-0.602-2.968-2.307-2.968c-1.744,0-2.586,1.484-2.586,3.108
			v4.691h-1.744V533.861z"/>
		<path fill="#9E9E9E" d="M1149.973,528.928h4.933c2.927,0,4.812,2.206,4.812,4.772c0,2.045-1.183,3.829-3.107,4.491l2.947,4.771
			h-2.085l-2.787-4.471h-2.888v4.471h-1.824V528.928z M1157.893,533.701c0-1.685-1.163-3.128-2.987-3.128h-3.108v6.255h3.108
			C1156.73,536.828,1157.893,535.405,1157.893,533.701z"/>
		<path fill="#9E9E9E" d="M1168.778,541.379c-0.581,1.103-1.864,1.805-3.188,1.805c-2.787,0-4.672-2.206-4.672-4.772
			c0-2.586,1.885-4.792,4.672-4.792c1.323,0,2.606,0.702,3.188,1.805v-6.496h1.725v14.035h-1.725V541.379z M1168.778,538.411
			c0-1.744-1.203-3.228-3.088-3.228c-1.845,0-3.048,1.483-3.048,3.228c0,1.745,1.203,3.208,3.048,3.208
			C1167.575,541.62,1168.778,540.157,1168.778,538.411z"/>
	</g>
	<g enable-background="new    ">
		<path fill="#9E9E9E" d="M706.48,402.928h4.932c2.927,0,4.812,2.206,4.812,4.772c0,2.045-1.183,3.829-3.107,4.491l2.947,4.771
			h-2.085l-2.787-4.471h-2.887v4.471h-1.825V402.928z M714.4,407.701c0-1.685-1.163-3.128-2.988-3.128h-3.107v6.255h3.107
			C713.237,410.828,714.4,409.405,714.4,407.701z"/>
		<path fill="#9E9E9E" d="M719.491,402.989c0.782,0,1.423,0.642,1.423,1.423c0,0.763-0.642,1.384-1.423,1.384
			c-0.762,0-1.384-0.621-1.384-1.384C718.107,403.63,718.729,402.989,719.491,402.989z M718.628,407.861h1.744v9.103h-1.744V407.861
			z"/>
		<path fill="#9E9E9E" d="M723.9,407.861l2.847,6.616l2.887-6.616h1.885l-4.17,9.103h-1.203l-4.13-9.103H723.9z"/>
		<path fill="#9E9E9E" d="M733.684,412.873c0.08,1.544,0.822,2.847,2.827,2.847c1.363,0,2.025-0.661,2.306-1.443h1.765
			c-0.301,1.544-1.785,2.907-4.07,2.907c-3.068,0-4.551-2.146-4.551-4.772c0-2.746,1.624-4.792,4.491-4.792
			c2.366,0,4.21,1.785,4.21,4.11c0,0.261,0,0.642-0.08,1.144H733.684z M733.704,411.55h5.273c0-1.584-1.103-2.587-2.566-2.587
			C734.847,408.963,733.744,409.906,733.704,411.55z"/>
		<path fill="#9E9E9E" d="M748.819,409.464c-0.361-0.08-0.541-0.1-0.862-0.1c-2.025,0-3.028,1.423-3.028,3.608v3.99h-1.744v-9.103
			h1.744v1.784c0.481-1.143,1.745-1.925,3.028-1.925c0.341,0,0.622,0.04,0.862,0.141V409.464z"/>
		<path fill="#9E9E9E" d="M759.904,402.928c4.652,0,7.278,3.469,7.278,7.018s-2.626,7.018-7.278,7.018h-4.331v-14.035H759.904z
			 M757.398,404.573v10.746h2.506c3.449,0,5.394-2.666,5.394-5.373c0-2.727-1.945-5.373-5.394-5.373H757.398z"/>
		<path fill="#9E9E9E" d="M768.804,412.411c0-2.586,1.884-4.792,4.771-4.792c2.928,0,4.812,2.206,4.812,4.792
			c0,2.566-1.884,4.772-4.812,4.772C770.688,417.184,768.804,414.978,768.804,412.411z M776.664,412.411
			c0-1.744-1.203-3.228-3.088-3.228c-1.844,0-3.047,1.483-3.047,3.228c0,1.745,1.203,3.208,3.047,3.208
			C775.46,415.62,776.664,414.157,776.664,412.411z"/>
		<path fill="#9E9E9E" d="M780.592,407.861l2.847,6.616l2.887-6.616h1.885l-4.17,9.103h-1.203l-4.13-9.103H780.592z"/>
		<path fill="#9E9E9E" d="M790.375,412.873c0.08,1.544,0.822,2.847,2.827,2.847c1.363,0,2.025-0.661,2.306-1.443h1.765
			c-0.301,1.544-1.785,2.907-4.07,2.907c-3.068,0-4.551-2.146-4.551-4.772c0-2.746,1.624-4.792,4.491-4.792
			c2.366,0,4.21,1.785,4.21,4.11c0,0.261,0,0.642-0.08,1.144H790.375z M790.395,411.55h5.273c0-1.584-1.103-2.587-2.566-2.587
			C791.538,408.963,790.435,409.906,790.395,411.55z"/>
	</g>
	<g enable-background="new    ">
		<path fill="#9E9E9E" d="M808.481,657.565h4.792c3.388,0,4.271,2.146,4.271,3.749c0,1.705-1.223,2.907-2.506,3.168
			c1.083,0.081,2.606,1.243,2.606,3.229c0,1.604-0.962,3.89-4.351,3.89h-4.812V657.565z M813.313,663.68
			c1.825,0,2.406-1.283,2.406-2.226c0-0.962-0.581-2.245-2.446-2.245h-2.967v4.471H813.313z M810.306,665.344v4.611h3.067
			c1.845,0,2.446-1.242,2.446-2.306c0-0.942-0.662-2.306-2.406-2.306H810.306z"/>
		<path fill="#9E9E9E" d="M821.05,667.51c0.08,1.544,0.822,2.847,2.827,2.847c1.363,0,2.025-0.661,2.306-1.443h1.765
			c-0.301,1.544-1.785,2.907-4.07,2.907c-3.068,0-4.551-2.146-4.551-4.772c0-2.746,1.624-4.792,4.491-4.792
			c2.366,0,4.21,1.785,4.21,4.11c0,0.261,0,0.642-0.08,1.144H821.05z M821.07,666.187h5.273c0-1.584-1.103-2.587-2.566-2.587
			C822.213,663.6,821.11,664.542,821.07,666.187z"/>
		<path fill="#9E9E9E" d="M830.552,662.497h1.744v1.604c0.542-1.103,1.664-1.845,3.208-1.845c1.263,0,2.186,0.441,2.727,1.203
			c0.501,0.682,0.702,1.484,0.702,2.768v5.373h-1.744v-4.832c0-1.685-0.602-2.968-2.306-2.968c-1.744,0-2.586,1.484-2.586,3.108
			v4.691h-1.744V662.497z"/>
		<path fill="#9E9E9E" d="M846.83,671.6c-0.341,0.061-0.982,0.12-1.564,0.12c-1.123,0-2.867-0.2-2.867-3.188v-4.571h-1.685v-1.464
			h1.685v-3.067h1.744v3.067h2.366v1.464h-2.366v4.19c0,1.764,0.622,1.984,1.504,1.984c0.361,0,0.922-0.04,1.183-0.08V671.6z"/>
		<path fill="#9E9E9E" d="M848.694,657.565h1.744V671.6h-1.744V657.565z"/>
		<path fill="#9E9E9E" d="M854.587,667.51c0.08,1.544,0.822,2.847,2.827,2.847c1.363,0,2.025-0.661,2.306-1.443h1.765
			c-0.301,1.544-1.785,2.907-4.07,2.907c-3.068,0-4.551-2.146-4.551-4.772c0-2.746,1.624-4.792,4.491-4.792
			c2.366,0,4.21,1.785,4.21,4.11c0,0.261,0,0.642-0.08,1.144H854.587z M854.607,666.187h5.273c0-1.584-1.103-2.587-2.566-2.587
			C855.75,663.6,854.647,664.542,854.607,666.187z"/>
		<path fill="#9E9E9E" d="M863.929,672.783h1.765c0.1,1.645,1.022,2.467,2.526,2.467c1.564,0,2.546-0.622,2.546-2.707v-2.566
			c-0.542,1.103-1.644,1.845-3.188,1.845c-1.323,0-2.206-0.421-2.767-1.163c-0.501-0.682-0.682-1.504-0.682-2.847v-5.313h1.744
			v4.771c0,1.765,0.521,3.008,2.326,3.008c1.744,0,2.566-1.464,2.566-3.107v-4.672h1.744v10.045c0,2.907-1.524,4.19-4.331,4.19
			C865.593,676.733,863.989,675.41,863.929,672.783z"/>
		<path fill="#9E9E9E" d="M880.647,657.565h4.792c3.388,0,4.271,2.146,4.271,3.749c0,1.705-1.223,2.907-2.506,3.168
			c1.083,0.081,2.606,1.243,2.606,3.229c0,1.604-0.962,3.89-4.351,3.89h-4.812V657.565z M885.479,663.68
			c1.825,0,2.406-1.283,2.406-2.226c0-0.962-0.581-2.245-2.446-2.245h-2.967v4.471H885.479z M882.472,665.344v4.611h3.067
			c1.845,0,2.446-1.242,2.446-2.306c0-0.942-0.662-2.306-2.406-2.306H882.472z"/>
		<path fill="#9E9E9E" d="M898.128,664.101c-0.361-0.08-0.541-0.1-0.862-0.1c-2.025,0-3.028,1.423-3.028,3.608v3.99h-1.744v-9.103
			h1.744v1.784c0.481-1.143,1.745-1.925,3.028-1.925c0.341,0,0.622,0.04,0.862,0.141V664.101z"/>
		<path fill="#9E9E9E" d="M898.609,667.048c0-2.586,1.884-4.792,4.771-4.792c2.928,0,4.812,2.206,4.812,4.792
			c0,2.566-1.884,4.772-4.812,4.772C900.493,671.821,898.609,669.615,898.609,667.048z M906.468,667.048
			c0-1.744-1.203-3.228-3.088-3.228c-1.845,0-3.048,1.483-3.048,3.228c0,1.745,1.203,3.208,3.048,3.208
			C905.265,670.256,906.468,668.793,906.468,667.048z"/>
		<path fill="#9E9E9E" d="M909.834,667.048c0-2.586,1.885-4.792,4.771-4.792c2.928,0,4.812,2.206,4.812,4.792
			c0,2.566-1.885,4.772-4.812,4.772C911.719,671.821,909.834,669.615,909.834,667.048z M917.694,667.048
			c0-1.744-1.203-3.228-3.088-3.228c-1.845,0-3.048,1.483-3.048,3.228c0,1.745,1.203,3.208,3.048,3.208
			C916.491,670.256,917.694,668.793,917.694,667.048z"/>
		<path fill="#9E9E9E" d="M925.412,667.048l4.15,4.552h-2.205l-3.81-4.13v4.13h-1.745v-14.035h1.745v9.083l3.81-4.15h2.205
			L925.412,667.048z"/>
	</g>
	<g enable-background="new    ">
		<path fill="#9E9E9E" d="M580.767,866.933l-0.742-2.146h-5.694l-0.722,2.146h-1.925l4.832-14.035h1.324l4.852,14.035H580.767z
			 M577.198,855.885l-2.306,7.238h4.572L577.198,855.885z"/>
		<path fill="#9E9E9E" d="M590.93,864.427c0,1.824-1.523,2.727-3.569,2.727c-2.005,0-3.77-1.083-3.77-3.288h1.705
			c0,1.383,0.922,1.904,2.145,1.904c1.103,0,1.825-0.4,1.825-1.303c0-1.022-1.083-1.123-2.907-1.745
			c-1.383-0.44-2.466-0.861-2.466-2.506c0-1.704,1.504-2.627,3.389-2.627c1.985,0,3.509,1.243,3.509,3.068h-1.684
			c0-1.062-0.642-1.664-1.845-1.664c-0.962,0-1.684,0.44-1.684,1.263c0,0.923,0.942,1.062,2.626,1.604
			C589.586,862.301,590.93,862.703,590.93,864.427z"/>
		<path fill="#9E9E9E" d="M593.414,852.898h1.744v6.536c0.542-1.103,1.665-1.845,3.208-1.845c1.263,0,2.186,0.441,2.727,1.203
			c0.501,0.682,0.702,1.484,0.702,2.768v5.373h-1.744v-4.832c0-1.685-0.602-2.968-2.306-2.968c-1.744,0-2.586,1.484-2.586,3.108
			v4.691h-1.744V852.898z"/>
		<path fill="#9E9E9E" d="M606.484,866.933h-1.744v-14.035h1.744v6.496c0.582-1.103,1.845-1.805,3.168-1.805
			c2.807,0,4.692,2.206,4.692,4.792c0,2.566-1.885,4.772-4.692,4.772c-1.323,0-2.586-0.702-3.168-1.805V866.933z M612.6,862.381
			c0-1.744-1.203-3.228-3.027-3.228c-1.885,0-3.088,1.483-3.088,3.228c0,1.745,1.203,3.208,3.088,3.208
			C611.397,865.589,612.6,864.126,612.6,862.381z"/>
		<path fill="#9E9E9E" d="M616.006,862.381c0-2.586,1.884-4.792,4.771-4.792c2.928,0,4.812,2.206,4.812,4.792
			c0,2.566-1.884,4.772-4.812,4.772C617.891,867.154,616.006,864.948,616.006,862.381z M623.866,862.381
			c0-1.744-1.203-3.228-3.088-3.228c-1.844,0-3.047,1.483-3.047,3.228c0,1.745,1.203,3.208,3.047,3.208
			C622.663,865.589,623.866,864.126,623.866,862.381z"/>
		<path fill="#9E9E9E" d="M636.174,857.83v9.103h-1.744v-1.624c-0.542,1.103-1.684,1.845-3.208,1.845
			c-1.263,0-2.206-0.441-2.747-1.184c-0.501-0.682-0.682-1.503-0.682-2.767v-5.373h1.745v4.812c0,1.685,0.602,2.968,2.286,2.968
			c1.764,0,2.606-1.464,2.606-3.107v-4.672H636.174z"/>
		<path fill="#9E9E9E" d="M644.934,859.434c-0.361-0.08-0.541-0.1-0.862-0.1c-2.025,0-3.028,1.423-3.028,3.608v3.99H639.3v-9.103
			h1.744v1.784c0.481-1.143,1.745-1.925,3.028-1.925c0.341,0,0.622,0.04,0.862,0.141V859.434z"/>
		<path fill="#9E9E9E" d="M646.617,857.83h1.744v1.604c0.542-1.103,1.665-1.845,3.208-1.845c1.263,0,2.186,0.441,2.727,1.203
			c0.501,0.682,0.702,1.484,0.702,2.768v5.373h-1.744v-4.832c0-1.685-0.602-2.968-2.306-2.968c-1.744,0-2.586,1.484-2.586,3.108
			v4.691h-1.744V857.83z"/>
		<path fill="#9E9E9E" d="M658.966,862.843c0.08,1.544,0.822,2.847,2.827,2.847c1.363,0,2.025-0.661,2.306-1.443h1.765
			c-0.301,1.544-1.785,2.907-4.07,2.907c-3.068,0-4.551-2.146-4.551-4.772c0-2.746,1.624-4.792,4.491-4.792
			c2.366,0,4.21,1.785,4.21,4.11c0,0.261,0,0.642-0.08,1.144H658.966z M658.986,861.52h5.273c0-1.584-1.103-2.587-2.566-2.587
			C660.129,858.933,659.026,859.875,658.986,861.52z"/>
		<path fill="#9E9E9E" d="M673.539,852.898h4.933c2.928,0,4.812,2.206,4.812,4.772c0,2.045-1.184,3.829-3.108,4.491l2.947,4.771
			h-2.085l-2.787-4.471h-2.887v4.471h-1.825V852.898z M681.458,857.67c0-1.685-1.163-3.128-2.987-3.128h-3.107v6.255h3.107
			C680.295,860.797,681.458,859.374,681.458,857.67z"/>
		<path fill="#9E9E9E" d="M692.344,865.349c-0.581,1.103-1.864,1.805-3.188,1.805c-2.787,0-4.672-2.206-4.672-4.772
			c0-2.586,1.885-4.792,4.672-4.792c1.323,0,2.606,0.702,3.188,1.805v-6.496h1.725v14.035h-1.725V865.349z M692.344,862.381
			c0-1.744-1.203-3.228-3.088-3.228c-1.845,0-3.048,1.483-3.048,3.228c0,1.745,1.203,3.208,3.048,3.208
			C691.141,865.589,692.344,864.126,692.344,862.381z"/>
	</g>
	<g enable-background="new    ">
		<path fill="#9E9E9E" d="M403.739,744.915c0-3.81,2.727-7.338,7.238-7.338c4.491,0,7.238,3.528,7.238,7.338
			c0,3.789-2.747,7.338-7.238,7.338C406.466,752.253,403.739,748.704,403.739,744.915z M416.291,744.915
			c0-2.947-2.025-5.694-5.313-5.694c-3.308,0-5.333,2.747-5.333,5.694c0,2.928,2.025,5.694,5.333,5.694
			C414.265,750.61,416.291,747.843,416.291,744.915z"/>
		<path fill="#9E9E9E" d="M426.212,744.434c-0.361-0.08-0.541-0.1-0.862-0.1c-2.025,0-3.028,1.423-3.028,3.608v3.99h-1.744v-9.103
			h1.744v1.784c0.481-1.143,1.745-1.925,3.028-1.925c0.341,0,0.622,0.04,0.862,0.141V744.434z"/>
		<path fill="#9E9E9E" d="M434.752,750.349c-0.582,1.103-1.865,1.805-3.188,1.805c-2.787,0-4.671-2.206-4.671-4.772
			c0-2.586,1.884-4.792,4.671-4.792c1.323,0,2.606,0.702,3.188,1.805v-6.496h1.724v14.035h-1.724V750.349z M434.752,747.381
			c0-1.744-1.203-3.228-3.088-3.228c-1.844,0-3.047,1.483-3.047,3.228c0,1.745,1.203,3.208,3.047,3.208
			C433.549,750.589,434.752,749.126,434.752,747.381z"/>
		<path fill="#9E9E9E" d="M439.602,737.898h1.744v14.035h-1.744V737.898z"/>
		<path fill="#9E9E9E" d="M445.496,747.843c0.08,1.544,0.822,2.847,2.827,2.847c1.363,0,2.025-0.661,2.306-1.443h1.765
			c-0.301,1.544-1.785,2.907-4.07,2.907c-3.068,0-4.551-2.146-4.551-4.772c0-2.746,1.624-4.792,4.491-4.792
			c2.366,0,4.21,1.785,4.21,4.11c0,0.261,0,0.642-0.08,1.144H445.496z M445.516,746.52h5.273c0-1.584-1.103-2.587-2.566-2.587
			C446.659,743.933,445.556,744.875,445.516,746.52z"/>
		<path fill="#9E9E9E" d="M454.837,753.116h1.765c0.1,1.645,1.022,2.467,2.526,2.467c1.564,0,2.546-0.622,2.546-2.707v-2.566
			c-0.542,1.103-1.644,1.845-3.188,1.845c-1.323,0-2.206-0.421-2.767-1.163c-0.501-0.682-0.682-1.504-0.682-2.847v-5.313h1.744
			v4.771c0,1.765,0.521,3.008,2.326,3.008c1.744,0,2.566-1.464,2.566-3.107v-4.672h1.744v10.045c0,2.907-1.524,4.19-4.331,4.19
			C456.502,757.066,454.898,755.743,454.837,753.116z"/>
		<path fill="#9E9E9E" d="M471.556,737.898h4.792c3.388,0,4.271,2.146,4.271,3.749c0,1.705-1.223,2.907-2.506,3.168
			c1.083,0.081,2.606,1.243,2.606,3.229c0,1.604-0.962,3.89-4.351,3.89h-4.812V737.898z M476.388,744.013
			c1.825,0,2.406-1.283,2.406-2.226c0-0.962-0.581-2.245-2.446-2.245h-2.967v4.471H476.388z M473.381,745.677v4.611h3.067
			c1.845,0,2.446-1.242,2.446-2.306c0-0.942-0.662-2.306-2.406-2.306H473.381z"/>
		<path fill="#9E9E9E" d="M489.037,744.434c-0.361-0.08-0.541-0.1-0.862-0.1c-2.025,0-3.028,1.423-3.028,3.608v3.99h-1.744v-9.103
			h1.744v1.784c0.481-1.143,1.745-1.925,3.028-1.925c0.341,0,0.622,0.04,0.862,0.141V744.434z"/>
		<path fill="#9E9E9E" d="M489.518,747.381c0-2.586,1.884-4.792,4.771-4.792c2.928,0,4.812,2.206,4.812,4.792
			c0,2.566-1.884,4.772-4.812,4.772C491.402,752.154,489.518,749.948,489.518,747.381z M497.377,747.381
			c0-1.744-1.203-3.228-3.088-3.228c-1.844,0-3.047,1.483-3.047,3.228c0,1.745,1.203,3.208,3.047,3.208
			C496.174,750.589,497.377,749.126,497.377,747.381z"/>
		<path fill="#9E9E9E" d="M500.744,747.381c0-2.586,1.884-4.792,4.772-4.792c2.927,0,4.812,2.206,4.812,4.792
			c0,2.566-1.885,4.772-4.812,4.772C502.628,752.154,500.744,749.948,500.744,747.381z M508.604,747.381
			c0-1.744-1.203-3.228-3.088-3.228c-1.845,0-3.048,1.483-3.048,3.228c0,1.745,1.203,3.208,3.048,3.208
			C507.4,750.589,508.604,749.126,508.604,747.381z"/>
		<path fill="#9E9E9E" d="M516.32,747.381l4.15,4.552h-2.205l-3.81-4.13v4.13h-1.745v-14.035h1.745v9.083l3.81-4.15h2.205
			L516.32,747.381z"/>
	</g>
	<g enable-background="new    ">
		<path fill="#9E9E9E" d="M599.175,956.112h-6.536v6.155h-1.825v-14.035h1.825v6.235h6.536v-6.235H601v14.035h-1.825V956.112z"/>
		<path fill="#9E9E9E" d="M605.147,958.177c0.08,1.544,0.822,2.847,2.827,2.847c1.363,0,2.025-0.661,2.306-1.443h1.765
			c-0.301,1.544-1.785,2.907-4.07,2.907c-3.068,0-4.551-2.146-4.551-4.772c0-2.746,1.624-4.792,4.491-4.792
			c2.366,0,4.21,1.785,4.21,4.11c0,0.261,0,0.642-0.08,1.144H605.147z M605.167,956.854h5.273c0-1.584-1.103-2.587-2.566-2.587
			C606.31,954.267,605.207,955.209,605.167,956.854z"/>
		<path fill="#9E9E9E" d="M614.649,953.164h1.744v1.604c0.542-1.103,1.665-1.845,3.208-1.845c1.263,0,2.186,0.441,2.727,1.203
			c0.501,0.682,0.702,1.484,0.702,2.768v5.373h-1.744v-4.832c0-1.685-0.602-2.968-2.306-2.968c-1.744,0-2.586,1.484-2.586,3.108
			v4.691h-1.744V953.164z"/>
		<path fill="#9E9E9E" d="M637.765,962.267v-5.233c0-1.684-0.682-2.566-1.925-2.566c-1.344,0-2.226,1.043-2.226,3.168v4.632h-1.745
			v-5.133c0-1.845-0.682-2.667-1.905-2.667c-1.323,0-2.246,1.043-2.246,3.168v4.632h-1.744v-9.103h1.744v1.624
			c0.341-1.003,1.343-1.865,2.687-1.865c1.684,0,2.586,0.782,2.927,1.945c0.381-1.043,1.503-1.945,2.927-1.945
			c2.426,0,3.248,1.584,3.248,3.59v5.754H637.765z"/>
		<path fill="#9E9E9E" d="M641.751,957.715c0-2.586,1.884-4.792,4.771-4.792c2.928,0,4.812,2.206,4.812,4.792
			c0,2.566-1.884,4.772-4.812,4.772C643.636,962.488,641.751,960.282,641.751,957.715z M649.611,957.715
			c0-1.744-1.203-3.228-3.088-3.228c-1.844,0-3.047,1.483-3.047,3.228c0,1.745,1.203,3.208,3.047,3.208
			C648.408,960.923,649.611,959.46,649.611,957.715z"/>
		<path fill="#9E9E9E" d="M659.353,954.768c-0.361-0.08-0.541-0.1-0.862-0.1c-2.025,0-3.028,1.423-3.028,3.608v3.99h-1.744v-9.103
			h1.744v1.784c0.481-1.143,1.745-1.925,3.028-1.925c0.341,0,0.622,0.04,0.862,0.141V954.768z"/>
		<path fill="#9E9E9E" d="M661.858,958.177c0.08,1.544,0.822,2.847,2.827,2.847c1.363,0,2.025-0.661,2.306-1.443h1.765
			c-0.301,1.544-1.785,2.907-4.07,2.907c-3.068,0-4.551-2.146-4.551-4.772c0-2.746,1.624-4.792,4.491-4.792
			c2.366,0,4.21,1.785,4.21,4.11c0,0.261,0,0.642-0.08,1.144H661.858z M661.878,956.854h5.273c0-1.584-1.103-2.587-2.566-2.587
			C663.021,954.267,661.918,955.209,661.878,956.854z"/>
		<path fill="#9E9E9E" d="M676.432,948.232h4.792c3.388,0,4.271,2.146,4.271,3.749c0,1.705-1.223,2.907-2.506,3.168
			c1.083,0.081,2.606,1.243,2.606,3.229c0,1.604-0.962,3.89-4.351,3.89h-4.812V948.232z M681.264,954.347
			c1.825,0,2.406-1.283,2.406-2.226c0-0.962-0.581-2.245-2.446-2.245h-2.967v4.471H681.264z M678.256,956.011v4.611h3.067
			c1.845,0,2.446-1.242,2.446-2.306c0-0.942-0.662-2.306-2.406-2.306H678.256z"/>
		<path fill="#9E9E9E" d="M693.913,954.768c-0.361-0.08-0.542-0.1-0.862-0.1c-2.025,0-3.027,1.423-3.027,3.608v3.99h-1.745v-9.103
			h1.745v1.784c0.48-1.143,1.744-1.925,3.027-1.925c0.341,0,0.621,0.04,0.862,0.141V954.768z"/>
		<path fill="#9E9E9E" d="M694.393,957.715c0-2.586,1.885-4.792,4.771-4.792c2.928,0,4.812,2.206,4.812,4.792
			c0,2.566-1.885,4.772-4.812,4.772C696.277,962.488,694.393,960.282,694.393,957.715z M702.252,957.715
			c0-1.744-1.203-3.228-3.088-3.228c-1.845,0-3.048,1.483-3.048,3.228c0,1.745,1.203,3.208,3.048,3.208
			C701.049,960.923,702.252,959.46,702.252,957.715z"/>
		<path fill="#9E9E9E" d="M705.619,957.715c0-2.586,1.885-4.792,4.771-4.792c2.928,0,4.812,2.206,4.812,4.792
			c0,2.566-1.885,4.772-4.812,4.772C707.504,962.488,705.619,960.282,705.619,957.715z M713.479,957.715
			c0-1.744-1.203-3.228-3.088-3.228c-1.845,0-3.048,1.483-3.048,3.228c0,1.745,1.203,3.208,3.048,3.208
			C712.275,960.923,713.479,959.46,713.479,957.715z"/>
		<path fill="#9E9E9E" d="M721.195,957.715l4.15,4.552h-2.205l-3.81-4.13v4.13h-1.745v-14.035h1.745v9.083l3.81-4.15h2.205
			L721.195,957.715z"/>
	</g>
	<g enable-background="new    ">
		<path fill="#9E9E9E" d="M329.147,1041.232h4.792c3.388,0,4.271,2.146,4.271,3.749c0,1.705-1.223,2.907-2.506,3.168
			c1.083,0.081,2.606,1.243,2.606,3.229c0,1.604-0.962,3.89-4.351,3.89h-4.812V1041.232z M333.979,1047.347
			c1.825,0,2.406-1.283,2.406-2.226c0-0.962-0.581-2.245-2.446-2.245h-2.967v4.471H333.979z M330.972,1049.011v4.611h3.067
			c1.845,0,2.446-1.242,2.446-2.306c0-0.942-0.662-2.306-2.406-2.306H330.972z"/>
		<path fill="#9E9E9E" d="M341.055,1041.232h8.261v1.645h-6.617v4.691c0.582-1.103,2.045-1.604,3.148-1.604
			c2.927,0,4.531,2.165,4.531,4.751c0,2.566-1.905,4.772-4.832,4.772c-2.887,0-4.772-2.206-4.772-4.772h1.825
			c0,1.685,1.163,3.128,2.947,3.128c1.845,0,2.987-1.443,2.987-3.128c0-1.704-1.143-3.107-2.987-3.107
			c-1.183,0-2.105,0.562-2.626,1.685h-1.865V1041.232z"/>
		<path fill="#9E9E9E" d="M352.421,1045.763c0-2.586,1.885-4.771,4.772-4.771c2.947,0,4.832,2.186,4.832,4.771v4.973
			c0,2.566-1.885,4.771-4.832,4.771c-2.887,0-4.772-2.205-4.772-4.771V1045.763z M360.2,1045.763c0-1.704-1.183-3.128-3.007-3.128
			c-1.785,0-2.947,1.424-2.947,3.128v4.973c0,1.685,1.163,3.128,2.947,3.128c1.825,0,3.007-1.443,3.007-3.128V1045.763z"/>
		<path fill="#9E9E9E" d="M365.512,1050.836c0,1.864,1.303,3.007,3.007,3.007c1.725,0,2.767-1.143,2.767-2.506
			c0-1.483-0.842-2.587-2.847-2.587h-1.002v-1.624h1.002c1.825,0,2.546-0.962,2.546-2.325s-0.982-2.146-2.446-2.146
			c-1.825,0-2.606,1.042-2.606,2.546h-1.845c0-2.486,1.785-4.19,4.331-4.19c2.446,0,4.391,1.504,4.391,3.79
			c0,1.624-0.842,2.727-2.166,3.147c1.463,0.461,2.486,1.584,2.486,3.389c0,2.466-2.065,4.15-4.671,4.15
			c-2.586,0-4.772-1.725-4.772-4.651H365.512z"/>
		<path fill="#9E9E9E" d="M379.124,1048.27c1.444-0.723,2.988-1.464,2.988-3.349c0-1.464-0.983-2.266-2.466-2.266
			c-1.524,0-2.646,0.962-2.646,2.747h-1.825c0-2.747,2.045-4.392,4.491-4.392c2.506,0,4.271,1.444,4.271,4.07
			c0,2.606-2.566,3.91-3.79,4.552c-2.346,1.323-2.887,2.085-2.887,3.989h6.677v1.645h-8.762
			C375.174,1050.836,376.678,1049.553,379.124,1048.27z"/>
	</g>
	<g enable-background="new    ">
		<path fill="#9E9E9E" d="M366.016,1257.558v-10.848h1.825v14.035h-2.025l-6.315-10.847v10.847h-1.825v-14.035h2.025
			L366.016,1257.558z"/>
		<path fill="#9E9E9E" d="M370.225,1256.194c0-2.586,1.884-4.792,4.771-4.792c2.928,0,4.812,2.206,4.812,4.792
			c0,2.566-1.884,4.772-4.812,4.772C372.109,1260.966,370.225,1258.76,370.225,1256.194z M378.084,1256.194
			c0-1.744-1.203-3.228-3.088-3.228c-1.844,0-3.047,1.483-3.047,3.228c0,1.745,1.203,3.208,3.047,3.208
			C376.881,1259.402,378.084,1257.939,378.084,1256.194z"/>
		<path fill="#9E9E9E" d="M387.826,1253.246c-0.361-0.08-0.541-0.1-0.862-0.1c-2.025,0-3.028,1.423-3.028,3.608v3.99h-1.744v-9.103
			h1.744v1.784c0.481-1.143,1.745-1.925,3.028-1.925c0.341,0,0.622,0.04,0.862,0.141V1253.246z"/>
		<path fill="#9E9E9E" d="M391.253,1260.745h-1.744v-14.035h1.744v6.496c0.582-1.103,1.845-1.805,3.168-1.805
			c2.807,0,4.692,2.206,4.692,4.792c0,2.566-1.885,4.772-4.692,4.772c-1.323,0-2.586-0.702-3.168-1.805V1260.745z M397.368,1256.194
			c0-1.744-1.203-3.228-3.027-3.228c-1.885,0-3.088,1.483-3.088,3.228c0,1.745,1.203,3.208,3.088,3.208
			C396.166,1259.402,397.368,1257.939,397.368,1256.194z"/>
		<path fill="#9E9E9E" d="M409.717,1251.643v9.103h-1.744v-1.624c-0.542,1.103-1.684,1.845-3.208,1.845
			c-1.263,0-2.206-0.441-2.747-1.184c-0.501-0.682-0.682-1.503-0.682-2.767v-5.373h1.745v4.812c0,1.685,0.602,2.968,2.286,2.968
			c1.764,0,2.606-1.464,2.606-3.107v-4.672H409.717z"/>
		<path fill="#9E9E9E" d="M418.477,1253.246c-0.361-0.08-0.541-0.1-0.862-0.1c-2.025,0-3.028,1.423-3.028,3.608v3.99h-1.744v-9.103
			h1.744v1.784c0.481-1.143,1.745-1.925,3.028-1.925c0.341,0,0.622,0.04,0.862,0.141V1253.246z"/>
		<path fill="#9E9E9E" d="M419.999,1261.928h1.765c0.1,1.645,1.022,2.467,2.526,2.467c1.564,0,2.546-0.622,2.546-2.707v-2.566
			c-0.542,1.103-1.644,1.845-3.188,1.845c-1.323,0-2.206-0.421-2.767-1.163c-0.501-0.682-0.682-1.504-0.682-2.847v-5.313h1.744
			v4.771c0,1.765,0.521,3.008,2.326,3.008c1.744,0,2.566-1.464,2.566-3.107v-4.672h1.744v10.045c0,2.907-1.524,4.19-4.331,4.19
			C421.664,1265.878,420.06,1264.555,419.999,1261.928z"/>
		<path fill="#9E9E9E" d="M445.079,1254.59h-6.536v6.155h-1.825v-14.035h1.825v6.235h6.536v-6.235h1.825v14.035h-1.825V1254.59z"/>
		<path fill="#9E9E9E" d="M449.287,1256.194c0-2.586,1.884-4.792,4.771-4.792c2.928,0,4.812,2.206,4.812,4.792
			c0,2.566-1.885,4.772-4.812,4.772C451.171,1260.966,449.287,1258.76,449.287,1256.194z M457.146,1256.194
			c0-1.744-1.203-3.228-3.088-3.228c-1.844,0-3.047,1.483-3.047,3.228c0,1.745,1.203,3.208,3.047,3.208
			C455.943,1259.402,457.146,1257.939,457.146,1256.194z"/>
		<path fill="#9E9E9E" d="M461.254,1246.71h1.745v14.035h-1.745V1246.71z"/>
		<path fill="#9E9E9E" d="M466.125,1246.71h1.745v14.035h-1.745V1246.71z"/>
		<path fill="#9E9E9E" d="M470.256,1256.194c0-2.586,1.885-4.792,4.771-4.792c2.928,0,4.812,2.206,4.812,4.792
			c0,2.566-1.885,4.772-4.812,4.772C472.141,1260.966,470.256,1258.76,470.256,1256.194z M478.115,1256.194
			c0-1.744-1.203-3.228-3.088-3.228c-1.845,0-3.048,1.483-3.048,3.228c0,1.745,1.203,3.208,3.048,3.208
			C476.912,1259.402,478.115,1257.939,478.115,1256.194z"/>
		<path fill="#9E9E9E" d="M487.897,1253.547l-2.546,7.198h-1.203l-3.529-9.103h1.865l2.266,6.416l2.285-6.416h1.725l2.266,6.416
			l2.285-6.416h1.865l-3.529,9.103h-1.203L487.897,1253.547z"/>
	</g>
	<g enable-background="new    ">
		<path fill="#9E9E9E" d="M1069.822,1093.243h-1.845v-9.785l-4.03,9.785h-1.403l-4.05-9.785v9.785h-1.825v-14.035h1.765
			l4.812,11.229l4.812-11.229h1.765V1093.243z"/>
		<path fill="#9E9E9E" d="M1072.205,1088.69c0-2.586,1.885-4.791,4.771-4.791c2.928,0,4.812,2.205,4.812,4.791
			c0,2.566-1.885,4.773-4.812,4.773C1074.089,1093.463,1072.205,1091.256,1072.205,1088.69z M1080.064,1088.69
			c0-1.744-1.203-3.227-3.088-3.227c-1.844,0-3.047,1.482-3.047,3.227c0,1.746,1.203,3.209,3.047,3.209
			C1078.861,1091.899,1080.064,1090.436,1080.064,1088.69z"/>
		<path fill="#9E9E9E" d="M1083.431,1088.69c0-2.586,1.884-4.791,4.771-4.791c2.928,0,4.812,2.205,4.812,4.791
			c0,2.566-1.884,4.773-4.812,4.773C1085.315,1093.463,1083.431,1091.256,1083.431,1088.69z M1091.291,1088.69
			c0-1.744-1.203-3.227-3.088-3.227c-1.845,0-3.048,1.482-3.048,3.227c0,1.746,1.203,3.209,3.048,3.209
			C1090.087,1091.899,1091.291,1090.436,1091.291,1088.69z"/>
		<path fill="#9E9E9E" d="M1101.033,1085.743c-0.361-0.08-0.541-0.1-0.862-0.1c-2.025,0-3.027,1.424-3.027,3.609v3.99h-1.744v-9.104
			h1.744v1.785c0.481-1.143,1.744-1.926,3.027-1.926c0.341,0,0.622,0.041,0.862,0.141V1085.743z"/>
		<path fill="#9E9E9E" d="M1103.538,1089.153c0.08,1.543,0.822,2.846,2.827,2.846c1.363,0,2.024-0.66,2.306-1.443h1.765
			c-0.301,1.545-1.785,2.908-4.07,2.908c-3.068,0-4.552-2.146-4.552-4.773c0-2.746,1.624-4.791,4.491-4.791
			c2.366,0,4.211,1.785,4.211,4.109c0,0.262,0,0.643-0.08,1.145H1103.538z M1103.557,1087.828h5.273
			c0-1.584-1.103-2.586-2.566-2.586C1104.701,1085.243,1103.597,1086.184,1103.557,1087.828z"/>
		<path fill="#9E9E9E" d="M1124.527,1091.598v1.645h-6.416v-14.035h1.825v12.391H1124.527z"/>
		<path fill="#9E9E9E" d="M1126.63,1084.139h1.744v1.604c0.542-1.102,1.665-1.844,3.208-1.844c1.264,0,2.186,0.441,2.728,1.203
			c0.501,0.682,0.701,1.484,0.701,2.768v5.373h-1.744v-4.832c0-1.686-0.602-2.969-2.306-2.969c-1.744,0-2.587,1.484-2.587,3.109
			v4.691h-1.744V1084.139z"/>
	</g>
	<g enable-background="new    ">
		<path fill="#9E9E9E" d="M839.564,1087.955l-1.008-2.914h-7.735l-0.98,2.914h-2.615l6.564-19.065h1.798l6.591,19.065H839.564z
			 M834.716,1072.948l-3.132,9.833h6.21L834.716,1072.948z"/>
		<path fill="#9E9E9E" d="M844.517,1068.89h11.222v2.233h-8.988v6.373c0.79-1.498,2.778-2.179,4.276-2.179
			c3.977,0,6.156,2.941,6.156,6.455c0,3.486-2.588,6.482-6.564,6.482c-3.922,0-6.482-2.996-6.482-6.482h2.479
			c0,2.288,1.58,4.249,4.004,4.249c2.506,0,4.059-1.961,4.059-4.249c0-2.315-1.553-4.222-4.059-4.222
			c-1.607,0-2.86,0.763-3.568,2.288h-2.533V1068.89z"/>
		<path fill="#9E9E9E" d="M858.567,1072.049c3.405,0,4.059-0.872,4.059-3.159h2.37v19.065h-2.561v-13.918h-3.868V1072.049z"/>
		<path fill="#9E9E9E" d="M869.323,1068.89h11.222v2.233h-8.988v6.373c0.79-1.498,2.778-2.179,4.276-2.179
			c3.977,0,6.156,2.941,6.156,6.455c0,3.486-2.588,6.482-6.564,6.482c-3.922,0-6.482-2.996-6.482-6.482h2.479
			c0,2.288,1.58,4.249,4.004,4.249c2.506,0,4.059-1.961,4.059-4.249c0-2.315-1.553-4.222-4.059-4.222
			c-1.607,0-2.86,0.763-3.568,2.288h-2.533V1068.89z"/>
	</g>
	<g enable-background="new    ">
		<path fill="#9E9E9E" d="M941.564,416.963l-1.008-2.914h-7.735l-0.98,2.914h-2.615l6.564-19.065h1.798l6.591,19.065H941.564z
			 M936.715,401.955l-3.132,9.833h6.21L936.715,401.955z"/>
		<path fill="#9E9E9E" d="M946.516,397.898h11.222v2.233h-8.988v6.373c0.79-1.498,2.778-2.179,4.276-2.179
			c3.977,0,6.156,2.941,6.156,6.455c0,3.486-2.588,6.482-6.564,6.482c-3.922,0-6.482-2.996-6.482-6.482h2.479
			c0,2.288,1.58,4.249,4.004,4.249c2.506,0,4.059-1.961,4.059-4.249c0-2.315-1.553-4.222-4.059-4.222
			c-1.607,0-2.86,0.763-3.568,2.288h-2.533V397.898z"/>
		<path fill="#9E9E9E" d="M960.567,401.057c3.404,0,4.059-0.872,4.059-3.159h2.369v19.065h-2.561v-13.918h-3.867V401.057z"/>
		<path fill="#9E9E9E" d="M971.323,397.898h11.222v2.233h-8.988v6.373c0.79-1.498,2.778-2.179,4.276-2.179
			c3.977,0,6.155,2.941,6.155,6.455c0,3.486-2.588,6.482-6.564,6.482c-3.922,0-6.482-2.996-6.482-6.482h2.479
			c0,2.288,1.58,4.249,4.004,4.249c2.506,0,4.059-1.961,4.059-4.249c0-2.315-1.553-4.222-4.059-4.222
			c-1.606,0-2.859,0.763-3.567,2.288h-2.533V397.898z"/>
	</g>
	<g enable-background="new    ">
		<path fill="#9E9E9E" d="M1221.55,938.954l-1.008-2.914h-7.735l-0.98,2.914h-2.615l6.564-19.065h1.798l6.591,19.065H1221.55z
			 M1216.702,923.947l-3.132,9.833h6.21L1216.702,923.947z"/>
		<path fill="#9E9E9E" d="M1226.502,919.889h11.222v2.233h-8.988v6.373c0.79-1.498,2.778-2.179,4.276-2.179
			c3.977,0,6.156,2.941,6.156,6.455c0,3.486-2.588,6.482-6.564,6.482c-3.922,0-6.482-2.996-6.482-6.482h2.479
			c0,2.288,1.58,4.249,4.004,4.249c2.506,0,4.059-1.961,4.059-4.249c0-2.315-1.553-4.222-4.059-4.222
			c-1.607,0-2.86,0.763-3.568,2.288h-2.533V919.889z"/>
		<path fill="#9E9E9E" d="M1247.226,929.449c1.961-0.98,4.058-1.988,4.058-4.549c0-1.988-1.334-3.077-3.35-3.077
			c-2.07,0-3.596,1.308-3.596,3.731h-2.479c0-3.731,2.778-5.965,6.102-5.965c3.404,0,5.801,1.961,5.801,5.529
			c0,3.54-3.486,5.311-5.147,6.183c-3.187,1.798-3.922,2.832-3.922,5.42h9.069v2.233h-11.902
			C1241.86,932.935,1243.903,931.192,1247.226,929.449z"/>
	</g>
	<path fill="#FEDE00" d="M978.531,640.1c14.929,0,27.031,12.102,27.031,27.031s-12.102,27.031-27.031,27.031
		S951.5,682.06,951.5,667.131S963.602,640.1,978.531,640.1z"/>
</g>
</svg>
