<svg version="1.1" id="Calque_1" xmlns="http://www.w3.org/2000/svg" xmlns:xlink="http://www.w3.org/1999/xlink" x="0px" y="0px"
	 width="130.029px" height="117.809px" viewBox="0 0 130.029 117.809" style="enable-background:new 0 0 130.029 117.809;"
	 xml:space="preserve">
<g>
	<path style="fill:#EEEEEE;" d="M0,6.771c0,0,11.945-5.332,24.533-5.709c34.744-1.038,33.79,12.879,68.529,11.682
		c12.682-0.437,24.664-5.974,24.664-5.974v51.642c0,0-11.98,5.084-24.532,5.359C58.78,64.526,59.773,51.379,25.357,52.04
		c-12.755,0.245-24.958,5.311-24.958,5.311s7.705-9.674,17.091-17.538c8.503-7.126,18.355-12.465,18.355-12.465
		s-7.123-7.623-15.96-12.735C10.635,9.26,0,6.771,0,6.771"/>
	<path style="fill:#EEEEEE;" d="M128.601,0.544C127.686,0.196,126.446,0,125.153,0c-1.292,0-2.533,0.196-3.448,0.544
		c-0.914,0.348-1.428,0.821-1.428,1.314c0,0.493,0.513,0.966,1.428,1.314c0.253,0.097,0.532,0.181,0.827,0.254v88.312v25.228
		l5.178,0.843V91.738V3.44c0.322-0.075,0.62-0.165,0.891-0.268c0.915-0.348,1.428-0.821,1.428-1.314
		C130.029,1.365,129.516,0.892,128.601,0.544z"/>
</g>
</svg>
