<svg version="1.1" xmlns="http://www.w3.org/2000/svg" xmlns:xlink="http://www.w3.org/1999/xlink" x="0px"
     y="0px" width="800px" height="200px" viewBox="0 0 800 200" enable-background="new 0 0 800 200" xml:space="preserve">
<g>
    <path fill="#1D1D1B" d="M0,137.079V26.995h17.118v110.082H0V137.079z"/>
    <path fill="#1D1D1B" d="M36.393,37.051c0-3.581,1.241-6.588,3.724-9.019c2.482-2.431,5.438-3.646,8.866-3.646
        c3.581,0,6.602,1.227,9.058,3.685c2.458,2.458,3.685,5.451,3.685,8.983c0,3.482-1.229,6.449-3.685,8.905
        c-2.456,2.458-5.477,3.687-9.058,3.687c-3.481,0-6.449-1.229-8.905-3.687S36.393,40.534,36.393,37.051z M40.539,137.079V63.844
        h17.12v73.235H40.539z"/>
    <path fill="#1D1D1B" d="M69.717,63.844H88.14l20.113,48.747l20.421-48.747h18.423l-33.162,73.235h-11.516L69.717,63.844z"/>
    <path fill="#1D1D1B" d="M155.011,37.051c0-3.581,1.241-6.588,3.724-9.019c2.482-2.431,5.438-3.646,8.866-3.646
        c3.581,0,6.602,1.227,9.058,3.685c2.458,2.458,3.685,5.451,3.685,8.983c0,3.482-1.229,6.449-3.685,8.905
        c-2.456,2.458-5.477,3.687-9.058,3.687c-3.481,0-6.449-1.229-8.905-3.687C156.24,43.5,155.011,40.534,155.011,37.051z
         M159.157,137.079V63.844h17.12v73.235H159.157z"/>
    <path fill="#1D1D1B" d="M199.696,137.079V63.844h17.118v10.09c2.303-3.953,5.502-6.942,9.597-8.97
        c4.093-2.026,8.852-3.042,14.278-3.042c5.322,0,9.799,0.898,13.433,2.687c3.634,1.792,6.498,4.197,8.599,7.217
        c1.791,2.713,3.019,5.747,3.685,9.097c0.664,3.352,0.998,7.562,0.998,12.629v43.527h-17.12V99.059c0-3.129-0.268-6.067-0.806-8.812
        c-0.539-2.745-1.408-5.081-2.609-7.005c-1.204-1.924-2.815-3.463-4.836-4.618c-2.023-1.153-4.567-1.731-7.637-1.731
        c-5.988,0-10.416,2.13-13.28,6.389c-2.866,4.257-4.299,9.516-4.299,15.777v38.02H199.696z"/>
    <path fill="#1D1D1B" d="M280.615,100.46c0-5.116,0.919-10.016,2.757-14.701c1.838-4.683,4.403-8.801,7.697-12.361
        c3.294-3.556,7.238-6.357,11.835-8.405c4.595-2.046,9.65-3.07,15.166-3.07c4.313,0,8.604,1.051,12.866,3.148
        c4.262,2.099,7.551,4.99,9.863,8.674v-9.902h17.12v76.843c0,6.192-0.886,11.488-2.655,15.889
        c-1.769,4.401-4.359,8.023-7.769,10.863c-3.412,2.84-7.541,4.912-12.386,6.217s-10.321,1.958-16.423,1.958
        c-6.078,0-11.349-0.872-15.817-2.609c-4.468-1.739-8.22-4.018-11.259-6.833c-3.041-2.815-5.377-6.041-7.011-9.673
        c-1.634-3.634-2.553-7.319-2.755-11.053h17.12c0.41,3.993,2.259,7.47,5.548,10.44c3.287,2.968,8.012,4.453,14.176,4.453
        c6.933,0,12.354-1.549,16.257-4.646c3.903-3.097,5.856-8.099,5.856-15.005v-13.513c-2.312,3.685-5.6,6.576-9.863,8.676
        c-4.262,2.097-8.553,3.146-12.866,3.146c-5.567,0-10.636-1.025-15.204-3.07c-4.569-2.046-8.502-4.861-11.796-8.444
        c-3.294-3.581-5.859-7.676-7.697-12.284C281.534,110.594,280.615,105.681,280.615,100.46z M297.735,100.46
        c0,3.122,0.496,6.104,1.491,8.944c0.995,2.84,2.435,5.31,4.322,7.409c1.886,2.097,4.13,3.775,6.731,5.026
        c2.6,1.255,5.532,1.88,8.796,1.88c3.236,0,6.203-0.625,8.9-1.88c2.695-1.254,4.981-2.93,6.856-5.026
        c1.875-2.099,3.34-4.569,4.393-7.409c1.053-2.84,1.579-5.822,1.579-8.944c0-3.12-0.526-6.102-1.579-8.942
        c-1.053-2.84-2.518-5.31-4.393-7.409c-1.875-2.097-4.16-3.775-6.856-5.028c-2.697-1.254-5.662-1.879-8.9-1.879
        c-3.213,0-6.132,0.625-8.757,1.879c-2.627,1.255-4.882,2.931-6.769,5.028c-1.886,2.099-3.328,4.556-4.322,7.37
        C298.231,94.295,297.735,97.288,297.735,100.46z"/>
    <path fill="#1D1D1B" d="M365.91,63.844h18.425l15.814,46.367l16.581-46.367h16.812l16.505,46.367l15.891-46.367h18.345
        l-28.479,73.235h-11.439l-19.192-54.735l-19.345,54.735h-11.439L365.91,63.844z"/>
    <path fill="#1D1D1B" d="M484.14,100.46c0-5.116,0.919-10.016,2.762-14.701c1.843-4.685,4.438-8.801,7.792-12.361
        c3.35-3.556,7.38-6.357,12.09-8.405c4.708-2.046,10.005-3.07,15.891-3.07c5.884,0,11.206,1.025,15.967,3.07
        c4.759,2.048,8.84,4.85,12.243,8.405c3.403,3.558,6.012,7.666,7.829,12.322s2.725,9.571,2.725,14.738
        c0,5.22-0.908,10.134-2.725,14.74s-4.428,8.701-7.829,12.284c-3.405,3.583-7.484,6.398-12.243,8.444
        c-4.761,2.046-10.085,3.07-15.967,3.07c-5.887,0-11.185-1.025-15.891-3.07c-4.71-2.046-8.74-4.861-12.09-8.444
        c-3.352-3.581-5.949-7.676-7.792-12.284C485.059,110.591,484.14,105.681,484.14,100.46z M501.257,100.46
        c0,3.122,0.5,6.104,1.498,8.944c0.998,2.84,2.444,5.31,4.338,7.409c1.893,2.097,4.157,3.775,6.792,5.026
        c2.636,1.255,5.565,1.88,8.791,1.88c3.224,0,6.18-0.625,8.866-1.88c2.685-1.254,4.961-2.93,6.831-5.026
        c1.87-2.099,3.328-4.569,4.375-7.409c1.048-2.84,1.576-5.822,1.576-8.944c0-3.12-0.526-6.102-1.576-8.942
        c-1.049-2.84-2.507-5.31-4.375-7.409c-1.87-2.097-4.144-3.775-6.831-5.028c-2.687-1.254-5.643-1.879-8.866-1.879
        c-3.225,0-6.155,0.625-8.791,1.879c-2.636,1.255-4.9,2.931-6.792,5.028c-1.894,2.099-3.338,4.556-4.338,7.37
        C501.758,94.295,501.257,97.288,501.257,100.46z"/>
    <path fill="#1D1D1B" d="M575.8,137.079V63.844h17.12V75.71c0.819-1.704,1.996-3.319,3.532-4.843
        c1.535-1.525,3.313-2.894,5.335-4.107c2.021-1.213,4.222-2.169,6.602-2.868s4.771-1.048,7.178-1.048
        c2.711,0,4.963,0.389,6.755,1.162v15.801c-1.382-0.306-2.523-0.509-3.416-0.613c-0.896-0.102-2.011-0.153-3.338-0.153
        c-7.319,0-12.924,2.118-16.812,6.354c-3.891,4.236-5.835,10.949-5.835,20.138v31.544H575.8V137.079z"/>
    <path fill="#1D1D1B" d="M624.348,100.46c0-5.116,0.919-10.016,2.762-14.701c1.843-4.685,4.414-8.801,7.715-12.361
        c3.301-3.556,7.255-6.357,11.861-8.405c4.606-2.046,9.671-3.07,15.199-3.07c4.298,0,8.571,1.051,12.821,3.148
        c4.247,2.099,7.521,4.99,9.826,8.674V26.995h17.118v110.082h-17.118v-9.903c-2.305,3.685-5.579,6.576-9.826,8.676
        c-4.25,2.097-8.523,3.146-12.821,3.146c-5.579,0-10.659-1.025-15.238-3.07c-4.579-2.046-8.521-4.861-11.822-8.444
        c-3.301-3.581-5.872-7.676-7.715-12.284C625.267,110.591,624.348,105.681,624.348,100.46z M641.464,100.46
        c0,3.122,0.5,6.104,1.498,8.944c0.998,2.84,2.444,5.31,4.338,7.409c1.893,2.097,4.157,3.775,6.792,5.026
        c2.636,1.255,5.565,1.88,8.791,1.88c3.224,0,6.18-0.625,8.866-1.88c2.685-1.254,4.961-2.93,6.831-5.026
        c1.87-2.099,3.328-4.569,4.375-7.409c1.048-2.84,1.576-5.822,1.576-8.944c0-3.12-0.526-6.102-1.576-8.942
        c-1.049-2.84-2.507-5.31-4.375-7.409c-1.87-2.097-4.144-3.775-6.831-5.028c-2.687-1.254-5.643-1.879-8.866-1.879
        c-3.225,0-6.155,0.625-8.791,1.879c-2.636,1.255-4.9,2.931-6.792,5.028c-1.894,2.099-3.338,4.556-4.338,7.37
        C641.964,94.295,641.464,97.288,641.464,100.46z"/>
</g>
<rect x="701.964" y="154.225" fill="#ffde01" width="98.036" height="9.801"/>
</svg>
