<svg xmlns="http://www.w3.org/2000/svg" xmlns:xlink="http://www.w3.org/1999/xlink" viewBox="0 0 29.437 55.071" enable-background="new 0 0 29.437 55.071" xml:space="preserve">
<g>
	<path d="M0,13.475C0,9.441,1.179,6.207,3.537,3.77C5.798,1.295,9.208,0.039,13.767,0c3.625,0,6.714,0.818,9.267,2.455
		c2.553,1.676,3.868,4.512,3.946,8.506c0,2.28-0.595,4.22-1.783,5.817c-1.247,1.637-3.04,2.709-5.378,3.216v0.117
		c2.981,0.253,5.329,1.432,7.044,3.536c1.715,2.085,2.573,4.726,2.573,7.922c-0.04,3.741-1.111,6.714-3.216,8.915
		c-2.163,2.262-5.115,3.41-8.858,3.449c-1.754,0-3.41-0.35-4.969-1.052c-1.599-0.721-2.894-1.821-3.888-3.304H8.36v15.493H0V13.475z
		 M12.862,17.538h1.198c1.481,0,2.679-0.497,3.596-1.491c0.877-0.993,1.315-2.309,1.315-3.945s-0.459-2.972-1.374-4.005
		c-0.917-0.994-2.192-1.491-3.83-1.491c-3.722,0.039-5.524,2.174-5.407,6.402v14.966c0.059,6.139,2.318,9.149,6.781,9.032
		c1.91,0,3.381-0.682,4.414-2.046c1.014-1.228,1.521-2.737,1.521-4.53c-0.078-4.365-2.319-6.587-6.724-6.665
		c-0.507,0-1.004,0.087-1.49,0.263V17.538z"/>
</g>
</svg>
