<svg xmlns="http://www.w3.org/2000/svg" xmlns:xlink="http://www.w3.org/1999/xlink" viewBox="0 0 32.418 37.394" enable-background="new 0 0 32.418 37.394" xml:space="preserve">
<g>
	<path d="M19.898,21.896c-1.083,0-2.109-0.023-3.079-0.067c-1.241-0.045-2.617,0.181-4.128,0.677
		c-1.67,0.608-2.527,1.951-2.572,4.026c0.045,1.535,0.778,2.595,2.199,3.182c1.309,0.608,2.628,0.913,3.959,0.913
		c1.805,0,3.305-0.417,4.501-1.252c1.195-0.835,1.85-2.177,1.963-4.026h9.678c-0.227,2.459-0.847,4.467-1.861,6.024
		c-1.061,1.578-2.402,2.808-4.027,3.688c-1.511,0.88-3.192,1.479-5.041,1.793c-1.806,0.361-3.633,0.542-5.482,0.542
		c-5.73-0.091-9.847-1.173-12.351-3.249c-2.481-1.984-3.7-4.342-3.654-7.072c0-2.661,0.755-4.714,2.267-6.158
		c1.443-1.421,3.384-2.391,5.82-2.91v-0.135c-0.97-0.316-1.839-0.711-2.605-1.184c-0.835-0.405-1.579-0.913-2.233-1.522
		c-1.331-1.24-1.996-2.944-1.996-5.109c0-1.94,0.484-3.564,1.455-4.873c0.88-1.331,2.052-2.369,3.519-3.113
		c3.046-1.421,6.237-2.109,9.576-2.065c4.016-0.045,7.433,0.779,10.253,2.471c2.775,1.76,4.501,4.715,5.178,8.865h-9.34
		c-0.226-1.466-0.823-2.504-1.793-3.113C19.13,7.549,17.902,7.21,16.412,7.21c-1.376,0-2.673,0.249-3.892,0.745
		c-1.285,0.563-1.951,1.623-1.996,3.18c0.045,1.67,0.925,2.741,2.64,3.215c1.578,0.496,3.079,0.723,4.5,0.677
		c0.834,0,1.579-0.045,2.233-0.136V21.896z"/>
</g>
</svg>
