<svg xmlns="http://www.w3.org/2000/svg" xmlns:xlink="http://www.w3.org/1999/xlink" viewBox="0 0 46.89 49.57" enable-background="new 0 0 46.89 49.57" xml:space="preserve">
<g>
	<g>
		<path d="M30.674,34.498c-1.582,1.758-3.392,3.105-5.427,4.043c-2.037,0.938-4.271,1.406-6.702,1.406
			c-2.227,0-4.227-0.293-5.999-0.879c-1.772-0.586-3.347-1.369-4.724-2.351c-1.377-0.982-2.557-2.131-3.538-3.449
			c-0.981-1.318-1.787-2.71-2.416-4.176c-0.631-1.465-1.1-2.966-1.406-4.504C0.153,23.05,0,21.562,0,20.127
			c0-3.34,0.666-6.268,1.999-8.789C3.332,8.818,5.12,6.717,7.36,5.032c2.242-1.685,4.812-2.944,7.713-3.779
			C17.974,0.418,21.006,0,24.17,0v7.119c-2.695,0.06-5.024,0.418-6.987,1.077c-1.963,0.659-3.597,1.56-4.9,2.702
			c-1.304,1.143-2.271,2.498-2.9,4.065c-0.63,1.567-0.944,3.289-0.944,5.163c0,1.642,0.212,3.224,0.638,4.746
			c0.424,1.524,1.055,2.872,1.889,4.043c0.836,1.172,1.891,2.117,3.164,2.835c1.275,0.718,2.747,1.077,4.417,1.077
			c0.674,0,1.369-0.205,2.087-0.615c0.718-0.41,1.399-0.901,2.044-1.473c0.644-0.571,1.23-1.157,1.758-1.758
			c0.527-0.6,0.938-1.106,1.231-1.516L30.674,34.498z M31.377,22.545H15.073v-7.164h16.304V0h8.437v40.781
			c0,0.147,0.059,0.323,0.176,0.527c0.117,0.205,0.308,0.309,0.571,0.309c0.322,0,0.607-0.133,0.857-0.396
			c0.248-0.264,0.505-0.644,0.769-1.143l4.702,4.131c-0.234,0.615-0.615,1.238-1.143,1.868c-0.527,0.63-1.164,1.208-1.912,1.735
			c-0.746,0.527-1.574,0.953-2.482,1.275c-0.908,0.322-1.86,0.482-2.856,0.482c-1.172,0-2.205-0.219-3.099-0.658
			c-0.894-0.44-1.633-1.025-2.219-1.758c-0.586-0.732-1.033-1.561-1.34-2.483c-0.309-0.923-0.462-1.868-0.462-2.835V22.545z"/>
	</g>
</g>
</svg>
