<?xml version="1.0" encoding="utf-8"?>
<!-- Generator: Adobe Illustrator 17.0.0, SVG Export Plug-In . SVG Version: 6.00 Build 0)  -->
<!DOCTYPE svg PUBLIC "-//W3C//DTD SVG 1.1//EN" "http://www.w3.org/Graphics/SVG/1.1/DTD/svg11.dtd">
<svg version="1.1" id="Calque_1" xmlns="http://www.w3.org/2000/svg" xmlns:xlink="http://www.w3.org/1999/xlink" x="0px" y="0px"
	 width="55.232px" height="46.494px" viewBox="0 0 55.232 46.494" enable-background="new 0 0 55.232 46.494" xml:space="preserve">
<g>
	<path d="M14.157,29.277c0.582,2.33,2.039,4.282,4.37,5.855c2.329,1.572,4.951,2.359,7.865,2.359c4.835,0,8.681-1.732,11.536-5.2
		c2.854-3.466,4.282-8.695,4.282-15.687L43.434,0h11.799l-1.486,17.305c-0.642,7.34-1.807,12.759-3.495,16.255
		c-1.69,3.495-4.516,6.525-8.478,9.089c-3.963,2.564-9.031,3.846-15.206,3.846c-8.04,0-14.392-2.592-19.052-7.779
		c-4.662-5.184-6.991-12.99-6.991-23.421L0,0h11.885l0.088,11.973l0.436,9.701c1.923,0,3.627-0.48,5.112-1.441
		c1.486-0.962,2.505-2.258,3.06-3.89c0.553-1.63,0.83-4.399,0.83-8.302L21.848,0h11.624l-0.612,11.186
		c-0.175,2.914-0.452,5.171-0.83,6.773c-0.38,1.604-1.18,3.221-2.403,4.852c-1.224,1.631-3.089,3.029-5.593,4.194
		C21.527,28.171,18.234,28.928,14.157,29.277z"/>
</g>
</svg>
