<svg xmlns="http://www.w3.org/2000/svg" xmlns:xlink="http://www.w3.org/1999/xlink" viewBox="0 0 68.333 65.886" enable-background="new 0 0 68.333 65.886" xml:space="preserve">
<g>
	<path d="M27.002,10.226v6.84H0v-6.84H27.002z M24.914,40.972v22.105H10.513v2.736H3.24V40.972H24.914z M24.41,20.666v6.48H3.456
		v-6.48H24.41z M3.456,37.3v-6.553H24.41V37.3H3.456z M24.338,0.216v6.553H3.888V0.216H24.338z M17.497,47.812h-6.984v8.354h6.984
		V47.812z M61.925,27.218h6.408v7.562H26.57v-7.562h8.929c0.432-2.232,0.863-4.68,1.296-7.271h-6.192v-7.346h7.345
		c0.288-1.728,0.504-3.527,0.72-5.184h-9.361V0h36.363v7.417H47.092c-0.216,1.656-0.504,3.385-0.792,5.184h15.625V27.218z
		 M31.898,65.886V38.667h31.683v26.859h-8.425v-2.377H40.035v2.736H31.898z M55.156,46.372H40.035v9.072h15.121V46.372z
		 M53.572,19.946h-8.425c-0.432,2.519-0.864,5.04-1.296,7.271h9.721V19.946z"/>
</g>
</svg>
