<svg xmlns="http://www.w3.org/2000/svg" xmlns:xlink="http://www.w3.org/1999/xlink" viewBox="0 0 59.333 51.268" enable-background="new 0 0 59.333 51.268" xml:space="preserve">
<g>
	<path d="M23.906,29.09c-2.664-1.367-6.121-4.969-7.489-7.776C14.329,25.994,9.433,30.53,5.04,32.619L0,26.426
		C7.705,22.754,12.313,15.553,12.313,7.2V0.287h8.28V7.2c0,8.352,3.384,13.537,8.641,15.985L23.906,29.09z M0.792,51.268v-6.624
		h57.965v6.624H0.792z M54.437,31.539c-3.601-1.513-8.856-6.266-10.801-10.153c-1.656,4.464-6.408,9.433-10.153,11.448l-5.328-5.688
		c6.841-3.601,11.233-11.162,11.233-19.803V0h8.208v7.344c0,9.217,5.113,14.762,11.737,17.93L54.437,31.539z"/>
</g>
</svg>
