<svg xmlns="http://www.w3.org/2000/svg" xmlns:xlink="http://www.w3.org/1999/xlink" viewBox="0 0 47 36.393" enable-background="new 0 0 47 36.393" xml:space="preserve">
<path d="M39,1.393v27H8v-4h26v-5.863c0-2.305-0.325-4.629-1.023-7.314c-0.564-2.17-1.561-4.159-2.962-5.911
	c-1.326-1.657-3.104-2.977-5.286-3.921C22.609,0.466,20.001,0,16.975,0c-3.019,0-5.63,0.471-7.761,1.399
	C7.045,2.346,5.266,3.739,3.926,5.54c-1.412,1.898-2.41,4.081-2.967,6.487C0.322,14.781,0,17.607,0,20.424v15.969h47v-35H39z
	 M16.955,7.436c1.709,0,3.143,0.269,4.259,0.797c1.076,0.511,1.939,1.219,2.566,2.104c0.723,1.021,1.136,1.933,1.381,3.051
	c0.201,0.921,0.341,2.08,0.421,3.005H8.297c0.08-0.924,0.22-2.081,0.421-3.001c0.258-1.176,0.7-2.172,1.392-3.135
	c0.612-0.851,1.454-1.524,2.573-2.06C13.756,7.685,15.153,7.436,16.955,7.436z"/>
</svg>
