<svg xmlns="http://www.w3.org/2000/svg" xmlns:xlink="http://www.w3.org/1999/xlink" viewBox="0 0 31.042 42.41" enable-background="new 0 0 31.042 42.41" xml:space="preserve">
<g>
	<path d="M28.339,0c0.019,1.561-0.251,2.838-0.809,3.831c-0.557,0.994-1.295,1.793-2.215,2.397c-0.92,0.603-1.978,1.041-3.177,1.309
		c-1.198,0.27-2.429,0.451-3.692,0.544c-0.873,0.074-1.773,0.19-2.702,0.348c-0.93,0.158-1.84,0.399-2.731,0.725
		s-1.736,0.752-2.535,1.282c-0.799,0.529-1.515,1.184-2.146,1.964c-0.632,0.78-1.152,1.71-1.56,2.787
		c-0.409,1.077-0.659,2.34-0.752,3.789c0.297-0.966,0.771-1.881,1.421-2.744c0.649-0.864,1.463-1.616,2.438-2.258
		c0.976-0.641,2.104-1.151,3.386-1.532c1.282-0.381,2.703-0.571,4.264-0.571c2.08,0,3.957,0.349,5.629,1.045
		c1.672,0.696,3.093,1.677,4.263,2.939c1.171,1.264,2.066,2.787,2.689,4.57c0.622,1.783,0.934,3.762,0.934,5.935
		c0,2.415-0.358,4.607-1.073,6.576c-0.716,1.97-1.737,3.655-3.066,5.058c-1.328,1.403-2.949,2.489-4.862,3.261
		c-1.913,0.771-4.068,1.156-6.465,1.156c-3.492,0-6.381-0.716-8.665-2.145c-2.285-1.431-4.041-3.762-5.267-6.994
		c-0.409-1.096-0.725-2.257-0.947-3.483c-0.224-1.226-0.386-2.378-0.488-3.455c-0.102-1.077-0.162-2.016-0.181-2.814
		C0.01,22.719,0,22.19,0,21.93c0-2.898,0.335-5.55,1.004-7.956c0.668-2.405,1.731-4.5,3.19-6.283
		c1.458-1.783,3.334-3.223,5.628-4.319c2.294-1.096,5.076-1.792,8.346-2.09c1.04-0.093,1.778-0.265,2.216-0.515
		C20.819,0.516,21.094,0.26,21.205,0H28.339z M8.276,26.248c0,1.152,0.125,2.29,0.376,3.414c0.251,1.124,0.664,2.127,1.24,3.009
		c0.575,0.883,1.327,1.594,2.257,2.132c0.929,0.539,2.071,0.809,3.427,0.809c1.431,0,2.615-0.266,3.554-0.795
		c0.938-0.529,1.685-1.226,2.242-2.09c0.558-0.863,0.948-1.857,1.171-2.982c0.223-1.123,0.334-2.289,0.334-3.497
		c0-1.188-0.13-2.303-0.39-3.344c-0.261-1.04-0.669-1.945-1.227-2.717c-0.557-0.771-1.281-1.374-2.173-1.81
		c-0.892-0.437-1.97-0.655-3.232-0.655c-1.357,0-2.513,0.227-3.47,0.683c-0.957,0.456-1.741,1.073-2.355,1.853
		c-0.612,0.78-1.059,1.686-1.337,2.717C8.415,24.005,8.276,25.097,8.276,26.248z"/>
</g>
</svg>
