<svg xmlns="http://www.w3.org/2000/svg" xmlns:xlink="http://www.w3.org/1999/xlink" viewBox="0 0 34.383 52.488" enable-background="new 0 0 34.383 52.488" xml:space="preserve">
<g>
	<path d="M0,15.152h9.492v23.449L24.68,15.152h9.703v37.336h-9.492V28.617L9.492,52.488H0V15.152z M23.66,0h4.816
		c-0.281,3.188-1.4,5.689-3.357,7.506c-1.957,1.816-4.494,2.725-7.611,2.725s-5.654-0.908-7.611-2.725
		C7.939,5.689,6.82,3.188,6.539,0h4.816c0.164,1.664,0.75,2.924,1.758,3.779c1.008,0.855,2.473,1.283,4.394,1.283
		s3.387-0.428,4.395-1.283C22.91,2.924,23.496,1.664,23.66,0z"/>
</g>
</svg>
