<svg xmlns="http://www.w3.org/2000/svg" xmlns:xlink="http://www.w3.org/1999/xlink" viewBox="0 0 34.932 54.662" enable-background="new 0 0 34.932 54.662" xml:space="preserve">
<g>
	<path d="M0,11.575h9.438l17.104,30.044V11.575h8.39v43.087H25.93L8.39,24.09v30.572H0V11.575z M15.609,0.44
		c0.507,0.119,0.936,0.248,1.286,0.386l2.748,1.036c0.818,0.277,1.354,0.455,1.607,0.533c0.253,0.08,0.536,0.119,0.848,0.119
		c0.935,0,1.594-0.249,1.974-0.746c0.38-0.496,0.657-1.086,0.833-1.768h3.888c-0.351,2.045-1.048,3.761-2.09,5.144
		C25.66,6.527,24.135,7.22,22.128,7.22c-0.604,0-1.461-0.148-2.572-0.445c-0.643-0.157-1.257-0.335-1.842-0.533l-2.367-0.8
		c-0.332-0.119-0.653-0.203-0.965-0.252c-0.312-0.049-0.624-0.074-0.936-0.074c-0.741,0-1.345,0.217-1.812,0.65
		c-0.468,0.453-0.799,1.074-0.994,1.863h-3.8c0.429-2.016,0.984-3.541,1.666-4.578c1.247-1.859,3.099-2.789,5.555-2.789
		C14.586,0.262,15.102,0.322,15.609,0.44z"/>
</g>
</svg>
