<?xml version="1.0" encoding="utf-8"?>
<!-- Generator: Adobe Illustrator 17.0.0, SVG Export Plug-In . SVG Version: 6.00 Build 0)  -->
<!DOCTYPE svg PUBLIC "-//W3C//DTD SVG 1.1//EN" "http://www.w3.org/Graphics/SVG/1.1/DTD/svg11.dtd">
<svg version="1.1" id="Calque_1" xmlns="http://www.w3.org/2000/svg" xmlns:xlink="http://www.w3.org/1999/xlink" x="0px" y="0px"
	 width="17.332px" height="17.301px" viewBox="10.658 10.639 17.332 17.301" enable-background="new 10.658 10.639 17.332 17.301"
	 xml:space="preserve">
<g id="Layer_1">
</g>
<g id="Calque_2">
	<g>
		<path d="M20.379,22.224c0-1.507,0.285-2.968,2.154-2.968c1.843,0,1.866,1.724,1.866,3.064v5.62h3.59v-6.338
			c0-3.112-0.671-5.504-4.308-5.504c-1.747,0-2.919,0.957-3.398,1.866h-0.049v-1.58H16.79v11.557h3.59L20.379,22.224L20.379,22.224z
			"/>
		<rect x="10.944" y="16.384" width="3.593" height="11.557"/>
		<path d="M12.74,14.805c1.148,0,2.082-0.933,2.082-2.082c0-1.15-0.934-2.084-2.082-2.084c-1.151,0-2.082,0.933-2.082,2.084
			C10.658,13.872,11.589,14.805,12.74,14.805z"/>
	</g>
</g>
</svg>
