<?xml version="1.0" encoding="utf-8"?>
<!-- Generator: Adobe Illustrator 17.0.0, SVG Export Plug-In . SVG Version: 6.00 Build 0)  -->
<!DOCTYPE svg PUBLIC "-//W3C//DTD SVG 1.1//EN" "http://www.w3.org/Graphics/SVG/1.1/DTD/svg11.dtd">
<svg version="1.1" id="Layer_1" xmlns="http://www.w3.org/2000/svg" xmlns:xlink="http://www.w3.org/1999/xlink" x="0px" y="0px"
	 width="20.348px" height="16.536px" viewBox="0.394 0.321 20.348 16.536" enable-background="new 0.394 0.321 20.348 16.536"
	 xml:space="preserve">
<path d="M20.743,2.278c-0.749,0.332-1.553,0.556-2.398,0.658c0.862-0.517,1.524-1.335,1.836-2.309
	c-0.807,0.478-1.7,0.826-2.651,1.013c-0.761-0.811-1.846-1.318-3.047-1.318c-2.306,0-4.175,1.87-4.175,4.174
	c0,0.327,0.037,0.646,0.108,0.951C6.946,5.273,3.87,3.61,1.81,1.085C1.451,1.701,1.245,2.418,1.245,3.184
	c0,1.448,0.737,2.726,1.857,3.474C2.419,6.637,1.775,6.449,1.212,6.136c0,0.017,0,0.035,0,0.053c0,2.023,1.439,3.71,3.349,4.093
	c-0.35,0.095-0.72,0.146-1.1,0.146c-0.269,0-0.53-0.026-0.786-0.075c0.531,1.659,2.073,2.866,3.9,2.9
	c-1.429,1.12-3.229,1.787-5.185,1.787c-0.337,0-0.669-0.02-0.995-0.059c1.847,1.184,4.041,1.875,6.399,1.875
	c7.678,0,11.878-6.361,11.878-11.878c0-0.181-0.004-0.361-0.013-0.54C19.475,3.851,20.182,3.115,20.743,2.278z"/>
</svg>
