<svg version="1.1" id="_x31_80" xmlns="http://www.w3.org/2000/svg" xmlns:xlink="http://www.w3.org/1999/xlink" x="0px" y="0px"
	 width="106.227px" height="106.394px" viewBox="0 0 106.227 106.394" enable-background="new 0 0 106.227 106.394"
	 xml:space="preserve">
<g>
	<g opacity="0.56">
		<path fill="#231F20" d="M53.113,0.47c-29.065,0-52.727,23.569-52.727,52.727s23.662,52.727,52.727,52.727
			s52.727-23.662,52.727-52.727S82.271,0.47,53.113,0.47z M53.113,97.261c-24.407,0-44.064-19.656-44.064-44.064
			S28.706,9.133,53.113,9.133c24.128,0,44.064,19.656,44.064,44.064S77.52,97.261,53.113,97.261z"/>
	</g>
	<g>
		<path fill="#231F20" d="M73.515,59.439c0,2.702-1.491,4.472-4.006,4.472s-4.006-1.491-4.006-4.472V47.235
			c0-2.702,1.491-4.472,4.006-4.472s4.006,1.491,4.006,4.472V59.439z M61.311,59.625c0,5.217,4.006,8.198,8.198,8.198
			s8.198-2.981,8.198-8.198v-12.67c0-5.217-4.006-8.198-8.198-8.198s-8.198,2.981-8.198,8.198L61.311,59.625L61.311,59.625z"/>
		<path fill="#231F20" d="M45.66,46.955c0-2.702,1.956-4.192,4.192-4.192c1.956,0,4.192,1.491,4.192,4.192s-1.956,4.192-4.192,4.192
			C47.617,51.148,45.66,49.657,45.66,46.955 M40.909,59.439c0,4.937,4.006,8.664,8.664,8.664c4.751,0,8.664-3.447,8.664-8.664
			c0-2.702-1.211-4.937-3.447-6.428c1.77-1.491,2.981-3.261,2.981-5.683c0-4.751-3.447-8.198-8.198-8.198s-8.198,3.726-8.198,8.198
			c0,2.515,1.211,4.192,2.981,5.683C42.214,54.408,40.909,56.644,40.909,59.439 M45.195,59.439c0-2.702,2.236-4.472,4.751-4.472
			s4.751,1.956,4.751,4.472c0,2.702-2.236,4.472-4.751,4.472C47.43,63.91,45.195,61.861,45.195,59.439"/>
		<polygon fill="#231F20" points="34.016,43.509 30.01,46.49 30.01,42.018 34.016,39.037 38.208,39.037 38.208,67.823 
			34.016,67.823 		"/>
	</g>
</g>
</svg>
