<svg version="1.1" id="Calque_1" xmlns="http://www.w3.org/2000/svg" xmlns:xlink="http://www.w3.org/1999/xlink" x="0px" y="0px"
	 width="107.884px" height="101.929px" viewBox="0 0 107.884 101.929" style="enable-background:new 0 0 107.884 101.929;"
	 xml:space="preserve">
<path style="opacity:0.3;fill:#FFFFFF;enable-background:new    ;" d="M84.387,44.512c0-1.005-0.85-1.855-1.932-1.855
	c-1.005,0-1.855,0.85-1.932,1.855c0,1.082,0.85,1.932,1.932,1.932C83.614,46.367,84.387,45.517,84.387,44.512z M70.091,44.512
	c0-1.005-0.85-1.932-1.855-1.932c-1.082,0-1.932,0.85-1.932,1.855c0,1.082,0.85,1.932,1.932,1.932
	C69.241,46.367,70.091,45.517,70.091,44.512z M58.808,46.367c1.005,0,1.855-0.85,1.855-1.932c0-1.005-0.85-1.855-1.855-1.932
	c-1.082,0-1.932,0.85-1.932,1.932C56.876,45.594,57.726,46.367,58.808,46.367z M105.948,42.503c-1.005,0-1.932,0.85-1.932,1.855
	c0,1.082,0.85,1.932,1.855,1.932c1.082,0,1.932-0.85,1.932-1.855C107.88,43.353,107.03,42.503,105.948,42.503z M91.883,42.503
	c-1.005,0-1.932,0.85-1.932,1.855s0.85,1.932,1.855,1.932c1.082,0,1.932-0.85,1.932-1.932
	C93.815,43.353,92.965,42.503,91.883,42.503z M82.533,37.866c-1.005,0-1.855,0.85-1.855,1.932c0,1.005,0.85,1.855,1.855,1.932
	c1.082,0,1.932-0.85,1.932-1.932C84.387,38.639,83.537,37.866,82.533,37.866z M70.091,39.721c0-1.005-0.85-1.855-1.932-1.855
	c-1.005,0-1.855,0.85-1.932,1.855c0,1.082,0.85,1.932,1.932,1.932C69.318,41.653,70.091,40.803,70.091,39.721z M58.808,37.866
	c-1.005,0-1.855,0.85-1.932,1.855c0,1.005,0.85,1.932,1.855,1.932c1.082,0,1.932-0.85,1.932-1.932
	C60.663,38.716,59.813,37.866,58.808,37.866z M105.948,37.789c-1.005,0-1.932,0.85-1.932,1.855c0,1.082,0.85,1.932,1.855,1.932
	c1.082,0,1.932-0.85,1.932-1.932C107.88,38.639,107.03,37.789,105.948,37.789z M93.815,39.643c0-1.005-0.85-1.855-1.932-1.855
	c-1.005,0-1.855,0.85-1.932,1.855c0,1.082,0.85,1.932,1.932,1.932C92.965,41.575,93.815,40.725,93.815,39.643z M82.533,33.152
	c-1.005,0-1.855,0.85-1.932,1.855c0,1.005,0.85,1.932,1.855,1.932c1.082,0,1.932-0.85,1.932-1.932
	C84.387,34.002,83.537,33.152,82.533,33.152z M70.091,35.084c0-1.005-0.85-1.855-1.855-1.932c-1.005,0-1.932,0.85-1.932,1.855
	c0,1.082,0.85,1.932,1.932,1.932C69.241,36.939,70.091,36.089,70.091,35.084z M58.808,33.152c-1.005,0-1.932,0.85-1.932,1.855
	c0,1.082,0.85,1.932,1.855,1.932c1.082,0,1.932-0.85,1.932-1.932C60.663,34.002,59.813,33.152,58.808,33.152z M107.88,34.929
	c0-1.005-0.85-1.855-1.932-1.855c-1.005,0-1.855,0.85-1.932,1.855c0,1.082,0.85,1.932,1.932,1.932
	C107.03,36.861,107.88,36.011,107.88,34.929z M91.883,33.075c-1.005,0-1.855,0.85-1.855,1.932c0,1.005,0.85,1.855,1.855,1.932
	c1.082,0,1.932-0.85,1.932-1.932C93.815,33.925,92.888,33.075,91.883,33.075z M44.512,46.444c1.082,0,1.932-0.85,1.932-1.855
	c0-1.082-0.85-1.932-1.855-1.932c-1.082,0-1.932,0.85-1.932,1.855C42.657,45.594,43.507,46.444,44.512,46.444z M58.808,51.158
	c1.005,0,1.855-0.85,1.855-1.932c0-1.005-0.85-1.855-1.855-1.932c-1.082,0-1.932,0.85-1.932,1.932
	C56.876,50.308,57.726,51.158,58.808,51.158z M70.091,49.303c0-1.082-0.85-1.932-1.855-1.932c-1.082,0-1.932,0.85-1.932,1.855
	c0,1.082,0.85,1.932,1.855,1.932C69.241,51.158,70.091,50.308,70.091,49.303z M84.387,49.226c0-1.005-0.85-1.855-1.932-1.855
	c-1.005,0-1.855,0.85-1.932,1.855c0,1.082,0.85,1.932,1.932,1.932C83.537,51.158,84.387,50.308,84.387,49.226z M60.663,58.808
	c0-1.005-0.85-1.855-1.932-1.855c-1.005,0-1.855,0.85-1.932,1.855c0,1.082,0.85,1.932,1.932,1.932
	C59.813,60.663,60.663,59.813,60.663,58.808z M58.808,61.668c-1.082,0-1.932,0.85-1.932,1.855c0,1.082,0.85,1.932,1.855,1.932
	c1.082,0,1.932-0.85,1.932-1.855C60.663,62.518,59.813,61.668,58.808,61.668z M58.808,66.381c-1.005,0-1.932,0.85-1.932,1.855
	c0,1.082,0.85,1.932,1.855,1.932c1.082,0,1.932-0.85,1.932-1.932C60.663,67.309,59.813,66.459,58.808,66.381z M38.175,81.296
	c1.005,0,1.932-0.85,1.932-1.855c0-1.082-0.85-1.932-1.855-1.932c-1.082,0-1.932,0.85-1.932,1.932
	C36.243,80.446,37.093,81.296,38.175,81.296z M42.966,77.509c-1.005,0-1.932,0.85-1.932,1.855c0,1.082,0.85,1.932,1.855,1.932
	c1.082,0,1.932-0.85,1.932-1.855C44.821,78.36,43.971,77.509,42.966,77.509z M47.68,77.509c-1.005,0-1.855,0.85-1.855,1.932
	c0,1.005,0.85,1.855,1.932,1.855c1.082,0,1.932-0.85,1.932-1.932C49.535,78.36,48.685,77.509,47.68,77.509z M71.791,79.364
	c0-1.005-0.85-1.855-1.932-1.855c-1.005,0-1.932,0.85-1.932,1.855c0,1.082,0.85,1.932,1.932,1.932
	C70.941,81.296,71.791,80.446,71.791,79.364z M74.65,77.509c-1.005,0-1.932,0.85-1.932,1.855c0,1.082,0.85,1.932,1.855,1.932
	c1.082,0,1.932-0.85,1.932-1.932C76.505,78.36,75.655,77.509,74.65,77.509z M79.364,77.509c-1.005,0-1.855,0.85-1.855,1.932
	c0,1.005,0.85,1.855,1.932,1.855c1.082,0,1.932-0.85,1.932-1.932C81.296,78.36,80.446,77.509,79.364,77.509z M60.663,90.492
	c0-1.082-0.85-1.932-1.855-1.932c-1.082,0-1.932,0.85-1.932,1.855c0,1.082,0.85,1.932,1.855,1.932
	C59.813,92.424,60.663,91.574,60.663,90.492z M60.663,95.206c0-1.005-0.85-1.855-1.932-1.855c-1.005,0-1.855,0.85-1.932,1.855
	c0,1.082,0.85,1.932,1.932,1.932S60.663,96.288,60.663,95.206z M60.663,99.997c0-1.005-0.85-1.855-1.932-1.855
	c-1.005,0-1.855,0.85-1.932,1.855c0,1.082,0.85,1.932,1.932,1.932S60.663,101.079,60.663,99.997z M15.919,4.714
	c-1.005,0-1.932,0.85-1.932,1.855s0.85,1.932,1.855,1.932c1.082,0,1.932-0.85,1.932-1.932C17.774,5.564,16.924,4.714,15.919,4.714z
	 M8.501,20.865c0-1.005-0.85-1.932-1.855-1.932c-1.082,0-1.932,0.85-1.932,1.855c0,1.082,0.85,1.932,1.932,1.932
	C7.65,22.72,8.501,21.87,8.501,20.865z M15.919,13.214c1.005,0,1.932-0.85,1.932-1.855c0-1.082-0.85-1.932-1.855-1.932
	c-1.082,0-1.932,0.85-1.932,1.932C13.987,12.364,14.837,13.214,15.919,13.214z M41.884,11.283c0-1.005-0.85-1.855-1.855-1.932
	c-1.005,0-1.932,0.85-1.932,1.855c0,1.082,0.85,1.932,1.932,1.932C41.034,13.214,41.884,12.364,41.884,11.283z M39.953,8.501
	c1.005,0,1.855-0.85,1.855-1.932c0-1.005-0.85-1.855-1.855-1.932c-1.082,0-1.932,0.85-1.932,1.932
	C38.098,7.65,38.948,8.501,39.953,8.501z M6.646,27.434c1.005,0,1.855-0.85,1.855-1.932c0-1.005-0.85-1.855-1.855-1.932
	c-1.082,0-1.932,0.85-1.932,1.932S5.564,27.434,6.646,27.434z M104.093,25.502c0,1.082,0.85,1.932,1.855,1.932
	c1.082,0,1.932-0.773,1.932-1.855c0-1.082-0.85-1.932-1.855-1.932C104.943,23.647,104.093,24.42,104.093,25.502z M8.501,30.293
	c0-1.005-0.85-1.855-1.932-1.855c-1.005,0-1.855,0.85-1.932,1.855c0,1.082,0.85,1.932,1.932,1.932
	C7.65,32.147,8.501,31.297,8.501,30.293z M48.453,63.445c1.082,0,1.932-0.85,1.932-1.932c0-1.005-0.85-1.855-1.855-1.855
	c-1.082,0-1.932,0.85-1.932,1.855C46.598,62.595,47.371,63.445,48.453,63.445z M51.312,89.024c0,1.082,0.85,1.855,1.855,1.932
	c1.005,0,1.932-0.85,1.932-1.855c0-1.082-0.85-1.932-1.932-1.932C52.162,87.092,51.312,87.942,51.312,89.024z M62.44,69.782
	c0,1.082,0.85,1.855,1.855,1.932c1.005,0,1.932-0.85,1.932-1.855c0-1.082-0.85-1.932-1.932-1.932
	C63.29,67.927,62.44,68.777,62.44,69.782z M53.244,71.714c1.005,0,1.932-0.85,1.932-1.855c0-1.005-0.85-1.932-1.855-1.932
	c-1.082,0-1.932,0.85-1.932,1.855C51.312,70.864,52.162,71.714,53.244,71.714z M64.372,87.092c-1.082,0-1.932,0.85-1.932,1.855
	c0,1.082,0.85,1.932,1.932,1.932c1.005,0,1.855-0.85,1.932-1.855C66.227,87.942,65.377,87.092,64.372,87.092z M43.198,87.324
	c0,1.082,0.85,1.932,1.855,1.932c1.082,0,1.932-0.85,1.932-1.932c0-1.082-0.85-1.855-1.855-1.855
	C44.048,85.469,43.198,86.242,43.198,87.324z M67.232,61.59c0,1.082,0.85,1.855,1.855,1.855c1.082,0,1.932-0.85,1.932-1.932
	c0-1.005-0.85-1.855-1.932-1.855C68.004,59.658,67.232,60.508,67.232,61.59z M67.232,97.215c0,1.082,0.773,1.932,1.855,1.932
	c1.082,0,1.932-0.773,1.932-1.855c0-1.005-0.773-1.855-1.855-1.932C68.082,95.361,67.232,96.133,67.232,97.215z M51.081,84.928
	c0-1.082-0.85-1.932-1.855-1.932c-1.082,0-1.932,0.85-1.932,1.932c0,1.005,0.85,1.855,1.932,1.855
	C50.23,86.86,51.081,86.01,51.081,84.928z M48.53,99.147c1.005,0,1.855-0.85,1.855-1.932c0-1.082-0.85-1.855-1.855-1.855
	c-1.082,0-1.932,0.85-1.932,1.932C46.598,98.297,47.448,99.147,48.53,99.147z M68.391,71.945c-1.082,0-1.932,0.85-1.932,1.855
	c0,1.082,0.85,1.932,1.932,1.932c1.005,0,1.855-0.85,1.855-1.932C70.323,72.796,69.473,71.945,68.391,71.945z M76.659,87.787
	c-1.082,0-1.855,0.85-1.932,1.855c0,1.082,0.85,1.932,1.932,1.932s1.855-0.85,1.855-1.932
	C78.514,88.637,77.664,87.787,76.659,87.787z M78.514,69.086c0-1.082-0.85-1.932-1.855-1.932c-1.082,0-1.932,0.85-1.932,1.932
	c0,1.005,0.85,1.855,1.932,1.855C77.664,71.018,78.514,70.168,78.514,69.086z M51.081,73.877c0-1.005-0.85-1.932-1.855-1.932
	c-1.082,0-1.932,0.85-1.932,1.932c0,1.005,0.85,1.855,1.932,1.855C50.23,75.732,51.081,74.882,51.081,73.877z M48.994,65.686
	c0,1.082,0.85,1.855,1.932,1.855c1.005,0,1.932-0.85,1.932-1.855c0-1.082-0.85-1.932-1.932-1.932
	C49.767,63.754,48.994,64.604,48.994,65.686z M42.812,69.009c0-1.005-0.927-1.855-1.932-1.855s-1.855,0.85-1.855,1.932
	c0,1.005,0.85,1.855,1.932,1.855S42.812,70.091,42.812,69.009z M66.691,67.541c1.005,0,1.932-0.85,1.932-1.855
	c0-1.082-0.85-1.932-1.932-1.932c-1.082,0-1.855,0.85-1.855,1.932C64.836,66.691,65.686,67.541,66.691,67.541z M68.391,83.073
	c-1.005,0-1.855,0.85-1.932,1.855c0,1.005,0.85,1.932,1.855,1.932c1.082,0,1.932-0.85,1.932-1.932
	C70.245,83.924,69.395,83.073,68.391,83.073z M72.564,69.627c-1.082,0-1.932,0.85-1.932,1.855c0,1.082,0.85,1.932,1.855,1.932
	c1.082,0,1.932-0.85,1.932-1.932C74.418,70.4,73.568,69.627,72.564,69.627z M64.836,93.12c0,1.082,0.85,1.932,1.855,1.932
	c1.082,0,1.932-0.85,1.932-1.855c0-1.082-0.85-1.932-1.855-1.932C65.686,91.188,64.836,92.038,64.836,93.12z M40.957,87.787
	c-1.082,0-1.932,0.85-1.932,1.855c0,1.082,0.85,1.932,1.932,1.932s1.855-0.85,1.855-1.932
	C42.812,88.637,41.962,87.787,40.957,87.787z M48.994,93.12c0,1.082,0.773,1.932,1.855,1.932c1.005,0,1.932-0.773,1.932-1.855
	c0-1.082-0.85-1.932-1.855-1.932C49.844,91.188,48.994,92.038,48.994,93.12z M74.418,87.324c0-1.005-0.85-1.855-1.855-1.932
	c-1.082,0-1.932,0.85-1.932,1.855c0,1.082,0.85,1.932,1.932,1.932C73.568,89.256,74.418,88.406,74.418,87.324z M43.198,71.482
	c0,1.082,0.85,1.855,1.855,1.855c1.005,0,1.932-0.85,1.932-1.855c0-1.082-0.85-1.932-1.932-1.932
	C43.971,69.627,43.198,70.4,43.198,71.482z M25.656,4.559c-1.005,0-1.932,0.927-1.855,1.932c0,1.005,0.927,1.855,1.855,1.855
	c1.005,0,1.932-0.927,1.932-1.932C27.588,5.487,26.661,4.559,25.656,4.559z M36.861,1.932c0-1.005-0.927-1.932-1.932-1.855
	c-1.005,0-1.855,0.927-1.855,1.932s0.927,1.932,1.932,1.932C36.011,3.864,36.861,2.937,36.861,1.932z M30.293,0.077
	c-1.005,0-1.932,0.85-1.932,1.855s0.85,1.855,1.855,1.932c1.005,0,1.932-0.85,1.932-1.855C32.225,1.005,31.297,0.077,30.293,0.077z
	 M15.919,0.077c-1.005,0-1.932,0.85-1.932,1.855s0.85,1.855,1.855,1.932c1.005,0,1.932-0.85,1.932-1.855
	C17.851,0.927,16.924,0.077,15.919,0.077z M11.205,0.077c-1.005,0-1.932,0.927-1.932,1.932s0.85,1.855,1.855,1.855
	s1.932-0.85,1.932-1.855C13.137,0.927,12.21,0.077,11.205,0.077z M8.501,1.932c0-1.005-0.927-1.932-1.932-1.855
	c-1.005,0-1.855,0.927-1.855,1.855c0,1.005,0.927,1.932,1.932,1.932S8.501,2.937,8.501,1.932z M1.932,3.864
	c1.005,0,1.932-0.927,1.855-1.932c0-1.005-0.85-1.855-1.855-1.855S0,0.927,0,1.932S0.927,3.864,1.932,3.864z M105.948,28.438
	c-1.005,0-1.932,0.85-1.932,1.855s0.85,1.855,1.855,1.932c1.005,0,1.932-0.85,1.932-1.855
	C107.88,29.365,106.952,28.515,105.948,28.438z M101.311,32.225c1.005,0,1.932-0.927,1.855-1.932c0-1.005-0.927-1.855-1.855-1.855
	c-1.005,0-1.932,0.927-1.932,1.932S100.306,32.302,101.311,32.225z M96.674,32.225c1.005,0,1.932-0.927,1.932-1.932
	s-0.85-1.855-1.855-1.855s-1.932,0.85-1.932,1.855C94.742,31.375,95.67,32.225,96.674,32.225z M79.441,30.37
	c0-1.005-0.927-1.932-1.932-1.855c-1.005,0-1.855,0.927-1.855,1.932s0.927,1.932,1.932,1.932
	C78.514,32.225,79.441,31.375,79.441,30.37z M74.727,30.37c0-1.005-0.927-1.932-1.932-1.932c-1.005,0-1.855,0.85-1.855,1.855
	s0.85,1.932,1.855,1.932C73.8,32.302,74.727,31.375,74.727,30.37z M68.236,28.438c-1.005,0-1.932,0.927-1.932,1.932
	s0.85,1.855,1.855,1.855c1.005,0,1.932-0.85,1.932-1.855C70.168,29.365,69.241,28.438,68.236,28.438z M55.949,30.37
	c0-1.005-0.927-1.932-1.932-1.855c-1.005,0-1.855,0.85-1.855,1.855s0.85,1.932,1.855,1.932
	C55.099,32.302,56.026,31.375,55.949,30.37z M49.38,32.225c1.005,0,1.932-0.85,1.932-1.855s-0.85-1.855-1.855-1.932
	c-1.005,0-1.932,0.85-1.932,1.855C47.448,31.375,48.376,32.225,49.38,32.225z M49.38,37.866c-1.005,0-1.932,0.927-1.855,1.932
	c0,1.005,0.927,1.855,1.855,1.855c1.005,0,1.932-0.927,1.932-1.932S50.385,37.866,49.38,37.866z M55.949,39.721
	c0-1.005-0.927-1.932-1.932-1.855c-1.005,0-1.855,0.85-1.855,1.855s0.85,1.932,1.855,1.932
	C55.099,41.653,56.026,40.725,55.949,39.721z M41.575,30.37c0-1.005-0.927-1.932-1.932-1.855c-1.005,0-1.855,0.927-1.855,1.855
	c0,1.005,0.927,1.932,1.932,1.932C40.648,32.225,41.575,31.375,41.575,30.37z M36.861,30.37c0-1.005-0.927-1.932-1.932-1.932
	s-1.855,0.85-1.855,1.855s0.85,1.932,1.855,1.932C35.934,32.302,36.861,31.375,36.861,30.37z M30.37,28.438
	c-1.005,0-1.932,0.927-1.855,1.932c0,1.005,0.85,1.855,1.855,1.855c1.005,0,1.932-0.85,1.932-1.855
	C32.225,29.365,31.375,28.438,30.37,28.438z M25.656,32.225c1.005,0,1.932-0.85,1.932-1.932c0-1.005-0.85-1.855-1.855-1.932
	c-1.005,0-1.932,0.85-1.932,1.855C23.724,31.375,24.652,32.225,25.656,32.225z M27.588,25.579c0-1.005-0.927-1.932-1.932-1.855
	c-1.005,0-1.855,0.85-1.855,1.855c0,1.005,0.85,1.932,1.855,1.932C26.661,27.511,27.588,26.584,27.588,25.579z M105.948,19.01
	c-1.005,0-1.932,0.927-1.855,1.932c0,1.005,0.85,1.855,1.855,1.855c1.005,0,1.932-0.85,1.932-1.855S106.952,19.01,105.948,19.01z
	 M49.38,51.158c1.005,0,1.932-0.85,1.932-1.932c0-1.005-0.85-1.855-1.855-1.932c-1.005,0-1.932,0.85-1.932,1.855
	C47.448,50.23,48.376,51.158,49.38,51.158z M54.094,47.371c-1.005,0-1.932,0.85-1.932,1.932c0,1.005,0.85,1.855,1.855,1.932
	c1.005,0,1.932-0.85,1.932-1.855C56.026,48.299,55.099,47.371,54.094,47.371z M30.37,18.856c-1.005,0-1.932,0.927-1.932,1.932
	c0,1.005,0.85,1.855,1.855,1.932c1.005,0,1.932-0.85,1.932-1.855C32.225,19.783,31.375,18.856,30.37,18.856z M35.161,14.296
	c-1.005,0-1.932,0.85-1.932,1.855s0.85,1.855,1.855,1.932c1.005,0,1.932-0.85,1.932-1.855
	C37.016,15.224,36.166,14.374,35.161,14.296z M98.529,49.226c0-1.005-0.927-1.932-1.932-1.855c-1.005,0-1.855,0.927-1.855,1.932
	s0.927,1.932,1.932,1.932C97.679,51.158,98.529,50.23,98.529,49.226z M101.234,47.371c-1.005,0-1.932,0.927-1.855,1.932
	c0,1.005,0.85,1.855,1.855,1.855c1.005,0,1.932-0.85,1.932-1.932C103.166,48.221,102.238,47.371,101.234,47.371z M107.88,49.226
	c0-1.005-0.927-1.932-1.932-1.855c-1.005,0-1.855,0.85-1.855,1.855s0.85,1.932,1.855,1.932
	C106.952,51.158,107.88,50.23,107.88,49.226z M11.283,18.083c1.005,0,1.932-0.927,1.855-1.932c0-1.005-0.927-1.855-1.855-1.855
	c-1.005,0-1.932,0.927-1.932,1.932C9.428,17.233,10.278,18.16,11.283,18.083z"/>
<path style="opacity:0.3;fill:#010101;enable-background:new    ;" d="M84.387,44.512c0,1.005-0.85,1.932-1.855,1.932
	c-1.082,0-1.932-0.85-1.932-1.932c0-1.005,0.85-1.855,1.932-1.855C83.537,42.58,84.387,43.43,84.387,44.512z"/>
<path style="opacity:0.3;fill:#010101;enable-background:new    ;" d="M70.091,44.512c0,1.005-0.85,1.855-1.855,1.855
	c-1.082,0-1.932-0.85-1.932-1.932c0-1.005,0.85-1.855,1.932-1.855S70.091,43.43,70.091,44.512z"/>
<path style="opacity:0.3;fill:#010101;enable-background:new    ;" d="M58.808,46.367c-1.005,0-1.932-0.85-1.932-1.855
	c0-1.082,0.85-1.932,1.932-1.932c1.005,0,1.855,0.85,1.855,1.932C60.663,45.517,59.813,46.367,58.808,46.367z"/>
<path style="opacity:0.3;fill:#010101;enable-background:new    ;" d="M105.948,42.503c1.005,0,1.855,0.85,1.855,1.932
	c0,1.082-0.85,1.932-1.932,1.855c-1.005,0-1.855-0.85-1.855-1.932C104.093,43.353,104.943,42.503,105.948,42.503z"/>
<path style="opacity:0.3;fill:#010101;enable-background:new    ;" d="M91.883,42.503c1.005,0,1.855,0.85,1.932,1.855
	c0,1.082-0.85,1.932-1.932,1.932c-1.005,0-1.855-0.85-1.855-1.932C90.028,43.353,90.878,42.503,91.883,42.503z"/>
<path style="opacity:0.3;fill:#010101;enable-background:new    ;" d="M82.533,37.866c1.005,0,1.932,0.85,1.932,1.855
	c0,1.082-0.85,1.932-1.932,1.932c-1.005,0-1.855-0.85-1.855-1.932C80.601,38.716,81.451,37.866,82.533,37.866z"/>
<path style="opacity:0.3;fill:#010101;enable-background:new    ;" d="M70.091,39.721c0,1.005-0.85,1.932-1.855,1.932
	c-1.082,0-1.932-0.85-1.932-1.932c0-1.005,0.85-1.855,1.932-1.855C69.241,37.866,70.091,38.716,70.091,39.721z"/>
<path style="opacity:0.3;fill:#010101;enable-background:new    ;" d="M58.808,37.866c1.005,0,1.855,0.85,1.932,1.855
	c0,1.082-0.85,1.932-1.932,1.932c-1.005,0-1.855-0.85-1.855-1.932C56.876,38.716,57.726,37.866,58.808,37.866z"/>
<path style="opacity:0.3;fill:#010101;enable-background:new    ;" d="M105.948,37.789c1.005,0,1.855,0.85,1.855,1.855
	c0,1.082-0.85,1.932-1.932,1.932c-1.005,0-1.855-0.85-1.855-1.932C104.093,38.639,104.943,37.789,105.948,37.789z"/>
<path style="opacity:0.3;fill:#010101;enable-background:new    ;" d="M93.815,39.643c0,1.005-0.85,1.932-1.855,1.932
	c-1.082,0-1.932-0.85-1.932-1.932c0-1.005,0.85-1.855,1.932-1.855C92.965,37.789,93.815,38.639,93.815,39.643z"/>
<path style="opacity:0.3;fill:#010101;enable-background:new    ;" d="M82.533,33.152c1.005,0,1.855,0.85,1.932,1.855
	c0,1.082-0.85,1.932-1.932,1.932c-1.005,0-1.855-0.85-1.855-1.932C80.601,34.002,81.451,33.152,82.533,33.152z"/>
<path style="opacity:0.3;fill:#010101;enable-background:new    ;" d="M70.091,35.084c0,1.005-0.85,1.855-1.855,1.932
	c-1.082,0-1.932-0.85-1.932-1.932c0-1.005,0.85-1.855,1.932-1.855C69.241,33.152,70.091,34.002,70.091,35.084z"/>
<path style="opacity:0.3;fill:#010101;enable-background:new    ;" d="M58.808,33.152c1.005,0,1.855,0.85,1.855,1.932
	c0,1.082-0.85,1.932-1.932,1.932c-1.005,0-1.855-0.85-1.855-1.932C56.876,34.002,57.726,33.152,58.808,33.152z"/>
<path style="opacity:0.3;fill:#010101;enable-background:new    ;" d="M107.88,34.929c0,1.005-0.85,1.932-1.855,1.932
	c-1.082,0-1.932-0.85-1.932-1.932c0-1.005,0.85-1.855,1.932-1.855C107.03,33.075,107.88,33.925,107.88,34.929z"/>
<path style="opacity:0.3;fill:#010101;enable-background:new    ;" d="M91.883,33.075c1.005,0,1.932,0.85,1.932,1.855
	c0,1.082-0.85,1.932-1.932,1.932c-1.005,0-1.855-0.85-1.855-1.932C90.028,33.925,90.878,33.075,91.883,33.075z"/>
<path style="opacity:0.3;fill:#010101;enable-background:new    ;" d="M44.512,46.444c-1.005,0-1.855-0.85-1.855-1.932
	c0-1.082,0.85-1.932,1.932-1.855c1.005,0,1.855,0.85,1.855,1.932C46.444,45.671,45.594,46.444,44.512,46.444z"/>
<path style="opacity:0.3;fill:#010101;enable-background:new    ;" d="M58.808,51.158c-1.005,0-1.932-0.85-1.932-1.855
	c0-1.082,0.85-1.932,1.932-1.932c1.005,0,1.855,0.85,1.855,1.932C60.663,50.308,59.813,51.158,58.808,51.158z"/>
<path style="opacity:0.3;fill:#010101;enable-background:new    ;" d="M70.091,49.303c0,1.005-0.85,1.855-1.932,1.855
	c-1.082,0-1.932-0.85-1.855-1.932c0-1.005,0.85-1.855,1.932-1.855S70.168,48.221,70.091,49.303z"/>
<path style="opacity:0.3;fill:#010101;enable-background:new    ;" d="M84.387,49.226c0,1.005-0.85,1.932-1.855,1.932
	c-1.082,0-1.932-0.85-1.932-1.932c0-1.005,0.85-1.855,1.932-1.855C83.537,47.371,84.387,48.221,84.387,49.226z"/>
<path style="opacity:0.3;fill:#010101;enable-background:new    ;" d="M60.663,58.808c0,1.005-0.85,1.932-1.855,1.932
	c-1.082,0-1.932-0.85-1.932-1.932c0-1.005,0.85-1.855,1.932-1.855C59.813,56.876,60.663,57.726,60.663,58.808z"/>
<path style="opacity:0.3;fill:#010101;enable-background:new    ;" d="M58.808,61.668c1.005,0,1.855,0.85,1.855,1.932
	s-0.85,1.932-1.932,1.855c-1.005,0-1.855-0.85-1.855-1.932C56.876,62.518,57.726,61.668,58.808,61.668z"/>
<path style="opacity:0.3;fill:#010101;enable-background:new    ;" d="M58.808,66.381c1.005,0,1.855,0.85,1.855,1.932
	s-0.85,1.932-1.932,1.932c-1.005,0-1.855-0.85-1.855-1.932S57.726,66.381,58.808,66.381z"/>
<path style="opacity:0.3;fill:#010101;enable-background:new    ;" d="M38.175,81.296c-1.005,0-1.855-0.85-1.855-1.932
	c0-1.082,0.85-1.932,1.932-1.932c1.005,0,1.855,0.85,1.855,1.932C40.03,80.446,39.18,81.296,38.175,81.296z"/>
<path style="opacity:0.3;fill:#010101;enable-background:new    ;" d="M42.966,77.509c1.005,0,1.855,0.85,1.855,1.932
	s-0.85,1.932-1.932,1.855c-1.005,0-1.855-0.85-1.855-1.932C41.034,78.36,41.884,77.509,42.966,77.509z"/>
<path style="opacity:0.3;fill:#010101;enable-background:new    ;" d="M47.68,77.509c1.082,0,1.932,0.85,1.932,1.855
	c0,1.082-0.85,1.932-1.932,1.932c-1.005,0-1.855-0.85-1.932-1.855C45.826,78.36,46.598,77.509,47.68,77.509z"/>
<path style="opacity:0.3;fill:#010101;enable-background:new    ;" d="M71.791,79.364c0,1.005-0.85,1.932-1.855,1.932
	c-1.082,0-1.932-0.85-1.932-1.932c0-1.005,0.85-1.855,1.932-1.855C70.941,77.509,71.791,78.36,71.791,79.364z"/>
<path style="opacity:0.3;fill:#010101;enable-background:new    ;" d="M74.65,77.509c1.005,0,1.855,0.85,1.855,1.855
	c0,1.082-0.85,1.932-1.932,1.932c-1.005,0-1.855-0.85-1.855-1.932C72.718,78.36,73.568,77.509,74.65,77.509z"/>
<path style="opacity:0.3;fill:#010101;enable-background:new    ;" d="M79.364,77.509c1.082,0,1.932,0.85,1.932,1.855
	c0,1.082-0.85,1.932-1.932,1.932c-1.005,0-1.855-0.85-1.932-1.855C77.509,78.36,78.36,77.509,79.364,77.509z"/>
<path style="opacity:0.3;fill:#010101;enable-background:new    ;" d="M60.663,90.492c0,1.005-0.85,1.855-1.932,1.855
	s-1.932-0.85-1.855-1.932c0-1.005,0.85-1.855,1.932-1.855C59.813,88.637,60.663,89.487,60.663,90.492z"/>
<path style="opacity:0.3;fill:#010101;enable-background:new    ;" d="M60.663,95.206c0,1.005-0.85,1.932-1.855,1.932
	c-1.082,0-1.932-0.85-1.932-1.932c0-1.005,0.85-1.855,1.932-1.855C59.813,93.351,60.663,94.201,60.663,95.206z"/>
<path style="opacity:0.3;fill:#010101;enable-background:new    ;" d="M60.663,99.997c0,1.005-0.85,1.932-1.855,1.932
	c-1.082,0-1.932-0.85-1.932-1.932c0-1.005,0.85-1.855,1.932-1.855C59.813,98.143,60.663,98.993,60.663,99.997z"/>
<path style="opacity:0.3;fill:#010101;enable-background:new    ;" d="M15.919,4.714c1.005,0,1.855,0.85,1.932,1.855
	c0,1.082-0.85,1.932-1.932,1.932c-1.005,0-1.855-0.85-1.855-1.932C13.987,5.564,14.837,4.714,15.919,4.714z"/>
<path style="opacity:0.3;fill:#010101;enable-background:new    ;" d="M8.501,20.865c0,1.005-0.85,1.855-1.855,1.855
	c-1.082,0-1.932-0.85-1.932-1.932c0-1.005,0.85-1.855,1.932-1.855C7.65,18.933,8.501,19.783,8.501,20.865z"/>
<path style="opacity:0.3;fill:#010101;enable-background:new    ;" d="M15.919,13.214c-1.005,0-1.855-0.85-1.855-1.932
	s0.85-1.932,1.932-1.932c1.005,0,1.855,0.85,1.855,1.932C17.774,12.364,16.924,13.214,15.919,13.214z"/>
<path style="opacity:0.3;fill:#010101;enable-background:new    ;" d="M41.884,11.283c0,1.005-0.85,1.855-1.855,1.932
	c-1.082,0-1.932-0.85-1.932-1.932c0-1.005,0.85-1.855,1.932-1.855C41.034,9.428,41.884,10.278,41.884,11.283z"/>
<path style="opacity:0.3;fill:#010101;enable-background:new    ;" d="M39.953,8.501c-1.005,0-1.932-0.85-1.932-1.855
	c0-1.082,0.85-1.932,1.932-1.932c1.005,0,1.855,0.85,1.855,1.932C41.884,7.65,41.034,8.501,39.953,8.501z"/>
<path style="opacity:0.3;fill:#010101;enable-background:new    ;" d="M6.646,27.434c-1.005,0-1.932-0.85-1.932-1.855
	c0-1.082,0.85-1.932,1.932-1.932c1.005,0,1.855,0.85,1.855,1.932C8.501,26.584,7.65,27.434,6.646,27.434z"/>
<path style="opacity:0.3;fill:#010101;enable-background:new    ;" d="M104.093,25.502c0-1.005,0.85-1.855,1.932-1.855
	c1.082,0,1.932,0.85,1.855,1.932c0,1.005-0.85,1.855-1.932,1.855S104.016,26.506,104.093,25.502z"/>
<path style="opacity:0.3;fill:#010101;enable-background:new    ;" d="M8.501,30.293c0,1.005-0.85,1.932-1.855,1.932
	c-1.082,0-1.932-0.85-1.932-1.932c0-1.005,0.85-1.855,1.932-1.855C7.65,28.361,8.501,29.211,8.501,30.293z"/>
<path style="opacity:0.3;fill:#010101;enable-background:new    ;" d="M48.453,63.445c-1.082,0-1.932-0.85-1.855-1.932
	c0-1.005,0.85-1.855,1.932-1.855c1.005,0,1.855,0.85,1.855,1.855C50.385,62.595,49.535,63.445,48.453,63.445z"/>
<path style="opacity:0.3;fill:#010101;enable-background:new    ;" d="M51.312,89.024c0-1.005,0.85-1.855,1.855-1.932
	c1.082,0,1.932,0.85,1.932,1.932c0,1.005-0.85,1.855-1.932,1.855C52.162,90.878,51.312,90.028,51.312,89.024z"/>
<path style="opacity:0.3;fill:#010101;enable-background:new    ;" d="M62.44,69.782c0-1.082,0.85-1.855,1.855-1.855
	c1.082,0,1.932,0.85,1.932,1.932c0,1.005-0.85,1.855-1.932,1.855C63.29,71.714,62.44,70.864,62.44,69.782z"/>
<path style="opacity:0.3;fill:#010101;enable-background:new    ;" d="M53.244,71.714c-1.005,0-1.855-0.85-1.855-1.932
	c0-1.082,0.85-1.932,1.932-1.855c1.005,0,1.855,0.927,1.855,1.932C55.099,70.864,54.249,71.714,53.244,71.714z"/>
<path style="opacity:0.3;fill:#010101;enable-background:new    ;" d="M64.372,87.092c1.005,0,1.932,0.85,1.855,1.932
	c0,1.082-0.85,1.855-1.932,1.855c-1.082,0-1.932-0.85-1.932-1.932C62.44,87.942,63.29,87.092,64.372,87.092z"/>
<path style="opacity:0.3;fill:#010101;enable-background:new    ;" d="M43.198,87.324c0-1.082,0.85-1.855,1.932-1.855
	s1.855,0.85,1.855,1.855c0,1.082-0.85,1.932-1.932,1.932S43.198,88.328,43.198,87.324z"/>
<path style="opacity:0.3;fill:#010101;enable-background:new    ;" d="M67.232,61.59c0-1.005,0.85-1.932,1.855-1.932
	s1.932,0.85,1.932,1.855c0,1.082-0.85,1.932-1.932,1.932C68.082,63.445,67.232,62.595,67.232,61.59z"/>
<path style="opacity:0.3;fill:#010101;enable-background:new    ;" d="M67.232,97.215c0-1.082,0.927-1.855,2.009-1.855
	c1.005,0,1.855,0.927,1.855,1.932c0,1.082-0.927,1.932-1.932,1.855C68.004,99.147,67.154,98.22,67.232,97.215z"/>
<path style="opacity:0.3;fill:#010101;enable-background:new    ;" d="M51.081,84.928c0,1.005-0.85,1.932-1.932,1.855
	c-1.082,0-1.855-0.85-1.932-1.855c0-1.082,0.85-1.932,1.932-1.932C50.23,83.073,51.081,83.924,51.081,84.928z"/>
<path style="opacity:0.3;fill:#010101;enable-background:new    ;" d="M48.53,99.147c-1.082,0-1.932-0.85-1.932-1.855
	c0-1.082,0.85-1.932,1.932-1.932c1.005,0,1.855,0.85,1.855,1.855C50.385,98.297,49.535,99.147,48.53,99.147z"/>
<path style="opacity:0.3;fill:#010101;enable-background:new    ;" d="M68.391,71.945c1.005,0,1.855,0.85,1.855,1.932
	c0,1.005-0.85,1.932-1.855,1.932c-1.082,0-1.932-0.85-1.932-1.932C66.536,72.796,67.386,71.945,68.391,71.945z"/>
<path style="opacity:0.3;fill:#010101;enable-background:new    ;" d="M76.659,87.787c1.005,0,1.932,0.85,1.932,1.855
	c0,1.082-0.85,1.932-1.855,1.932c-1.082,0-1.932-0.85-1.932-1.932C74.727,88.637,75.578,87.787,76.659,87.787z"/>
<path style="opacity:0.3;fill:#010101;enable-background:new    ;" d="M78.514,69.086c0,1.005-0.85,1.932-1.932,1.855
	c-1.082,0-1.855-0.85-1.932-1.855c0-1.082,0.85-1.932,1.932-1.932C77.741,67.232,78.514,68.082,78.514,69.086z"/>
<path style="opacity:0.3;fill:#010101;enable-background:new    ;" d="M51.081,73.877c0,1.005-0.85,1.855-1.932,1.855
	c-1.005,0-1.932-0.85-1.932-1.855c0-1.082,0.85-1.932,1.932-1.932S51.081,72.796,51.081,73.877z"/>
<path style="opacity:0.3;fill:#010101;enable-background:new    ;" d="M48.994,65.686c0-1.082,0.85-1.932,1.855-1.932
	c1.082,0,1.932,0.85,1.932,1.932c0,1.005-0.85,1.855-1.932,1.855C49.844,67.541,48.994,66.768,48.994,65.686z"/>
<path style="opacity:0.3;fill:#010101;enable-background:new    ;" d="M42.812,69.009c0,1.082-0.773,1.932-1.855,1.932
	c-1.005,0-1.932-0.85-1.932-1.855c0-1.005,0.85-1.932,1.855-1.932C41.962,67.154,42.812,68.004,42.812,69.009z"/>
<path style="opacity:0.3;fill:#010101;enable-background:new    ;" d="M66.691,67.541c-1.082,0-1.855-0.85-1.855-1.855
	c0-1.082,0.85-1.855,1.855-1.932c1.082,0,1.932,0.85,1.932,1.932C68.623,66.691,67.772,67.541,66.691,67.541z"/>
<path style="opacity:0.3;fill:#010101;enable-background:new    ;" d="M68.391,83.073c1.082,0,1.855,0.85,1.855,1.855
	c0,1.082-0.85,1.932-1.932,1.932c-1.005,0-1.855-0.85-1.855-1.932C66.459,83.924,67.386,83.073,68.391,83.073z"/>
<path style="opacity:0.3;fill:#010101;enable-background:new    ;" d="M72.564,69.627c1.082,0,1.855,0.85,1.855,1.855
	c0,1.082-0.85,1.932-1.932,1.932c-1.005,0-1.855-0.85-1.855-1.932S71.482,69.55,72.564,69.627z"/>
<path style="opacity:0.3;fill:#010101;enable-background:new    ;" d="M64.836,93.12c0-1.082,0.85-1.855,1.932-1.855
	c1.082,0,1.932,0.85,1.855,1.932c0,1.005-0.85,1.855-1.932,1.855C65.609,94.974,64.836,94.201,64.836,93.12z"/>
<path style="opacity:0.3;fill:#010101;enable-background:new    ;" d="M40.957,87.787c1.082,0,1.855,0.85,1.932,1.855
	c0,1.082-0.85,1.932-1.855,1.932c-1.082,0-1.932-0.85-1.932-1.932C39.025,88.637,39.875,87.865,40.957,87.787z"/>
<path style="opacity:0.3;fill:#010101;enable-background:new    ;" d="M48.994,93.12c0-1.082,0.85-1.855,1.932-1.855
	s1.932,0.85,1.855,1.932c0,1.082-0.85,1.855-1.932,1.855C49.767,94.974,48.994,94.124,48.994,93.12z"/>
<path style="opacity:0.3;fill:#010101;enable-background:new    ;" d="M74.418,87.324c0,1.082-0.85,1.855-1.855,1.855
	c-1.082,0-1.932-0.85-1.932-1.932c0-1.082,0.85-1.855,1.932-1.855C73.568,85.469,74.418,86.319,74.418,87.324z"/>
<path style="opacity:0.3;fill:#010101;enable-background:new    ;" d="M43.198,71.482c0-1.082,0.85-1.855,1.855-1.932
	c1.082,0,1.932,0.85,1.932,1.932s-0.85,1.855-1.932,1.855S43.198,72.564,43.198,71.482z"/>
<path style="opacity:0.3;fill:#010101;enable-background:new    ;" d="M25.656,4.559c1.005,0,1.932,0.85,1.932,1.855
	s-0.927,1.932-1.932,1.932c-1.005,0-1.855-0.85-1.855-1.855C23.724,5.487,24.652,4.559,25.656,4.559z"/>
<path style="opacity:0.3;fill:#010101;enable-background:new    ;" d="M36.861,1.932c0,1.005-0.85,1.932-1.855,1.932
	c-1.005,0-1.932-0.927-1.932-1.932S33.925,0.077,34.929,0C35.934,0,36.861,0.927,36.861,1.932z"/>
<path style="opacity:0.3;fill:#010101;enable-background:new    ;" d="M30.293,0.077c1.005,0,1.932,0.927,1.855,1.932
	c0,1.005-0.927,1.932-1.932,1.855c-1.005,0-1.855-0.927-1.855-1.932S29.288,0,30.293,0.077z"/>
<path style="opacity:0.3;fill:#010101;enable-background:new    ;" d="M15.919,0.077c1.005,0,1.932,0.927,1.855,1.932
	c0,1.005-0.927,1.932-1.932,1.855c-1.005,0-1.855-0.927-1.855-1.932S14.915,0,15.919,0.077z"/>
<path style="opacity:0.3;fill:#010101;enable-background:new    ;" d="M11.205,0.077c1.005,0,1.932,0.927,1.932,1.932
	s-0.927,1.932-1.932,1.855c-1.005,0-1.855-0.85-1.855-1.855C9.351,0.927,10.201,0.077,11.205,0.077z"/>
<path style="opacity:0.3;fill:#010101;enable-background:new    ;" d="M8.501,1.932c0,1.005-0.85,1.932-1.855,1.932
	S4.714,2.937,4.714,1.932s0.85-1.855,1.855-1.855C7.573,0,8.501,0.927,8.501,1.932z"/>
<path style="opacity:0.3;fill:#010101;enable-background:new    ;" d="M1.932,3.864C0.927,3.864,0,2.937,0,1.932
	S0.927,0,1.932,0.077c1.005,0,1.855,0.85,1.855,1.855C3.864,2.937,2.937,3.864,1.932,3.864z"/>
<path style="opacity:0.3;fill:#010101;enable-background:new    ;" d="M105.948,28.438c1.005,0,1.932,0.927,1.855,1.932
	c0,1.005-0.927,1.932-1.932,1.855c-1.005,0-1.855-0.927-1.855-1.932C104.093,29.365,104.943,28.438,105.948,28.438z"/>
<path style="opacity:0.3;fill:#010101;enable-background:new    ;" d="M101.311,32.225c-1.005,0-1.932-0.85-1.932-1.855
	s0.927-1.932,1.932-1.932c1.005,0,1.855,0.85,1.855,1.855S102.316,32.225,101.311,32.225z"/>
<path style="opacity:0.3;fill:#010101;enable-background:new    ;" d="M96.674,32.225c-1.005,0-1.932-0.927-1.932-1.932
	s0.927-1.932,1.932-1.855c1.005,0,1.855,0.85,1.855,1.855C98.529,31.375,97.679,32.225,96.674,32.225z"/>
<path style="opacity:0.3;fill:#010101;enable-background:new    ;" d="M79.441,30.37c0,1.005-0.85,1.932-1.855,1.932
	c-1.005,0-1.932-0.927-1.932-1.932s0.85-1.855,1.855-1.932C78.514,28.438,79.441,29.365,79.441,30.37z"/>
<path style="opacity:0.3;fill:#010101;enable-background:new    ;" d="M74.727,30.37c0,1.005-0.927,1.932-1.932,1.855
	c-1.005,0-1.932-0.927-1.855-1.932c0-1.005,0.927-1.855,1.855-1.855C73.877,28.438,74.727,29.365,74.727,30.37z"/>
<path style="opacity:0.3;fill:#010101;enable-background:new    ;" d="M68.236,28.438c1.005,0,1.932,0.927,1.932,1.932
	s-0.927,1.932-1.932,1.855c-1.005,0-1.855-0.927-1.855-1.855C66.304,29.365,67.232,28.438,68.236,28.438z"/>
<path style="opacity:0.3;fill:#010101;enable-background:new    ;" d="M55.949,30.37c0,1.005-0.927,1.932-1.932,1.932
	s-1.932-0.927-1.855-1.932c0-1.005,0.85-1.855,1.855-1.855C55.099,28.438,55.949,29.365,55.949,30.37z"/>
<path style="opacity:0.3;fill:#010101;enable-background:new    ;" d="M49.38,32.225c-1.005,0-1.932-0.927-1.855-1.932
	c0-1.005,0.927-1.932,1.932-1.855c1.005,0,1.855,0.927,1.855,1.932S50.385,32.302,49.38,32.225z"/>
<path style="opacity:0.3;fill:#010101;enable-background:new    ;" d="M49.38,37.866c1.005,0,1.932,0.927,1.932,1.932
	s-0.927,1.932-1.932,1.932s-1.855-0.85-1.855-1.855C47.526,38.793,48.376,37.866,49.38,37.866z"/>
<path style="opacity:0.3;fill:#010101;enable-background:new    ;" d="M55.949,39.721c0,1.005-0.927,1.932-1.932,1.932
	s-1.932-0.927-1.855-1.932c0-1.005,0.85-1.855,1.855-1.855C55.099,37.866,55.949,38.716,55.949,39.721z"/>
<path style="opacity:0.3;fill:#010101;enable-background:new    ;" d="M41.575,30.37c0,1.005-0.85,1.932-1.855,1.932
	s-1.932-0.927-1.932-1.932s0.85-1.855,1.855-1.855C40.648,28.438,41.498,29.365,41.575,30.37z"/>
<path style="opacity:0.3;fill:#010101;enable-background:new    ;" d="M36.861,30.37c0,1.005-0.927,1.932-1.932,1.932
	s-1.932-0.927-1.855-1.932c0-1.005,0.85-1.855,1.855-1.855C35.934,28.438,36.861,29.365,36.861,30.37z"/>
<path style="opacity:0.3;fill:#010101;enable-background:new    ;" d="M30.37,28.438c1.005,0,1.932,0.927,1.932,1.932
	s-0.927,1.932-1.932,1.855c-1.005,0-1.855-0.85-1.855-1.855C28.438,29.365,29.365,28.438,30.37,28.438z"/>
<path style="opacity:0.3;fill:#010101;enable-background:new    ;" d="M25.656,32.225c-1.005,0-1.932-0.927-1.855-1.932
	c0-1.005,0.927-1.932,1.932-1.855c1.005,0,1.855,0.927,1.855,1.932S26.661,32.302,25.656,32.225z"/>
<path style="opacity:0.3;fill:#010101;enable-background:new    ;" d="M27.588,25.579c0,1.005-0.927,1.932-1.932,1.932
	c-1.005,0-1.932-0.927-1.855-1.932c0-1.005,0.85-1.855,1.855-1.855C26.661,23.724,27.588,24.574,27.588,25.579z"/>
<path style="opacity:0.3;fill:#010101;enable-background:new    ;" d="M105.948,19.01c1.005,0,1.932,0.927,1.932,1.932
	c0,1.005-0.927,1.932-1.932,1.855c-1.005,0-1.855-0.85-1.855-1.855C104.016,19.938,104.943,19.01,105.948,19.01z"/>
<path style="opacity:0.3;fill:#010101;enable-background:new    ;" d="M49.38,51.158c-1.005,0-1.932-0.927-1.855-1.932
	c0-1.005,0.927-1.932,1.932-1.855c1.005,0,1.855,0.927,1.855,1.932S50.385,51.158,49.38,51.158z"/>
<path style="opacity:0.3;fill:#010101;enable-background:new    ;" d="M54.094,47.371c1.005,0,1.932,0.927,1.855,1.932
	c0,1.005-0.927,1.932-1.932,1.855c-1.005,0-1.855-0.927-1.855-1.932S53.09,47.371,54.094,47.371z"/>
<path style="opacity:0.3;fill:#010101;enable-background:new    ;" d="M30.37,18.856c1.005,0,1.932,0.927,1.855,1.932
	c0,1.005-0.927,1.932-1.932,1.855c-1.005,0-1.855-0.927-1.855-1.932C28.438,19.783,29.365,18.856,30.37,18.856z"/>
<path style="opacity:0.3;fill:#010101;enable-background:new    ;" d="M35.161,14.296c1.005,0,1.932,0.927,1.855,1.932
	c0,1.005-0.927,1.932-1.932,1.855c-1.005,0-1.855-0.927-1.855-1.932C33.229,15.224,34.157,14.296,35.161,14.296z"/>
<path style="opacity:0.3;fill:#010101;enable-background:new    ;" d="M98.529,49.226c0,1.005-0.85,1.932-1.855,1.932
	c-1.005,0-1.932-0.927-1.932-1.932s0.85-1.855,1.855-1.932C97.602,47.371,98.529,48.221,98.529,49.226z"/>
<path style="opacity:0.3;fill:#010101;enable-background:new    ;" d="M101.234,47.371c1.005,0,1.932,0.927,1.932,1.932
	s-0.927,1.932-1.932,1.932s-1.855-0.85-1.855-1.855C99.379,48.299,100.229,47.371,101.234,47.371z"/>
<path style="opacity:0.3;fill:#010101;enable-background:new    ;" d="M107.88,49.226c0,1.005-0.927,1.932-1.932,1.932
	c-1.005,0-1.932-0.927-1.855-1.932c0-1.005,0.85-1.855,1.855-1.855C106.952,47.371,107.88,48.221,107.88,49.226z"/>
<path style="opacity:0.3;fill:#010101;enable-background:new    ;" d="M11.283,18.083c-1.005,0-1.932-0.85-1.932-1.855
	c0-1.005,0.927-1.932,1.932-1.932s1.855,0.85,1.855,1.855C13.214,17.233,12.364,18.083,11.283,18.083z"/>
<g>
</g>
<g>
</g>
<g>
</g>
<g>
</g>
<g>
</g>
<g>
</g>
<g>
</g>
<g>
</g>
<g>
</g>
<g>
</g>
<g>
</g>
<g>
</g>
<g>
</g>
<g>
</g>
<g>
</g>
</svg>
