<svg version="1.1" id="abrsm" xmlns="http://www.w3.org/2000/svg" xmlns:xlink="http://www.w3.org/1999/xlink" x="0px" y="0px"
	 width="105.92px" height="108.315px" viewBox="0 0 105.92 108.315" style="enable-background:new 0 0 105.92 108.315;"
	 xml:space="preserve">
<g>
	<g>
		<g>
			<path style="fill:#686868;" d="M105.92-0.246c0,36.009,0,72.036,0,108.106c-0.139,0.028-0.27,0.069-0.403,0.078
				c-0.211,0.013-0.424,0.005-0.636,0.005c-34.353,0-68.707,0-103.06,0.001c-0.424,0-0.849,0.013-1.273,0.012
				c-0.172,0-0.343-0.021-0.548-0.035C0,71.834,0,35.791,0-0.226c0.035-0.037,0.045-0.051,0.058-0.062
				c0.014-0.011,0.029-0.024,0.045-0.028c0.068-0.015,0.137-0.04,0.206-0.04c35.043-0.002,70.086-0.003,105.129-0.003
				c0.088,0,0.177,0.004,0.265,0.011c0.035,0.003,0.07,0.012,0.102,0.026C105.836-0.308,105.863-0.284,105.92-0.246z M72.308,67.116
				c0.054-0.169,0.111-0.315,0.147-0.465c0.539-2.269,1.036-4.548,1.621-6.805c0.735-2.838,1.509-5.668,2.332-8.482
				c0.396-1.354,0.954-2.66,1.414-3.996c0.189-0.548,0.364-1.111,0.453-1.682c0.101-0.643-0.285-1.226-0.845-1.447
				c-0.714-0.283-1.396-0.133-1.804,0.438c-0.214,0.299-0.423,0.623-0.534,0.968c-0.249,0.772-0.473,1.556-0.641,2.349
				c-0.546,2.574-1.061,5.155-1.591,7.733c-0.027,0.132-0.081,0.258-0.133,0.418c-1.452-0.287-2.866-0.591-4.288-0.841
				c-1.419-0.249-2.847-0.444-4.294-0.666c0.025-0.238,0.033-0.413,0.064-0.584c0.434-2.381,0.855-4.765,1.313-7.141
				c0.482-2.497,1.013-4.986,1.495-7.483c0.085-0.442,0.092-0.916,0.039-1.364c-0.066-0.555-0.418-0.937-0.983-1.047
				c-0.614-0.119-1.194-0.099-1.606,0.5c-0.362,0.526-0.549,1.114-0.629,1.728c-0.333,2.557-0.662,5.116-0.955,7.678
				c-0.259,2.265-0.468,4.535-0.701,6.803c-0.023,0.223-0.057,0.444-0.087,0.68c-0.23,0-0.405,0.011-0.579-0.002
				c-0.793-0.058-1.585-0.146-2.378-0.178c-1.642-0.067-3.286-0.105-4.929-0.157c-0.167-0.005-0.333-0.029-0.491-0.044
				c0-0.928-0.023-1.793,0.004-2.657c0.083-2.596,0.187-5.192,0.282-7.788c0.055-1.501,0.108-3.003,0.161-4.504
				c0.053-1.501,0.126-3.002,0.142-4.503c0.005-0.448-0.104-0.916-0.249-1.344c-0.194-0.571-0.647-0.862-1.26-0.883
				c-0.858-0.03-1.451,0.49-1.577,1.453c-0.071,0.541-0.076,1.092-0.077,1.639c-0.001,0.53,0.045,1.059,0.064,1.589
				c0.082,2.297,0.164,4.593,0.241,6.89c0.108,3.233,0.213,6.465,0.317,9.698c0.004,0.121-0.019,0.242-0.031,0.383
				c-2.778,0.143-5.537,0.285-8.342,0.429c-0.029-0.203-0.066-0.408-0.087-0.614c-0.19-1.916-0.37-3.833-0.569-5.749
				c-0.192-1.844-0.386-3.687-0.611-5.527c-0.147-1.209-0.335-2.413-0.534-3.614c-0.09-0.542-0.271-1.067-0.64-1.493
				c-0.134-0.154-0.307-0.323-0.493-0.374c-1.033-0.284-2.066,0.096-2.07,1.446c-0.001,0.402,0.077,0.808,0.154,1.206
				c0.917,4.786,1.84,9.571,2.758,14.357c0.038,0.198,0.031,0.405,0.045,0.62c-1.49,0.235-2.923,0.438-4.347,0.694
				c-1.415,0.255-2.82,0.563-4.261,0.855c-0.45-2.193-0.876-4.321-1.325-6.445c-0.259-1.225-0.521-2.453-0.85-3.66
				c-0.141-0.516-0.426-1.003-0.703-1.469c-0.311-0.525-0.84-0.598-1.399-0.524c-0.56,0.074-0.975,0.374-1.131,0.907
				c-0.095,0.324-0.097,0.703-0.037,1.038c0.081,0.448,0.235,0.889,0.405,1.313c0.77,1.921,1.405,3.886,1.981,5.871
				c1.284,4.428,2.364,8.907,3.384,13.402c0.033,0.147,0.086,0.29,0.126,0.422C46.255,64.201,59.27,64.206,72.308,67.116z
				 M77.699,97.365c0.451-4.808,0.896-9.551,1.341-14.293c0.126,0.128,0.192,0.266,0.239,0.41c0.899,2.717,1.795,5.435,2.693,8.152
				c0.594,1.794,1.197,3.586,1.78,5.384c0.093,0.286,0.242,0.403,0.533,0.395c0.353-0.011,0.707,0,1.061-0.002
				c0.574-0.004,0.575-0.004,0.743-0.535c0.251-0.791,0.496-1.584,0.748-2.375c1.171-3.669,2.344-7.337,3.518-11.004
				c0.039-0.121,0.1-0.235,0.195-0.457c0.044,0.295,0.075,0.468,0.094,0.643c0.252,2.372,0.5,4.744,0.753,7.116
				c0.219,2.056,0.439,4.111,0.663,6.166c0.044,0.406,0.079,0.439,0.498,0.444c0.778,0.008,1.556,0.005,2.333,0
				c0.135-0.001,0.27-0.036,0.48-0.066c-0.7-6.435-1.397-12.834-2.1-19.295c-0.958-0.009-1.854-0.02-2.751-0.026
				c-0.248-0.002-0.313,0.185-0.374,0.378c-0.538,1.701-1.078,3.402-1.619,5.102c-0.9,2.829-1.801,5.657-2.704,8.484
				c-0.044,0.139-0.108,0.271-0.196,0.488c-0.09-0.24-0.149-0.384-0.198-0.532c-0.894-2.681-1.79-5.363-2.68-8.045
				c-0.596-1.793-1.185-3.589-1.777-5.384c-0.175-0.529-0.175-0.531-0.744-0.533c-0.654-0.002-1.308-0.003-1.962,0.002
				c-0.59,0.004-0.603,0.025-0.648,0.631c-0.042,0.564-0.093,1.127-0.144,1.69c-0.264,2.904-0.531,5.807-0.794,8.711
				c-0.208,2.287-0.414,4.574-0.618,6.862c-0.042,0.471-0.071,0.943-0.109,1.453C76.537,97.447,77.075,97.398,77.699,97.365z
				 M38.228,87.05c0.249-0.123,0.418-0.207,0.587-0.29c0.982-0.475,1.785-1.131,2.241-2.158c0.403-0.908,0.439-1.862,0.287-2.81
				c-0.197-1.226-0.804-2.21-1.938-2.82c-1.131-0.608-2.345-0.891-3.614-0.914c-2.121-0.038-4.242-0.036-6.363-0.047
				c-0.155-0.001-0.31,0.028-0.454,0.042c-0.133,0.654-0.163,18.814-0.028,19.294c0.138,0.015,0.292,0.048,0.446,0.046
				c2.315-0.022,4.631-0.035,6.945-0.079c0.959-0.019,1.896-0.227,2.799-0.548c1.686-0.6,2.848-1.704,3.158-3.522
				c0.182-1.071,0.124-2.146-0.255-3.187c-0.281-0.772-0.756-1.402-1.405-1.886c-0.581-0.433-1.216-0.787-1.93-0.969
				C38.573,87.17,38.447,87.121,38.228,87.05z M46.052,78.042c-0.127,0.772-0.084,18.88,0.035,19.282
				c0.587,0.128,2.704,0.1,3.143-0.062c0-0.701,0-1.423,0-2.145c0-0.725,0-1.45,0-2.175c0-0.743-0.003-1.485,0.001-2.228
				c0.004-0.717-0.018-1.436,0.019-2.197c0.441,0,0.811,0.016,1.178-0.005c0.32-0.018,0.513,0.089,0.671,0.382
				c0.519,0.965,1.073,1.91,1.606,2.867c0.971,1.744,1.941,3.489,2.898,5.24c0.156,0.285,0.348,0.404,0.67,0.399
				c0.866-0.014,1.733-0.001,2.599-0.007c0.146-0.001,0.291-0.041,0.531-0.076c-1.752-3.148-3.457-6.211-5.156-9.264
				c0.575-0.217,1.113-0.389,1.625-0.618c1.294-0.58,2.152-1.548,2.386-2.966c0.108-0.656,0.159-1.345,0.085-2.002
				c-0.167-1.493-0.9-2.661-2.257-3.381c-0.327-0.173-0.67-0.319-1.017-0.449c-1.054-0.393-2.152-0.568-3.272-0.585
				c-1.732-0.027-3.464-0.032-5.196-0.043C46.426,78.01,46.252,78.03,46.052,78.042z M10.14,97.382
				c0.506,0.006,0.907,0.015,1.307,0.015c0.564-0.001,0.564-0.005,0.752-0.531c0.576-1.614,1.146-3.23,1.73-4.84
				c0.209-0.577,0.079-0.598,0.81-0.603c1.856-0.012,3.712-0.01,5.568-0.003c0.586,0.002,0.587,0.017,0.786,0.569
				c0.6,1.661,1.197,3.324,1.798,4.984c0.153,0.423,0.163,0.432,0.608,0.435c0.831,0.006,1.662,0.005,2.492,0
				c0.134-0.001,0.268-0.035,0.46-0.062c-0.054-0.205-0.086-0.373-0.143-0.533c-0.282-0.799-0.568-1.597-0.856-2.394
				c-1.243-3.438-2.489-6.875-3.73-10.313c-0.677-1.877-1.347-3.757-2.02-5.636c-0.161-0.448-0.163-0.453-0.643-0.458
				c-0.477-0.006-0.955-0.005-1.432-0.001c-0.536,0.004-0.535,0.007-0.714,0.506c-1.138,3.158-2.276,6.316-3.416,9.473
				c-1.049,2.908-2.101,5.815-3.15,8.723C10.284,96.891,10.234,97.076,10.14,97.382z M61.526,94.531
				c-0.047,0.02-0.093,0.04-0.14,0.06c0,0.613-0.003,1.226,0.001,1.839c0.003,0.511,0.002,0.54,0.498,0.641
				c0.951,0.194,1.903,0.402,2.865,0.517c1.696,0.203,3.393,0.17,5.036-0.364c1.501-0.487,2.727-1.32,3.362-2.848
				c0.268-0.646,0.41-1.318,0.446-2.007c0.067-1.277-0.227-2.453-1.047-3.469c-0.549-0.681-1.191-1.267-1.936-1.711
				c-0.97-0.578-1.976-1.096-2.969-1.634C66.817,85.108,66,84.65,65.32,83.992c-0.965-0.934-1.192-2.161-0.68-3.406
				c0.279-0.679,0.784-1.077,1.458-1.277c0.267-0.079,0.555-0.116,0.834-0.121c1.619-0.028,3.147,0.375,4.623,1.008
				c0.173,0.074,0.346,0.148,0.609,0.261c0-0.736,0.009-1.384-0.01-2.031c-0.002-0.084-0.134-0.189-0.23-0.24
				c-0.105-0.057-0.236-0.068-0.358-0.09c-1.255-0.218-2.516-0.374-3.791-0.385c-1.135-0.01-2.263,0.073-3.342,0.459
				c-1.389,0.498-2.522,1.304-2.996,2.775c-0.599,1.862-0.384,3.598,0.972,5.093c0.779,0.859,1.741,1.49,2.743,2.057
				c0.722,0.409,1.477,0.762,2.192,1.182c0.592,0.347,1.171,0.726,1.714,1.145c1.005,0.776,1.399,1.812,1.259,3.082
				c-0.148,1.338-0.869,2.242-2.157,2.573c-0.306,0.078-0.626,0.122-0.941,0.136c-1.899,0.082-3.613-0.531-5.251-1.421
				C61.818,94.71,61.673,94.618,61.526,94.531z"/>
			<path style="fill:#FFFFFF;" d="M72.308,67.116c-13.038-2.91-26.053-2.915-39.123-0.027c-0.04-0.132-0.093-0.275-0.126-0.422
				c-1.02-4.494-2.1-8.974-3.384-13.402c-0.576-1.986-1.211-3.951-1.981-5.871c-0.17-0.425-0.324-0.865-0.405-1.313
				c-0.06-0.335-0.059-0.714,0.037-1.038c0.156-0.532,0.571-0.833,1.131-0.907c0.559-0.073,1.088,0,1.399,0.524
				c0.277,0.466,0.562,0.953,0.703,1.469c0.329,1.208,0.591,2.435,0.85,3.66c0.449,2.124,0.876,4.252,1.325,6.445
				c1.441-0.291,2.846-0.6,4.261-0.855c1.424-0.256,2.857-0.459,4.347-0.694c-0.015-0.215-0.007-0.422-0.045-0.62
				c-0.917-4.786-1.841-9.571-2.758-14.357c-0.076-0.398-0.155-0.804-0.154-1.206c0.004-1.351,1.037-1.73,2.07-1.446
				c0.186,0.051,0.36,0.22,0.493,0.374c0.37,0.426,0.55,0.951,0.64,1.493c0.199,1.201,0.387,2.406,0.534,3.614
				c0.224,1.84,0.419,3.684,0.611,5.527c0.199,1.915,0.378,3.833,0.569,5.749c0.02,0.206,0.058,0.411,0.087,0.614
				c2.805-0.144,5.564-0.286,8.342-0.429c0.012-0.141,0.035-0.262,0.031-0.383c-0.104-3.233-0.208-6.466-0.317-9.698
				c-0.077-2.297-0.159-4.593-0.241-6.89c-0.019-0.53-0.065-1.06-0.064-1.589c0.001-0.547,0.006-1.098,0.077-1.639
				c0.126-0.963,0.719-1.483,1.577-1.453c0.613,0.021,1.066,0.312,1.26,0.883c0.146,0.428,0.254,0.896,0.249,1.344
				c-0.016,1.501-0.09,3.002-0.142,4.503c-0.053,1.501-0.106,3.003-0.161,4.504c-0.095,2.596-0.199,5.192-0.282,7.788
				c-0.028,0.864-0.004,1.729-0.004,2.657c0.158,0.014,0.324,0.038,0.491,0.044c1.643,0.052,3.286,0.09,4.929,0.157
				c0.794,0.032,1.585,0.121,2.378,0.178c0.174,0.013,0.349,0.002,0.579,0.002c0.031-0.236,0.064-0.457,0.087-0.68
				c0.233-2.268,0.442-4.538,0.701-6.803c0.293-2.562,0.621-5.12,0.955-7.678c0.08-0.614,0.267-1.202,0.629-1.728
				c0.412-0.599,0.992-0.619,1.606-0.5c0.565,0.109,0.917,0.492,0.983,1.047c0.053,0.448,0.047,0.922-0.039,1.364
				c-0.482,2.497-1.013,4.986-1.495,7.483c-0.459,2.376-0.879,4.76-1.313,7.141c-0.031,0.171-0.039,0.346-0.064,0.584
				c1.447,0.222,2.875,0.417,4.294,0.666c1.423,0.25,2.836,0.554,4.288,0.841c0.052-0.16,0.106-0.287,0.133-0.418
				c0.53-2.578,1.045-5.159,1.591-7.733c0.168-0.793,0.392-1.577,0.641-2.349c0.111-0.345,0.32-0.67,0.534-0.968
				c0.408-0.571,1.09-0.72,1.804-0.438c0.559,0.221,0.945,0.804,0.845,1.447c-0.089,0.571-0.264,1.133-0.453,1.682
				c-0.46,1.336-1.018,2.642-1.414,3.996c-0.823,2.814-1.596,5.644-2.332,8.482c-0.585,2.257-1.082,4.536-1.621,6.805
				C72.419,66.802,72.362,66.947,72.308,67.116z M63.232,60.237c0.165,0.049,0.278,0.097,0.395,0.115
				c2.565,0.391,5.13,0.784,7.637,1.473c0.093,0.026,0.2,0.003,0.329,0.003c0.217-1.081,0.488-2.115,0.649-3.203
				c-1.438-0.398-2.837-0.671-4.245-0.904c-1.417-0.234-2.836-0.463-4.304-0.591C63.534,58.206,63.385,59.211,63.232,60.237z
				 M33.893,61.854c2.779-0.737,5.562-1.158,8.381-1.58c-0.154-1.074-0.258-2.081-0.484-3.058c-1.489-0.031-7.751,1.12-8.537,1.577
				C33.461,59.788,33.672,60.798,33.893,61.854z M61.861,56.961c-1.474-0.28-7.585-0.551-8.227-0.382
				c-0.116,0.72-0.112,2.62,0.002,2.967c2.635,0.162,5.266,0.324,7.954,0.489C61.681,58.998,61.77,57.99,61.861,56.961z
				 M51.844,56.599c-0.759-0.207-7.556,0.163-8.215,0.451c0.13,0.986,0.111,2.002,0.322,2.968c2.682-0.162,5.298-0.32,7.988-0.483
				C51.907,58.546,51.876,57.567,51.844,56.599z"/>
			<path style="fill:#FFFFFF;" d="M77.699,97.365c-0.625,0.033-1.162,0.082-1.745-0.038c0.038-0.51,0.067-0.982,0.109-1.453
				c0.204-2.287,0.41-4.575,0.618-6.862c0.264-2.904,0.53-5.807,0.794-8.711c0.051-0.563,0.102-1.126,0.144-1.69
				c0.045-0.606,0.058-0.627,0.648-0.631c0.654-0.005,1.308-0.004,1.962-0.002c0.57,0.002,0.57,0.004,0.744,0.533
				c0.592,1.795,1.181,3.59,1.777,5.384c0.891,2.683,1.786,5.364,2.68,8.045c0.049,0.148,0.108,0.292,0.198,0.532
				c0.088-0.217,0.151-0.349,0.196-0.488c0.903-2.828,1.804-5.656,2.704-8.484c0.541-1.7,1.08-3.401,1.619-5.102
				c0.061-0.193,0.126-0.38,0.374-0.378c0.897,0.006,1.793,0.017,2.751,0.026c0.703,6.46,1.4,12.86,2.1,19.295
				c-0.21,0.03-0.345,0.065-0.48,0.066c-0.778,0.005-1.556,0.008-2.333,0c-0.419-0.004-0.454-0.038-0.498-0.444
				c-0.224-2.055-0.445-4.111-0.663-6.166c-0.252-2.372-0.501-4.744-0.753-7.116c-0.019-0.175-0.05-0.348-0.094-0.643
				c-0.095,0.221-0.156,0.336-0.195,0.457c-1.174,3.668-2.347,7.336-3.518,11.004c-0.252,0.791-0.498,1.584-0.748,2.375
				c-0.168,0.531-0.17,0.532-0.743,0.535c-0.354,0.002-0.707-0.008-1.061,0.002c-0.29,0.009-0.44-0.109-0.533-0.395
				c-0.583-1.798-1.186-3.589-1.78-5.384c-0.899-2.717-1.794-5.435-2.693-8.152c-0.048-0.144-0.114-0.282-0.239-0.41
				C78.595,87.814,78.15,92.557,77.699,97.365z"/>
			<path style="fill:#FFFFFF;" d="M38.228,87.05c0.219,0.071,0.345,0.119,0.476,0.152c0.715,0.182,1.349,0.535,1.93,0.969
				c0.649,0.483,1.124,1.113,1.405,1.886c0.378,1.041,0.437,2.116,0.255,3.187c-0.309,1.818-1.472,2.922-3.158,3.522
				c-0.903,0.321-1.84,0.53-2.799,0.548c-2.315,0.045-4.63,0.058-6.945,0.079c-0.154,0.001-0.308-0.031-0.446-0.046
				c-0.135-0.479-0.105-18.639,0.028-19.294c0.144-0.014,0.299-0.043,0.454-0.042c2.121,0.011,4.243,0.01,6.363,0.047
				c1.269,0.023,2.484,0.306,3.614,0.914c1.134,0.61,1.741,1.594,1.938,2.82c0.153,0.948,0.117,1.902-0.287,2.81
				c-0.456,1.027-1.259,1.682-2.241,2.158C38.646,86.843,38.477,86.928,38.228,87.05z M32.155,95.872
				c0.123,0.015,0.227,0.04,0.331,0.04c0.918,0,1.837,0.01,2.755-0.013c0.386-0.01,0.774-0.067,1.154-0.143
				c1.439-0.289,2.307-1.198,2.589-2.604c0.141-0.699,0.165-1.443,0.108-2.156c-0.089-1.109-0.676-1.944-1.671-2.481
				c-0.538-0.29-1.111-0.485-1.711-0.517c-1.127-0.061-2.257-0.063-3.385-0.087c-0.049-0.001-0.098,0.03-0.143,0.044
				C32.054,88.338,32.024,95.22,32.155,95.872z M32.165,86.379c1.055,0.01,2.093,0.063,3.127-0.088
				c0.243-0.036,0.486-0.092,0.722-0.165c1.298-0.4,2.054-1.356,2.144-2.715c0.022-0.334,0.026-0.671,0.006-1.005
				c-0.085-1.455-0.889-2.626-2.513-2.793c-1.118-0.115-2.252-0.075-3.38-0.103c-0.032-0.001-0.065,0.025-0.097,0.039
				C32.054,79.957,32.03,85.754,32.165,86.379z"/>
			<path style="fill:#FFFFFF;" d="M46.052,78.042c0.2-0.012,0.374-0.033,0.548-0.031c1.732,0.011,3.464,0.016,5.196,0.043
				c1.12,0.017,2.218,0.192,3.272,0.585c0.347,0.129,0.69,0.275,1.017,0.449c1.357,0.719,2.09,1.888,2.257,3.381
				c0.073,0.657,0.023,1.346-0.085,2.002c-0.234,1.418-1.092,2.386-2.386,2.966c-0.512,0.23-1.05,0.402-1.625,0.618
				c1.699,3.053,3.404,6.116,5.156,9.264c-0.239,0.036-0.385,0.075-0.531,0.076c-0.866,0.006-1.733-0.007-2.599,0.007
				c-0.322,0.005-0.514-0.113-0.67-0.399c-0.957-1.752-1.927-3.496-2.898-5.24c-0.533-0.957-1.087-1.902-1.606-2.867
				c-0.158-0.294-0.351-0.401-0.671-0.382c-0.367,0.021-0.737,0.005-1.178,0.005c-0.037,0.761-0.015,1.48-0.019,2.197
				c-0.004,0.743-0.001,1.485-0.001,2.228c0,0.725,0,1.45,0,2.175c0,0.722,0,1.445,0,2.145c-0.439,0.162-2.556,0.191-3.143,0.062
				C45.967,96.922,45.924,78.814,46.052,78.042z M49.258,87.027c0.929-0.034,1.791-0.054,2.652-0.104
				c0.279-0.016,0.559-0.09,0.827-0.173c1.289-0.399,2.144-1.218,2.347-2.587c0.074-0.501,0.083-1.027,0.026-1.531
				c-0.183-1.62-1.082-2.852-2.798-3.036c-0.961-0.103-1.936-0.075-2.905-0.101c-0.044-0.001-0.09,0.045-0.15,0.078
				C49.258,82.021,49.258,84.469,49.258,87.027z"/>
			<path style="fill:#FFFFFF;" d="M10.14,97.382c0.095-0.306,0.144-0.49,0.208-0.669c1.049-2.908,2.101-5.815,3.15-8.723
				c1.139-3.157,2.277-6.315,3.416-9.473c0.18-0.498,0.178-0.501,0.714-0.506c0.477-0.004,0.955-0.005,1.432,0.001
				c0.48,0.006,0.482,0.01,0.643,0.458c0.673,1.879,1.343,3.759,2.02,5.636c1.241,3.439,2.487,6.875,3.73,10.313
				c0.288,0.797,0.574,1.595,0.856,2.394c0.056,0.16,0.089,0.328,0.143,0.533c-0.191,0.027-0.325,0.061-0.46,0.062
				c-0.831,0.005-1.662,0.006-2.492,0c-0.444-0.003-0.454-0.012-0.608-0.435c-0.602-1.661-1.199-3.323-1.798-4.984
				c-0.199-0.552-0.2-0.567-0.786-0.569c-1.856-0.007-3.712-0.01-5.568,0.003c-0.731,0.005-0.6,0.026-0.81,0.603
				c-0.584,1.611-1.155,3.226-1.73,4.84c-0.188,0.526-0.187,0.53-0.752,0.531C11.046,97.397,10.645,97.388,10.14,97.382z
				 M17.488,82.183c-0.956,2.588-1.887,5.143-2.776,7.727c0.871,0.121,5.218,0.076,5.574-0.047
				C20.035,88.802,17.787,82.581,17.488,82.183z"/>
			<path style="fill:#FFFFFF;" d="M61.526,94.531c0.147,0.087,0.292,0.179,0.443,0.261c1.638,0.889,3.352,1.503,5.251,1.421
				c0.315-0.014,0.636-0.058,0.941-0.136c1.288-0.33,2.009-1.235,2.157-2.573c0.14-1.27-0.254-2.307-1.259-3.082
				c-0.543-0.419-1.122-0.797-1.714-1.145c-0.715-0.42-1.47-0.773-2.192-1.182c-1.001-0.567-1.963-1.198-2.743-2.057
				c-1.356-1.495-1.571-3.231-0.972-5.093c0.473-1.471,1.607-2.277,2.996-2.775c1.079-0.387,2.207-0.469,3.342-0.459
				c1.275,0.011,2.537,0.168,3.791,0.385c0.122,0.021,0.253,0.033,0.358,0.09c0.095,0.051,0.227,0.156,0.23,0.24
				c0.019,0.647,0.01,1.295,0.01,2.031c-0.264-0.113-0.437-0.186-0.609-0.261c-1.476-0.634-3.004-1.036-4.623-1.008
				c-0.279,0.005-0.567,0.042-0.834,0.121c-0.675,0.2-1.179,0.598-1.458,1.277c-0.512,1.245-0.285,2.472,0.68,3.406
				c0.68,0.658,1.497,1.116,2.322,1.563c0.993,0.538,1.999,1.056,2.969,1.634c0.746,0.444,1.387,1.03,1.936,1.711
				c0.82,1.016,1.113,2.193,1.047,3.469c-0.036,0.69-0.178,1.362-0.446,2.007c-0.635,1.528-1.861,2.361-3.362,2.848
				c-1.644,0.534-3.34,0.567-5.036,0.364c-0.962-0.115-1.914-0.323-2.865-0.517c-0.496-0.101-0.496-0.13-0.498-0.641
				c-0.003-0.613-0.001-1.226-0.001-1.839C61.432,94.571,61.479,94.551,61.526,94.531z"/>
			<path style="fill:#686868;" d="M63.232,60.237c0.152-1.026,0.302-2.031,0.462-3.107c1.468,0.128,2.886,0.356,4.304,0.591
				c1.408,0.233,2.807,0.506,4.245,0.904c-0.161,1.088-0.432,2.122-0.649,3.203c-0.129,0-0.236,0.022-0.329-0.003
				c-2.508-0.689-5.072-1.082-7.637-1.473C63.51,60.334,63.398,60.286,63.232,60.237z"/>
			<path style="fill:#686868;" d="M33.893,61.854c-0.221-1.056-0.432-2.066-0.64-3.06c0.786-0.457,7.047-1.608,8.537-1.577
				c0.225,0.977,0.33,1.983,0.484,3.058C39.455,60.696,36.672,61.117,33.893,61.854z"/>
			<path style="fill:#686868;" d="M61.861,56.961c-0.091,1.03-0.18,2.038-0.272,3.074c-2.688-0.165-5.319-0.327-7.954-0.489
				c-0.114-0.346-0.118-2.247-0.002-2.967C54.276,56.409,60.387,56.68,61.861,56.961z"/>
			<path style="fill:#686868;" d="M51.844,56.599c0.031,0.968,0.063,1.947,0.095,2.936c-2.69,0.163-5.305,0.321-7.988,0.483
				c-0.212-0.966-0.193-1.982-0.322-2.968C44.288,56.762,51.085,56.392,51.844,56.599z"/>
			<path style="fill:#686868;" d="M32.155,95.872c-0.132-0.652-0.101-7.534,0.026-7.917c0.044-0.014,0.094-0.045,0.143-0.044
				c1.129,0.024,2.259,0.026,3.385,0.087c0.6,0.032,1.173,0.227,1.711,0.517c0.995,0.537,1.582,1.371,1.671,2.481
				c0.057,0.713,0.033,1.456-0.108,2.156c-0.283,1.406-1.15,2.315-2.589,2.604c-0.379,0.076-0.768,0.134-1.154,0.143
				c-0.918,0.023-1.836,0.013-2.755,0.013C32.382,95.911,32.279,95.887,32.155,95.872z"/>
			<path style="fill:#686868;" d="M32.165,86.379c-0.135-0.625-0.111-6.422,0.009-6.83c0.032-0.014,0.065-0.04,0.097-0.039
				c1.127,0.027,2.261-0.013,3.38,0.103c1.624,0.168,2.428,1.339,2.513,2.793c0.019,0.334,0.016,0.671-0.006,1.005
				c-0.09,1.359-0.845,2.314-2.144,2.715c-0.235,0.073-0.478,0.129-0.722,0.165C34.259,86.443,33.221,86.389,32.165,86.379z"/>
			<path style="fill:#686868;" d="M49.258,87.027c0-2.558,0-5.006,0-7.455c0.06-0.032,0.105-0.079,0.15-0.078
				c0.969,0.026,1.944-0.002,2.905,0.101c1.715,0.184,2.615,1.416,2.798,3.036c0.057,0.504,0.049,1.03-0.026,1.531
				c-0.203,1.369-1.058,2.188-2.347,2.587c-0.268,0.083-0.549,0.157-0.827,0.173C51.049,86.973,50.187,86.993,49.258,87.027z"/>
			<path style="fill:#686868;" d="M17.488,82.183c0.3,0.397,2.547,6.619,2.797,7.68c-0.355,0.123-4.703,0.168-5.574,0.047
				C15.601,87.327,16.531,84.772,17.488,82.183z"/>
		</g>
	</g>
</g>
</svg>
