<svg version="1.1" id="adidas" xmlns="http://www.w3.org/2000/svg" xmlns:xlink="http://www.w3.org/1999/xlink" x="0px" y="0px"
	 width="119.319px" height="79.546px" viewBox="0 0 119.319 79.546" style="enable-background:new 0 0 119.319 79.546;"
	 xml:space="preserve">
<g>
	<g>
		<path style="fill:#010101;" d="M118.767,64.582h-3.387h-1.811c-0.158-0.866-0.473-1.496-0.709-1.811
			c-0.63-0.63-1.496-0.788-2.835-0.788s-2.205,0.236-2.678,0.63c-0.394,0.315-0.63,0.709-0.63,1.339c0,0.788,1.103,1.418,3.229,1.89
			c2.52,0.551,4.253,1.024,5.356,1.418c0.315,0.079,0.551,0.236,0.709,0.315c2.205,1.024,3.308,2.678,3.308,4.725
			c0,2.599-1.103,4.489-3.229,5.671c-0.315,0.158-0.551,0.315-0.788,0.394c-1.418,0.63-2.993,0.866-4.804,0.866
			c-2.757,0-4.883-0.551-6.537-1.418c-1.024-0.63-1.811-1.418-2.363-2.284c-0.551-0.945-0.788-1.969-0.788-3.229h5.434
			c0,0.945,0.394,1.733,1.024,2.126c0.63,0.551,1.811,0.788,3.387,0.788c1.181,0,2.048-0.236,2.678-0.709
			c0.473-0.394,0.63-0.788,0.63-1.339c0-0.788-1.103-1.496-3.229-1.969c-3.15-0.63-5.277-1.26-6.064-1.654
			c-2.205-1.024-3.229-2.599-3.229-4.804c0-1.811,0.63-3.229,1.733-4.489c1.418-1.575,3.623-2.284,6.458-2.284
			c2.363,0,4.174,0.394,5.671,1.024c0.158,0.079,0.236,0.079,0.394,0.158c1.024,0.63,1.811,1.339,2.284,2.205
			C118.452,62.219,118.767,63.322,118.767,64.582L118.767,64.582z"/>
		<path style="fill:#010101;" d="M116.404,51.35c0.079,0.158,0.158,0.315,0.158,0.551s-0.079,0.473-0.315,0.63
			c-0.158,0.158-0.473,0.315-0.63,0.315c0.158,0.079,0.236,0.079,0.315,0.158l0.551,0.63l0.394,0.63h-0.63l-0.315-0.551
			c-0.236-0.394-0.394-0.63-0.551-0.709c0,0,0,0-0.079-0.079l-0.473-0.158h-0.315v1.418h-0.551v-3.387h1.181
			c0.079,0,0.158,0,0.236,0c0.315,0,0.551,0,0.63,0.079C116.089,51.035,116.247,51.114,116.404,51.35L116.404,51.35z
			 M115.931,51.902c0-0.079,0-0.236-0.079-0.315s-0.158-0.158-0.236-0.158s-0.158,0-0.394-0.079h-0.236h-0.63v1.024h0.63
			c0.079,0,0.158,0,0.158,0c0.236,0,0.394-0.079,0.551-0.158C115.853,52.138,115.931,51.98,115.931,51.902L115.931,51.902z"/>
		<path style="fill:#010101;" d="M118.373,52.532c0,0.551-0.158,1.024-0.473,1.575c-0.315,0.551-0.63,0.866-1.181,1.181
			s-1.024,0.473-1.575,0.473l0,0c-0.551,0-1.024-0.158-1.575-0.473s-0.866-0.63-1.181-1.181s-0.473-1.024-0.473-1.575
			c0-0.63,0.158-1.103,0.473-1.575c0.315-0.551,0.63-0.866,1.181-1.181s1.024-0.394,1.575-0.473l0,0
			c0.551,0,1.024,0.158,1.575,0.473s0.866,0.63,1.181,1.181C118.294,51.508,118.373,51.98,118.373,52.532L118.373,52.532z
			 M117.9,52.532c0-0.473-0.079-0.866-0.394-1.339c-0.236-0.473-0.63-0.709-0.945-0.945c-0.473-0.236-0.788-0.394-1.26-0.394l0,0
			c-0.473,0-0.866,0.158-1.26,0.394c-0.473,0.236-0.709,0.63-0.945,0.945c-0.236,0.473-0.394,0.788-0.394,1.339
			c0,0.473,0.158,0.866,0.394,1.339c0.236,0.394,0.551,0.709,0.945,0.945c0.473,0.236,0.788,0.394,1.339,0.394l0,0
			c0.473,0,0.866-0.079,1.339-0.394c0.473-0.236,0.709-0.63,0.945-0.945C117.822,53.398,117.9,53.004,117.9,52.532L117.9,52.532z"/>
		<polygon style="fill:#010101;" points="87.894,27.172 102.621,51.744 87.894,51.744 78.915,51.744 64.818,28.196 54.185,10.475 
			64.818,4.096 71.591,0 		"/>
		<path style="fill:#010101;" d="M93.643,69.859v-2.205c-0.551-2.678-2.914-4.725-5.749-4.725c0,0,0,0-0.079,0
			c-3.229,0-5.828,2.678-5.828,5.828c0,3.229,2.599,5.828,5.828,5.907c0,0,0,0,0.079,0C90.729,74.663,93.17,72.615,93.643,69.859
			L93.643,69.859z M98.605,68.756v10.16h-4.883v-1.103c-1.654,1.103-3.623,1.733-5.749,1.733c0,0,0,0-0.079,0
			c-5.828,0-10.632-4.804-10.632-10.632s4.725-10.632,10.632-10.632c0,0,0,0,0.079,0c2.126,0,4.095,0.63,5.749,1.733v-1.181h4.883
			L98.605,68.756L98.605,68.756z"/>
		<path style="fill:#010101;" d="M70.646,69.859v-2.205c-0.551-2.678-2.914-4.725-5.749-4.725c0,0,0,0-0.079,0
			c-3.229,0-5.828,2.678-5.828,5.828c0,3.229,2.599,5.828,5.828,5.907c0,0,0,0,0.079,0C67.732,74.663,70.173,72.615,70.646,69.859
			L70.646,69.859z M75.529,68.756v10.16h-4.883v-1.103c-1.733,1.103-3.623,1.733-5.749,1.733c0,0,0,0-0.079,0
			c-5.828,0-10.632-4.804-10.632-10.632s4.725-10.632,10.632-10.632c0,0,0,0,0.079,0c2.126,0,4.095,0.63,5.749,1.733v-8.192h4.883
			V68.756L75.529,68.756z"/>
		<polygon style="fill:#010101;" points="64.818,42.057 70.567,51.744 64.818,51.744 46.94,51.744 33.787,29.85 33.236,28.904 
			33.787,28.589 50.641,18.43 		"/>
		<polygon style="fill:#010101;" points="46.94,58.124 52.295,58.124 52.295,78.916 46.94,78.916 		"/>
		<polygon style="fill:#010101;" points="46.94,51.902 52.295,51.902 52.295,56.548 46.94,56.548 		"/>
		<path style="fill:#010101;" d="M39.615,69.859v-2.205c-0.551-2.678-2.914-4.725-5.749-4.725c0,0,0,0-0.079,0
			c-3.229,0-5.828,2.678-5.828,5.828c0,3.229,2.599,5.828,5.828,5.907c0,0,0,0,0.079,0C36.701,74.663,39.143,72.615,39.615,69.859
			L39.615,69.859z M44.498,68.756v10.16h-4.883v-1.103c-1.733,1.103-3.623,1.733-5.749,1.733c0,0,0,0-0.079,0
			c-5.828,0-10.632-4.804-10.632-10.632s4.725-10.632,10.632-10.632c0,0,0,0,0.079,0c2.126,0,4.095,0.63,5.749,1.733v-8.192h4.883
			V68.756L44.498,68.756z"/>
		<polygon style="fill:#010101;" points="33.787,43.632 38.67,51.744 33.787,51.744 14.964,51.744 12.286,47.255 29.77,36.859 		"/>
		<path style="fill:#010101;" d="M16.382,69.859v-2.205c-0.551-2.678-2.914-4.725-5.749-4.725c0,0,0,0-0.079,0
			c-3.15,0-5.828,2.678-5.828,5.828c0,3.229,2.599,5.828,5.828,5.907c0,0,0,0,0.079,0C13.468,74.663,15.83,72.615,16.382,69.859
			L16.382,69.859z M21.265,68.756v10.16h-4.883v-1.103c-1.733,1.103-3.623,1.733-5.749,1.733c0,0,0,0-0.079,0
			C4.726,79.546,0,74.742,0,68.914s4.725-10.632,10.554-10.632c0,0,0,0,0.079,0c2.126,0,4.095,0.63,5.749,1.733v-1.181h4.883V68.756
			L21.265,68.756z"/>
	</g>
</g>
</svg>
