<svg version="1.1" id="Calque_1" xmlns="http://www.w3.org/2000/svg" xmlns:xlink="http://www.w3.org/1999/xlink" x="0px" y="0px"
	 width="163.643px" height="52.991px" viewBox="0 0 163.643 52.991" style="enable-background:new 0 0 163.643 52.991;"
	 xml:space="preserve">
<g style="opacity:0.8;">
	<g>
		<path style="fill:#010101;" d="M41.173,0c-8.768,0-18.49,5.433-24.494,10.389l0.477,0.667c9.435-6.576,22.493-10.865,26.019-4.384
			c1.906,3.431-1.334,10.198-5.909,15.63c1.048-2.383,0.381-6.957-6.004-6.957C20.777,15.344,0,29.259,0,43.556
			c0,5.718,3.908,9.435,10.484,9.435c17.537,0,41.268-28.688,41.268-43.174C51.943,4.861,48.988,0,41.173,0z M16.584,37.646
			c-3.05,0-4.479-2.383-3.717-5.051c1.525-5.623,11.723-13.82,18.49-13.82c5.051,0,4.575,4.479,1.716,8.387l-1.716,1.811
			C25.733,34.501,20.396,37.646,16.584,37.646z"/>
		<g>
			<path style="fill:#010101;" d="M79.963,15.154c-1.62-2.001-4.194-2.859-6.1-2.859H63.665l-1.811,6.481h9.626l0.858,0.095
				c0,0,0.858,0.095,1.334,0.762c0.381,0.572,0.477,1.334,0.191,2.478l-0.477,1.716h-6.1c-5.242,0-12.581,3.717-14.201,9.817
				c-0.762,3.05-0.095,5.623,1.43,7.529c1.525,1.906,4.479,2.955,7.625,2.955h5.623l0,0h7.148l3.336-12.581l2.478-9.245
				C82.06,18.68,81.011,16.488,79.963,15.154z M63.761,37.646c-0.953,0-1.906-0.381-2.383-0.953
				c-0.572-0.667-0.667-1.716-0.477-2.669c0.572-2.192,2.955-3.812,5.337-3.812h5.623l-2.001,7.434H63.761z"/>
			<path style="fill:#010101;" d="M150.3,12.295c-2.764,0-5.337,0.762-7.434,2.383c-2.192,1.62-3.24,3.431-3.908,6.004
				c-1.43,5.623,2.955,8.387,6.481,10.198c2.573,1.334,4.67,2.573,4.194,4.289c-0.286,1.239-0.858,2.383-4.003,2.383h-9.531
				l-1.811,6.481h10.579c2.859,0,5.433-0.572,7.529-2.192c2.192-1.716,3.336-3.908,4.003-6.672c0.667-2.669,0.191-5.147-1.43-6.957
				c-1.334-1.525-3.431-2.669-5.242-3.622c-2.287-1.239-4.384-2.383-4.003-3.812c0.191-0.858,1.048-2.097,2.955-2.097h9.34
				l1.811-6.481H150.3V12.295z"/>
			<path style="fill:#010101;" d="M94.736,12.295c-2.764,0-5.337,0.762-7.434,2.383s-3.24,3.431-3.908,6.004
				c-1.43,5.623,2.955,8.387,6.481,10.198c2.573,1.334,4.67,2.573,4.194,4.289c-0.286,1.239-0.858,2.383-4.003,2.383h-9.531
				l-1.811,6.481h10.579c2.859,0,5.528-0.572,7.529-2.192c2.192-1.716,3.336-3.908,4.003-6.672c0.667-2.669,0.191-5.147-1.43-6.957
				c-1.334-1.525-3.431-2.669-5.242-3.622c-2.287-1.239-4.384-2.383-4.003-3.812c0.191-0.858,1.048-2.097,2.955-2.097h9.34
				l1.811-6.481h-9.531V12.295z"/>
			<path style="fill:#010101;" d="M109.222,12.295l-8.292,31.833h6.957l8.292-31.833H109.222z"/>
			<path style="fill:#010101;" d="M134.86,12.295c-12.39,0-18.776,8.292-20.872,15.916c-2.478,9.054,2.383,15.916,11.246,15.916
				h5.909l1.811-6.481h-5.909c-3.336,0-7.815-2.573-6.004-9.435c1.43-5.433,6.767-9.435,12.581-9.435h3.717l1.811-6.481
				C139.054,12.295,134.86,12.295,134.86,12.295z"/>
		</g>
	</g>
	<path style="fill:#010101;" d="M162.404,38.981c0.477,0.477,0.762,1.144,0.762,2.001c0,0.762-0.286,1.334-0.762,2.001
		c-0.477,0.477-1.144,0.762-2.001,0.762c-0.762,0-1.334-0.286-2.001-0.762c-0.477-0.477-0.762-1.144-0.762-2.001
		c0-0.762,0.286-1.334,0.762-2.001c0.477-0.477,1.144-0.762,2.001-0.762C161.165,38.123,161.927,38.504,162.404,38.981z
		 M162.69,38.695c-0.572-0.572-1.334-0.858-2.287-0.858c-0.858,0-1.716,0.286-2.287,0.858c-0.572,0.572-0.858,1.334-0.858,2.287
		c0,0.858,0.286,1.716,0.858,2.287c0.572,0.572,1.334,0.953,2.287,0.953c0.858,0,1.716-0.286,2.287-0.953
		c0.572-0.572,0.953-1.334,0.953-2.287C163.643,40.029,163.357,39.267,162.69,38.695z M160.879,40.792
		c-0.095,0.095-0.286,0.095-0.572,0.095h-0.572v-1.239h0.477c0.286,0,0.572,0,0.762,0.095s0.191,0.286,0.191,0.477
		C161.26,40.506,161.165,40.696,160.879,40.792z M159.163,42.698h0.572v-1.334h0.477c0.286,0,0.572,0,0.667,0.095
		c0.191,0.095,0.286,0.381,0.286,0.762v0.286v0.095l0,0l0,0h0.572l0,0c0,0,0-0.095,0-0.191s0-0.191,0-0.286V41.84
		c0-0.191-0.095-0.381-0.191-0.572c-0.095-0.191-0.286-0.286-0.572-0.286c0.191,0,0.381-0.095,0.477-0.191
		c0.191-0.191,0.286-0.381,0.286-0.667c0-0.381-0.191-0.667-0.477-0.858c-0.191-0.095-0.477-0.095-0.953-0.095h-1.144
		L159.163,42.698"/>
</g>
<g>
</g>
<g>
</g>
<g>
</g>
<g>
</g>
<g>
</g>
<g>
</g>
<g>
</g>
<g>
</g>
<g>
</g>
<g>
</g>
<g>
</g>
<g>
</g>
<g>
</g>
<g>
</g>
<g>
</g>
</svg>
