<svg version="1.1" id="Calque_1" xmlns="http://www.w3.org/2000/svg" xmlns:xlink="http://www.w3.org/1999/xlink" x="0px" y="0px"
	 width="227.084px" height="43.748px" viewBox="0 0 227.084 43.748" style="enable-background:new 0 0 227.084 43.748;"
	 xml:space="preserve">
<g>
	<g style="opacity:0.75;">
		<path style="fill:#010101;" d="M61.368,7.123c-0.815-2.65-2.038-4.79-6.115-4.79c-4.586,0-6.828,3.465-6.828,8.255
			c0,4.586,2.242,9.274,7.44,9.274c2.956,0,4.994-1.835,5.605-4.586l0.815,0.102c-0.408,1.427-0.51,2.956-0.713,4.382
			c-1.631,0.713-3.771,1.223-6.319,1.223c-6.115,0-10.701-3.363-10.701-10.294c0-6.115,4.994-9.784,10.599-9.784
			c3.159,0,4.28,0.917,6.828,1.325c0,1.427,0,3.057,0.306,4.586L61.368,7.123z"/>
		<path style="fill:#010101;" d="M68.094,16.703c-0.306,0.917-0.51,1.631-0.51,2.14c0,0.815,1.223,0.917,2.038,0.917h0.306v0.815
			c-1.019,0-2.242-0.102-3.363-0.102c-0.917,0-2.038,0-2.956,0.102v-0.713h0.102c1.019,0,2.038-0.713,2.446-1.733L70.54,5.594
			c0.408-1.019,0.815-2.446,1.019-3.363c0.917-0.306,2.038-0.815,2.548-1.223c0.102,0,0.102,0,0.306,0c0.102,0,0.102,0,0.102,0.102
			c0.102,0.306,0.102,0.408,0.306,0.713l5.096,14.268c0.306,0.917,0.713,2.038,1.019,2.854c0.306,0.815,0.917,1.019,1.834,1.019
			h0.102v0.815c-1.223,0-2.446-0.102-3.771-0.102c-1.325,0-2.65,0-4.179,0.102v-0.815h0.306c0.713,0,1.733-0.102,1.733-0.815
			c0-0.408-0.306-1.019-0.51-2.038l-1.019-3.159h-6.319L68.094,16.703z M72.069,4.575L72.069,4.575l-2.548,7.746h5.096L72.069,4.575
			z"/>
		<path style="fill:#010101;" d="M97.446,15.786l6.523-14.268c0.815,0,1.834,0.102,2.854,0.102c0.917,0,2.038-0.102,2.956-0.102
			v0.815h-0.306c-0.815,0-2.548,0-2.548,1.223c0,0.713,0.102,1.427,0.102,2.14l1.019,12.536c0.102,1.325,0.815,1.427,2.446,1.631
			v0.815c-1.325,0-2.65-0.102-3.975-0.102c-1.427,0-3.058,0-4.586,0.102v-0.815c1.427-0.102,2.446-0.102,2.446-1.325
			c0-0.306,0-0.713,0-1.325l-0.815-11.618l0,0l-6.93,15.491h-0.713L89.293,5.9l0,0l-0.917,12.026c0,0.917,0.306,1.325,0.51,1.631
			c0.408,0.306,0.917,0.306,1.733,0.306h0.306v0.815c-1.223,0-2.548-0.102-3.771-0.102c-1.019,0-2.14,0-3.159,0.102v-0.815h0.408
			c2.14-0.102,2.242-1.019,2.548-2.956l0.815-7.644c0.306-2.038,0.306-3.771,0.306-4.79c0-1.631-1.223-2.038-2.446-2.038h-0.408
			V1.619c1.019,0,2.242,0.102,3.363,0.102c0.815,0,1.631-0.102,2.446-0.102L97.446,15.786z"/>
		<path style="fill:#010101;" d="M113.651,19.862h0.408c0.917,0,2.038-0.102,2.038-1.631V3.759c0-1.427-1.019-1.631-2.038-1.631
			h-0.408V1.313c1.223,0,2.854,0.102,4.28,0.102c1.631,0,3.057-0.102,4.382-0.102c4.586,0,6.319,1.834,6.319,4.28
			c0,2.854-2.548,3.975-4.994,4.382l0,0c2.956-0.102,6.115,1.631,6.115,4.994c0,2.956-2.956,5.503-6.421,5.503
			c-1.325,0-3.057-0.102-4.79-0.102c-1.733,0-3.771,0.102-4.79,0.102v-0.612H113.651z M119.664,9.874h1.325
			c2.242,0,3.975-0.917,3.975-3.567c0-3.159-1.835-3.873-3.771-3.873h-1.631v7.44H119.664z M119.664,17.314
			c0,1.835,0.408,2.242,2.446,2.242c2.242,0,3.975-1.835,3.975-4.28c0-3.057-2.038-4.382-4.79-4.382h-1.733v6.421H119.664z"/>
		<path style="fill:#010101;" d="M135.767,4.473c0-2.038-1.019-2.14-2.038-2.14h-0.51V1.517c0.917,0,2.548,0.102,4.281,0.102
			c1.631,0,2.956-0.102,4.382-0.102c3.465,0,6.523,0.917,6.523,4.79c0,2.446-1.631,3.975-3.873,4.79l4.688,7.134
			c0.815,1.223,1.325,1.427,2.65,1.631v0.815c-0.917,0-1.733-0.102-2.65-0.102c-0.815,0-1.733,0.102-2.548,0.102
			c-2.14-2.854-3.873-5.707-5.707-8.867h-1.835v5.911c0,2.14,0.917,2.14,2.242,2.14h0.51v0.815c-1.631,0-3.159-0.102-4.688-0.102
			c-1.325,0-2.548,0.102-3.975,0.102v-0.815h0.51c1.019,0,2.038-0.408,2.038-1.427L135.767,4.473L135.767,4.473z M139.232,10.69
			h1.325c2.65,0,4.28-1.019,4.28-4.28c0-2.446-1.631-3.975-3.975-3.975c-0.815,0-1.223,0.102-1.631,0.102V10.69z"/>
		<path style="fill:#010101;" d="M154.621,19.862h0.408c0.917,0,2.038-0.102,2.038-1.631V3.759c0-1.427-1.019-1.631-2.038-1.631
			h-0.408V1.313c1.019,0,2.65,0.102,3.975,0.102s3.057-0.102,4.28-0.102v0.815h-0.408c-0.917,0-2.038,0.102-2.038,1.631v14.472
			c0,1.427,1.019,1.631,2.038,1.631h0.408v0.815c-1.325,0-2.956-0.102-4.28-0.102s-2.956,0.102-3.975,0.102V19.862z"/>
		<path style="fill:#010101;" d="M166.546,19.862h0.408c0.917,0,2.038-0.102,2.038-1.631V3.759c0-1.427-1.019-1.631-2.038-1.631
			h-0.408V1.313c0.815,0,2.65,0.102,4.382,0.102s3.159-0.102,4.382-0.102c6.727,0,10.803,3.771,10.803,9.478
			c0,5.503-4.586,9.886-10.192,9.58c-1.223,0-3.057-0.102-4.994-0.102c-1.835,0-3.873,0.102-4.586,0.102L166.546,19.862
			L166.546,19.862z M172.355,17.518c0,1.835,0.917,2.14,2.854,2.14c4.688,0,7.134-3.873,7.134-8.153
			c0-7.236-3.567-9.071-8.051-9.071c-0.713,0-1.223,0.102-1.835,0.102L172.355,17.518L172.355,17.518z"/>
		<path style="fill:#010101;" d="M206.599,6.817c-0.815-3.363-3.159-4.586-6.421-4.586c-4.994,0-7.338,3.567-7.338,8.153
			s2.14,9.376,7.338,9.376c1.325,0,2.65-0.102,3.057-0.51v-4.382c0-1.019-1.019-1.325-2.14-1.325h-0.408v-0.815
			c1.325,0,2.854,0.102,4.179,0.102c1.223,0,2.446,0,3.567-0.102v0.815h-0.408c-0.917,0-1.427,0.408-1.427,1.325v4.179l0.713,0.408
			v0.51c-2.446,0.713-4.79,1.223-7.644,1.223c-6.115,0-10.803-3.771-10.803-10.294c0-6.421,5.503-9.58,11.007-9.58
			c1.733,0,2.956,0.306,3.975,0.51c1.019,0.306,2.038,0.51,3.057,0.51c0,1.019,0,3.057,0.306,4.688L206.599,6.817z"/>
		<path style="fill:#010101;" d="M211.593,19.862H212c0.917,0,2.038-0.102,2.038-1.631V3.759c0-1.427-1.019-1.631-2.038-1.631
			h-0.408V1.313c1.631,0,4.586,0.102,6.828,0.102s5.198-0.102,7.134-0.102c0,1.223,0,2.956,0,4.179l-0.815,0.306
			c-0.102-1.733-0.408-3.159-3.363-3.159h-3.873v7.236h3.159c1.631,0,2.038-0.917,2.14-2.446h0.815c0,1.019-0.102,2.14-0.102,3.159
			c0,1.019,0,2.14,0.102,3.057l-0.815,0.102c-0.102-1.631-0.306-2.65-2.14-2.65H217.3v6.421c0,1.733,1.631,1.733,3.363,1.733
			c3.363,0,4.688-0.306,5.605-3.363l0.815,0.102c-0.408,1.427-0.713,2.956-0.917,4.382c-1.733,0-4.994-0.102-7.338-0.102
			c-2.446,0-5.707,0.102-7.338,0.102v-0.51H211.593z"/>
	</g>
	<g style="opacity:0.75;">
		<g>
			<path style="fill:#010101;" d="M46.284,29.85c0-1.019-0.51-1.019-1.325-1.019v-0.408c0.713,0,1.427,0,2.14,0s1.427,0,2.14,0
				v0.408c-0.815,0-1.427,0-1.427,1.019v7.746c0,1.019,0.51,1.019,1.427,1.019v0.408c-0.815,0-1.427,0-2.14,0
				c-0.815,0-1.427,0-2.242,0v-0.408c0.815,0,1.325,0,1.325-1.019V29.85H46.284z"/>
			<path style="fill:#010101;" d="M51.38,34.131c0-0.51-0.102-0.713-0.917-1.019v-0.306c0.713-0.306,1.325-0.408,2.038-0.815
				c0,0,0.102,0,0.102,0.102v1.019c0.917-0.713,1.631-1.223,2.65-1.223c1.325,0,1.733,0.917,1.733,2.14v3.975
				c0,0.51,0.408,0.51,0.815,0.51h0.306v0.408c-0.51,0-1.019,0-1.631,0c-0.611,0-1.019,0-1.631,0v-0.408h0.306
				c0.408,0,0.815,0,0.815-0.51v-3.873c0-0.917-0.51-1.325-1.427-1.325c-0.51,0-1.325,0.408-1.733,0.815v4.586
				c0,0.51,0.408,0.51,0.815,0.51h0.306v0.408c-0.51,0-1.019,0-1.631,0c-0.611,0-1.019,0-1.631,0v-0.408h0.306
				c0.408,0,0.815,0,0.815-0.51v-4.077H51.38z"/>
			<path style="fill:#010101;" d="M61.368,37.188c0,1.019,0.51,1.325,0.917,1.325c0.408,0,0.713-0.102,1.019-0.408l0.306,0.306
				c-0.51,0.51-1.223,1.019-2.038,1.019c-0.917,0-1.427-0.51-1.427-1.427v-4.79h-1.019v-0.306c0.815-0.713,1.325-0.917,2.038-2.14
				h0.102v1.631h2.242v0.815h-2.242v3.975H61.368z"/>
			<path style="fill:#010101;" d="M65.546,34.844c0,0.102,0,0.408,0,0.917c0.102,1.427,1.019,2.65,2.242,2.65
				c0.815,0,1.427-0.408,2.14-1.019l0.306,0.306c-0.713,0.917-1.631,1.733-2.854,1.733c-2.446,0-2.956-2.446-2.956-3.363
				c0-3.057,2.038-3.873,3.057-3.873c1.223,0,2.548,0.815,2.548,2.446c0,0.102,0,0.102,0,0.306l-0.102,0.102h-4.382L65.546,34.844
				L65.546,34.844z M68.196,34.232c0.408,0,0.408-0.102,0.408-0.408c0-0.815-0.51-1.427-1.325-1.427
				c-0.917,0-1.631,0.713-1.733,1.733h2.65V34.232z"/>
			<path style="fill:#010101;" d="M70.846,38.717h0.408c0.408,0,0.815,0,0.815-0.51v-4.28c0-0.51-0.51-0.51-0.815-0.713v-0.306
				c1.019-0.51,1.733-0.917,1.835-0.917c0.102,0,0.102,0,0.102,0.306v1.325l0,0c0.408-0.51,1.019-1.631,2.038-1.631
				c0.408,0,0.917,0.306,0.917,0.815c0,0.408-0.306,0.815-0.713,0.815c-0.51,0-0.51-0.408-1.019-0.408
				c-0.306,0-1.019,0.408-1.019,1.325v3.567c0,0.51,0.306,0.51,0.815,0.51h0.815v0.408c-0.815,0-1.427,0-2.14,0
				c-0.713,0-1.325,0-1.834,0v-0.408h-0.204V38.717z"/>
			<path style="fill:#010101;" d="M78.184,34.131c0-0.51-0.102-0.713-0.917-1.019v-0.306c0.713-0.306,1.325-0.408,2.038-0.815
				c0,0,0.102,0,0.102,0.102v1.019c0.917-0.713,1.631-1.223,2.65-1.223c1.325,0,1.733,0.917,1.733,2.14v3.975
				c0,0.51,0.408,0.51,0.815,0.51h0.306v0.408c-0.51,0-1.019,0-1.631,0c-0.51,0-1.019,0-1.631,0v-0.408h0.306
				c0.408,0,0.815,0,0.815-0.51v-3.873c0-0.917-0.51-1.325-1.427-1.325c-0.51,0-1.325,0.408-1.733,0.815v4.586
				c0,0.51,0.408,0.51,0.815,0.51h0.306v0.408c-0.51,0-1.019,0-1.631,0s-1.019,0-1.631,0v-0.408h0.306c0.408,0,0.815,0,0.815-0.51
				v-4.077H78.184z"/>
			<path style="fill:#010101;" d="M91.841,38.411c-0.408,0.408-0.917,0.815-1.427,0.815c-0.713,0-0.917-0.51-0.917-1.223
				c-0.713,0.713-1.427,1.223-2.446,1.223c-0.917,0-1.631-0.713-1.631-1.427c0-1.223,0.713-1.427,3.975-2.548v-1.019
				c0-0.815-0.51-1.325-1.427-1.325c-0.713,0-1.223,0.408-1.223,1.019c0,0.408-0.51,0.713-0.815,0.713s-0.306-0.306-0.306-0.306
				c0-0.815,0.713-1.223,1.733-1.733c0.51-0.306,0.815-0.51,1.325-0.51c0.713,0,1.834,0.408,1.834,1.325v4.28
				c0,0.713,0.306,0.917,0.51,0.917c0.204,0,0.408-0.102,0.51-0.306L91.841,38.411z M89.497,35.557
				c-0.815,0.306-2.854,0.713-2.854,1.835c0,0.51,0.51,1.019,1.019,1.019c0.713,0,1.223-0.408,1.733-0.917v-1.936H89.497z"/>
			<path style="fill:#010101;" d="M94.898,37.188c0,1.019,0.51,1.325,0.917,1.325s0.713-0.102,1.019-0.408l0.306,0.306
				c-0.51,0.51-1.223,1.019-2.038,1.019c-0.917,0-1.427-0.51-1.427-1.427v-4.79h-1.019v-0.306c0.815-0.713,1.325-0.917,2.038-2.14
				h0.102v1.631h2.242v0.815h-2.242v3.975H94.898z"/>
			<path style="fill:#010101;" d="M98.567,38.717h0.306c0.408,0,0.815,0,0.815-0.51v-4.179c0-0.713-0.306-0.815-0.815-1.019v-0.306
				c0.713-0.306,1.631-0.51,1.631-0.51c0.102,0,0.102-0.102,0.306-0.102c0.102,0,0.102,0.102,0.102,0.306v5.911
				c0,0.51,0.408,0.51,0.815,0.51h0.306v0.408c-0.51,0-1.019,0-1.631,0c-0.51,0-1.019,0-1.733,0v-0.51H98.567z M100.198,29.544
				c-0.408,0-0.815-0.408-0.815-0.815s0.408-0.815,0.815-0.815s0.815,0.306,0.815,0.815
				C100.911,29.34,100.606,29.544,100.198,29.544z"/>
			<path style="fill:#010101;" d="M105.905,31.99c2.14,0,3.771,1.427,3.771,3.567c0,2.038-1.631,3.567-3.567,3.567
				s-3.771-1.427-3.771-3.567C102.44,33.723,103.867,31.99,105.905,31.99z M106.211,38.921c1.631,0,2.14-1.733,2.14-3.057
				c0-1.223-0.713-3.363-2.242-3.363c-1.427,0-2.14,1.733-2.14,3.057C103.867,36.78,104.58,38.921,106.211,38.921z"/>
			<path style="fill:#010101;" d="M112.02,34.131c0-0.51-0.102-0.713-0.917-1.019v-0.306c0.713-0.306,1.325-0.408,2.038-0.815
				c0,0,0.102,0,0.102,0.102v1.019c0.917-0.713,1.631-1.223,2.65-1.223c1.325,0,1.733,0.917,1.733,2.14v3.975
				c0,0.51,0.408,0.51,0.815,0.51h0.306v0.408c-0.51,0-1.019,0-1.631,0c-0.51,0-1.019,0-1.631,0v-0.408h0.306
				c0.408,0,0.815,0,0.815-0.51v-3.873c0-0.917-0.51-1.325-1.427-1.325c-0.51,0-1.325,0.408-1.733,0.815v4.586
				c0,0.51,0.408,0.51,0.815,0.51h0.306v0.408c-0.51,0-1.019,0-1.631,0c-0.51,0-1.019,0-1.631,0v-0.408h0.306
				c0.408,0,0.815,0,0.815-0.51v-4.077H112.02z"/>
			<path style="fill:#010101;" d="M126.391,38.411c-0.408,0.408-0.917,0.815-1.427,0.815c-0.713,0-0.917-0.51-0.917-1.223
				c-0.713,0.713-1.427,1.223-2.446,1.223c-0.917,0-1.631-0.713-1.631-1.427c0-1.223,0.713-1.427,3.975-2.548v-1.019
				c0-0.815-0.51-1.325-1.427-1.325c-0.713,0-1.223,0.408-1.223,1.019c0,0.408-0.51,0.713-0.815,0.713s-0.306-0.306-0.306-0.306
				c0-0.815,0.713-1.223,1.733-1.733c0.51-0.306,0.815-0.51,1.325-0.51c0.713,0,1.834,0.408,1.834,1.325v4.28
				c0,0.713,0.306,0.917,0.51,0.917c0.204,0,0.408-0.102,0.51-0.306L126.391,38.411z M123.843,35.557
				c-0.815,0.306-2.854,0.713-2.854,1.835c0,0.51,0.51,1.019,1.019,1.019c0.713,0,1.223-0.408,1.733-0.917v-1.936H123.843z"/>
			<path style="fill:#010101;" d="M127.308,38.717h0.306c0.408,0,0.815,0,0.815-0.51v-8.561c0-0.917-0.306-1.019-0.815-1.223v-0.306
				c0.713-0.102,1.223-0.51,1.631-0.713c0.102-0.102,0.306-0.102,0.408-0.102c0.102,0,0.102,0.102,0.102,0.306v10.701
				c0,0.51,0.408,0.51,0.815,0.51h0.306v0.408c-0.51,0-1.019,0-1.631,0s-1.019,0-1.733,0v-0.51H127.308z"/>
			<path style="fill:#010101;" d="M139.232,33.213h2.038c1.223,0,1.223-0.917,1.325-1.325h0.306c0,0.408,0,1.223,0,1.733
				s0.102,1.223,0,1.733h-0.306c0-1.427-0.51-1.427-1.733-1.427h-1.631v2.65c0,1.733,0,2.14,1.631,2.14h0.917
				c1.427-0.102,2.14-0.306,2.854-1.834h0.408c-0.306,0.815-0.51,1.631-0.713,2.446c-1.631,0-3.057,0-4.688,0
				c-1.223,0-2.242,0-3.465,0v-0.408c1.325,0,1.427-0.306,1.427-1.733V30.36c0-1.223-0.306-1.325-1.427-1.325v-0.408
				c1.019,0,2.14,0,3.057,0c1.427,0,2.956,0,4.382,0v2.242l-0.306,0.102c-0.306-1.427-0.917-1.835-2.446-1.835h-1.631V33.213z"/>
			<path style="fill:#010101;" d="M145.449,38.717c0.917,0,1.223,0,1.733-0.815c0.408-0.51,1.019-1.223,1.631-2.038
				c-0.51-0.51-1.631-2.242-2.446-2.956c-0.306-0.306-0.713-0.306-0.815-0.306v-0.408c0.51,0,1.019,0,1.631,0
				c0.51,0,1.019,0,1.733,0v0.408c-0.408,0-0.815,0-0.815,0.306c0,0.102,1.325,1.733,1.427,2.038
				c0.408-0.51,1.631-1.733,1.631-2.038c0-0.306-0.51-0.306-0.713-0.306v-0.408c0.51,0,1.019,0,1.631,0c0.408,0,0.815,0,1.223,0
				v0.408c-0.815,0-1.223,0.306-1.733,0.815c-0.51,0.713-1.019,1.223-1.733,1.834c0.408,0.408,2.242,3.057,2.548,3.159
				c0.102,0,0.306,0.102,0.51,0.102h0.408v0.408c-0.51,0-1.223,0-1.733,0s-1.019,0-1.733,0v-0.408c0.51,0,0.815,0,0.815-0.306
				c0-0.102-1.325-1.834-1.631-2.14c-0.306,0.306-1.733,1.835-1.733,2.14s0.408,0.306,0.917,0.306v0.408c-0.51,0-0.917,0-1.427,0
				s-0.917,0-1.427,0v-0.408h0.102V38.717z"/>
			<path style="fill:#010101;" d="M160.736,38.411c-0.408,0.408-0.917,0.815-1.427,0.815c-0.713,0-0.917-0.51-0.917-1.223
				c-0.713,0.713-1.427,1.223-2.446,1.223c-0.917,0-1.631-0.713-1.631-1.427c0-1.223,0.713-1.427,3.975-2.548v-1.019
				c0-0.815-0.51-1.325-1.427-1.325c-0.713,0-1.223,0.408-1.223,1.019c0,0.408-0.51,0.713-0.815,0.713
				c-0.306,0-0.306-0.306-0.306-0.306c0-0.815,0.713-1.223,1.733-1.733c0.51-0.306,0.815-0.51,1.325-0.51
				c0.713,0,1.835,0.408,1.835,1.325v4.28c0,0.713,0.306,0.917,0.51,0.917c0.102,0,0.408-0.102,0.51-0.306L160.736,38.411z
				 M158.189,35.557c-0.815,0.306-2.854,0.713-2.854,1.835c0,0.51,0.51,1.019,1.019,1.019c0.713,0,1.223-0.408,1.733-0.917v-1.936
				H158.189z"/>
			<path style="fill:#010101;" d="M162.775,34.029c0-0.713-0.306-0.815-0.815-1.019v-0.306c0.713-0.306,1.631-0.51,1.631-0.51
				c0.102,0,0.306-0.102,0.306-0.102s0.102,0.102,0.102,0.306v0.917c0.815-0.713,1.631-1.223,2.65-1.223
				c0.815,0,1.427,0.408,1.631,1.223c0.815-0.51,1.631-1.223,2.65-1.223c1.325,0,1.835,1.019,1.835,2.14v3.975
				c0,0.51,0.408,0.51,0.815,0.51h0.306v0.408c-0.51,0-1.019,0-1.631,0c-0.612,0-1.019,0-1.631,0v-0.408h0.306
				c0.408,0,0.815,0,0.815-0.51v-3.363c0-0.917-0.102-1.834-1.325-1.834c-0.51,0-1.427,0.51-1.835,0.815v4.586
				c0,0.51,0.408,0.51,0.815,0.51h0.306v0.306c-0.51,0-1.019,0-1.631,0c-0.51,0-1.019,0-1.631,0v-0.408h0.306
				c0.408,0,0.815,0,0.815-0.51v-3.363c0-0.917-0.306-1.835-1.325-1.835c-0.51,0-1.427,0.51-1.835,0.815v4.586
				c0,0.51,0.408,0.51,0.815,0.51h0.306v0.408c-0.51,0-1.019,0-1.631,0c-0.51,0-1.019,0-1.733,0v-0.408h0.306
				c0.408,0,0.815,0,0.815-0.51v-4.382h-0.51V34.029z"/>
			<path style="fill:#010101;" d="M174.801,38.717h0.306c0.408,0,0.815,0,0.815-0.51v-4.179c0-0.713-0.306-0.815-0.815-1.019v-0.306
				c0.713-0.306,1.631-0.51,1.631-0.51c0.102,0,0.306-0.102,0.306-0.102c0.102,0,0.102,0.102,0.102,0.306v5.911
				c0,0.51,0.408,0.51,0.815,0.51h0.306v0.408c-0.51,0-1.019,0-1.631,0c-0.612,0-1.019,0-1.733,0v-0.51H174.801z M176.432,29.544
				c-0.408,0-0.815-0.408-0.815-0.815s0.408-0.815,0.815-0.815s0.815,0.306,0.815,0.815
				C177.145,29.34,176.839,29.544,176.432,29.544z"/>
			<path style="fill:#010101;" d="M180.101,34.131c0-0.51-0.102-0.713-0.917-1.019v-0.306c0.713-0.306,1.325-0.408,2.038-0.815
				c0,0,0.102,0,0.102,0.102v1.019c0.917-0.713,1.631-1.223,2.65-1.223c1.325,0,1.733,0.917,1.733,2.14v3.975
				c0,0.51,0.408,0.51,0.815,0.51h0.306v0.408c-0.51,0-1.019,0-1.631,0c-0.51,0-1.019,0-1.631,0v-0.408h0.306
				c0.408,0,0.815,0,0.815-0.51v-3.873c0-0.917-0.51-1.325-1.427-1.325c-0.51,0-1.325,0.408-1.733,0.815v4.586
				c0,0.51,0.408,0.51,0.815,0.51h0.306v0.408c-0.51,0-1.019,0-1.631,0c-0.51,0-1.019,0-1.631,0v-0.408h0.306
				c0.408,0,0.815,0,0.815-0.51v-4.077H180.101z"/>
			<path style="fill:#010101;" d="M194.471,38.411c-0.408,0.408-0.917,0.815-1.427,0.815c-0.713,0-0.917-0.51-0.917-1.223
				c-0.713,0.713-1.427,1.223-2.446,1.223c-0.917,0-1.631-0.713-1.631-1.427c0-1.223,0.713-1.427,3.975-2.548v-1.019
				c0-0.815-0.51-1.325-1.427-1.325c-0.713,0-1.223,0.408-1.223,1.019c0,0.408-0.51,0.713-0.917,0.713
				c-0.306,0-0.306-0.306-0.306-0.306c0-0.815,0.713-1.223,1.733-1.733c0.51-0.306,0.815-0.51,1.325-0.51
				c0.713,0,1.835,0.408,1.835,1.325v4.28c0,0.713,0.306,0.917,0.51,0.917s0.408-0.102,0.51-0.306L194.471,38.411z M191.923,35.557
				c-0.815,0.306-2.854,0.713-2.854,1.835c0,0.51,0.51,1.019,1.019,1.019c0.713,0,1.223-0.408,1.733-0.917v-1.936H191.923z"/>
			<path style="fill:#010101;" d="M197.426,37.188c0,1.019,0.51,1.325,0.917,1.325c0.408,0,0.713-0.102,1.019-0.408l0.306,0.306
				c-0.51,0.51-1.223,1.019-2.038,1.019c-0.917,0-1.427-0.51-1.427-1.427v-4.79h-1.019v-0.306c0.815-0.713,1.325-0.917,2.038-2.14
				h0.102v1.631h2.242v0.815h-2.242v3.975H197.426z"/>
			<path style="fill:#010101;" d="M200.993,38.717h0.306c0.408,0,0.815,0,0.815-0.51v-4.179c0-0.713-0.306-0.815-0.815-1.019v-0.306
				c0.713-0.306,1.631-0.51,1.631-0.51c0.102,0,0.306-0.102,0.306-0.102c0.102,0,0.102,0.102,0.102,0.306v5.911
				c0,0.51,0.408,0.51,0.815,0.51h0.306v0.408c-0.51,0-1.019,0-1.631,0c-0.612,0-1.019,0-1.733,0v-0.51H200.993z M202.624,29.544
				c-0.408,0-0.815-0.408-0.815-0.815s0.408-0.815,0.815-0.815c0.408,0,0.815,0.306,0.815,0.815S203.032,29.544,202.624,29.544z"/>
			<path style="fill:#010101;" d="M208.943,31.99c2.14,0,3.771,1.427,3.771,3.567c0,2.038-1.631,3.567-3.567,3.567
				c-1.936,0-3.771-1.427-3.771-3.567C205.376,33.723,206.803,31.99,208.943,31.99z M209.045,38.921c1.631,0,2.14-1.733,2.14-3.057
				c0-1.223-0.713-3.363-2.242-3.363c-1.427,0-2.14,1.733-2.14,3.057C206.803,36.78,207.414,38.921,209.045,38.921z"/>
			<path style="fill:#010101;" d="M214.65,34.131c0-0.51-0.102-0.713-0.917-1.019v-0.306c0.713-0.306,1.325-0.408,2.038-0.815
				c0,0,0.102,0,0.102,0.102v1.019c0.917-0.713,1.631-1.223,2.65-1.223c1.325,0,1.733,0.917,1.733,2.14v3.975
				c0,0.51,0.408,0.51,0.815,0.51h0.306v0.408c-0.51,0-1.019,0-1.631,0c-0.612,0-1.019,0-1.631,0v-0.408h0.306
				c0.408,0,0.815,0,0.815-0.51v-3.873c0-0.917-0.51-1.325-1.427-1.325c-0.51,0-1.325,0.408-1.733,0.815v4.586
				c0,0.51,0.408,0.51,0.815,0.51h0.306v0.408c-0.51,0-1.019,0-1.631,0c-0.51,0-1.019,0-1.631,0v-0.408h0.306
				c0.408,0,0.815,0,0.815-0.51v-4.077H214.65z"/>
			<path style="fill:#010101;" d="M222.702,36.984c0.102,1.019,0.815,1.835,2.038,1.835c0.917,0,1.223-0.51,1.223-1.019
				c0-1.834-3.363-1.223-3.363-3.771c0-0.815,0.713-2.038,2.446-2.038c0.51,0,1.223,0.102,1.733,0.408l0.102,1.631h-0.408
				c-0.102-0.917-0.713-1.427-1.733-1.427c-0.713,0-1.223,0.408-1.223,1.019c0,1.733,3.567,1.223,3.567,3.567
				c0,1.019-0.815,2.14-2.65,2.14c-0.713,0-1.325-0.306-1.834-0.51l-0.102-1.733L222.702,36.984z"/>
		</g>
	</g>
	<g style="opacity:0.75;">
		<path style="fill:#010101;stroke:#FFFFFF;stroke-width:0.5885;" d="M8.779,0.396h19.976h0.917h2.038c0.917,0,2.548,0,4.79-0.102
			h0.815c-0.102,1.733-0.102,2.446-0.102,3.363v2.65v2.548v0.713v13.555c0,8.969-2.038,12.026-11.618,16.714
			c-0.408,0.306-5.3,2.65-5.911,2.956l-0.51,0.306l-0.51,0.306l-0.51-0.306l-0.51-0.306c-2.038-1.019-4.179-2.038-5.605-2.854
			c-8.867-4.28-11.618-7.338-11.618-16.816V9.569V8.855V6.307v-2.65c0-1.631,0-2.14-0.102-3.363h0.815
			c2.242,0.102,3.873,0.102,4.79,0.102h2.038H8.779z"/>
		<g>
			<polygon style="fill:#FFFFFF;" points="18.665,42.386 22.538,40.551 22.538,40.551 22.538,40.449 22.538,22.92 22.538,22.92 
				22.741,22.92 36.5,22.92 36.5,22.92 36.5,22.716 36.5,15.276 36.5,15.276 36.5,15.276 22.741,15.276 22.538,15.276 
				22.538,15.174 22.538,1.211 22.538,1.11 22.538,1.211 14.996,1.211 14.792,1.11 14.996,1.211 14.996,15.174 14.996,15.276 
				14.792,15.276 1.135,15.276 1.033,15.276 1.033,15.276 1.033,22.716 1.033,22.92 1.135,22.92 14.792,22.92 14.996,22.92 
				14.996,23.022 14.996,40.449 14.792,40.551 14.996,40.551 			"/>
		</g>
		<polygon style="fill:#6B6C6C;" points="1.135,1.211 1.033,1.11 1.033,1.211 1.033,15.174 1.033,15.276 1.135,15.276 
			14.792,15.276 14.996,15.276 14.996,15.174 14.996,1.211 14.996,1.11 14.792,1.211 		"/>
		<polygon style="fill:#6B6C6C;" points="22.741,1.211 22.538,1.11 22.538,1.211 22.538,15.174 22.538,15.276 22.741,15.276 
			36.398,15.276 36.5,15.276 36.5,15.174 36.5,1.211 36.5,1.11 36.398,1.211 		"/>
		<path style="fill:#6B6C6C;" d="M14.792,22.92H1.033H0.931v0.102v0.815c0,7.644,2.548,11.415,10.395,15.084l2.548,1.223
			l0.815,0.408l0.102,0.102v-0.102V22.92L14.792,22.92L14.792,22.92z"/>
		<path style="fill:#6B6C6C;" d="M22.741,22.92L22.741,22.92L22.741,22.92l-0.102,17.53v0.102l0.102-0.102l0.815-0.408
			c10.701-5.096,13.147-8.051,13.147-16.307v-0.917v-0.102h-0.102H22.741V22.92z"/>
		<path style="fill:#010101;" d="M3.275,15.989C3.275,15.989,3.479,16.091,3.275,15.989c0.102,0.102,0.102,0.102,0.102,0.306
			c0,0,0,0,0.102,0.102c0,0,0,0,0.102,0.102l0,0l-0.102,0.102l-0.102,0.102l0,0v0.102c0,0.917,0.306,1.631,0.815,2.038l0.102,0.102
			H4.193H4.091H3.785H3.479H3.377l-0.102,0.917H3.173l-0.102-0.815H2.97c-0.102,0-0.102,0-0.102,0H2.562H2.46H2.358c0,0,0,0,0-0.102
			l0.102-0.102c0.102-0.102,0.306-0.306,0.408-0.713c0.102-0.102,0.102-0.306,0.102-0.408c0-0.306,0-0.408,0.102-0.408v-0.408
			v-0.102l0,0L2.97,16.703l-0.102-0.102l0,0l0.102-0.102C3.173,16.091,3.173,16.091,3.275,15.989z"/>
		<path style="fill:#010101;" d="M7.862,15.989c0.102,0.102,0.102,0.102,0.306,0.306c0,0,0,0,0.102,0.102l0,0l-0.102,0.102
			l-0.102,0.102l0,0v0.102v0.408c0,0.713,0.408,1.325,0.815,1.631c0,0,0.102,0,0.102,0.102l0,0H8.779H8.473H8.371H8.269
			l-0.102,0.815H8.065l-0.204-0.815H7.76H7.658H7.352H7.25l0,0H7.148c0,0,0,0,0-0.102l0.102-0.102
			c0.102-0.102,0.102-0.102,0.408-0.713c0.102-0.102,0.102-0.204,0.102-0.408c0-0.306,0-0.408,0.102-0.408v-0.408v-0.102l0,0
			L7.76,16.499l-0.102-0.102l0,0l0.102-0.102l0.102-0.102C7.76,16.091,7.76,16.091,7.862,15.989
			C7.76,16.091,7.76,15.989,7.862,15.989z"/>
		<path style="fill:#010101;" d="M5.619,18.639L5.619,18.639l0.102,0.204c0,0,0,0,0.102,0.102l0.102,0.102l0,0l-0.102,0.102
			l-0.102,0.306l0,0v0.102c0,0.917,0.306,1.631,0.815,2.038l0.102,0.102H6.537H6.435H6.129H5.823H5.721l-0.102,0.815H5.518
			l-0.102-0.815H5.314H5.008H4.702H4.6l0,0H4.498c0,0,0,0,0-0.102L4.6,21.493c0.408-0.306,0.713-1.019,0.713-2.038v-0.102l0,0
			l-0.102-0.102L5.11,19.149l0,0C5.314,18.843,5.416,18.741,5.619,18.639z"/>
		<path style="fill:#010101;" d="M10.104,18.639c0.102,0.102,0.102,0.306,0.408,0.408l0,0l-0.102,0.102l-0.102,0.102l0,0v0.102
			c0,0.713,0.102,1.427,0.408,1.631l0.306,0.306c0,0,0,0,0.102,0.102l0.102,0.102h-0.102h-0.102h-0.306H10.41h-0.102l-0.102,0.815
			h-0.102l-0.102-0.815H9.9H9.798H9.492H9.39l0,0H9.288c0,0,0,0,0-0.102l0.102-0.102c0.408-0.306,0.713-1.019,0.713-2.038v-0.102
			l0,0l-0.102-0.102l-0.408-0.204l0,0l0.102-0.102l0.102-0.102H10.104L10.104,18.639z"/>
		<path style="fill:#010101;" d="M12.448,15.989c0.102,0.102,0.102,0.102,0.306,0.306c0,0,0,0,0.102,0.102l0,0l-0.102,0.102
			l-0.102,0.102l0,0v0.102v0.408c0,0.713,0.408,1.325,0.815,1.631c0,0,0.102,0,0.102,0.102l0,0h-0.102h-0.306h-0.102h-0.204
			l-0.102,0.815h-0.102l-0.204-0.815h-0.102h-0.102h-0.408h-0.102l0,0h-0.102c0,0,0,0,0-0.102l0.102-0.102
			c0.102-0.102,0.306-0.102,0.408-0.713c0.102-0.102,0.102-0.306,0.102-0.408c0-0.306,0-0.408,0.102-0.408v-0.408v-0.102l0,0
			l-0.102-0.102l-0.102-0.102l0,0l0.102-0.102l0.102-0.102C12.142,16.091,12.244,16.091,12.448,15.989
			C12.244,16.091,12.244,15.989,12.448,15.989z"/>
		<path style="fill:#010101;" d="M25.085,15.989L25.085,15.989l0.102,0.306l0.102,0.102c0,0,0,0,0.102,0.102l0,0l-0.102,0.102
			l-0.102,0.102l0,0v0.102c0,0.917,0.306,1.733,0.815,2.038c0.102,0,0.102,0.102,0.102,0.102l0,0l0,0h-0.102
			c-0.102,0-0.408,0-0.51-0.102l-0.102,0.815h-0.306l-0.102-0.815c-0.102,0-0.408,0.102-0.51,0.102h-0.102c-0.102,0-0.102,0-0.102,0
			s0,0,0.102-0.102c0.408-0.306,0.815-1.019,0.815-2.038v-0.102l0,0l-0.102-0.102l-0.102-0.102l0,0l0.102-0.102c0,0,0,0,0.102-0.102
			v-0.306H25.085z"/>
		<path style="fill:#010101;" d="M29.672,15.989L29.672,15.989l0.102,0.306l0.102,0.102l0.102,0.102l0,0l-0.102,0.102l-0.102,0.102
			l0,0v0.102c0,0.917,0.306,1.733,0.815,2.038c0.102,0,0.102,0.102,0.102,0.102l0,0h-0.102h-0.102c-0.102,0-0.408,0-0.51-0.102
			l-0.102,0.815h-0.102l-0.204-0.815c-0.102,0-0.408,0.102-0.51,0.102c-0.102,0-0.102,0-0.102,0s0,0,0.102-0.102
			c0.102,0,0.306-0.306,0.408-0.408c0.102-0.306,0.306-0.51,0.306-0.713c0-0.306,0-0.408,0.102-0.408v-0.408v-0.102l0,0
			c-0.102-0.102-0.102-0.102-0.306-0.306l0.102-0.102l0.102-0.102L29.672,15.989L29.672,15.989z"/>
		<path style="fill:#010101;" d="M27.43,18.435C27.531,18.639,27.531,18.639,27.43,18.435c0.102,0.102,0.102,0.102,0.102,0.306
			c0,0,0,0,0.102,0.102c0,0,0,0,0.102,0.102l0,0l-0.102,0.102l-0.102,0.102l0,0v0.102v0.612c0,0.713,0.408,1.325,0.815,1.631
			c0.102,0,0.102,0.102,0.102,0.102l0,0h-0.102h-0.102c-0.102,0-0.408,0-0.51-0.102l-0.102,0.815h-0.102l-0.102-0.815
			c-0.102,0-0.408,0.102-0.51,0.102s-0.102,0-0.102,0s0,0,0.102-0.102c0.102,0,0.306-0.306,0.408-0.408
			c0.102-0.306,0.306-0.51,0.306-0.713c0-0.306,0-0.408,0.102-0.408v-0.408v-0.102l0,0l-0.102-0.102l-0.102-0.102l0,0l0.102-0.102
			C27.226,18.741,27.43,18.639,27.43,18.435z"/>
		<path style="fill:#010101;" d="M31.914,18.435C32.118,18.639,32.118,18.639,31.914,18.435c0.102,0.102,0.102,0.102,0.102,0.306
			c0,0,0,0,0.102,0.102c0,0,0,0,0.102,0.102l0,0c0,0.204,0,0.204,0,0.204l-0.102,0.102l0,0v0.102v0.51
			c0,0.713,0.408,1.325,0.815,1.631c0.102,0,0.102,0.102,0.102,0.102l0,0h-0.102h-0.102c-0.102,0-0.408,0-0.51-0.102l-0.102,0.815
			h-0.102l-0.102-0.815c-0.102,0-0.408,0.102-0.51,0.102c-0.102,0-0.102,0-0.102,0s0,0,0.102-0.102c0.102,0,0.306-0.306,0.408-0.408
			c0.102-0.306,0.306-0.51,0.306-0.713c0-0.306,0-0.408,0.102-0.408v-0.408v-0.102l0,0l-0.102-0.102l-0.102-0.102l0,0l0.102-0.102
			C31.914,18.741,31.914,18.639,31.914,18.435z"/>
		<path style="fill:#010101;" d="M34.258,15.989L34.258,15.989l0.102,0.306l0.102,0.102l0.102,0.102l0,0l-0.102,0.102l-0.102,0.102
			l0,0v0.102c0,0.917,0.306,1.733,0.815,2.038c0.102,0,0.102,0.102,0.102,0.102l0,0h-0.102h-0.102c-0.102,0-0.408,0-0.51-0.102
			l-0.102,0.815h-0.204l-0.204-0.815c-0.102,0-0.408,0.102-0.51,0.102s-0.102,0-0.102,0s0,0,0.102-0.102
			c0.102,0,0.306-0.306,0.408-0.408c0.102-0.306,0.306-0.51,0.306-0.713c0-0.306,0-0.408,0.102-0.408v-0.408v-0.102l0,0
			l-0.102-0.102l-0.102-0.102l0,0l0.102-0.102l0.102-0.102L34.258,15.989L34.258,15.989z"/>
		<path style="fill:#010101;" d="M16.728,28.117c0.102,0.102,0.102,0.102,0.306,0.306c0,0,0,0,0.102,0.102l0,0l-0.204,0.102
			l-0.102,0.102l0,0v0.102v0.408c0,0.408,0.102,0.917,0.408,1.223c0.102,0.102,0.306,0.408,0.408,0.408s0.102,0,0.102,0.102
			c0,0,0,0-0.102,0s-0.408,0-0.51-0.102l-0.204,0.815H16.83l-0.102-0.815c-0.102,0-0.408,0.102-0.51,0.102h-0.102
			c-0.204,0.102-0.204,0.102-0.204,0.102s0,0,0.102-0.102c0.102,0,0.306-0.306,0.408-0.408c0.306-0.408,0.306-0.51,0.306-0.713
			c0-0.306,0-0.408,0.102-0.408v-0.408v-0.102l0,0l-0.102-0.102l-0.102-0.102l0,0l0.102-0.102l0.102-0.102
			C16.525,28.423,16.525,28.423,16.728,28.117C16.525,28.219,16.728,28.219,16.728,28.117z"/>
		<path style="fill:#010101;" d="M21.009,28.117c0.102,0.102,0.102,0.102,0.306,0.306c0,0,0,0,0.102,0.102l0,0l-0.102,0.102
			l-0.102,0.102l0,0v0.102v0.408c0,0.408,0.102,0.917,0.408,1.223c0.102,0.102,0.306,0.408,0.408,0.408c0.102,0,0.102,0,0.102,0.102
			c0,0,0,0-0.102,0c-0.102,0-0.408,0-0.51-0.102l-0.102,0.815h-0.102l-0.306-0.815c-0.102,0-0.408,0.102-0.51,0.102h-0.102
			c-0.102,0-0.102,0-0.102,0s0,0,0.102-0.102c0.102,0,0.306-0.306,0.408-0.408c0.306-0.408,0.306-0.51,0.306-0.713
			c0-0.306,0-0.408,0.102-0.408v-0.306v-0.102l0,0l-0.204-0.204l-0.102-0.102l0,0l0.102-0.102l0.102-0.102
			C20.703,28.423,20.805,28.423,21.009,28.117C20.805,28.219,20.805,28.219,21.009,28.117z"/>
		<path style="fill:#010101;" d="M18.665,31.99L18.665,31.99l0.102,0.306l0.102,0.102l0.102,0.102l0,0l0,0.204c0,0,0,0-0.102,0.102
			l0,0v0.102v0.408c0,0.713,0.408,1.325,0.815,1.631c0.102,0,0.102,0,0.102,0.102l0,0h-0.102h-0.102h-0.306h-0.102h-0.204
			l-0.102,0.815h-0.102l-0.102-0.815h-0.102h-0.102h-0.306h-0.204l0,0h-0.102c0,0,0,0,0.102-0.102c0.102,0,0.306-0.306,0.408-0.408
			c0.306-0.408,0.306-0.51,0.306-0.713c0-0.306,0-0.408,0.102-0.408v-0.408v-0.102l0,0l-0.102-0.102l-0.102-0.102l0,0l0.102-0.102
			l0.102-0.102L18.665,31.99L18.665,31.99z"/>
		<path style="fill:#010101;" d="M16.728,35.965L16.728,35.965l0.102,0.306l0.102,0.102l0.102,0.102l0,0l-0.102,0.204L16.83,36.78
			l0,0v0.102v0.408c0,0.713,0.408,1.325,0.815,1.631c0.102,0,0.102,0.102,0.102,0.102l0,0h-0.102h-0.102
			c-0.102,0-0.306,0-0.51-0.102l-0.102,0.815H16.83l-0.102-0.815c-0.306,0-0.408,0.102-0.51,0.102s-0.102,0-0.102,0s0,0,0.102-0.102
			c0.102,0,0.306-0.306,0.408-0.408c0.102-0.306,0.306-0.51,0.306-0.713c0-0.306,0-0.408,0.102-0.408v-0.408v-0.102l0,0
			l-0.102-0.102l-0.102-0.102l0,0l0.102-0.102l0.102-0.102L16.728,35.965L16.728,35.965z"/>
		<path style="fill:#010101;" d="M21.009,35.965L21.009,35.965l0.102,0.306l0.102,0.102l0.102,0.102l0,0l-0.102,0.102
			c0,0,0,0-0.102,0.102l0,0v0.102v0.408c0,0.408,0.102,0.917,0.408,1.223c0.102,0.102,0.306,0.408,0.408,0.408
			c0.102,0,0.102,0,0.102,0.102c0,0,0,0-0.102,0c-0.102,0-0.408,0-0.51-0.102l-0.102,0.815h-0.102l-0.204-0.713
			c-0.306,0-0.408,0.102-0.51,0.102h-0.102c-0.102,0-0.102,0-0.102,0s0,0,0.102-0.102c0.102,0,0.306-0.306,0.408-0.408
			c0.306-0.408,0.306-0.51,0.306-0.713c0-0.306,0-0.408,0.102-0.408v-0.408v-0.102l0,0l-0.204-0.102l-0.102-0.102l0,0l0.102-0.102
			l0.102-0.102L21.009,35.965L21.009,35.965z"/>
		<path style="fill:#010101;" d="M18.665,24.347L18.665,24.347l0.102,0.306l0.102,0.102l0.102,0.102l0,0l0,0.204
			c0,0,0,0-0.102,0.102l0,0v0.102v0.408c0,0.713,0.408,1.427,0.815,1.631c0.102,0,0.102,0,0.102,0.102c0,0,0,0-0.102,0
			c-0.102,0-0.408,0-0.51-0.102l-0.204,0.815h-0.102l-0.102-0.815c-0.306,0-0.408,0.102-0.51,0.102h-0.102c-0.102,0-0.102,0-0.102,0
			s0,0,0.102-0.102c0.102,0,0.306-0.306,0.408-0.408c0.306-0.408,0.306-0.51,0.306-0.713c0-0.306,0-0.408,0.102-0.408v-0.408v-0.102
			l0,0l-0.102-0.102l-0.102-0.102l0,0l0.102-0.102l0.102-0.102L18.665,24.347L18.665,24.347z"/>
		<path style="fill:#010101;" d="M16.525,2.74C16.728,2.74,16.728,2.74,16.525,2.74c0.102,0.102,0.102,0.102,0.102,0.102
			s0,0,0.102,0.102c0,0,0,0,0.102,0.102l0,0l-0.102,0.102c0,0,0,0-0.102,0.102l0,0v0.102v0.408c0,0.408,0.306,0.917,0.408,1.223
			l0.306,0.306c0,0,0,0,0.102,0.102l0.102,0.102h-0.102H17.34h-0.306h-0.306h-0.102l-0.102,0.815h-0.102l-0.102-0.713h-0.102h-0.306
			h-0.306h-0.102h-0.102c0,0,0,0,0-0.102c0,0,0.102,0,0.102-0.102c0.102-0.102,0.102-0.102,0.408-0.713
			c0.102-0.102,0.102-0.306,0.102-0.408c0-0.306,0-0.408,0.102-0.408V3.454V3.352l0,0L16.015,3.25l-0.102-0.102l0,0l0.102-0.102
			C16.525,2.842,16.525,2.74,16.525,2.74z"/>
		<path style="fill:#010101;" d="M21.009,2.74c0.102,0.102,0.102,0.102,0.306,0.306c0,0,0,0,0.102,0.102l0,0L21.315,3.25
			l-0.102,0.102l0,0v0.102v0.408c0,0.713,0.408,1.325,0.815,1.631c0,0,0.102,0,0.102,0.102l0,0h-0.102h-0.306c0,0-0.102,0-0.306,0
			h-0.102l-0.102,0.815h-0.204l-0.204-0.815h-0.102l-0.102,0.102h-0.306h-0.102l0,0h-0.102c0,0,0,0,0-0.102l0.102-0.102
			c0.102-0.102,0.306-0.102,0.408-0.713c0.102-0.102,0.102-0.306,0.102-0.408c0-0.306,0-0.408,0.102-0.408V3.556V3.454l0,0
			l-0.102-0.102L20.601,3.25l0,0l0.102-0.102l0.102-0.102C20.703,2.842,20.805,2.842,21.009,2.74
			C20.805,2.74,20.805,2.74,21.009,2.74z"/>
		<path style="fill:#010101;" d="M18.665,6.307L18.665,6.307l0.102,0.102l0.204,0.204c0,0,0,0,0.102,0.102l0,0l-0.102,0.102
			l-0.102,0.102l0,0v0.102v0.408c0,0.713,0.408,1.325,0.815,1.631c0.102,0,0.102,0.102,0.102,0.102l0,0h-0.102h-0.102
			c-0.102,0-0.408,0-0.51-0.102l-0.102,0.815h-0.102l-0.102-0.815c-0.102,0-0.408,0.102-0.51,0.102s-0.102,0-0.102,0
			s0,0,0.102-0.102c0.102,0,0.306-0.306,0.408-0.408c0.102-0.306,0.306-0.51,0.306-0.713c0-0.306,0-0.408,0.102-0.408V7.123V7.021
			l0,0l-0.102-0.102l-0.102-0.102l0,0l0.102-0.102l0.102-0.102C18.563,6.409,18.665,6.409,18.665,6.307
			C18.665,6.409,18.665,6.409,18.665,6.307z"/>
		<path style="fill:#010101;" d="M16.525,10.078L16.525,10.078l0.102,0.306c0,0,0,0,0.102,0.102l0.102,0.102l0,0l0,0.102
			l-0.102,0.102l0,0v0.102c0,0.713,0.102,1.427,0.408,1.631l0.306,0.306c0,0,0,0,0.102,0.102l0.102,0.102h-0.102h-0.102h-0.306
			H16.83h-0.102l-0.102,0.815h-0.102l-0.102-0.815h-0.102h-0.408h-0.306h-0.102l0,0h-0.102c0,0,0,0,0-0.102l0.102-0.102
			c0.408-0.306,0.713-1.019,0.713-2.038V10.69l0,0l-0.102-0.102l-0.204-0.102l0,0l0.102-0.102l0.102-0.102L16.525,10.078
			L16.525,10.078z"/>
		<path style="fill:#010101;" d="M20.805,10.078C21.009,10.078,21.009,10.18,20.805,10.078c0.102,0.102,0.102,0.102,0.102,0.306
			c0,0,0,0,0.102,0.102c0,0,0,0,0.102,0.102l0,0v0.102l-0.102,0.204l0,0v0.102v0.408c0,0.713,0.306,1.223,0.815,1.631l0.102,0.102
			h-0.102h-0.102h-0.306h-0.102h-0.102l-0.204,0.815h-0.102l-0.102-0.917c-0.306,0-0.306,0.102-0.306,0.102h-0.306h-0.102l0,0H19.99
			c0,0,0,0,0-0.102l0.102-0.102c0.102-0.102,0.102-0.102,0.408-0.713c0.102-0.102,0.102-0.306,0.102-0.408
			c0-0.306,0-0.408,0.102-0.408v-0.408v-0.102l0,0l-0.102-0.204l-0.102-0.102l0,0l0.102-0.102
			C20.805,10.18,20.805,10.18,20.805,10.078z"/>
		<path style="fill:#010101;" d="M12.04,8.142v0.102c0,0.102,0.102,0.306,0.102,0.408c0.102,0.713,0.306,0.815,0.713,0.815
			c0.102,0,0.408-0.102,0.408-0.306l0.102-0.306c0,0,0-0.102,0.102-0.102c0.102,0,0.102,0.102,0.102,0.408
			c0,0.102,0,0.306,0.102,0.51c0,0.102,0,0.408,0,0.51c0,0.102,0,0.306-0.102,0.408c0,0.306,0.102,0.51,0.102,0.713
			c0,0.306,0,0.51-0.102,0.713c0,0.102,0,0.306,0,0.408c0,0.102,0,0.306,0,0.408c0,0.306,0,0.408,0,0.408v0.102
			c0,0.102,0,0.102,0,0.102l0,0l-0.306-0.102l-0.306-0.102c-0.102,0-0.102-0.102-0.306-0.306c-0.306,0.306-0.306,0.306-0.917,0.408
			c-0.102,0-0.306,0.102-0.306,0.102c-0.102,0-0.102,0.102-0.102,0.102c-0.102,0-0.102-0.102-0.102-0.51c0-0.306,0-0.51,0.102-0.713
			c-0.102,0-0.306-0.102-0.408-0.102h-0.102l0,0c0,0,0,0,0-0.102c0,0,0-0.102,0.102-0.306l0.102-0.306
			c0-0.102,0.102-0.306,0.306-0.408c0.102-0.102,0.306-0.102,0.306-0.102l0.408-0.102c0.306,0,0.408-0.102,0.408-0.408
			c0-0.102-0.102-0.306-0.408-0.408l-0.51-0.102c-0.102,0-0.306-0.102-0.408-0.306c-0.204,0-0.204,0-0.306,0
			c-0.102,0-0.102,0.102-0.102,0.306c0,0.306,0.102,0.408,0.306,0.408h0.102h0.102c0,0,0.102,0,0.102,0.102l0,0v0.204
			c0,0.102-0.102,0.408-0.408,0.713l-0.102,0.102c-0.102,0.408-0.306,0.713-0.713,0.917c-0.102,0-0.102,0.102-0.102,0.102
			s0,0.102-0.102,0.102c0,0-0.102,0.102-0.306,0.306c-0.102,0.102-0.102,0.102-0.306,0.306c-0.102,0.102-0.306,0.102-0.306,0.306
			l-0.102,0.306c0,0,0,0-0.102,0c-0.102,0-0.306-0.102-0.306-0.306c0-0.102-0.102-0.102-0.102-0.102s-0.102,0-0.306,0H7.964H7.556
			c-0.306,0-0.51,0-0.713,0.102H6.741c0,0,0,0-0.102-0.102c0,0,0,0,0-0.102c0-0.306,0.102-0.713,0.408-0.917
			c0.102-0.306,0.102-0.306,0.306-0.408c0-0.102-0.102-0.408-0.306-0.408H6.944l0,0c0,0,0.102-0.102,0.306-0.306
			c0.306-0.102,0.408-0.102,0.713-0.102c0.102,0,0.408,0.102,0.713,0.306c0.102,0.204,0.306,0.204,0.408,0.204
			c0.306,0,0.51-0.306,0.51-0.51c0-0.102-0.102-0.408-0.306-0.713c-0.306-0.408-0.408-0.713-0.408-0.917c0-0.102,0-0.408,0.102-0.51
			l0.102-0.102V8.855c0-0.102-0.102-0.102-0.306-0.102c-0.102,0-0.51,0.102-0.815,0.306C7.862,9.161,7.658,9.161,7.658,9.365v0.102
			L7.76,9.569l0,0c0,0,0,0,0,0.102l0,0.102c-0.102,0.102-0.306,0.408-0.51,0.51l-0.102,0.102c0,0,0,0-0.102,0.102
			c-0.102,0.102-0.306,0.408-0.51,0.51c-0.102,0-0.102,0.102-0.102,0.102s0,0.102-0.102,0.102c0,0-0.102,0.102-0.102,0.306
			c-0.102,0.102-0.306,0.306-0.306,0.408l-0.306,0.306c-0.102,0.102-0.102,0.306-0.306,0.713c-0.102,0.306-0.102,0.408-0.306,0.408
			c0,0,0,0-0.102-0.102C4.6,12.932,4.498,12.83,4.396,12.83H4.295c-0.102,0-0.102,0.102-0.306,0.102l-0.408,0.102
			c-0.306,0-0.408,0.102-0.713,0.408l-0.204,0.204c0,0,0,0,0-0.102v-0.102v-0.306c0-0.408,0.102-0.51,0.306-0.815l0.102-0.408
			c0-0.102,0-0.102,0-0.102c0-0.306-0.306-0.51-0.713-0.51c-0.102,0-0.102,0-0.102-0.102c0,0,0.102-0.102,0.306-0.306
			c0.306-0.102,0.51-0.306,0.815-0.306c0.102,0,0.306,0,0.51,0.102l0.306,0.102c0.102,0,0.102,0,0.306,0
			c0.306,0,0.51-0.306,0.917-0.815c0.102-0.306,0.306-0.408,0.306-0.713s-0.102-0.51-0.408-0.51c-0.102,0-0.408,0.102-0.51,0.306
			C4.702,9.161,4.702,9.365,4.702,9.467v0.204l0,0c0,0.102,0,0.102-0.102,0.102S4.295,9.671,3.785,9.059
			C3.377,8.651,3.377,8.549,3.377,8.04c-0.408-0.51-0.51-0.713-0.51-1.019V6.715C2.562,6.307,2.46,6.205,2.46,5.9
			c0-0.102,0-0.102,0.102-0.306C2.46,5.288,2.46,5.288,2.256,5.186V4.88c0-0.102-0.102-0.306-0.102-0.408
			C2.052,4.371,2.052,4.371,2.052,4.167c0-0.204,0.102-0.102,0.51-0.306c0-0.102,0-0.306,0-0.306c0-0.102,0-0.102,0-0.306
			l0.102-0.408c0-0.102,0-0.306,0-0.408c0-0.102,0-0.102-0.102-0.408c0-0.102-0.102-0.306-0.102-0.306L2.358,1.619c0,0,0,0,0.102,0
			c0.102,0,0.408,0.102,0.815,0.408c0.713,0.51,0.815,0.815,0.917,1.427c0,0,0,0.102,0,0.306c0.306,0.306,0.51,0.51,0.51,0.815
			S4.6,5.084,4.396,5.39L4.091,5.798C3.989,5.9,3.989,6.103,3.989,6.205c0,0.306,0,0.408,0.306,0.713
			C4.396,7.225,4.6,7.326,4.804,7.326s0.51-0.51,0.51-1.223V6.002V5.696c0-0.102,0-0.306,0-0.408c0-0.102,0-0.306,0-0.408V4.575
			V4.473c0,0,0-0.102-0.102-0.306L4.906,3.861c-0.408-0.408-0.51-0.815-0.51-1.019c0-0.408,0.306-0.713,0.713-0.713
			c0.102,0,0.102,0,0.306,0V2.027c0-0.51,0.102-0.917,0.306-0.917l0,0l0,0.408l0.306,0.102l0.102,0.102c0-0.102,0-0.102,0.102-0.306
			c0,0,0.102-0.102,0.102-0.306c0-0.102,0.102-0.102,0.102-0.102s0,0,0-0.102c0,0,0-0.102,0.102-0.102c0,0,0,0,0.102,0.102
			c0,0.102,0,0.102,0.306,0.306c0.102,0,0.102,0.102,0.102,0.102s0,0.102,0.102,0.306c0,0,0,0,0,0.102
			C7.25,1.619,7.25,1.619,7.454,1.415l0.102-0.102h0.102c0,0,0,0,0,0.102c0,0,0,0.102,0.102,0.102
			c0.102,0.306,0.102,0.306,0.102,0.408v0.102v0.102c0.408,0.102,0.51,0.306,0.51,0.815c0,0.306-0.102,0.713-0.408,1.019
			C7.658,4.269,7.658,4.269,7.658,4.371c0,0.917,0.713,1.325,1.733,1.325h0.815c0.51,0,0.815,0,1.325,0.306
			c0.51,0.102,0.713,0.306,0.917,0.306h0.102l0.102-0.102c0-0.102-0.306-0.306-1.223-0.51c-2.038-0.51-2.854-1.325-2.854-2.65
			c0-0.917,0.815-1.733,1.834-1.733c0.408,0,0.917,0.102,1.223,0.306l0.51,0.102c0.102,0,0.102,0,0.306,0
			c0.102,0,0.306-0.102,0.306-0.408c0-0.102,0-0.306,0.102-0.306c0.102,0,0.408,0.102,0.51,0.408
			c0.102,0.306,0.306,0.51,0.306,0.815s-0.102,0.408-0.408,0.713c-0.306,0.408-0.51,0.51-1.019,0.51
			c-0.408,0-0.815-0.102-1.631-0.713c0.204,0,0.102-0.204-0.102-0.204c-0.306,0-0.408,0.102-0.408,0.306s0.102,0.306,0.51,0.408
			c0.51,0.102,0.713,0.306,0.815,0.408c0.713,0.102,0.815,0.306,1.223,0.51c1.019,0.306,1.733,1.019,1.733,1.834
			s-0.51,1.325-1.325,1.325C12.448,8.142,12.244,8.142,12.04,8.142z"/>
		<path style="fill:#010101;" d="M34.258,8.142v0.102c0,0.102,0.102,0.306,0.102,0.408c0.102,0.713,0.306,0.815,0.713,0.815
			c0.102,0,0.408-0.102,0.408-0.306l0.102-0.306c0,0,0-0.102,0.102-0.102c0.102,0,0.102,0.102,0.306,0.408
			c0,0.102,0,0.306,0.102,0.51c0,0.102,0,0.408,0,0.51c0,0.102,0,0.102-0.102,0.408v0.102c0,0.306,0,0.306,0,0.408
			c0,0.51,0,0.713-0.102,0.815c0,0.102,0,0.306,0,0.408c0,0.102,0,0.306,0,0.408v0.408v0.306c0,0.102,0,0.102,0,0.102l0,0
			l-0.306-0.102l-0.306,0c-0.102,0-0.102-0.102-0.306-0.306c-0.306,0.306-0.306,0.306-0.51,0.306
			c-0.408,0.102-0.51,0.102-0.713,0.306c-0.102,0-0.102,0.102-0.102,0.102c-0.102,0-0.102-0.102-0.102-0.408
			c0-0.408,0-0.51,0.102-0.713c-0.306-0.102-0.408-0.102-0.408-0.102s0,0-0.102,0l0,0c0,0,0,0,0-0.102
			c0-0.102,0.102-0.408,0.102-0.51c0.102-0.306,0.408-0.51,0.51-0.51l0.408-0.102c0.306,0,0.408-0.102,0.408-0.408
			c0-0.102-0.102-0.306-0.408-0.408l-0.51-0.102c-0.102,0-0.306-0.102-0.51-0.306c-0.102-0.102-0.306-0.102-0.306-0.102h-0.102
			c-0.102,0-0.102,0.102-0.102,0.306s0.102,0.408,0.408,0.408h0.102h0.102c0,0,0.102,0,0.102,0.102c0,0.306-0.102,0.51-0.306,0.815
			l0,0l-0.102,0.102c0,0.306-0.408,0.815-0.713,0.917c-0.102,0-0.102,0.102-0.102,0.102s0,0.102-0.102,0.102
			c0,0-0.102,0.102-0.306,0.306c-0.102,0.102-0.102,0.102-0.306,0.306c-0.102,0.102-0.306,0.102-0.306,0.306l-0.102,0.306
			c0,0,0,0-0.102,0c-0.102,0-0.306-0.102-0.306-0.306c0-0.102-0.102-0.102-0.102-0.102s-0.102,0-0.306,0h-0.102h-0.408
			c-0.306,0-0.51,0-0.713,0.102h-0.102c0,0-0.102,0-0.102-0.102c0-0.408,0.306-0.917,0.713-1.325c0-0.306-0.102-0.408-0.306-0.408
			c-0.102,0-0.306,0-0.306,0l0,0c0-0.102,0.102-0.102,0.306-0.306c0.408-0.102,0.408-0.102,0.713-0.102
			c0.306,0,0.408,0.102,0.713,0.306c0.306,0.306,0.408,0.306,0.51,0.306c0.306,0,0.51-0.306,0.51-0.51
			c0-0.102-0.102-0.408-0.306-0.713c-0.306-0.408-0.408-0.713-0.408-1.019s0-0.408,0.306-0.713V9.161c0,0-0.102-0.102-0.306-0.102
			c-0.102,0-0.306,0-0.51,0.102c-0.408,0.102-0.51,0.306-0.51,0.408v0.102l0.102,0.102l0,0c0,0,0,0,0,0.102
			c0,0-0.102,0.102-0.306,0.306c-0.102,0.306-0.306,0.408-0.51,0.51l-0.204,0l-0.102,0.102c-0.102,0.102-0.306,0.408-0.51,0.51
			c-0.102,0-0.102,0.102-0.102,0.102s0,0.102-0.102,0.102c-0.102,0.306-0.306,0.51-0.408,0.713l-0.306,0.306
			c-0.102,0.102-0.306,0.408-0.408,0.713c-0.102,0.306-0.102,0.408-0.306,0.408c0,0,0,0-0.102-0.102
			c-0.306-0.306-0.408-0.408-0.51-0.408h-0.102c-0.102,0-0.102,0.102-0.306,0.102l-0.408,0.102c-0.408,0.102-0.51,0.102-0.713,0.408
			l-0.102,0.102c0,0-0.102,0-0.102-0.102v-0.102c0,0,0-0.102,0-0.306c0-0.408,0.102-0.713,0.306-0.815l0.306-0.408v-0.102
			c0-0.306-0.306-0.51-0.713-0.51c-0.102,0-0.102,0-0.102-0.102c0,0,0.102-0.102,0.306-0.306c0.306-0.102,0.51-0.306,0.713-0.306
			c0.102,0,0.306,0,0.51,0.102l0.306,0.102c0.102,0,0.102,0,0.306,0c0.306,0,0.51-0.306,0.917-0.815
			c0.102-0.306,0.306-0.408,0.306-0.713s-0.102-0.51-0.408-0.51c-0.102,0-0.408,0.102-0.51,0.306
			c-0.102,0.102-0.102,0.306-0.102,0.408v0.102l0,0c0,0.102,0,0.102-0.102,0.102s-0.102-0.102-0.408-0.306
			c-0.102-0.102-0.102-0.306-0.408-0.408c-0.408-0.408-0.408-0.51-0.408-1.019c-0.408-0.51-0.51-0.815-0.51-1.019V6.817
			c-0.306-0.408-0.408-0.51-0.408-0.815c0-0.102,0-0.102,0.102-0.306C24.27,5.39,24.27,5.39,24.066,5.288V4.982
			c0-0.102-0.102-0.306-0.102-0.408c-0.102-0.102-0.102-0.102-0.102-0.306c0-0.204,0.102-0.306,0.408-0.306h-0.204
			c0-0.102,0-0.306,0-0.306c0-0.102,0-0.102,0-0.306l0.102-0.408c0-0.102,0-0.306,0-0.408c0-0.102,0-0.102-0.102-0.408
			c0-0.102-0.102-0.306-0.102-0.306l-0.102-0.102c0,0,0-0.102,0.102-0.102h0.102c0.408,0.306,0.815,0.51,1.223,0.917
			c0.306,0.306,0.408,0.51,0.408,1.223c0.408,0.306,0.51,0.51,0.51,0.917c0,0.306-0.102,0.408-0.306,0.713
			c-0.102,0.306-0.306,0.408-0.306,0.408c-0.102,0.102-0.102,0.306-0.102,0.408c0,0.306,0,0.408,0.306,0.713
			c0.102,0.306,0.408,0.408,0.51,0.408c0.306,0,0.51-0.51,0.51-1.019V6.205V5.9V5.594V5.186V4.88V4.779c0-0.102,0-0.102-0.408-0.51
			s-0.51-0.815-0.51-1.019c0-0.306,0.306-0.51,0.713-0.51c0.102,0,0.102,0,0.306,0V2.638V2.536l0.102-0.306
			c0-0.306,0.102-0.306,0.102-0.306l0,0l0.306,0.102l0.306,0.102l0.102,0.102c0-0.102,0-0.102,0.102-0.306
			c0-0.102,0.102-0.102,0.102-0.306l0.102-0.102l0.102-0.102c0-0.102,0-0.102,0.102-0.102c0,0,0,0,0.102,0.102
			c0,0,0,0.102,0.102,0.102l0.102,0.102c0.102,0.102,0.306,0.306,0.306,0.51c0.102-0.102,0.102-0.102,0.306-0.306l0.102-0.102
			c0.102,0,0.102,0,0.102,0s0,0,0,0.102c0,0,0,0.102,0.102,0.102c0.102,0.306,0.102,0.306,0.102,0.408v0.102v0.102
			c0.408,0.102,0.51,0.306,0.51,0.815c0,0.306-0.102,0.713-0.408,1.019c-0.306,0.306-0.306,0.306-0.306,0.51
			c0,0.815,0.713,1.325,1.733,1.325h0.815c0.51,0,0.815,0,1.325,0.306c0.51,0.102,0.713,0.306,0.917,0.306
			c0.102,0,0.306,0,0.306-0.102c0-0.102-0.306-0.306-1.223-0.51c-2.038-0.51-2.854-1.325-2.854-2.65
			c0-1.019,0.815-1.733,1.835-1.733c0.408,0,0.917,0.102,1.223,0.306l0.51,0.102c0.102,0,0.102,0,0.306,0
			c0.102,0,0.306-0.102,0.306-0.408c0-0.102,0-0.306,0.102-0.306s0.408,0.102,0.51,0.408c0.102,0.306,0.306,0.51,0.306,0.815
			s-0.102,0.408-0.408,0.713c-0.306,0.408-0.51,0.51-1.019,0.51c-0.408,0-0.917-0.306-1.631-0.713
			c-0.306-0.102-0.408-0.306-0.51-0.306c-0.306,0-0.408,0.102-0.408,0.306c0,0.102,0.102,0.306,0.51,0.408
			c0.51,0.102,0.713,0.306,0.815,0.408c0.713,0.102,0.815,0.306,1.223,0.51c1.019,0.408,1.733,1.019,1.733,1.834
			s-0.51,1.325-1.223,1.325C34.462,8.142,34.462,8.142,34.258,8.142z"/>
		<path style="fill:#010101;" d="M12.244,30.563c0.102,0.306,0.102,0.408,0.102,0.51v0.51c0,0.51,0.102,0.815,0.51,0.815
			c0.102,0,0.306,0,0.306-0.102l0.102-0.102l0,0c0.102,0,0.102,0,0.102,0.102v0.102c0,0.102,0,0.306,0,0.51c0,0.102,0,0.306,0,0.51
			c0,0.306,0,0.408-0.102,0.51c0.102,0.306,0.102,0.51,0.102,0.713c0,0.306,0,0.408-0.102,0.51c0,0.306,0,0.306,0,0.408
			c0,0.102,0,0.306,0,0.408c0,0.306,0,0.408,0,0.51l0,0c0,0.102,0,0.102-0.102,0.102c-0.102,0-0.102,0-0.102-0.102
			c-0.102-0.102-0.102-0.102-0.102-0.102c-0.102,0-0.102,0-0.306,0.408c0,0.102-0.102,0.306-0.306,0.408
			c-0.102,0.102-0.102,0.306-0.306,0.408c0,0.102,0,0.306-0.102,0.306c0,0,0,0-0.102,0l0,0c-0.102,0-0.408-0.408-0.713-1.223
			c0-0.306-0.102-0.306-0.306-0.306c-0.102,0-0.102,0-0.306,0.102l-0.102,0.102l0,0c-0.102,0-0.306-0.102-0.306-0.408
			c-0.102-0.102-0.102-0.408-0.102-0.51c0-0.408,0.306-0.713,1.019-1.019c0.408-0.306,0.51-0.408,0.51-0.917
			c0-0.408-0.102-0.51-0.408-0.815c-0.306-0.102-0.408-0.306-0.51-0.306c-0.102,0-0.102,0.102-0.102,0.102
			c0,0.102,0,0.102,0.306,0.306c0.102,0,0.306,0.102,0.306,0.306c0,0.102-0.102,0.306-0.306,0.408c0,0.306,0,0.306-0.306,0.408
			c0,0.306-0.306,0.51-0.51,0.815C9.9,35.252,9.9,35.252,9.696,35.354L9.39,35.659c-0.102,0.102-0.102,0.306-0.102,0.408
			c0,0.102,0,0.306-0.102,0.306c-0.102,0-0.306-0.102-0.51-0.408c-0.102-0.102-0.102-0.306-0.102-0.408
			c-0.102,0.102-0.102,0.102-0.408,0.102c-0.102,0-0.306,0-0.306,0.102c-0.102,0.102-0.306,0.102-0.306,0.102s0,0-0.102-0.102
			v-0.306c0-0.408,0.102-0.815,0.408-1.019c-0.306-0.102-0.408-0.306-0.51-0.306s-0.102,0-0.102,0s0-0.102,0.102-0.306
			c0.102-0.102,0.102-0.102,0.306-0.306c0.102-0.102,0.408-0.306,0.713-0.306c0.102,0,0.408,0,0.713,0.102c0.102,0,0.306,0,0.306,0
			c0.102,0,0.306-0.102,0.306-0.306c0-0.306-0.102-0.51-0.408-1.019c-0.102-0.408-0.306-0.713-0.306-0.815
			c0-0.408,0.102-0.815,0.408-0.917c-0.102,0-0.102-0.102-0.306-0.102c-0.102,0-0.306,0-0.408,0.102
			c-0.102,0.102-0.306,0.102-0.306,0.306c0,0,0,0,0.102,0.102c0.102,0,0.102,0.102,0.102,0.102c0,0.306-0.306,0.713-0.51,0.917
			C7.964,32.092,7.76,32.398,7.352,32.5c0,0.306-0.102,0.306-0.306,0.51c-0.306,0.408-0.408,0.51-0.408,0.815
			c0,0.102,0,0.102-0.102,0.102c0,0-0.102-0.102-0.306-0.306c-0.102-0.102-0.102-0.102-0.102-0.306c0-0.102-0.102-0.102-0.102-0.408
			c-0.102,0-0.102,0-0.102,0H5.721H5.619c-0.306,0-0.51,0-0.713,0.102H4.804c-0.102,0-0.102-0.102-0.102-0.408
			c0-0.408,0.102-0.815,0.408-1.223c-0.102-0.102-0.102-0.102-0.306-0.306l-0.102,0.204L4.6,31.175c0,0-0.102,0-0.102-0.102
			c0,0,0.102-0.306,0.408-0.408c0.306-0.102,0.408-0.306,0.51-0.306s0.306,0,0.51,0.306c0.102,0.102,0.306,0.306,0.408,0.306
			c0,0,0.102,0,0.102-0.102v-0.102c0-0.306-0.306-0.713-0.51-0.815c-0.306-0.102-0.51-0.306-0.713-0.306
			c-0.306,0-0.713,0.102-0.815,0.408L4.295,30.36c0,0,0,0.102-0.102,0.102c-0.102,0-0.102,0-0.408-0.408l-0.306-0.408
			c-0.102-0.102-0.102-0.306-0.102-0.306c0-0.102,0-0.102,0-0.102s0,0-0.102-0.102c-0.306-0.102-0.408-0.51-0.51-0.917v-0.204
			C2.46,27.608,2.358,27.2,2.358,26.793v-0.102c-0.102-0.102-0.102-0.306-0.306-0.713C1.95,25.671,1.95,25.57,1.747,25.264v-0.102
			c0,0,0.102-0.102,0.306-0.102c0.102,0,0.102,0,0.306,0h0.306v-0.306c0-0.102,0-0.306,0-0.51c0-0.102,0-0.102,0-0.306
			c0,0,0-0.102,0-0.306c0-0.102,0-0.102,0-0.102v-0.102c0,0,0,0,0.102,0h0.102c0.306,0.102,0.408,0.306,0.51,0.306
			c0.408,0.306,0.713,0.815,0.713,1.019v0.102c0,0.102,0,0.102,0,0.102s0,0.102,0.102,0.102l0.102,0.102
			c0.102,0.102,0.102,0.408,0.102,0.408c0,0.102,0,0.102-0.306,0.408c-0.102,0.306-0.306,0.408-0.306,0.51
			c0,0.306,0.102,0.51,0.306,0.815c0.102,0.306,0.306,0.408,0.408,0.408c0.306,0,0.408-0.306,0.408-0.917
			c0-0.306,0-0.713,0.102-0.917v-0.102c0-0.102,0-0.102-0.102-0.306L4.498,25.06c-0.408-0.408-0.408-0.51-0.408-0.917
			c0-0.306,0.306-0.51,0.51-0.51h0.102v-0.102c0-0.102,0-0.102,0-0.306c0.102-0.306,0.102-0.408,0.306-0.408c0,0,0,0,0.102,0
			c0,0,0.102,0,0.306,0.102c0,0,0.102,0,0.306,0.102c0-0.306,0.102-0.306,0.102-0.408c0.102-0.102,0.306-0.408,0.408-0.408
			c0,0,0.102,0,0.102,0.102l0.306,0.306c0,0,0.102,0.102,0.102,0.306v0.102c0,0,0.102,0,0.102-0.102
			c0.102,0,0.102-0.102,0.102-0.102c0.102,0,0.306-0.102,0.306-0.102h0.102c0,0,0,0.102,0.102,0.408c0,0.306,0.102,0.306,0.102,0.51
			c0.408,0,0.51,0.306,0.51,0.713c0,0.408-0.102,0.815-0.51,1.223c-0.102,0.102-0.102,0.102-0.102,0.306
			c0,1.019,0.408,1.325,1.733,1.427c0.815,0.102,1.019,0.102,2.038,0.408c0.51,0.102,0.815,0.306,0.917,0.306
			c0.306,0,0.408-0.102,0.408-0.306c0-0.306-0.102-0.306-1.019-0.51c-2.14-0.408-3.057-1.223-3.057-2.65
			c0-1.019,0.815-1.835,1.733-1.835c0.408,0,0.815,0.102,1.427,0.51c0.51,0.408,0.713,0.408,0.815,0.408s0.306-0.102,0.306-0.408
			c0-0.102,0-0.306,0.102-0.306c0.102,0,0.306,0.102,0.408,0.306c0.102,0.306,0.306,0.408,0.306,0.713
			c0,0.408-0.306,0.713-0.713,0.815h0c-0.306,0.306-0.408,0.408-0.815,0.408c-0.408,0-0.815-0.102-1.019-0.408l-0.51-0.408
			c-0.306-0.102-0.408-0.306-0.51-0.306c-0.306,0-0.408,0.102-0.408,0.408c0,0.306,0.102,0.408,0.408,0.51l0.51,0.102
			c0.102,0,0.306,0.102,0.51,0.306c0.102,0,0.102,0,0.306,0c0.306,0,0.713,0.102,1.019,0.306c0.102,0,0.102,0.102,0.306,0.102
			l0.204,0.204c0.713,0.102,1.223,0.917,1.223,1.733c0,0.815-0.51,1.325-1.427,1.325L12.244,30.563z"/>
		<path style="fill:#010101;" d="M32.933,30.36c0.306,0.306,0.51,0.408,0.815,0.408c0.102,0,0.306,0,0.306,0h0.102
			c0,0,0.102,0,0.102,0.102c0,0,0,0.102,0,0.306c0,0.102,0,0.102-0.102,0.306v0.306l-0.102,0.306l-0.204,0l0,0v0.102l0,0
			c0,0.306-0.102,0.408-0.306,0.713c0,0,0,0-0.102,0v0.102c0,0.306-0.102,0.408-0.102,0.408s-0.102,0.102-0.306,0.306
			c-0.102,0.102-0.306,0.408-0.306,0.51c0,0.102-0.102,0.102-0.102,0.102c-0.102,0-0.306-0.102-0.306-0.306c0,0,0,0,0,0.102
			l-0.102,0.306l-0.306,0.102c-0.102,0.102-0.102,0.102-0.102,0.102l-0.102,0.102c0,0,0,0-0.102,0c0,0-0.102-0.102-0.102-0.306
			l-0.204-0.306c0-0.102,0-0.306,0-0.408c0-0.102,0-0.306,0.102-0.408c-0.306,0-0.306,0-0.408,0.102h-0.102c0,0,0,0,0-0.102v-0.102
			l0.102-0.408c0.102-0.306,0.51-0.51,0.815-0.51c0.102,0,0.102,0,0.306,0c0.102,0,0.102,0,0.102,0c0.102,0,0.306-0.102,0.306-0.306
			c0,0,0-0.102-0.102-0.102c0,0-0.102,0-0.408-0.102c-0.102,0-0.306-0.102-0.51-0.408c-0.102-0.102-0.306-0.306-0.306-0.306
			s-0.102,0-0.102,0.102v0.102v0.102c0,0.306-0.102,0.713-0.408,1.019l-0.306,0.713c-0.102,0.306-0.306,0.51-0.306,0.713
			c0,0.306,0.102,0.408,0.306,0.51h0.102l0,0l0,0c0,0,0,0,0,0.102c0,0-0.102,0.102-0.306,0.306c-0.306,0.306-0.306,0.408-0.51,0.408
			c-0.102,0.408-0.408,0.51-0.815,0.713v0.102c-0.102,0.306-0.408,0.51-0.713,0.51l0,0c0,0.306-0.102,0.408-0.408,0.713
			c-0.102,0.102-0.306,0.102-0.306,0.306c0,0,0,0,0,0.102c0,0.102-0.102,0.102-0.102,0.102c-0.102,0-0.306-0.102-0.306-0.408
			c0,0-0.102,0-0.102,0.102c-0.102,0.102-0.306,0.102-0.306,0.102s-0.102,0-0.408,0.102c-0.306,0-0.51,0.102-0.713,0.306
			l-0.102,0.102l0,0l-0.102-0.102c0-0.306-0.102-0.51-0.102-0.713c0-0.408,0.102-0.713,0.51-1.019v0c0-0.713,0.51-1.019,1.223-1.019
			h0.204h0.408l0,0c0.306,0,0.408-0.102,0.713-0.306c0.306-0.306,0.408-0.408,0.408-0.713c0-0.102,0-0.102-0.102-0.51
			c0-0.102-0.102-0.408-0.102-0.51c0-0.51,0.408-1.019,0.815-1.427c0.102-0.102,0.306-0.102,0.306-0.306l0,0
			c0,0-0.102,0-0.102,0.102c0,0-0.102,0.102-0.306,0.102l-0.102,0.102l-0.306,0.102c0,0-0.102,0-0.102,0.102c0,0,0,0,0,0.102v0.102
			v0.102L28.551,32.5c-0.102,0.306-0.306,0.408-0.51,0.51c-0.102,0.408-0.306,0.51-0.713,0.713
			c-0.306,0.408-0.408,0.713-0.815,0.713c0,0.102-0.102,0.306-0.408,0.51c-0.306,0.204-0.306,0.204-0.306,0.204
			c-0.102,0.102-0.102,0.102-0.102,0.102s-0.204-0.102-0.306-0.102l-0.102-0.102l-0.204-0.102l-0.102-0.102h-0.102h-0.306
			c-0.102,0-0.408,0.102-0.51,0.306l-0.102,0.306l0,0c-0.102,0-0.102-0.306-0.102-0.713c0-0.408,0-0.51,0.102-0.713l0.306-0.408
			l0.102-0.102v-0.102c-0.102-0.102-0.102-0.102-0.102-0.102h-0.306l0,0c0,0,0,0,0-0.102c0.102-0.102,0.102-0.102,0.306-0.306
			c0.306-0.102,0.51-0.306,0.713-0.306c0.102,0,0.408,0.102,0.713,0.306l0.408,0.306l0,0c0.102,0,0.306-0.102,0.408-0.306
			c0.102-0.306,0.102-0.408,0.102-0.51c0-0.408-0.306-0.815-0.815-0.815c-0.306,0-0.408,0.102-0.713,0.306l-0.102,0.102
			l-0.102,0.102c0,0,0,0.102-0.102,0.102c0,0-0.102-0.102-0.306-0.408c0-0.102-0.102-0.306-0.102-0.408
			c-0.102-0.306-0.102-0.408-0.102-0.51v-0.306c-0.102-0.306-0.306-0.408-0.306-0.713c0-0.102,0-0.102,0.102-0.408
			c-0.102-0.102-0.102-0.306-0.102-0.51v-0.102v-0.102v-0.102c-0.102-0.102-0.102-0.306-0.306-0.815c0-0.306-0.102-0.408-0.102-0.51
			c0,0,0,0,0-0.102c0-0.102,0.102-0.102,0.408-0.102h0.102c0-0.102,0-0.102,0-0.306c0-0.102,0-0.306,0.102-0.51
			c0-0.102,0.102-0.306,0.102-0.306c0-0.102,0-0.306,0-0.408l-0.102-0.306v-0.102l0,0c0.306,0,0.713,0.306,1.019,0.51
			c0.408,0.306,0.408,0.51,0.408,1.019v0.306c0.306,0.306,0.408,0.51,0.408,0.815c0,0.102,0,0.306-0.306,0.51
			c-0.306,0.306-0.408,0.51-0.408,0.917c0,0.713,0.102,0.917,0.51,0.917c0.306,0,0.51-0.306,0.51-0.815v-0.306
			c0-0.102,0-0.306,0-0.408s0-0.306,0-0.306c0-0.102-0.102-0.408-0.408-0.713c-0.306-0.408-0.408-0.51-0.408-0.917
			c0-0.408,0.306-0.713,0.51-0.713c0.102,0,0.102,0,0.306,0c0-0.306,0-0.306,0.102-0.51c0.102-0.306,0.102-0.408,0.306-0.408
			c0,0,0,0,0.102,0l0.102,0.102c0.102,0,0.102,0.102,0.102,0.102s0,0,0.102,0.102c0.102-0.306,0.102-0.408,0.408-0.713
			c0.102-0.102,0.306-0.306,0.306-0.306s0,0,0.102,0l0.102,0.102l0.306,0.306c0.102,0.102,0.102,0.102,0.102,0.408l0.102-0.102
			l0.102-0.102c0,0,0.102,0,0.102-0.102c0,0,0,0,0.102,0c0,0,0,0,0,0.102l0.102,0.306l0.102,0.306c0,0.102,0,0.102,0,0.306v0.102
			h0.102c0.306,0,0.408,0.306,0.408,0.51c0,0.408-0.408,0.917-0.815,1.223c0,0.102,0,0.306,0,0.306c0,0.917,0.306,1.223,1.733,1.325
			c0.408,0,0.713,0.102,0.917,0.102c0,0,0.408,0.102,0.917,0.306c0.306,0.102,0.51,0.102,0.713,0.102c0.102,0,0.306,0,0.306-0.102
			c0-0.102-0.306-0.306-0.917-0.51l-1.019-0.408c-1.019-0.408-1.631-1.019-1.631-2.038c0-1.019,0.815-1.835,1.835-1.835
			c0.408,0,0.815,0.102,1.325,0.306c0.815,0.306,0.815,0.306,0.815,0.306c0.102,0,0.306-0.102,0.306-0.306
			c0-0.102,0-0.306,0.102-0.306c0.102,0,0.306,0.102,0.408,0.408c0.102,0.102,0.102,0.408,0.102,0.713
			c0,0.408-0.306,0.713-0.51,0.713c-0.306,0.306-0.51,0.51-0.917,0.51c-0.51,0-0.713-0.102-1.427-0.51
			c-0.306-0.102-0.408-0.306-0.713-0.306c-0.306,0-0.51,0.102-0.51,0.408c0,0.306,0.102,0.408,0.51,0.408
			c0.306,0,0.306,0.102,0.408,0.102c0.102,0,0.102,0,0.102,0c0.408,0,0.815,0.306,1.223,0.51c0.713,0.306,1.325,1.019,1.325,1.733
			c0,0.713-0.713,1.325-1.325,1.325C33.545,30.563,33.239,30.563,32.933,30.36z"/>
		<path style="fill:#D2D2D2;" d="M13.263,13.441c0-0.102,0-0.306,0-0.306v-0.102v-0.102v-0.204c0-0.102,0-0.306-0.102-0.408
			l-0.102-0.102c0,0-0.102-0.102-0.102-0.306v-0.102c0,0,0-0.102,0.102-0.102c0,0,0,0,0.102,0.102h0.102
			c0.102,0,0.102-0.102,0.102-0.306c0-0.306,0-0.408-0.102-0.408l-0.102-0.306l-0.204-0.102v-0.102c0,0,0-0.102,0.102-0.102
			c0,0,0.102,0,0.306,0l0,0c0,0,0,0,0-0.102l0,0v-0.306l-0.102-0.306c0-0.102,0-0.102-0.102-0.102l0,0h-0.306l0,0
			c-0.408,0-0.815-0.306-0.917-0.815L11.633,8.04c-0.102-0.306-0.306-0.408-0.51-0.713c-0.102-0.102-0.102-0.102-0.306-0.102h-0.306
			l0,0c0,0,0-0.102,0.102-0.102h0.408c0.102,0,0.408,0.102,0.713,0.102c0.408,0.102,0.51,0.102,0.815,0.102
			c0.51,0,0.917-0.306,0.917-0.815c0-0.408-0.102-0.815-0.51-1.019c-0.102-0.102-0.306-0.306-0.408-0.306l0,0v0.102l0,0
			c0,0,0,0.102-0.102,0.102c0,0-0.102-0.102-0.306-0.306c-0.306-0.408-0.51-0.815-0.917-0.815h-0.102v0.306l0.102,0.306v0.102l0,0
			c0,0-0.102,0-0.102-0.102l-0.102-0.102l-0.204-0.306c-0.102-0.102-0.306-0.306-0.51-0.408c-0.102-0.102-0.306-0.102-0.306-0.102
			H9.9l0,0v0.102c0.102,0.102,0.102,0.306,0.102,0.306v0.102c-0.102,0-0.306-0.102-0.408-0.408C9.492,3.759,9.288,3.657,9.288,3.352
			c0-0.51,0.408-0.917,0.917-0.917c0.306,0,0.51,0.102,0.917,0.306l0.51,0.408c0.102,0.102,0.51,0.306,0.713,0.306
			c0.102,0,0.306,0,0.408,0h0.102c0,0,0,0,0-0.102l0,0h0H12.55c-0.102,0-0.102,0-0.306-0.102c-0.306-0.102-0.51-0.306-0.51-0.306
			c-0.102-0.102-0.306-0.306-0.408-0.306c-0.102,0-0.102-0.102-0.102-0.102l0,0h0.102c0.102,0.102,0.306,0.102,0.408,0.102
			l0.51,0.102c0.306,0.102,0.713,0.102,0.815,0.102c0.306,0,0.408-0.102,0.408-0.408c0-0.102-0.102-0.408-0.306-0.51
			c0,0,0,0-0.102,0c0,0-0.102,0-0.102,0.102v0.102v0.102c0,0.102-0.102,0.306-0.306,0.306H12.55l-0.815-0.306
			c-0.713-0.306-0.917-0.306-1.223-0.306c-0.917,0-1.631,0.713-1.631,1.427c0,0.917,0.713,1.631,2.242,2.14
			c1.631,0.51,1.834,0.713,1.834,1.019s-0.306,0.408-0.51,0.408c-0.102,0-0.306,0-0.306,0s-0.306-0.102-0.815-0.102
			C10.817,6.715,10.41,6.715,9.9,6.715c-1.223,0-1.834,0.306-2.446,0.815C7.352,7.632,7.352,7.632,7.046,7.632H6.944H6.842l0,0
			c-0.102,0-0.306,0-0.408,0.306C6.333,8.04,6.333,8.244,6.129,8.244L6.027,8.346c-0.102,0-0.102-0.102-0.306-0.408
			c0-0.102-0.102-0.306-0.306-0.408L5.11,7.225c0,0,0,0,0-0.102c0,0,0,0,0-0.102c0.102-0.102,0.102-0.306,0.102-0.306
			c0-0.102,0-0.102,0.102-0.102s0.102,0.102,0.102,0.408c0,0.102,0,0.102,0.102,0.306l0.102,0.306c0,0,0,0,0.102,0
			s0.306-0.306,0.306-0.51c0-0.306,0-0.306,0.102-0.306l0,0c0,0,0,0.102,0.102,0.306l0.102,0.102c0.102,0,0.102,0.102,0.102,0.102
			l0,0c0.102,0,0.102,0,0.102-0.306V6.919V6.817V6.715c0-0.102,0-0.102,0.102-0.102c0,0,0,0,0.102,0l0.102,0.102
			c0.102,0.102,0.102,0.102,0.306,0.102c0.102,0,0.102,0,0.102-0.102c0,0,0-0.102-0.102-0.306L7.046,6.307
			C6.944,6.205,6.944,6.002,6.741,6.002H6.639H6.537H6.435l0,0c0-0.102,0.102-0.306,0.306-0.51c0.102-0.102,0.102-0.51,0.102-0.917
			c0-0.713,0.102-1.019,0.306-1.019c0,0,0.102,0,0.102,0.102v0.102v0.102c0,0.102,0,0.102,0,0.102c0.102,0,0.306-0.102,0.306-0.408
			c0-0.102,0-0.102,0-0.306l0,0L7.76,2.944L7.454,2.842H7.352V2.74V2.536V2.434V2.333V2.231c-0.306,0.102-0.408,0.306-0.51,0.408
			C6.741,2.74,6.741,2.74,6.741,2.74l0,0V2.536V2.434c0-0.306-0.102-0.51-0.408-0.713L6.231,1.823L6.129,1.925L6.027,2.027
			c0,0-0.102,0.102-0.102,0.306v0.204l0,0l0,0c0,0.102,0,0.102,0,0.102l0,0L5.619,2.536L5.518,2.434L5.212,2.333L5.11,2.231v0.102
			c0,0.102,0,0.102,0,0.102v0.102v0.306l0,0c0,0.102,0,0.102-0.102,0.102H4.906H4.702c-0.102,0-0.306,0.102-0.306,0.306
			c0,0.306,0.102,0.408,0.102,0.713L4.6,4.269l0.102,0.102V4.065V3.963V3.861c0-0.102,0-0.102,0.102-0.102
			c0,0,0.102,0.102,0.102,0.306l0.102,0.408l0.102,0.51c0,0.102,0.102,0.306,0.102,0.51C5.314,5.798,5.314,5.9,5.518,5.9
			c0.102,0.102,0.102,0.102,0.102,0.306l0,0c0,0,0,0-0.102,0H5.416H5.314c-0.102,0-0.306,0.102-0.306,0.917
			c0,0.51,0.102,1.223,0.306,1.427l0.306,0.713c0,0.102,0,0.102,0,0.306c0,0.815-1.223,2.242-2.446,2.854
			C2.664,12.728,2.46,12.83,2.46,13.34v0.102c0.102-0.102,0.306-0.102,0.408-0.102c0.408-0.102,0.408-0.102,0.51-0.306v-0.306
			c0,0,0-0.102,0.306-0.306c0.102,0,0.102-0.102,0.102-0.102c0-0.102,0.102-0.102,0.102-0.102l0,0l0,0l-0.102,0.408v0.102
			c0,0.306,0.102,0.408,0.408,0.51c0-0.306,0.102-0.408,0.102-0.51L4.6,12.422c0.102-0.102,0.102-0.306,0.102-0.51
			c0-0.102,0-0.306,0-0.408v-0.102c0,0,0-0.102,0.102-0.102h0.102v0.306c0,0,0,0.102,0.102,0.102c0.102,0,0.306-0.102,0.408-0.408
			c0-0.102,0.102-0.306,0.102-0.306v-0.102V10.69l0,0c0-0.102,0-0.102,0.102-0.102l0,0l0.102,0.306c0,0.102,0.102,0.102,0.102,0.102
			c0.102,0,0.306-0.102,0.306-0.306c0.102-0.102,0.102-0.306,0.102-0.51c0-0.306,0-0.306,0.102-0.306l0,0v0.102
			c0,0,0,0.102,0.102,0.102c0,0,0.102-0.102,0.306-0.306V9.671c0,0,0-0.102-0.102-0.102C6.537,9.467,6.537,9.467,6.537,9.263
			c0-0.102,0-0.306,0.102-0.408c0-0.102,0.102-0.102,0.102-0.306c0.102-0.306,0.306-0.408,0.306-0.408s0.102,0,0.102,0.102
			c0,0,0,0,0,0.102v0.102c0,0,0,0.102,0.102,0.102c0,0,0.102,0,0.306-0.102c0,0,0.102,0,0.306-0.102l0.408-0.102
			c0,0,0.102,0,0.306,0c0.102,0,0.102,0,0.306,0c0.102,0,0.306,0,0.306,0c0.102,0,0.306-0.102,0.306-0.102
			c0-0.102-0.102-0.306-0.102-0.408V7.632l0,0l0,0c0.102,0,0.306,0.102,0.408,0.408c1.019,1.631,1.325,2.038,2.14,2.242
			c0.713,0.306,0.917,0.408,0.917,0.815c0,0.306-0.102,0.51-0.408,0.815c-0.51,0.713-0.713,1.019-0.713,1.427v0.102h0.102
			c0.102,0,0.102-0.102,0.102-0.102h0.306c0.102,0,0.102-0.102,0.102-0.306l0,0v-0.306l0,0c0-0.102,0-0.102,0.102-0.306l0,0
			c0,0,0.102,0,0.102,0.102l0.102,0.408C12.856,13.136,12.957,13.238,13.263,13.441z"/>
		<path style="fill:#D2D2D2;" d="M3.581,4.677c-0.102,0-0.102,0.102-0.102,0.306v0.306c0,0.306,0,0.306,0,0.306
			c0,0.102,0,0.306,0.102,0.306c0.102,0,0.102-0.102,0.306-0.306c0-0.102,0-0.102,0-0.306c0-0.204,0-0.102,0-0.306
			C3.683,4.88,3.683,4.677,3.581,4.677z"/>
		<path style="fill:#D2D2D2;" d="M2.562,2.842L2.562,2.842c0,0.306,0,0.408-0.102,0.917c0,0.102,0,0.102,0,0.306
			c0,0.204,0,0.102,0.102,0.306l0.102,0.102l0.102,0.102v0.102c0,0,0,0.102,0,0.306c0,0.204,0,0.306,0,0.408
			c0,0.102,0,0.102,0,0.102S2.664,5.39,2.664,5.288C2.562,4.982,2.358,4.88,2.256,4.88s-0.306,0-0.408,0.102
			c0,0,0,0.102,0.102,0.102c0,0,0,0.102,0.102,0.306l0.102,0.306C2.256,6.002,2.256,6.103,2.46,6.103
			c0,0.102,0.102,0.102,0.102,0.102s0.102,0,0.102,0.102l0.102,0.102c0,0,0,0.102-0.102,0.102l0,0h0H2.562c0,0-0.102,0-0.102,0.102
			c0,0.306,0.306,0.713,0.713,1.019l0.102,0.102c0,0,0,0.102-0.102,0.102H3.072c0,0,0,0-0.102,0c0,0-0.102,0-0.102,0.102
			c0,0.102,0.102,0.306,0.306,0.51c0.102,0.102,0.306,0.306,0.408,0.408l0.51,0.306c0,0,0,0,0,0.102c0,0,0,0.102-0.102,0.102H3.887
			H3.785H3.683l0,0c-0.102,0-0.102,0-0.102,0s0,0.306,0.102,0.408c0.102,0.306,0.306,0.306,0.306,0.306s0,0,0.102,0l0.102-0.306
			c0,0,0.102-0.102,0.306-0.306C4.6,9.365,4.804,9.365,4.804,9.365H4.702c0,0,0.102,0,0.102-0.102l0,0V8.957V8.651V8.346V8.04V7.938
			c0,0-0.102,0-0.102,0.102C4.6,8.346,4.396,8.448,4.193,8.448c-0.713,0-1.019-1.019-1.019-2.548c0-0.102,0-0.306,0-0.51
			c0-0.408,0-0.51,0-0.713c0-0.713-0.102-1.019-0.408-1.325L2.562,2.842L2.562,2.842z"/>
		<path style="fill:#D2D2D2;" d="M3.989,11.505c-0.102,0-0.306,0-0.408-0.102c0,0-0.102,0-0.306-0.102
			c-0.102-0.102-0.408-0.102-0.408-0.102c-0.102,0-0.306,0-0.51,0.306l0.102,0.102l0.306,0.102l0.306,0.102l0.102,0.102
			C3.479,11.913,3.683,11.913,3.989,11.505z"/>
		<path style="fill:#D2D2D2;" d="M8.677,13.645c0-0.102,0.102-0.102,0.306-0.306c0.306-0.306,0.51-0.51,0.51-0.713v-0.102v-0.102
			c0-0.102,0-0.306,0.102-0.306c0,0,0,0,0.102,0v0.102c0,0,0,0,0.102,0c0,0,0.102,0,0.102-0.102l0.102-0.102
			c0-0.102,0.102-0.102,0.102-0.306l0,0c0,0,0-0.102-0.102-0.102v-0.102c0-0.102,0-0.102,0.102-0.102c0,0,0,0,0.102,0l0.102,0.102
			c0,0,0,0,0.102,0c0,0,0.102,0,0.102-0.102l0.102-0.102v-0.102c0,0,0-0.102-0.102-0.102l0.204-0.408
			c-0.306-0.102-0.408-0.408-0.408-0.815V9.772l0.102-0.306V9.365c0-0.102,0-0.306-0.102-0.408
			c-0.102-0.102-0.102-0.306-0.102-0.306c-0.102-0.102-0.102-0.306-0.102-0.306l0,0h-0.102L9.9,8.448L9.798,8.549L9.696,8.651
			c-0.102,0-0.102,0.306-0.102,0.408c0,0.306,0,0.408,0.408,1.019c0.102,0.306,0.306,0.51,0.306,0.713
			c0,0.51-0.408,0.815-1.325,1.019l-0.51,0.102C8.065,12.015,7.76,12.32,7.76,12.728c0.102-0.102,0.306-0.102,0.51-0.102h0.102l0,0
			c0.102,0,0.102,0,0.306-0.102c0.102-0.102,0.306-0.306,0.408-0.306l0.102-0.102l0.102-0.102l0,0l0,0c0,0,0,0.102-0.102,0.306
			c-0.408,0.306-0.408,0.408-0.408,0.51C8.575,13.543,8.575,13.543,8.677,13.645z"/>
		<path style="fill:#D2D2D2;" d="M7.046,11.913c0.102,0.102,0.306,0.306,0.408,0.306C7.556,12.32,7.556,12.32,7.76,12.32h0.102
			h0.102c0.102,0,0.306,0,0.306-0.102c0,0,0,0,0-0.102l-0.102-0.102l-0.102-0.102c-0.204-0.204-0.306-0.204-0.51-0.204
			C7.454,11.811,7.352,11.811,7.046,11.913z"/>
		<path style="fill:#D2D2D2;" d="M10.919,12.422L10.919,12.422h0.102h0.102l0,0c0.306,0,0.51-0.306,0.51-0.408
			c0-0.102-0.102-0.102-0.306-0.102C11.327,11.913,11.123,12.015,10.919,12.422z"/>
		<path style="fill:#D2D2D2;" d="M35.277,13.441c0-0.102,0-0.102,0-0.306v-0.102c0-0.306,0-0.306,0-0.408
			c0-0.102,0-0.102-0.102-0.306l-0.102-0.102c-0.102-0.102-0.102-0.306-0.102-0.306c0-0.102,0-0.102,0-0.102l0,0c0,0,0,0,0.102,0
			h0.102c0.102,0,0.102-0.102,0.102-0.408s0-0.408-0.306-0.51l-0.102-0.204c0,0,0,0,0-0.102c0,0,0-0.102,0.102-0.102h0.102h0.204
			l0,0c0,0,0,0,0-0.102l0,0v-0.306c0-0.306-0.102-0.408-0.102-0.408l0,0h-0.306l0,0c-0.408,0-0.815-0.408-0.917-0.815L33.646,8.04
			c-0.102-0.306-0.306-0.51-0.51-0.713c-0.102-0.102-0.102-0.102-0.306-0.102h-0.306l0,0c0,0,0-0.102,0.102-0.102
			c0.306,0,0.713,0,1.019,0.306C34.054,7.53,34.36,7.53,34.462,7.53c0.51,0,0.917-0.306,0.917-0.815c0-0.306-0.102-0.51-0.306-0.815
			c-0.102-0.102-0.306-0.408-0.51-0.51h-0.102l0,0v0.102l0,0c0,0,0,0.102-0.102,0.102c0,0-0.102-0.102-0.306-0.306
			c-0.102-0.306-0.408-0.713-0.815-0.713c-0.102,0-0.102,0-0.102,0.102v0.102c0,0,0.102,0.102,0.102,0.306v0.102l0,0
			c0,0-0.102,0-0.102-0.102c-0.102-0.102-0.102-0.102-0.102-0.102l-0.102-0.306c-0.102-0.102-0.306-0.306-0.51-0.408l-0.306-0.102
			h-0.102l0,0v0.102c0,0.102,0.102,0.102,0.102,0.306v0.102c-0.102,0-0.306-0.102-0.408-0.408c-0.102-0.306-0.306-0.408-0.306-0.713
			c0-0.51,0.408-0.917,0.917-0.917c0.306,0,0.51,0.102,0.917,0.306l0.51,0.408c0.306,0.102,0.51,0.306,0.713,0.306s0.102,0,0.408,0
			h0.102c0,0,0,0,0-0.102c0,0,0-0.102-0.102-0.102c-0.306,0-0.815-0.306-1.223-0.408c-0.306-0.102-0.408-0.306-0.408-0.306
			c-0.102,0-0.102-0.102-0.102-0.102l0,0h0.102l0.51,0.102l0.51,0.102c0.306,0.102,0.713,0.102,0.815,0.102
			c0.306,0,0.408-0.102,0.408-0.408c0-0.102,0-0.306-0.102-0.306c-0.102-0.102-0.102-0.306-0.306-0.306c0,0-0.102,0-0.102,0.102l0,0
			v0.102c0,0.102-0.102,0.306-0.306,0.306h-0.102l-0.815-0.306c-0.713-0.306-0.917-0.306-1.223-0.306
			c-0.917,0-1.631,0.713-1.631,1.427c0,0.917,0.713,1.631,2.242,2.14c1.631,0.51,1.835,0.713,1.835,1.019
			c0,0.306-0.306,0.408-0.51,0.408c-0.102,0-0.102,0-0.306,0c-0.102,0-0.408-0.102-0.815-0.102c-0.51-0.102-0.917-0.102-1.427-0.102
			c-1.223,0-1.733,0.102-2.446,0.815C29.366,7.53,29.366,7.53,29.06,7.53h0.102H29.06c-0.102,0-0.306,0.102-0.408,0.306
			l-0.102,0.306l-0.102,0.102c-0.102,0-0.102-0.102-0.306-0.408c0-0.102-0.102-0.306-0.306-0.408l-0.306-0.306c0,0,0,0,0-0.102
			c0,0,0,0,0-0.102l0.102-0.102V6.715V6.613c0,0,0,0,0.102,0c0.102,0,0.102,0,0.102,0.408c0,0.102,0,0.102,0.102,0.306l0.102,0.306
			c0,0,0,0,0.102,0s0.306-0.306,0.306-0.51c0-0.306,0-0.306,0.102-0.306c0,0,0.102,0,0.102,0.306l0.102,0.102l0.102,0.102l0,0
			c0.102,0,0.102,0,0.102-0.306V6.919V6.817V6.715c0-0.102,0-0.102,0.102-0.102c0,0,0,0,0.102,0l0.102,0.102
			c0.102,0.102,0.102,0.102,0.306,0.102c0.102,0,0.102,0,0.102-0.102c0,0,0-0.102-0.102-0.306c0,0,0-0.102-0.102-0.102
			c-0.102-0.102-0.102-0.306-0.306-0.306H29.06h-0.102h0.204l0,0c0-0.102,0.102-0.306,0.102-0.51
			c0.102-0.102,0.102-0.408,0.306-0.917v-0.51c0-0.408,0.102-0.408,0.102-0.408l0,0v0.102v0.102c0,0.102,0,0.306,0,0.306
			s0.102,0,0.102-0.102c0-0.102,0.102-0.102,0.102-0.306s0-0.306,0-0.306c0-0.306-0.102-0.408-0.51-0.51c0,0,0,0-0.102,0V2.842V2.74
			V2.536V2.434V2.333h-0.102c-0.306,0.102-0.306,0.102-0.408,0.306C28.653,2.74,28.653,2.74,28.653,2.74l0,0V2.536l0,0
			c0-0.306-0.102-0.51-0.408-0.713l-0.102,0.102l-0.102,0.102l-0.102,0.102c-0.102,0.102-0.102,0.306-0.102,0.408l0,0l0,0
			c0,0.102,0,0.102,0,0.102l0,0l-0.102-0.102l-0.306,0l-0.306-0.102l-0.102-0.102c-0.102,0.306-0.102,0.306-0.102,0.51v0.102
			c0,0.102,0,0.102-0.102,0.102h-0.102h-0.102c-0.102,0-0.306,0.102-0.306,0.408c0,0.306,0,0.408,0.102,0.713
			c0.102,0.102,0.306,0.306,0.306,0.306s0-0.102,0-0.306V4.065V3.963c0-0.102,0-0.102,0.102-0.102c0,0,0.102,0.102,0.102,0.306
			l0.102,0.408l0.102,0.51c0,0.102,0.102,0.306,0.102,0.51c0.102,0.306,0.102,0.408,0.102,0.408
			c0.102,0.102,0.102,0.102,0.102,0.306l0,0c0,0,0,0-0.102,0h-0.102h-0.102c-0.102,0-0.306,0.102-0.306,0.917
			c0,0.51,0.102,1.223,0.306,1.427l0.306,0.713c0,0.102,0,0.102,0,0.306c0,0.815-1.223,2.242-2.446,2.854
			c-0.51,0.306-0.713,0.51-0.713,1.019c0.306-0.102,0.306-0.102,0.408-0.102c0.408-0.102,0.408-0.102,0.51-0.306v-0.102
			c0-0.102,0-0.102,0.306-0.306c0.102,0,0.102-0.102,0.102-0.102c0-0.102,0.102-0.102,0.102-0.102l0,0l0,0l0,0.204v0.102
			c0,0.306,0.102,0.408,0.408,0.51v-0.102c0-0.102,0.102-0.306,0.102-0.408l0.306-0.306c0.102-0.102,0.102-0.102,0.102-0.51v-0.306
			v-0.102c0,0,0-0.102,0.102-0.102h0.102v0.204c0,0,0,0.102,0.102,0.102s0.306-0.102,0.408-0.408c0-0.102,0.102-0.102,0.102-0.306
			c0-0.102,0-0.306,0-0.408v-0.102c0,0,0-0.102,0.102-0.102l0,0l0.102,0.306c0,0.102,0.102,0.102,0.102,0.102
			c0.102,0,0.408-0.408,0.408-0.815c0-0.306,0-0.408,0.102-0.408l0,0v0.102c0,0,0,0.102,0.102,0.102c0,0,0.102,0,0.102-0.102
			l0.102-0.102V9.569c0,0,0-0.102-0.102-0.102c-0.102,0-0.102-0.102-0.102-0.306s0.102-0.408,0.306-0.713
			c0.102-0.306,0.306-0.408,0.306-0.408s0.102,0,0.102,0.102v0.102c0,0.102,0,0.102,0,0.102s0,0.102,0.102,0.102
			c0,0,0.102,0,0.306-0.102c0,0,0.102-0.102,0.306-0.102c0.306-0.102,0.408-0.102,0.408-0.102c0.102,0,0.102,0,0.306,0
			c0.102,0,0.102,0,0.306,0c0.102,0,0.306,0,0.306,0C31.2,8.142,31.2,8.04,31.2,8.04s0-0.102-0.102-0.306
			c0-0.102-0.102-0.102-0.102-0.102L30.895,7.53l0,0l0,0c0.102,0,0.306,0.102,0.408,0.408c0.917,1.427,1.325,2.038,2.038,2.242
			c0.713,0.204,0.917,0.408,0.917,0.815c0,0.306-0.102,0.51-0.408,0.815c-0.51,0.713-0.713,1.019-0.713,1.427v0.102h0.102
			c0.102,0,0.102-0.102,0.102-0.102h0.306c0.102,0,0.102-0.102,0.102-0.306l0,0v-0.204l0,0c0-0.102,0.102-0.306,0.102-0.306
			s0.102,0,0.102,0.102l0.102,0.408C35.073,13.136,35.073,13.238,35.277,13.441z"/>
		<path style="fill:#D2D2D2;" d="M25.697,5.288V5.39v0.102c0,0.102,0,0.306,0.102,0.306s0.102-0.102,0.306-0.306
			c0-0.102,0-0.306,0-0.306s0-0.102,0-0.306c0-0.204-0.102-0.102-0.102-0.102C25.697,4.677,25.697,4.88,25.697,5.288z"/>
		<path style="fill:#D2D2D2;" d="M24.678,2.842L24.678,2.842c0,0.306,0,0.408-0.102,0.713c0,0.102-0.102,0.306-0.102,0.306
			c0,0.102,0,0.102,0,0.306c0,0.204,0.102,0.306,0.102,0.408l0.102,0.102v0.102c0,0,0,0.102,0,0.306c0,0.204,0,0.306,0,0.408
			c0,0.102,0,0.102,0,0.102s-0.102-0.102-0.102-0.306C24.474,4.982,24.27,4.88,24.168,4.88s-0.306,0-0.408,0.102
			c0.102,0.102,0.102,0.306,0.408,0.713c0.102,0.408,0.306,0.51,0.51,0.713l0.102,0.102c0,0,0,0.102-0.102,0.102h-0.102h-0.102
			c0,0-0.102,0-0.102,0.102c0,0.306,0.306,0.713,0.713,1.019l0.102,0.102l0,0l0,0h-0.102c0,0,0,0-0.102,0c0,0-0.102,0-0.102,0.102
			c0,0.102,0.102,0.306,0.306,0.51c0.102,0.102,0.306,0.408,0.408,0.408l0.51,0.306c0,0,0,0,0,0.102c0,0,0,0.102-0.102,0.102h-0.102
			h-0.102h-0.102l0,0c-0.102,0-0.102,0-0.102,0s0,0.102,0.102,0.408c0.102,0.306,0.306,0.306,0.306,0.306s0,0,0.102,0l0.102-0.306
			c0,0,0.102-0.102,0.306-0.306c0.102-0.102,0.306-0.102,0.306-0.102c0.306,0,0.306,0,0.306-0.102c0,0,0-0.102,0-0.306
			c0,0,0-0.102,0-0.306V8.346V8.04V7.938c0,0,0,0-0.102,0.102c-0.102,0.306-0.408,0.408-0.51,0.408c-0.713,0-1.019-1.019-1.019-2.65
			V5.594v-0.51V4.982c0-0.51-0.102-0.917-0.408-1.223L24.678,2.842L24.678,2.842z"/>
		<path style="fill:#D2D2D2;" d="M26.207,11.505c-0.306,0-0.306,0-0.51-0.102c-0.102-0.102-0.306-0.102-0.408-0.102
			s-0.306,0-0.51,0.306l0.102,0.102l0.306,0.102l0.306,0.102l0.102,0.102C25.697,11.913,25.901,11.913,26.207,11.505z"/>
		<path style="fill:#D2D2D2;" d="M30.793,13.645c0-0.102,0.102-0.102,0.306-0.306c0.306-0.306,0.51-0.51,0.51-0.713v-0.102v-0.102
			c0-0.102,0-0.306,0.102-0.306c0,0,0,0,0.102,0v0.102c0,0,0,0,0.102,0s0.102,0,0.306-0.306c0-0.102,0.102-0.102,0.102-0.306v0.102
			c0,0,0-0.102-0.102-0.102v-0.102c0-0.102,0-0.102,0.102-0.102h0.102l0.102,0.102l0,0c0,0,0.102,0,0.102-0.102l0.102-0.102v-0.102
			c0,0,0-0.102-0.102-0.102l0-0.408c-0.102-0.102-0.408-0.408-0.408-0.815V9.772l0.102-0.306V9.365c0-0.102,0-0.306-0.102-0.408
			c-0.102-0.102-0.102-0.306-0.102-0.306c-0.102-0.102-0.102-0.306-0.102-0.306h-0.102l-0.102,0.102L31.71,8.549l-0.102,0.102
			c-0.102,0-0.102,0.306-0.102,0.408c0,0.306,0,0.408,0.408,1.019c0.102,0.306,0.306,0.51,0.306,0.713
			c0,0.51-0.51,0.917-1.325,1.019c-0.917,0.102-1.223,0.408-1.325,0.917c0.102-0.102,0.306-0.102,0.51-0.102h0.102l0,0
			c0.102,0,0.102,0,0.306-0.102c0.102-0.102,0.306-0.306,0.408-0.306l0.102-0.102l0.102-0.102l0,0l0,0c0,0,0,0.102-0.102,0.102
			c-0.102,0.102-0.102,0.306-0.102,0.408C30.589,13.543,30.589,13.543,30.793,13.645z"/>
		<path style="fill:#D2D2D2;" d="M29.264,11.913c0.102,0.102,0.306,0.306,0.408,0.306c0.102,0.102,0.102,0.102,0.306,0.102h0.102
			h0.102c0.306,0,0.306-0.102,0.306-0.102s0,0,0-0.102l-0.102-0.102l-0.204-0.204c-0.102-0.102-0.204-0.102-0.408-0.102
			C29.57,11.811,29.366,11.811,29.264,11.913z"/>
		<path style="fill:#D2D2D2;" d="M33.137,12.422L33.137,12.422h0.102h0.102l0,0c0.102,0,0.102,0,0.306,0
			c0.102,0,0.102-0.102,0.306-0.306v-0.102c0-0.102-0.102-0.102-0.306-0.102C33.443,11.913,33.239,12.015,33.137,12.422z"/>
		<path style="fill:#D2D2D2;" d="M12.04,37.596l0.102-0.102l0.102-0.102c0.102-0.102,0.306-0.408,0.306-0.713
			c0-0.102,0-0.306,0-0.408c0-0.102,0-0.102,0-0.306c0-0.102,0-0.102,0.102-0.102c0,0,0,0,0.102,0l0.102,0.102
			c0.102,0.102,0.102,0.102,0.306,0.102v-0.102v-0.102c0-0.306-0.102-0.713-0.306-0.815c0-0.102,0-0.102,0-0.204v-0.102l0,0
			c0.102,0.102,0.102,0.102,0.306,0.102c0,0,0.102-0.102,0.102-0.306c0-0.306-0.102-0.51-0.306-0.713
			c-0.102-0.102-0.102-0.102-0.102-0.102l0,0c0,0,0-0.102,0.102-0.102h0.102c0,0,0,0,0.102,0c0.102,0,0.102-0.102,0.102-0.51v-0.102
			v-0.306c0-0.306,0-0.306-0.102-0.306h-0.102c-0.51,0-0.815-0.408-0.917-1.325c-0.102-0.713-0.408-1.223-0.713-1.325
			c-0.102,0-0.306-0.102-0.306-0.102s0,0,0.102,0c0,0,0.102,0,0.306,0c0.51,0.102,0.917,0.306,1.223,0.306
			c0.51,0,1.019-0.408,1.019-0.917c0-0.408-0.102-0.815-0.51-1.223c-0.102-0.102-0.102-0.102-0.306-0.102l0,0l0,0v0.102v0.102l0,0
			l0,0h-0.102l-0.306-0.306c-0.102-0.306-0.51-0.408-0.815-0.408c-0.102,0-0.102,0-0.102,0.102c0,0,0,0.102,0.102,0.102
			c0,0.102,0.102,0.102,0.102,0.102l0,0l0,0l0,0c0,0-0.102,0-0.408-0.306c-0.306-0.306-0.713-0.51-0.917-0.51c0,0,0,0-0.102,0l0,0
			c0,0,0,0.102,0.102,0.102c0.102,0,0.306,0.204,0.306,0.204l0,0c-0.102,0-0.306-0.102-0.51-0.306
			c-0.408-0.408-0.713-0.713-0.713-1.019c0-0.306,0.306-0.815,0.815-0.815c0.306,0,0.51,0.102,0.815,0.306l0.51,0.408
			c0.306,0.306,0.51,0.306,0.917,0.306c0.102,0,0.102,0,0.306,0c0,0,0.102,0,0.102-0.102c0,0,0,0-0.102,0
			c-0.306,0-0.408-0.102-0.51-0.306l-0.611-0.408c-0.306-0.102-0.408-0.306-0.408-0.306c-0.306-0.102-0.408-0.306-0.408-0.306
			s0,0,0.102,0h0.102l0.306,0.102c0.102,0,0.306,0.102,0.51,0.306c0.713,0.408,0.917,0.51,1.325,0.51
			c0.408,0,0.713-0.306,0.713-0.51c0,0,0-0.102,0-0.306v-0.102c0,0,0-0.102-0.102,0l0,0v0.306c0,0,0,0,0,0.102
			c0,0,0,0.102-0.102,0.102c0,0-0.102,0.102-0.306,0.102c-0.102,0-0.408-0.102-0.917-0.408c-0.51-0.408-1.019-0.51-1.427-0.51
			c-0.815,0-1.631,0.713-1.631,1.631c0,1.223,0.713,1.733,2.956,2.242c0.815,0.102,1.223,0.408,1.223,0.815
			c0,0.408-0.306,0.51-0.713,0.51c-0.102,0-0.306,0-0.306,0c-0.102,0-0.51-0.102-1.223-0.306c-0.51-0.102-1.019-0.306-1.631-0.306
			c-0.917,0-1.427,0.306-1.834,0.815c0,0.102-0.102,0.102-0.102,0.102s0,0-0.102,0L7.76,29.748
			c-0.102-0.102-0.306-0.102-0.408-0.102c-0.102,0-0.102,0-0.306,0.102L6.944,29.85c0,0-0.102-0.102-0.306-0.408
			c-0.102-0.306-0.306-0.51-0.306-0.815c0-0.102,0-0.306,0.102-0.306c0,0,0.102,0,0.102,0.102l0.102,0.408
			c0,0.102,0.102,0.408,0.306,0.408c0,0,0.102,0,0.102-0.102l0.102-0.102c0.102-0.306,0.102-0.306,0.102-0.306
			c0.102,0,0.102,0,0.102,0.306c0,0,0,0.102,0.102,0.306c0,0.102,0.102,0.102,0.102,0.306h0.102c0.102,0,0.102-0.102,0.102-0.408
			l0,0v-0.306c0-0.102,0-0.102,0-0.102s0,0,0.102,0c0,0,0.102,0.102,0.306,0.102c0.102,0,0.102,0,0.102,0h0.51c0,0,0,0,0-0.102
			c0,0,0-0.102-0.102-0.306c0-0.102-0.102-0.306-0.306-0.51c0-0.102-0.102-0.102-0.102-0.102s0,0-0.102,0H8.065H7.964l0,0
			c0,0-0.102,0-0.102-0.102c0,0,0.102-0.102,0.306-0.306c0.102-0.102,0.102-0.102,0.102-0.306c0-0.102,0-0.408,0.102-0.408v-0.408
			c0-0.306,0.102-0.713,0.102-0.815v-0.102v0.102l0,0v0.102c0,0.102,0,0.306,0.102,0.306c0,0,0.102-0.102,0.102-0.306l0.102-0.306
			c0-0.102,0-0.102,0-0.306c0-0.306-0.102-0.408-0.306-0.408H8.371H8.269L8.167,24.55v-0.102v-0.306v-0.204v-0.102H8.065
			l-0.204,0.102L7.76,24.143l-0.102,0.102c0,0,0,0-0.102,0c-0.102,0-0.102,0-0.102-0.306l0,0c0-0.102,0-0.306-0.306-0.51
			c0,0,0,0,0-0.102v0.102l-0.102,0.306l-0.204,0.204v0.306v0.102c0,0,0,0-0.102-0.102c-0.102-0.306-0.306-0.306-0.51-0.408v0.102
			c0,0.102-0.102,0.306-0.102,0.306v0.306v0.102v0.102v0.102l0,0c0,0,0,0-0.102,0H5.721c-0.306,0-0.408,0.102-0.408,0.306
			c0,0.102,0,0.306,0.306,0.51c0.102,0.102,0.306,0.306,0.306,0.306v-0.102v-0.102c0-0.102,0-0.102,0-0.102V25.57
			c0.102,0,0.306,0.306,0.306,0.815v0.408c0,0.102,0,0.306,0.102,0.51c0.102,0.306,0.306,0.408,0.306,0.408
			c0.102,0.102,0.102,0.102,0.102,0.306v0c0,0-0.102,0-0.306-0.102H6.333c-0.306,0-0.306,0.102-0.306,0.51
			c0,0.51,0.408,1.223,0.713,1.427l0.51,0.408c0.306,0.306,0.51,0.51,0.51,0.815c0,0.408-0.408,0.713-1.019,0.917l-0.51,0.102
			c-0.306,0.102-0.408,0.306-0.51,0.917c0.102,0,0.306,0,0.306,0l0,0h0.102c0.102,0,0.306-0.102,0.306-0.306v-0.102
			c0,0,0-0.102,0.102-0.102s0.102-0.102,0.102-0.102l0.102-0.102c0,0,0,0,0.102,0c0,0,0,0,0,0.102c0,0,0,0,0,0.102
			c0,0.102,0,0.306,0,0.408c0,0.306,0,0.408,0.102,0.713c0-0.102,0-0.102,0-0.102s0.102-0.102,0.306-0.306
			c0.102-0.306,0.306-0.51,0.306-0.713l0,0v-0.306v-0.102c0,0,0,0,0.102,0c0,0,0.102,0,0.102,0.102c0,0,0,0.102,0.102,0.102
			c0,0,0.102-0.102,0.102-0.306c0-0.102,0-0.102,0-0.306v-0.102v-0.102c0,0,0,0,0-0.102l0,0c0,0,0,0,0.102,0l0.102,0.102
			c0,0,0,0,0.102,0c0,0,0.102,0,0.102-0.102c0.408-0.102,0.408-0.204,0.408-0.306c0,0,0,0-0.102-0.102
			c-0.306-0.102-0.408-0.408-0.408-0.713v-0.102l0.102-0.306c0-0.102,0.102-0.306,0.102-0.306l0,0c0,0,0,0,0,0.102v0.102
			c0,0.102,0,0.102,0,0.306c0,0.102,0,0.102,0.102,0.102h0.204c0.408-0.102,0.713-0.306,0.815-0.306c0.102,0,0.306,0,0.408,0.102
			h0.102c0,0,0,0,0.102,0l0,0c0,0,0-0.102-0.102-0.102c0-0.102-0.102-0.102-0.102-0.102l0,0c0.102,0,0.51,0.51,0.815,1.427
			c0.306,0.815,0.306,0.815,0.917,1.223c0.51,0.408,0.815,0.713,0.815,1.223s-0.102,1.223-0.408,2.14
			c-0.102,0.306-0.102,0.51-0.102,0.713c0,0.102,0,0.306,0.102,0.51c0,0.102,0.102,0.306,0.102,0.306
			C11.836,37.494,12.04,37.494,12.04,37.596z"/>
		<path style="fill:#D2D2D2;" d="M9.187,35.965c0.102-0.102,0.102-0.306,0.306-0.408c0.102-0.306,0.306-0.408,0.306-0.51v-0.102
			c0-0.102,0-0.306,0.102-0.306l0,0v0.102c0,0,0,0,0.102,0c0,0,0.102,0,0.102-0.102c0.102-0.102,0.102-0.306,0.102-0.408v-0.102
			v-0.102c0-0.102,0-0.102,0.102-0.102c0,0,0,0,0.102,0.102c0,0,0,0.102,0.102,0.102c0,0,0.102,0,0.102-0.102l0.102-0.102
			l0.102-0.102l0,0c0,0,0,0-0.102-0.102c-0.306-0.102-0.306-0.408-0.306-0.815c0-0.306,0-0.51,0-0.713c0,0-0.102-0.102-0.306-0.51
			c0-0.102-0.102-0.306-0.102-0.408s0-0.102-0.102-0.102c-0.306,0-0.51,0.306-0.51,0.713c0,0.306,0.102,0.51,0.306,0.917
			c0.306,0.51,0.306,0.815,0.306,0.917c0,0.408-0.102,0.713-0.815,0.815c-0.713,0.306-0.917,0.51-1.019,1.223h0.102
			c0.102,0,0.102,0,0.102,0h0.102c0.102,0,0.306-0.102,0.306-0.306V35.15c0,0,0-0.102,0.102-0.102h0.102h0.102l0,0v0.102
			c0,0,0,0.102,0,0.306C9.085,35.557,9.085,35.761,9.187,35.965z"/>
		<path style="fill:#D2D2D2;" d="M2.97,25.06c0,0.102,0,0.102,0,0.102s0,0.102,0,0.306v0.306c0,0.306,0,0.408,0.102,0.713
			c0,0.102,0.102,0.306,0.102,0.306l0,0v0.102c0,0,0,0-0.102-0.102c-0.102-0.102-0.306-0.102-0.408-0.102c0,0-0.102,0-0.306,0v0.102
			L2.46,27.2l0.306,0.408l0.306,0.102c0,0,0,0,0.102,0.102c0,0,0,0,0,0.102l0,0H2.868l0,0c0,0,0,0.102,0.102,0.408l0.102,0.408
			l0.102,0.102l0.306,0.102l0.204,0.102l0,0H3.581c0,0,0,0,0,0.102c0,0.102,0.102,0.306,0.306,0.408
			c0.102,0.306,0.306,0.306,0.51,0.306h0.102c0.102,0,0.102,0,0.102,0.102c0,0,0,0.102-0.102,0.102s-0.306,0-0.306,0.102v0.102
			l0.102,0.102c0.102,0.102,0.102,0.102,0.306,0.102c0,0,0.102,0,0.102-0.102c0.102-0.102,0.306-0.306,0.408-0.306
			c0.408-0.102,0.51-0.102,0.51-0.306v-0.102c-0.102-0.306-0.102-0.408-0.102-0.51s0-0.306-0.102-0.306c0,0,0,0-0.102,0.102
			c-0.102,0.102-0.306,0.306-0.408,0.306c-0.408,0-0.917-0.713-1.223-1.427c0-0.102-0.102-0.408-0.102-0.713
			c0-0.306,0-0.51,0.102-0.713c0.102-0.408,0.102-0.51,0.102-0.51v0.102C3.581,25.671,3.275,25.264,2.97,25.06z"/>
		<path style="fill:#D2D2D2;" d="M3.683,26.589c-0.102,0.102-0.102,0.51-0.102,0.815c0,0.102,0,0.306,0.102,0.306l0,0l0.102-0.306
			c0,0,0-0.102,0.102-0.102c0-0.102,0.102-0.102,0.102-0.102C3.989,26.894,3.887,26.793,3.683,26.589z"/>
		<path style="fill:#D2D2D2;" d="M5.11,31.99L5.11,31.99c0.102,0.102,0.102,0.102,0.102,0.102c0.306,0.306,0.306,0.306,0.408,0.306
			c0.102,0,0.306,0,0.408-0.102c0,0,0.102,0,0.102-0.102c0,0,0,0-0.102-0.102L5.925,31.99c-0.102-0.102-0.306-0.102-0.306-0.102
			C5.416,31.685,5.314,31.888,5.11,31.99z"/>
		<path style="fill:#D2D2D2;" d="M7.862,34.131c0.102,0,0.102,0.102,0.306,0.102c0.102,0.102,0.102,0.102,0.102,0.102h0.102h0.102
			l0.306-0.102l0.306-0.102c0,0,0.102,0,0.102-0.102c0,0,0,0-0.102,0H8.983c-0.306-0.102-0.306-0.102-0.408-0.102
			C8.167,33.825,7.964,34.029,7.862,34.131z"/>
		<path style="fill:#D2D2D2;" d="M10.817,36.577c0.102-0.102,0.102-0.306,0.408-0.306c0.306,0,0.51-0.51,0.51-0.917l0,0
			c0,0,0,0-0.102,0s-0.102,0.102-0.102,0.102l-0.408,0.102c-0.306,0.102-0.408,0.408-0.408,0.713
			C10.817,36.271,10.817,36.373,10.817,36.577z"/>
		<path style="fill:#D2D2D2;" d="M32.525,33.723L32.525,33.723l0.102-0.306c0,0,0-0.102,0.102-0.306
			c0.102-0.102,0.102-0.408,0.102-0.51c0-0.102,0-0.102,0-0.306v-0.102l0,0l0,0l0,0c0,0,0.102,0,0.102,0.102l0.102,0.102
			c0,0,0.102-0.102,0.102-0.306c0-0.102,0-0.102,0-0.102s0-0.306-0.102-0.306v-0.102v-0.102c0,0,0.102,0,0.102,0.102
			c0,0,0,0,0.102,0c0.102,0,0.102-0.102,0.102-0.306c0-0.102,0-0.102,0-0.102l0,0l0,0h-0.102c-0.306,0-0.51-0.102-0.713-0.306
			l-0.306-0.408c-0.102-0.102-0.306-0.408-0.306-0.408l-0.306-0.102c0,0-0.102,0-0.102-0.102c0,0,0-0.102,0.102-0.102
			c0,0,0.306,0.102,0.713,0.306c0.408,0.102,0.917,0.306,1.223,0.306c0.51,0,1.019-0.408,1.019-1.019c0-0.306-0.102-0.51-0.51-0.917
			c0-0.102-0.102-0.102-0.306-0.102c0,0,0,0,0,0.102v0.102v0.102v0.102c-0.102,0-0.102-0.102-0.306-0.306
			c-0.102-0.306-0.306-0.408-0.51-0.713c-0.102-0.102-0.306-0.102-0.408-0.102l0,0v0.102c0,0.102,0.102,0.102,0.102,0.306l0,0v0.102
			c-0.102,0-0.102,0-0.306-0.306c-0.102-0.102-0.306-0.306-0.51-0.408c0,0-0.102,0-0.306,0l0,0h-0.102c0,0,0,0,0,0.102v0.102l0,0
			c-0.102,0-0.306-0.102-0.408-0.408c-0.102-0.306-0.306-0.51-0.306-0.713c0-0.408,0.408-0.815,0.917-0.815c0.102,0,0.306,0,0.306,0
			l0.408,0.306l0.51,0.306c0.306,0.102,0.713,0.306,0.917,0.306c0.102,0,0.102,0,0.408-0.102c0.102,0,0.102-0.102,0.102-0.102l0,0
			l0,0h-0.306c-0.102,0-0.51-0.102-0.713-0.306l0-0.204l-0.51-0.306l0,0l0,0c0,0,0,0,0.102,0l0.408,0.102
			c0.102,0,0.306,0.102,0.51,0.306c0.51,0.306,0.815,0.408,1.019,0.408c0.306,0,0.51-0.102,0.51-0.408c0-0.102,0-0.306,0-0.408
			c0,0,0-0.102-0.102-0.102l0,0c0,0,0,0,0,0.102v0.102v0.102c0,0.306-0.102,0.306-0.306,0.306c-0.102,0-0.408-0.102-1.019-0.306
			c-0.51-0.306-0.917-0.306-1.325-0.306c-0.917,0-1.733,0.713-1.733,1.631c0,0.713,0.51,1.223,1.427,1.631l1.019,0.408
			c0.815,0.408,1.223,0.51,1.223,0.917c0,0.306-0.306,0.408-0.713,0.408c-0.102,0-0.408,0-0.815-0.102
			c-0.917-0.306-1.631-0.408-2.14-0.408c-0.917,0-1.427,0.306-2.038,0.815c0,0.102-0.102,0.102-0.102,0.102h-0.102
			c-0.102,0-0.102-0.102-0.306-0.102c-0.102,0-0.306,0.102-0.306,0.102l0.102,0.204l-0.102,0.102c-0.102,0-0.306-0.102-0.306-0.306
			c0-0.102-0.102-0.306-0.102-0.306c0-0.102,0-0.102,0-0.306v-0.306v-0.306c0-0.102,0-0.102,0-0.306l0,0c0,0,0.102,0,0.102,0.102
			v0.102l0,0c0,0.408,0.102,0.713,0.306,0.713c0.102,0,0.306-0.306,0.306-0.713c0-0.102,0-0.102,0.102-0.102
			c0,0,0.102,0,0.102,0.306c0,0.102,0.102,0.306,0.102,0.408l0.102,0.102c0.102,0,0.102-0.102,0.306-0.51
			c0-0.102,0-0.306,0.102-0.306l0,0c0,0,0,0,0.102,0.102l0.102,0.102h0.102h0.102l0.102-0.102c0,0,0,0-0.102-0.102
			c-0.102-0.102-0.102-0.102-0.306-0.408c0-0.102-0.102-0.306-0.102-0.306v-0.102l0,0h0.102c0,0-0.102,0-0.306,0.102h-0.102l0,0
			c0,0,0-0.102,0.102-0.102c0.306-0.306,0.51-0.713,0.51-1.223c0-0.408,0.102-0.51,0.306-0.713c0,0,0-0.102,0.102-0.102
			c0,0,0.102,0,0.102,0.102v0.102v0.102l0,0v0.102h0.102l0.102-0.102c0.102-0.102,0.102-0.306,0.102-0.51
			c0-0.102,0-0.102-0.102-0.306c-0.102-0.102-0.102-0.102-0.102-0.102h-0.102h-0.102c-0.102,0-0.102,0-0.102-0.102v-0.102v0.204
			l-0.102-0.306V25.57v-0.102h-0.102l-0.102,0.102l-0.204,0.102c-0.204,0.306-0.204,0.306-0.306,0.306l0,0l0,0
			c0-0.102,0-0.102,0-0.306c0-0.306-0.102-0.51-0.306-0.713c-0.306,0.306-0.408,0.51-0.408,0.815v0.204v0.102l0,0c0,0,0,0-0.102,0
			l-0.102-0.102c0,0-0.102,0-0.102-0.102c0,0,0,0-0.102-0.102v0.102c-0.102,0.306-0.102,0.408-0.102,0.51s0,0.306,0,0.306
			s0,0-0.102,0c-0.102-0.102-0.102-0.102-0.306-0.102c-0.306,0-0.408,0.102-0.408,0.408c0,0.102,0,0.306,0.102,0.408
			c0.102,0.102,0.306,0.408,0.408,0.408c0,0,0,0,0-0.102l0,0v-0.306v-0.102l0,0l0,0c0.102,0,0.102,0.306,0.306,0.917
			c0.102,0.51,0.306,0.917,0.408,1.223l0.102,0.102l0,0h-0.102h-0.102c-0.102,0-0.306,0.102-0.306,0.306l-0.102,0.713l-0.102,0.917
			c0,0.102,0,0.408,0.102,0.713c0,0.306,0.102,0.408,0.102,0.51c0,0.713-0.408,1.325-1.223,1.427l-0.815,0.306
			c-0.51,0.102-0.713,0.408-0.815,1.019c0.102-0.306,0.102-0.306,0.306-0.306h0.306c0.102,0,0.102,0,0.102,0s0,0,0.102-0.102
			l0.306-0.306c0.102-0.102,0.102-0.102,0.102-0.102s0,0,0,0.102c0,0,0,0.102-0.102,0.102c0,0.102-0.102,0.102-0.102,0.306
			c0,0.102,0,0.306,0.102,0.408c0-0.102,0-0.102,0-0.102s0.204-0.102,0.204-0.306c0.102-0.306,0.306-0.408,0.306-0.51
			c0-0.102,0-0.306,0-0.306s0,0,0,0.102c0,0,0,0,0,0.102c0,0,0,0,0.102,0c0,0,0,0,0.102,0c0.102,0,0.102-0.102,0.102-0.102
			s0.102-0.102,0.102-0.306c0-0.102,0-0.102,0-0.306v-0.102v-0.102c0,0,0.102,0,0.102,0.102c0,0,0,0,0.102,0l0,0h0.102
			c0.102-0.102,0.306-0.306,0.306-0.408v-0.306v-0.102l0,0l0,0c0,0,0.102,0.102,0.102,0.306c0,0.102,0.102,0.102,0.102,0.102
			s0.102,0,0.306-0.306l0.102-0.102v-0.102v-0.102l-0.102-0.102c0,0,0,0,0-0.102c0-0.102,0-0.408,0.102-0.51
			c0.102-0.102,0.102-0.306,0.102-0.306v-0.102l0,0v0.102v0.102v0.102c0,0,0,0,0.102,0h0.102l0.306-0.102
			c0.102,0,0.102-0.102,0.306-0.102c0.408-0.306,0.713-0.306,0.815-0.306c0.102,0,0.306,0,0.51,0.102h0.102h0.102c0,0,0,0,0-0.102
			v-0.102l-0.102-0.102l0,0h0.102c0,0,0.102,0.306,0.306,0.51c0.306,0.408,0.51,0.713,0.815,0.713l0.51,0.102
			c0.102,0,0.306,0.102,0.306,0.306c0,0.408-0.102,0.713-0.51,0.917l-0.408,0.306c-0.102,0.102-0.306,0.408-0.306,0.713
			c0,0.102,0,0.408,0.102,0.713l0.102-0.102l0.102-0.102l0.102-0.102l0.102-0.306l0.102-0.306c0-0.102,0.102-0.102,0.102-0.102
			s0,0,0,0.102l0,0l0,0C32.322,33.315,32.322,33.417,32.525,33.723z"/>
		<path style="fill:#D2D2D2;" d="M25.391,37.188c0.102-0.102,0.102-0.102,0.51-0.306c0.306,0,0.51-0.306,0.51-0.51
			c0-0.306,0.102-0.306,0.306-0.408c0.102,0,0.102-0.102,0.102-0.102l0,0l0,0c0,0,0,0.102-0.102,0.102c0,0,0,0.102,0,0.306
			c0,0.102,0,0.306,0.102,0.51c0.102-0.102,0.102-0.306,0.306-0.306c0.306-0.102,0.306-0.408,0.408-0.815
			c0-0.102,0-0.306,0.102-0.306l0,0l0.102,0.102c0,0,0,0,0.102,0c0,0,0.102,0,0.102-0.102l0.102-0.102
			c0.102,0,0.102-0.306,0.102-0.51c0-0.102,0-0.102,0.102-0.102l0,0l0.102,0.306c0,0,0,0.102,0.102,0.102c0,0,0,0,0.102,0
			l0.102-0.102c0-0.102,0.102-0.102,0.102-0.306v-0.102v-0.102l0,0l0,0v0.102c0,0,0,0.102,0.102,0.102c0,0,0.102,0,0.306-0.102
			c0,0,0-0.102,0.102-0.102l0.102-0.102c0,0,0,0,0-0.102c-0.102-0.306-0.306-0.51-0.306-0.815c0-0.408,0.102-0.713,0.713-1.325
			c0.306-0.408,0.408-0.713,0.408-0.917c0,0,0-0.102-0.102-0.102h-0.102h0.204c0,0,0,0-0.102,0l-0.102-0.102v-0.102c0,0,0,0-0.102,0
			c0,0,0,0-0.102,0h-0.102c-0.102,0-0.102,0-0.102,0.102v0.102l0,0c0,0.102-0.102,0.306-0.306,0.408l-0.306,0.306
			c-0.306,0.306-0.51,0.713-0.51,0.917c0,0.102,0,0.306,0.102,0.51c0.102,0.408,0.102,0.51,0.102,0.713
			c0,0.51-0.917,1.325-2.548,2.14c-0.815,0.408-1.019,0.713-1.019,1.223L25.391,37.188z"/>
		<path style="fill:#D2D2D2;" d="M24.576,24.754L24.576,24.754v0.306v0.102c0,0.102,0,0.306,0,0.306c0,0.306,0,0.408,0.102,0.51
			s0.102,0.306,0.102,0.408v0.102l0,0l-0.102-0.102c-0.102-0.102-0.102-0.102-0.408-0.102h-0.204
			c0.102,0.306,0.102,0.306,0.102,0.408c0.102,0.408,0.102,0.408,0.306,0.713c0.306,0.102,0.306,0.306,0.306,0.306
			s0,0.102-0.102,0.102h-0.102l0,0c0,0-0.102,0.102-0.102,0.306c0,0.102,0,0.102,0.102,0.306c0,0.102,0,0.102,0.102,0.102
			l0.102,0.102v0.102c0,0,0,0.102-0.102,0.102c0,0,0,0-0.102,0c0,0,0,0-0.102,0c0,0-0.102,0-0.102,0.102v0.102l0.102,0.306
			c0,0.102,0,0.102,0.102,0.306c0,0.102,0.102,0.102,0.102,0.102c0.102,0,0.306,0.102,0.306,0.102s0,0,0,0.102
			c0,0,0,0.102-0.102,0.102c0,0,0,0-0.102,0h-0.102c-0.102,0-0.102,0-0.102,0.102v0.102v0.102c0,0.102,0.102,0.306,0.102,0.306
			s0,0,0.102,0c0.102-0.102,0.51-0.306,0.713-0.306c0.306,0,0.51,0,0.51,0h0.102c0,0,0,0,0-0.102v-0.306v-0.408v-0.306v-0.102
			c0,0-0.102,0-0.102,0.102c-0.306,0.102-0.306,0.306-0.51,0.306c-0.51,0-0.815-0.713-0.815-1.733c0-0.408,0-1.019,0.102-1.733
			c0-0.102,0-0.306,0-0.306C25.391,25.468,25.085,25.06,24.576,24.754z"/>
		<path style="fill:#D2D2D2;" d="M25.493,27.404L25.493,27.404l0.306-0.306c0.102-0.102,0.102-0.306,0.102-0.408v-0.102
			c0-0.102-0.102-0.102-0.102-0.102s-0.102,0.102-0.102,0.306v0.102v0.102L25.493,27.404L25.493,27.404z"/>
		<path style="fill:#D2D2D2;" d="M24.474,32.398c0.102,0,0.102,0,0.306,0.306c0.102,0.102,0.306,0.306,0.51,0.306h0.102h0.102h0.102
			h0.102c0,0-0.102-0.102-0.306-0.102c-0.102,0-0.102-0.102-0.306-0.102c-0.102,0-0.102-0.102-0.306-0.102
			C24.678,32.092,24.576,32.296,24.474,32.398z"/>
		<path style="fill:#D2D2D2;" d="M26.105,35.863c0.306-0.102,0.306-0.102,0.51-0.306c0.306-0.102,0.306-0.102,0.408-0.102
			c0.306-0.102,0.306-0.102,0.306-0.306c0-0.102-0.102-0.102-0.408-0.102c-0.408,0-0.815,0.306-0.815,0.713V35.863z"/>
		<path style="fill:#D2D2D2;" d="M30.895,32.806c0.102,0,0.306-0.102,0.306-0.102h0.306c0,0,0.102,0,0.102-0.102L31.71,32.5
			c0.306-0.102,0.306-0.102,0.306-0.306c0-0.102-0.102-0.102-0.306-0.102C31.302,32.092,30.997,32.398,30.895,32.806z"/>
		<path style="fill:#010101;" d="M6.537,4.167V4.065V3.963c0-0.102,0-0.102,0.102-0.102c0.306-0.102,0.306-0.102,0.408-0.306
			l0.102-0.102l0,0c0,0,0,0,0,0.102c0,0.102-0.102,0.408-0.306,0.713C6.741,4.575,6.741,4.677,6.537,4.677
			c0,0-0.102-0.102-0.102-0.306L6.537,4.167z"/>
		<path style="fill:#010101;" d="M5.823,3.759l0.102,0.102l0.102,0.102v0.102c0,0.102,0,0.306,0,0.306
			c0,0.306-0.102,0.306-0.306,0.306c0,0,0,0-0.102-0.102L5.314,4.269c-0.102-0.102-0.102-0.306-0.102-0.51l0,0
			c0,0,0-0.102,0.102-0.102h0.102L5.823,3.759z"/>
		<path style="fill:#010101;" d="M6.537,4.982L6.639,4.88h0.102c0.102,0,0.102,0,0.102,0.102c0,0.306-0.102,0.306-0.408,0.917
			C6.333,6.205,6.333,6.307,6.129,6.307c-0.102,0-0.306-0.102-0.408-0.51l0-0.408C5.619,5.084,5.619,4.982,5.619,4.88
			s0.102-0.102,0.102-0.102h0.102c0.102,0,0.102,0.102,0.102,0.102h0.102l0,0L6.537,4.982z"/>
		<path style="fill:#010101;" d="M28.754,4.167l-0.102-0.306V3.759c0-0.102,0-0.102,0.102-0.102s0.306-0.102,0.408-0.306
			l0.102-0.102l0,0c0,0,0,0,0,0.102c0,0.102-0.102,0.408-0.306,0.713c-0.102,0.306-0.306,0.408-0.306,0.408
			C28.754,4.575,28.754,4.473,28.754,4.167L28.754,4.167z"/>
		<path style="fill:#010101;" d="M27.939,3.759l0.306,0.102l0.102,0.102l0,0v0.306v0.306l0,0l0,0c0,0-0.102-0.102-0.306-0.102
			l-0.102-0.306c0,0-0.102-0.102-0.102-0.306c0-0.204,0-0.102,0-0.102l0,0c0,0,0-0.102,0.102-0.102h0.102L27.939,3.759z"/>
		<path style="fill:#010101;" d="M28.754,4.982l0.102-0.102h0.102c0.102,0,0.306,0.102,0.306,0.306c0,0.204-0.102,0.102-0.306,0.408
			l-0.102,0.51c-0.102,0.306-0.306,0.408-0.408,0.408c-0.102,0-0.306-0.102-0.408-0.51c0-0.102-0.102-0.306-0.102-0.408
			c-0.102-0.306-0.102-0.408-0.102-0.51s0-0.102,0.102-0.102h0.102c0.102,0,0.102,0.102,0.102,0.102h0.102l0,0h0.51V4.982z"/>
		<path style="fill:#010101;" d="M5.416,25.875v-0.102l0,0l0,0c0,0,0.102,0,0.102,0.102h0.204c0.306,0.102,0.408,0.102,0.408,0.306
			v0.102v0.102c0,0.102,0,0.102-0.102,0.102l-0.306-0.102l-0.102-0.102L5.416,25.875z"/>
		<path style="fill:#010101;" d="M6.944,26.283l-0.102,0.306l0,0l0,0c0,0-0.102-0.102-0.102-0.306v-0.306
			c0-0.102,0.102-0.102,0.306-0.102c0.102,0,0.102,0,0.306-0.102c0.102-0.102,0.102-0.102,0.102-0.102l0,0l0,0l0,0l-0.102,0.306
			L6.944,26.283z"/>
		<path style="fill:#010101;" d="M6.639,26.996l0.102-0.102c0,0,0,0,0.102,0s0.102,0.102,0.102,0.102
			c0,0.102-0.102,0.306-0.306,0.51c-0.102,0.306-0.306,0.51-0.408,0.51c-0.102,0-0.408-0.306-0.713-0.713
			c0-0.102-0.102-0.306-0.102-0.306c0-0.102,0-0.306,0.102-0.306h0.102l0.102,0.102c0.102,0,0.102,0.102,0.306,0.102
			C6.537,26.996,6.537,26.996,6.639,26.996z"/>
		<path style="fill:#010101;" d="M27.226,25.57l0.102,0.102c0.102,0,0.102,0.102,0.306,0.102c0.102,0.102,0.306,0.102,0.306,0.102
			v0.102v0.102c0,0.102-0.102,0.306-0.102,0.306c-0.102,0-0.102-0.102-0.306-0.408C27.226,25.977,27.226,25.875,27.226,25.57
			L27.226,25.57C27.124,25.57,27.226,25.57,27.226,25.57L27.226,25.57z"/>
		<path style="fill:#010101;" d="M28.856,25.977l-0.306,0.306c-0.102,0.102-0.102,0.306-0.102,0.306s0,0-0.102,0l0,0
			c-0.102,0-0.102,0-0.102-0.102v-0.306v-0.306l0,0c0-0.102,0-0.102,0.102-0.102l0.306-0.102l0.306-0.102c0.102,0,0.102,0,0.102,0
			s0,0,0,0.102c0,0,0,0,0,0.102L28.856,25.977z"/>
		<path style="fill:#010101;" d="M27.633,26.793l0.102,0.102h0.102c0.102,0,0.102,0,0.306-0.102l0.102-0.102c0,0,0,0,0.102,0
			s0.102,0.102,0.102,0.306s-0.102,0.408-0.306,0.713l-0.102,0.306c-0.102,0.102-0.102,0.306-0.306,0.306
			c-0.102,0-0.306-0.102-0.408-0.51c-0.102-0.306-0.306-0.51-0.306-0.713s0-0.306,0.102-0.306
			C27.531,26.793,27.633,26.793,27.633,26.793z"/>
		<path style="fill:#D2D2D2;" d="M6.231,5.288H6.129l0,0l0,0v0.306V5.9c0,0.102,0.102,0.102,0.102,0.102
			c0.102,0,0.102-0.102,0.306-0.306V5.39c0-0.102,0-0.306,0-0.306s0,0,0-0.102l0,0l0,0L6.231,5.288z"/>
		<path style="fill:#D2D2D2;" d="M28.449,5.288h-0.102l0,0l0,0v0.306V5.9c0,0.102,0,0.102,0.102,0.102
			c0.102,0,0.306-0.102,0.306-0.306V5.39c0-0.102,0-0.306,0-0.306s0,0,0-0.102l0,0l0,0L28.449,5.288z"/>
		<path style="fill:#D2D2D2;" d="M6.435,27.302L6.435,27.302H6.333c-0.102,0-0.102,0-0.102,0.102s0.102,0.408,0.306,0.51
			c0,0,0,0,0.102,0c0.102,0,0.102-0.102,0.102-0.408v-0.102l0,0c0-0.102,0-0.102-0.102-0.102l0,0H6.435z"/>
		<path style="fill:#D2D2D2;" d="M27.837,27.404v0.306c0,0.102,0.102,0.306,0.102,0.306c0.102,0,0.102-0.102,0.306-0.408
			c0-0.102,0-0.102,0-0.102c0-0.102,0-0.102-0.102-0.102l0,0h-0.102l0,0C27.837,27.2,27.837,27.2,27.837,27.404L27.837,27.404z"/>
		<path style="fill:#010101;" d="M14.384,15.989h1.223c0.102-0.306,0.408-0.408,0.713-0.408c0.306,0,0.51,0.102,0.713,0.408h1.019
			c0.102-0.306,0.408-0.408,0.713-0.408c0.306,0,0.51,0.102,0.713,0.408h0.917c0.102-0.306,0.408-0.408,0.713-0.408
			c0.306,0,0.51,0.102,0.713,0.408v0.102h1.325v6.115h-1.223v2.446h-1.325v-2.446h-3.669v2.446h-1.325v-2.446h-1.223V15.989z"/>
		<g>
			<rect x="14.996" y="16.499" style="fill:#6B6C6C;" width="7.44" height="5.198"/>
			<path style="fill:#5E5F5F;" d="M18.665,19.047"/>
		</g>
		<circle style="fill:#D2D2D2;stroke:#010101;stroke-width:0.0426;" cx="15.811" cy="17.926" r="0.408"/>
		<circle style="fill:#D2D2D2;stroke:#010101;stroke-width:0.0426;" cx="21.62" cy="17.926" r="0.408"/>
		<path style="fill:#D2D2D2;stroke:#010101;stroke-width:0.0426;" d="M15.811,20.474c-0.102,0-0.408,0.102-0.408,0.408
			c0,0.102,0.102,0.408,0.408,0.408c0.102,0,0.408-0.102,0.408-0.408C16.015,20.576,15.913,20.474,15.811,20.474z"/>
		<circle style="fill:#D2D2D2;stroke:#010101;stroke-width:0.0426;" cx="21.62" cy="20.779" r="0.408"/>
		<path style="fill:#D2D2D2;" d="M16.83,19.251c0.51,0.713,1.019,0.917,1.834,0.917c0.713,0,1.223-0.306,1.733-0.917
			c-0.51-0.51-1.019-0.815-1.733-0.815S17.34,18.843,16.83,19.251z"/>
		<path style="fill:#010101;" d="M17.238,19.251c0.51-0.408,0.917-0.51,1.427-0.51s0.917,0.102,1.427,0.51
			c-0.408,0.408-0.815,0.713-1.427,0.713C18.155,19.964,17.646,19.862,17.238,19.251z"/>
		<path style="fill:#D2D2D2;" d="M17.748,19.251c0.306,0.102,0.51,0.306,0.815,0.306c0.306,0,0.713-0.102,0.815-0.306
			c-0.306-0.102-0.51-0.306-0.815-0.306C18.257,19.047,18.053,19.149,17.748,19.251z"/>
		<g>
			<rect x="14.792" y="16.703" style="fill:#010101;stroke:#010101;stroke-width:0.0142;" width="7.746" height="0.306"/>
			<path style="fill:#010101;stroke:#010101;stroke-width:0.0142;" d="M18.665,16.907"/>
		</g>
		<path style="fill:#D2D2D2;" d="M16.015,16.295v0.713v0.102c0,0.102,0.102,0.306,0.306,0.306c0.306,0,0.306-0.102,0.306-0.306
			v-0.102v-0.51c0-0.306-0.102-0.408-0.306-0.408h-0.102h-0.102c0,0,0,0-0.102,0.102C16.015,16.193,16.015,16.193,16.015,16.295
			L16.015,16.295z"/>
		<path style="fill:#D2D2D2;" d="M18.461,17.009L18.461,17.009c0,0.306,0.102,0.408,0.306,0.408c0.306,0,0.306-0.102,0.306-0.306
			v-0.102v-0.51c0-0.306-0.102-0.408-0.306-0.408c-0.306,0-0.408,0.102-0.408,0.408v0.51H18.461z"/>
		<path style="fill:#D2D2D2;" d="M20.601,16.295v0.713v0.102c0,0.102,0.102,0.306,0.306,0.306c0.306,0,0.306-0.102,0.306-0.306
			v-0.102v-0.51c0-0.306-0.102-0.408-0.306-0.408h-0.102h-0.102c0,0,0,0-0.102,0.102C20.703,16.193,20.601,16.193,20.601,16.295
			L20.601,16.295z"/>
		<rect x="15.913" y="22.614" style="fill:#D2D2D2;" width="0.713" height="0.917"/>
		<rect x="15.913" y="23.735" style="fill:#D2D2D2;" width="0.713" height="0.306"/>
		<rect x="20.703" y="22.614" style="fill:#D2D2D2;" width="0.713" height="0.917"/>
		<rect x="20.703" y="23.735" style="fill:#D2D2D2;" width="0.713" height="0.306"/>
	</g>
</g>
<g>
</g>
<g>
</g>
<g>
</g>
<g>
</g>
<g>
</g>
<g>
</g>
<g>
</g>
<g>
</g>
<g>
</g>
<g>
</g>
<g>
</g>
<g>
</g>
<g>
</g>
<g>
</g>
<g>
</g>
</svg>
