<svg version="1.1" id="Calque_1" xmlns="http://www.w3.org/2000/svg" xmlns:xlink="http://www.w3.org/1999/xlink" x="0px" y="0px"
	 width="156.362px" height="77.622px" viewBox="0 0 156.362 77.622" style="enable-background:new 0 0 156.362 77.622;"
	 xml:space="preserve">
<g>
	<g style="opacity:0.8;">
		<path style="fill:#010101;" d="M155.226,38.712c0,0.473-0.473,0.757-0.757,0.757l0.757,1.23h-0.568l-0.757-1.23h-0.568v1.23
			h-0.568v-2.934h1.23C154.848,37.86,155.226,38.333,155.226,38.712L155.226,38.712z M154.753,38.807
			c0-0.379-0.284-0.473-0.568-0.473h-0.663v0.852h0.663C154.469,39.185,154.753,39.09,154.753,38.807L154.753,38.807z"/>
		<path style="fill:#010101;" d="M151.629,39.374c0-1.325,1.041-2.366,2.366-2.366c1.325,0,2.366,1.041,2.366,2.366
			c0,1.325-1.041,2.366-2.366,2.366C152.671,41.741,151.629,40.7,151.629,39.374L151.629,39.374z M153.996,41.362
			c1.136,0,2.082-0.852,2.082-2.082s-0.852-2.082-2.082-2.082s-2.082,0.852-2.082,2.082C152.008,40.51,152.86,41.362,153.996,41.362
			L153.996,41.362z"/>
		<path style="fill:#010101;" d="M53.477,40.416c0,2.272-1.798,4.07-4.07,4.07c-1.041,0-1.988-0.852-1.988-1.988
			c0-0.947,0.568-1.041,0.568-1.704c0-0.568-0.473-0.852-0.852-0.852c-0.852,0-1.514,0.663-1.514,1.514v10.601
			c0,0.189,0.189,0.284,0.284,0.379l1.041,0.284c0.189,0,0.379,0.189,0.379,0.379v0.852c0,0.189-0.189,0.379-0.379,0.379h-6.72
			c-0.189,0-0.379-0.189-0.379-0.379v-4.827c-1.893,1.988-5.774,5.679-7.761,5.679c-2.177,0-1.988-2.366-3.691-2.366
			c-1.42,0-1.514,2.366-5.584,2.366c-4.354,0-7.951-4.07-7.951-9.276c0-5.111,3.597-9.276,7.951-9.276
			c3.597,0,4.354,1.988,5.206,1.988c0.568,0,0.757-0.473,0.852-1.041c0-0.189,0.189-0.379,0.473-0.379h5.584
			c0.189,0,0.379,0.189,0.379,0.379v0.852c0,0.189-0.189,0.284-0.379,0.379l-1.041,0.284c-0.189,0.095-0.284,0.189-0.284,0.379v9.37
			c0,0.663,0.663,1.136,1.136,1.136c1.136,0,3.597-1.988,5.016-3.313v-6.626c0-0.473-0.379-0.663-0.757-0.663
			c-0.473,0-0.473,0.379-0.946,0.379c-0.568,0-0.757-0.473-0.757-0.757c0-0.757,1.325-2.272,3.407-2.272
			c3.597,0,3.029,2.65,4.259,2.65c1.136,0,1.325-2.65,4.449-2.65C51.584,36.44,53.477,38.239,53.477,40.416L53.477,40.416z
			 M27.922,42.782c0-1.136-1.609-2.272-3.029-2.272c-2.65,0-4.449,2.177-4.449,5.206c0,3.029,1.798,5.206,4.449,5.206
			c1.514,0,3.029-1.136,3.029-2.272V42.782L27.922,42.782z"/>
		<path style="fill:#010101;" d="M55.276,48.555c0,4.543,3.407,5.774,5.679,5.774h11.737c2.65,0,5.206-1.988,5.206-5.111
			c0-4.733-7.288-4.259-7.288-7.004c0-1.041,1.041-1.514,2.366-1.514c0.947,0,2.366,0.473,3.123,0.947
			c0.284,0.189,0.473,0,0.568-0.189l1.798-4.07c0.095-0.189,0-0.473-0.379-0.473h-8.424c-2.272,0-4.354,1.988-4.354,4.449
			c0,4.922,6.342,3.975,6.342,7.288c0,1.23-0.947,2.366-2.366,2.366c-2.745,0-3.975-1.893-4.07-2.934
			c0-0.189-0.284-0.379-0.473-0.284l-1.136,0.473c-0.189,0.095-0.284,0.379-0.189,0.568c0.189,0.284,0.379,0.473,0.379,0.852
			c0,0.757-0.663,1.42-1.42,1.42c-0.757,0-1.325-0.757-1.325-1.42v-24.23c0-0.189-0.189-0.379-0.379-0.379h-6.72
			c-0.189,0-0.379,0.189-0.379,0.379v0.852c0,0.189,0.189,0.284,0.379,0.379l1.041,0.284c0.189,0,0.284,0.189,0.284,0.379
			L55.276,48.555L55.276,48.555L55.276,48.555z"/>
		<path style="fill:#010101;" d="M149.926,37.292v0.852c0,0.189-0.189,0.284-0.379,0.379l-1.041,0.284
			c-0.189,0.095-0.284,0.189-0.284,0.379v17.794c0,4.354-3.691,7.856-7.951,7.856c-2.934,0-5.49-1.325-6.815-3.597
			c-1.798,3.218-7.572,9.938-24.325,9.938c-9.276,0-24.893-4.543-33.128-4.543c-11.169,0-18.551,3.029-26.218,10.79
			c-0.189,0.189-0.379,0.284-0.568,0.095l-14.198-7.856c-0.189-0.095-0.284-0.379-0.095-0.568
			c9.465-8.045,23.095-12.21,32.844-12.21c18.93,0,32.181,9.465,47.798,9.465c13.156,0,17.037-6.626,17.037-8.802
			c0-0.284,0.189-0.379,0.379-0.379h1.325c0.189,0,0.379,0.095,0.379,0.379c0,2.177,1.798,3.786,4.07,3.786
			c2.272,0,3.975-1.798,3.975-4.165v-3.407c0-0.379-0.189-0.663-0.663-0.663c-0.663,0-1.136,1.704-4.543,1.704
			c-4.354,0-7.951-4.07-7.951-9.276c0-5.111,3.597-9.276,7.951-9.276c3.597,0,4.354,1.988,5.206,1.988
			c0.568,0,0.757-0.473,0.852-1.041c0-0.189,0.189-0.379,0.473-0.379h5.584C149.736,36.914,149.926,37.103,149.926,37.292
			L149.926,37.292L149.926,37.292z M142.448,42.782c0-1.136-1.609-2.272-3.029-2.272c-2.65,0-4.449,2.177-4.449,5.206
			c0,3.029,1.798,5.206,4.449,5.206c1.514,0,3.029-1.136,3.029-2.272V42.782L142.448,42.782z"/>
		<path style="fill:#010101;" d="M131.09,35.967c0,3.597-2.177,5.395-4.07,5.395c-2.177,0-1.893-1.514-3.313-1.514
			c-0.852,0-1.609,0.663-1.609,1.514v10.601c0,0.189,0.189,0.284,0.284,0.379l1.041,0.284c0.189,0,0.379,0.189,0.379,0.379v0.852
			c0,0.189-0.189,0.379-0.379,0.379h-6.72c-0.189,0-0.379-0.189-0.379-0.379V41.551c0-0.946-0.663-1.42-1.42-1.42
			s-1.798,0.663-2.84,1.325c-0.095,3.786-3.502,6.626-8.802,6.626c0,0.757,1.704,3.502,5.016,3.502c1.988,0,3.407-0.757,4.354-2.082
			c0.473-0.663,1.609-0.379,1.041,0.757c-0.568,1.136-2.745,4.259-7.477,4.259c-4.354,0-8.14-3.029-8.992-7.193
			c-1.041-0.379-2.177-0.757-2.934-1.325v3.218c0,2.745-1.893,4.827-4.922,4.827h-2.745c-4.07,0-6.626-2.272-6.626-5.868V27.165
			c0-0.189-0.189-0.284-0.284-0.379l-1.041-0.284c-0.189-0.095-0.379-0.189-0.379-0.379v-0.852c0-0.189,0.189-0.379,0.379-0.379
			h6.72c0.189,0,0.379,0.189,0.379,0.379v23.473c0,1.704,1.704,2.366,2.84,2.366c1.325,0,2.84-0.568,2.84-2.272v-4.638l-2.272-1.42
			c-0.379-0.189-0.568-0.473-0.568-0.852v-4.827c0-0.189,0.189-0.379,0.379-0.379h5.016c0.189,0,0.379,0.189,0.379,0.379v6.626
			c0.757,0.473,1.798,1.041,2.65,1.42c0.189-5.016,4.165-8.897,9.181-8.897c2.84,0,4.638,1.325,5.395,2.934
			c1.704-1.325,4.165-2.934,6.247-2.934c2.272,0,2.272,1.893,3.502,1.893c0.379,0,0.757-0.379,0.757-0.757
			c0-0.473-0.284-0.757-0.284-1.23c0-0.852,0.852-1.609,1.798-1.609c1.704,0,2.556,1.798,4.07,1.798
			c0.663,0,1.325-0.663,1.325-1.514s-1.041-2.272-2.082-3.123c-0.757-0.568,0.095-1.609,0.852-1.041
			C129.955,31.897,131.09,33.885,131.09,35.967L131.09,35.967z M108.753,41.551c0-0.568-0.189-1.798-1.798-1.798
			c-1.988,0-3.975,2.272-3.975,6.247C106.671,46.095,108.753,43.066,108.753,41.551L108.753,41.551z"/>
		<path style="fill:#010101;" d="M123.234,20.16c-0.473,0-0.757-0.379-0.757-0.757v-1.609c0-0.663-0.473-1.041-1.041-1.041
			c-0.284,0-0.473,0.095-0.663,0.284c-0.757,0.568-1.609,0.757-2.461,0.379c-0.757-0.284-1.514,0-1.988,0.757
			c-0.379,0.757-0.189,1.514,0.379,2.082c0.757,0.568,1.041,1.42,0.852,2.272c0,0.284,0,0.473,0.095,0.757
			c0.284,0.568,0.947,0.757,1.42,0.379l1.42-0.757c0.379-0.189,0.852-0.095,1.041,0.284c0.189,0.379,0.095,0.852-0.284,1.041
			l-1.42,0.757c-0.568,0.284-0.757,0.947-0.379,1.42c0.095,0.189,0.379,0.379,0.568,0.473c0.757,0.379,1.42,1.041,1.514,1.988
			c0.095,0.757,0.757,1.325,1.609,1.325c0.757,0,1.42-0.663,1.609-1.325c0.189-0.852,0.757-1.609,1.514-1.988
			c0.189-0.095,0.473-0.284,0.568-0.473c0.284-0.568,0.095-1.136-0.379-1.42l-1.42-0.757c-0.379-0.189-0.568-0.757-0.284-1.041
			c0.189-0.379,0.757-0.568,1.041-0.284l1.42,0.757c0.568,0.284,1.136,0.095,1.42-0.379c0.095-0.189,0.189-0.473,0.095-0.757
			c-0.095-0.852,0.189-1.798,0.852-2.272c0.663-0.473,0.757-1.325,0.379-2.082c-0.379-0.757-1.23-0.947-1.988-0.757
			c-0.757,0.379-1.798,0.189-2.461-0.379c-0.189-0.189-0.473-0.284-0.663-0.284c-0.663,0-1.041,0.473-1.041,1.041v1.609
			C124.086,19.782,123.708,20.16,123.234,20.16L123.234,20.16z"/>
		<path style="fill:#010101;" d="M40.794,57.737c-4.259,4.259-10.317,7.099-16.848,7.099C11.074,64.93,0,54.235,0,40.51
			c0-9.276,4.543-17.321,11.358-23.473c0.189-0.189,0.568-0.284,0.757-0.284H41.93c0.284,0,0.473,0.284,0.284,0.568l-9.938,13.062
			c-0.189,0.189-0.473,0.189-0.568,0c-1.893-1.893-5.111-3.029-8.045-3.029c-8.14,0-14.576,8.14-14.576,16.185
			c0,9.654,8.14,17.794,17.984,17.794c4.638,0,9.181-1.798,12.305-4.733C40.605,55.56,41.741,56.79,40.794,57.737L40.794,57.737z"/>
	</g>
	<rect x="3.502" y="0" style="opacity:0.8;fill:#010101;enable-background:new    ;" width="11.831" height="11.831"/>
</g>
<g>
</g>
<g>
</g>
<g>
</g>
<g>
</g>
<g>
</g>
<g>
</g>
<g>
</g>
<g>
</g>
<g>
</g>
<g>
</g>
<g>
</g>
<g>
</g>
<g>
</g>
<g>
</g>
<g>
</g>
</svg>
