<svg version="1.1" id="Calque_1" xmlns="http://www.w3.org/2000/svg" xmlns:xlink="http://www.w3.org/1999/xlink" x="0px" y="0px"
	 width="158.051px" height="70.739px" viewBox="0 0 158.051 70.739" style="enable-background:new 0 0 158.051 70.739;"
	 xml:space="preserve">
<g>
	<polygon style="fill:#010101;" points="26.646,57.46 20.049,57.46 20.049,48.607 15.536,48.607 15.536,70.739 20.049,70.739 
		20.049,60.845 26.646,60.845 26.646,70.739 31.333,70.739 31.333,48.607 26.646,48.607 	"/>
	<polygon style="fill:#010101;" points="136.7,48.607 136.7,51.992 143.036,51.992 143.036,70.739 147.549,70.739 147.549,51.992 
		153.885,51.992 153.885,48.607 	"/>
	<polygon style="fill:#010101;" points="112.398,48.607 107.798,48.607 107.798,70.739 120.99,70.739 120.99,67.354 112.398,67.354 
			"/>
	<path style="fill:#010101;" d="M59.627,67.007c-0.087,0.26-0.26,0.347-0.521,0.347s-0.434-0.087-0.521-0.347l-4.86-18.4h-5.381
		l5.555,20.136c0.26,1.389,1.128,1.909,2.43,1.909h4.253c1.302,0,2.083-0.608,2.43-1.909l5.468-20.136h-4.079L59.627,67.007
		L59.627,67.007z"/>
	<path style="fill:#010101;" d="M0,52.078v15.189c0,2.517,1.302,3.472,3.472,3.472H13.8v-3.385H6.336
		c-1.302,0-1.649-0.347-1.649-1.649V53.728c0-1.389,0.347-1.649,1.649-1.649H13.8v-3.385H3.472C1.042,48.607,0,49.822,0,52.078
		L0,52.078z"/>
	<path style="fill:#010101;" d="M38.71,65.618v-4.774h9.2V57.46h-9.2v-3.819c0-1.302,0.347-1.649,1.649-1.649h7.551v-3.385H37.495
		c-2.43,0-3.472,1.215-3.472,3.472v15.189c0,2.343,1.128,3.472,3.472,3.472h11.457v-3.385h-8.506
		C39.144,67.354,38.71,67.007,38.71,65.618L38.71,65.618z"/>
	<path style="fill:#010101;" d="M81.933,61.279c2.17,0,3.472-0.955,3.472-3.472v-5.902c0-2.343-1.128-3.472-3.472-3.472H69.088
		v22.132h4.6V51.905h5.381c1.475,0,1.649,0.434,1.649,1.649v2.691c0,1.302-0.347,1.649-1.649,1.649h-2.517
		c-0.955,0-1.562,0.521-1.562,1.562c0,0.521,0.26,0.781,0.434,1.215l5.815,9.981h5.728l-6.076-9.287L81.933,61.279L81.933,61.279z"
		/>
	<path style="fill:#010101;" d="M101.549,48.607H91.394c-2.43,0-3.472,1.215-3.472,3.472v15.189c0,2.517,1.389,3.472,3.472,3.472
		h5.121h5.034c2.17,0,3.472-1.042,3.472-3.472V52.078C104.934,49.822,103.892,48.607,101.549,48.607L101.549,48.607L101.549,48.607z
		 M98.684,67.354h-2.17h-2.257c-1.389,0-1.649-0.347-1.649-1.649V53.728c0-1.128,0.174-1.649,1.649-1.649h4.513
		c1.215,0,1.649,0.26,1.649,1.649v11.978C100.42,67.007,99.9,67.354,98.684,67.354L98.684,67.354z"/>
	<path style="fill:#010101;" d="M126.458,65.618v-4.774h9.2V57.46h-9.2v-3.819c0-1.302,0.347-1.649,1.649-1.649h7.551v-3.385
		h-10.415c-2.43,0-3.472,1.215-3.472,3.472v15.189c0,2.343,1.128,3.472,3.472,3.472h11.37v-3.385h-8.506
		C126.806,67.354,126.458,67.007,126.458,65.618L126.458,65.618z"/>
	<path style="fill:#010101;" d="M115.303,6.336H90.74c-0.608,0-1.042-0.174-1.042-1.042V1.649C89.699,0.608,89.178,0,88.049,0
		H59.928c-1.042,0-1.649,0.521-1.649,1.649v3.645c0,0.781-0.434,1.042-1.042,1.042H41.181c-1.215,0-1.909,0.521-2.343,1.389
		l-7.811,15.362c-0.087,0.174-0.174,0.434-0.174,0.608c0,0.608,0.434,1.389,1.562,1.389h24.91c0.781,0,1.042,0.347,1.042,1.042
		v3.645c0,1.128,0.608,1.649,1.649,1.649h14.061h14.061c0.955,0,1.649-0.521,1.649-1.649v-3.645c0-0.694,0.347-1.042,1.042-1.042
		h15.623c1.042,0,1.823-0.347,2.43-1.302l7.725-15.102c0.174-0.347,0.347-0.521,0.347-0.868
		C116.865,6.683,115.997,6.336,115.303,6.336L115.303,6.336L115.303,6.336z M109.14,12.412l-3.732,7.291
		c-0.26,0.434-0.608,0.521-0.955,0.521H85.88c-0.781,0-1.042,0.347-1.042,1.042v4.166c0,0.694-0.347,1.042-1.042,1.042h-9.721
		h-9.721c-0.608,0-1.042-0.26-1.042-1.042v-4.166c0-0.781-0.347-1.042-1.042-1.042h-22.74c-0.521,0-0.955-0.347-0.955-0.781
		c0-0.174,0-0.26,0.087-0.434l3.732-7.291c0.174-0.26,0.434-0.434,0.955-0.434h18.921c0.608,0,1.042-0.26,1.042-1.042V6.076
		c0-0.694,0.347-1.042,1.042-1.042h19.442c0.694,0,1.042,0.347,1.042,1.042v4.166c0,0.694,0.347,1.042,1.042,1.042h22.306
		c0.694,0,0.955,0.521,0.955,0.781C109.227,12.064,109.227,12.238,109.14,12.412L109.14,12.412z"/>
	<path style="fill:#010101;" d="M95.299,5.47c0-0.434-0.347-0.521-0.608-0.521h-0.694v1.649h0.26V5.904h0.347l0.521,0.694h0.26
		l-0.521-0.781C95.126,5.817,95.299,5.731,95.299,5.47L95.299,5.47L95.299,5.47z M94.692,5.644h-0.521V5.123h0.521
		c0.174,0,0.434,0,0.434,0.26C95.126,5.557,95.039,5.644,94.692,5.644L94.692,5.644z"/>
	<path style="fill:#010101;" d="M94.518,4.255c-0.868,0-1.562,0.694-1.562,1.562S93.65,7.38,94.518,7.38l0,0
		c0.868,0,1.562-0.694,1.562-1.562S95.386,4.255,94.518,4.255L94.518,4.255L94.518,4.255z M94.518,7.119L94.518,7.119
		c-0.694,0-1.302-0.521-1.302-1.302c0-0.694,0.521-1.302,1.302-1.302c0.694,0,1.302,0.521,1.302,1.302
		C95.82,6.512,95.213,7.119,94.518,7.119L94.518,7.119z"/>
	<path style="fill:#010101;" d="M157.27,49.822c0-0.434-0.347-0.521-0.608-0.521h-0.694v1.649h0.26v-0.694h0.347l0.521,0.694h0.26
		l-0.521-0.781C157.097,50.256,157.27,50.169,157.27,49.822L157.27,49.822L157.27,49.822z M156.576,50.169h-0.434v-0.608h0.521
		c0.174,0,0.434,0,0.434,0.26C157.097,49.995,157.01,50.169,156.576,50.169L156.576,50.169z"/>
	<path style="fill:#010101;" d="M156.489,48.694c-0.868,0-1.562,0.694-1.562,1.562c0,0.868,0.694,1.562,1.562,1.562l0,0
		c0.868,0,1.562-0.694,1.562-1.562C158.051,49.388,157.27,48.694,156.489,48.694L156.489,48.694L156.489,48.694z M156.489,51.471
		L156.489,51.471c-0.694,0-1.302-0.521-1.302-1.302c0-0.694,0.521-1.302,1.302-1.302s1.302,0.521,1.302,1.302
		C157.791,50.95,157.183,51.471,156.489,51.471L156.489,51.471z"/>
</g>
<g>
</g>
<g>
</g>
<g>
</g>
<g>
</g>
<g>
</g>
<g>
</g>
<g>
</g>
<g>
</g>
<g>
</g>
<g>
</g>
<g>
</g>
<g>
</g>
<g>
</g>
<g>
</g>
<g>
</g>
</svg>
