<svg version="1.1" id="dhl" xmlns="http://www.w3.org/2000/svg" xmlns:xlink="http://www.w3.org/1999/xlink" x="0px" y="0px"
	 width="185px" height="40.886px" viewBox="0 0 185 40.886" style="enable-background:new 0 0 185 40.886;" xml:space="preserve">
<g>
	<g>
		<polygon style="fill:#C5C4C4;" points="185,0 185,40.886 0,40.886 0,0 		"/>
		<path style="fill:#3A3A39;" d="M32.523,7.349l-5.829,8.025c0,0,30.664,0,32.185,0c1.605,0,1.605,0.676,0.845,1.689
			c-0.845,1.098-2.112,2.957-2.957,4.139c-0.422,0.507-1.183,1.605,1.267,1.605c2.703,0,13.178,0,13.178,0s2.112-2.872,3.97-5.322
			c2.45-3.295,0.253-10.137-8.447-10.137C58.795,7.349,32.523,7.349,32.523,7.349L32.523,7.349z"/>
		<path style="fill:#3A3A39;" d="M24.16,33.452l11.826-16.05c0,0,13.178,0,14.699,0c1.605,0,1.605,0.676,0.845,1.689
			c-0.845,1.098-2.112,2.957-2.957,4.055c-0.422,0.507-1.183,1.605,1.267,1.605c2.703,0,19.683,0,19.683,0
			c-1.605,2.196-6.927,8.701-16.557,8.701C45.363,33.452,24.16,33.452,24.16,33.452L24.16,33.452z"/>
		<path style="fill:#3A3A39;" d="M92.162,24.751l-6.42,8.701H68.763l6.42-8.701H92.162L92.162,24.751z"/>
		<polygon style="fill:#3A3A39;" points="118.265,22.808 76.703,22.808 88.023,7.349 105.087,7.349 98.582,16.219 106.1,16.219 
			112.605,7.349 129.584,7.349 		"/>
		<path style="fill:#3A3A39;" d="M116.829,24.751l-6.42,8.701h-16.98l6.42-8.701H116.829L116.829,24.751z"/>
		<polygon style="fill:#3A3A39;" points="0,28.299 25.005,28.299 23.653,30.073 0,30.073 		"/>
		<polygon style="fill:#3A3A39;" points="0,24.751 27.454,24.751 26.187,26.694 0,26.694 		"/>
		<polygon style="fill:#3A3A39;" points="0,31.678 22.47,31.678 21.119,33.452 0,33.452 		"/>
		<polygon style="fill:#3A3A39;" points="185,30.073 160.164,30.073 161.432,28.299 185,28.299 		"/>
		<polygon style="fill:#3A3A39;" points="185,33.452 157.63,33.452 158.897,31.678 185,31.678 		"/>
		<polygon style="fill:#3A3A39;" points="163.966,24.751 185,24.751 185,26.694 162.614,26.694 		"/>
		<path style="fill:#3A3A39;" d="M153.153,7.349l-11.404,15.459h-17.993L135.16,7.349H153.153L153.153,7.349z"/>
		<path style="fill:#3A3A39;" d="M122.32,24.751c0,0-1.267,1.689-1.774,2.534c-2.112,2.872-0.253,6.251,6.674,6.251
			c8.025,0,27.285,0,27.285,0l6.42-8.701H122.32V24.751z"/>
	</g>
</g>
</svg>
