<svg version="1.1" id="Calque_1" xmlns="http://www.w3.org/2000/svg" xmlns:xlink="http://www.w3.org/1999/xlink" x="0px" y="0px"
	 width="90.89px" height="92.578px" viewBox="0 0 90.89 92.578" style="enable-background:new 0 0 90.89 92.578;"
	 xml:space="preserve">
<g>
	<path style="fill:#5E5E5E;" d="M4.956,25.608c1.868-4.141,4.628-7.795,7.714-11.125C19.734,7.013,28.341,2.304,38.492,0.68
		c14.21-2.274,26.959,1.137,38.002,10.556c0.731,0.65,0.893,0.974,0.081,1.705c-3.898,3.816-7.714,7.714-11.612,11.531
		c-0.406,0.406-0.65,0.893-1.38,0.244c-9.663-8.851-25.497-8.77-35.729,0.812c-3.573,3.248-6.009,7.227-7.714,11.774
		c-0.244-0.162-0.487-0.325-0.731-0.487C14.7,33.079,9.828,29.344,4.956,25.608z"/>
	<path style="fill:#818181;" d="M20.14,55.328c1.462,3.492,3.086,6.902,5.684,9.663c6.496,7.227,14.616,10.313,24.279,9.257
		c4.547-0.487,8.526-1.949,12.424-4.385c0.406,0.325,0.731,0.731,1.137,0.974c4.547,3.492,8.932,6.983,13.479,10.475
		c-4.953,4.71-10.8,7.877-17.377,9.501c-15.428,3.898-29.801,1.462-42.387-8.526c-5.197-4.141-9.338-9.257-12.261-15.266
		C9.99,63.205,15.024,59.307,20.14,55.328z"/>
	<path style="fill:#7D7D7D;" d="M77.062,81.475C72.515,77.983,68.13,74.492,63.583,71c-0.406-0.325-0.731-0.65-1.137-0.974
		c3.004-2.274,5.522-5.116,7.227-8.526c0.65-1.462,1.137-2.842,1.624-4.304c0.325-1.056,0.244-1.462-1.056-1.462
		c-7.471,0.081-14.941,0-22.412,0c-1.624,0-1.624,0-1.624-1.705c0-5.116,0-10.15,0-15.266c0-0.974,0.162-1.38,1.299-1.38
		c13.804,0.081,27.527,0,41.331,0c0.731,0,1.218,0.081,1.38,0.974c1.705,12.018,0.325,23.548-5.928,34.186
		C82.34,76.034,79.986,79.039,77.062,81.475z"/>
	<path style="fill:#BABABA;" d="M20.14,55.328c-5.116,3.898-10.069,7.877-15.185,11.774c-2.436-4.628-3.898-9.501-4.547-14.697
		c-1.137-8.851,0.081-17.458,3.898-25.578c0.244-0.487,0.487-0.893,0.731-1.299c4.872,3.735,9.663,7.471,14.535,11.206
		c0.244,0.162,0.487,0.325,0.731,0.487C18.191,43.31,18.273,49.319,20.14,55.328z"/>
</g>
<g>
</g>
<g>
</g>
<g>
</g>
<g>
</g>
<g>
</g>
<g>
</g>
<g>
</g>
<g>
</g>
<g>
</g>
<g>
</g>
<g>
</g>
<g>
</g>
<g>
</g>
<g>
</g>
<g>
</g>
</svg>
