<svg version="1.1" id="heineken" xmlns="http://www.w3.org/2000/svg" xmlns:xlink="http://www.w3.org/1999/xlink" x="0px" y="0px"
	 width="159.097px" height="123.551px" viewBox="0 0 159.097 123.551" style="enable-background:new 0 0 159.097 123.551;"
	 xml:space="preserve">
<g>
	<g>
		<polygon style="fill:#616262;" points="75.117,13.09 61.322,13.09 72.399,21.246 68.169,34.437 79.447,26.281 90.624,34.437 
			86.395,21.246 97.472,13.09 83.676,13.09 79.447,0 		"/>
		<path style="fill:#010101;" d="M155.17,83.375l3.927-13.191c-5.236-4.128-5.035-10.674,0-14.601l-3.927-13.191l-25.576-5.337
			v6.142H29.503v-6.142L3.927,42.392L0,55.583c5.035,3.826,5.236,10.271,0,14.601l3.927,13.191l25.576,5.236v-6.243h100.091v6.243
			L155.17,83.375L155.17,83.375L155.17,83.375z"/>
		<path style="fill:#FFFFFF;" d="M153.659,81.663l3.122-10.976c-4.733-4.128-4.733-11.681,0-15.809l-3.122-10.976l-22.254-4.431
			v5.639H27.489v-5.639L5.235,43.903L2.113,54.879c4.733,4.128,4.733,11.58,0,15.809l3.122,10.976l22.254,4.531v-5.639h103.917
			v5.639L153.659,81.663L153.659,81.663z"/>
		<path style="fill:#010101;" d="M152.854,78.944l2.215-7.955c-4.128-4.128-4.531-11.479,0-16.111l-2.215-7.955H6.041l-2.215,7.955
			c4.531,4.632,4.128,12.083,0,16.111l2.215,7.955H152.854L152.854,78.944z"/>
		<polygon style="fill:#010101;" points="151.243,45.312 133.218,41.587 133.218,45.312 		"/>
		<polygon style="fill:#010101;" points="133.218,80.556 133.218,84.181 151.243,80.556 		"/>
		<polygon style="fill:#010101;" points="7.652,80.556 25.676,84.181 25.676,80.556 		"/>
		<polygon style="fill:#010101;" points="25.676,45.312 25.676,41.587 7.652,45.312 		"/>
		<path style="fill:#FFFFFF;" d="M42.694,64.142l-1.41,0.503c-1.309,0.503-1.913,0.604-2.215-0.302
			c-0.403-1.007,0-4.229,1.712-4.733c1.813-0.604,2.92,0.403,3.424,2.115c0.201,0.604,0.201,1.41-0.101,1.712
			C43.801,63.639,43.197,63.941,42.694,64.142L42.694,64.142z M44.506,65.955c1.813-0.604,3.424-1.51,3.927-1.813
			c0.906-0.604,1.007-1.41,0.604-2.316c-1.309-2.92-4.128-5.84-8.861-4.934c-3.826,0.705-6.545,4.128-6.545,7.955
			c0,4.833,2.92,7.653,6.545,8.559c3.424,0.806,7.552-0.806,9.163-3.726c0.302-0.604-0.503-1.813-1.813-1.813
			c-0.806,0.906-2.215,1.913-3.323,2.316c-1.007,0.403-4.128,0.604-5.035-1.813c-0.201-0.604,0-0.705,0.503-0.806
			C40.176,67.365,42.593,66.66,44.506,65.955L44.506,65.955z"/>
		<path style="fill:#FFFFFF;" d="M120.631,64.142l-1.41,0.503c-1.309,0.503-1.913,0.604-2.215-0.302
			c-0.403-1.007,0-4.229,1.712-4.733c1.813-0.604,2.92,0.403,3.424,2.115c0.201,0.604,0.201,1.41-0.101,1.712
			C121.638,63.639,121.034,63.941,120.631,64.142L120.631,64.142z M122.343,65.955c1.813-0.604,3.424-1.51,3.927-1.813
			c0.906-0.604,1.007-1.41,0.604-2.316c-1.309-2.92-4.128-5.84-8.861-4.934c-3.826,0.705-6.545,4.128-6.545,7.955
			c0,4.833,2.92,7.653,6.545,8.559c3.424,0.806,7.552-0.806,9.163-3.726c0.302-0.604-0.503-1.813-1.813-1.813
			c-0.806,0.906-2.215,1.913-3.323,2.316c-1.007,0.403-4.128,0.604-5.035-1.813c-0.201-0.604,0-0.705,0.503-0.806
			C118.114,67.365,120.43,66.66,122.343,65.955L122.343,65.955z"/>
		<path style="fill:#FFFFFF;" d="M86.899,64.142l-1.41,0.503c-1.309,0.503-1.913,0.604-2.215-0.302
			c-0.403-1.007,0-4.229,1.712-4.733c1.813-0.604,2.92,0.403,3.424,2.115c0.201,0.604,0.201,1.41-0.101,1.712
			C87.906,63.639,87.402,63.941,86.899,64.142L86.899,64.142z M88.711,65.955c1.813-0.604,3.424-1.51,3.927-1.813
			c0.906-0.604,1.007-1.41,0.604-2.316c-1.309-2.92-4.128-5.84-8.861-4.934c-3.826,0.705-6.545,4.128-6.545,7.955
			c0,4.833,2.92,7.653,6.545,8.559c3.424,0.806,7.552-0.806,9.163-3.726c0.302-0.604-0.503-1.813-1.813-1.813
			c-0.806,0.906-2.215,1.913-3.323,2.316c-1.007,0.403-4.128,0.604-5.035-1.813c-0.201-0.604,0-0.705,0.503-0.806
			C84.381,67.365,86.697,66.66,88.711,65.955L88.711,65.955z"/>
		<path style="fill:#FFFFFF;" d="M31.517,68.271V56.288c0-1.712,0.201-2.215,0.705-2.417c0.403-0.101,0.806-0.403,1.007-0.503
			c0.201-0.101,0.302-0.302,0.201-0.806c-0.101-0.604-0.101-0.906-0.302-0.906c-0.101,0-0.302,0-0.604,0c-0.705,0-7.351,0-7.451,0
			h-0.605c-0.101,0-0.201,0.302-0.302,0.906c-0.101,0.705,0,0.806,0.201,0.906c0.201,0.101,0.604,0.302,0.806,0.503
			c0.503,0.302,0.604,0.705,0.604,2.417v2.92c0,0.302-0.201,0.503-0.503,0.503h-4.128c-0.302,0-0.503-0.201-0.503-0.503v-2.92
			c0-1.712,0.201-2.215,0.604-2.417c0.302-0.101,0.604-0.403,0.806-0.503c0.403-0.201,0.101-1.611-0.101-1.813
			c-0.101-0.201-0.604-0.101-0.604-0.101h-7.453c0,0-0.503,0-0.604,0.101c-0.302,0.101-0.503,1.712-0.201,1.813
			c0.201,0.101,0.705,0.302,1.007,0.503c0.604,0.302,0.806,0.705,0.806,2.417v11.983c0,1.813-0.503,2.115-1.007,2.417
			c-0.403,0.201-0.705,0.201-0.906,0.604c-0.201,0.302,0,1.813,0.302,1.913c0.101,0.101,0.604,0.101,0.604,0.101h7.652
			c0,0,0.503,0,0.604-0.101c0.302-0.101,0.503-1.712,0.302-1.913c-0.201-0.302-0.604-0.302-0.906-0.604
			c-0.604-0.302-1.007-0.604-1.007-2.417v-4.733c0-0.302,0.201-0.503,0.503-0.503h4.128c0.302,0,0.503,0.201,0.503,0.503v4.733
			c0,1.813-0.503,2.115-1.007,2.417c-0.201,0.101-0.906,0.403-1.007,0.604c-0.201,0.201,0,1.813,0.302,1.913
			c0.101,0.101,0.503,0.101,0.503,0.101h7.854c0,0,0.503,0,0.503-0.101c0.302-0.101,0.503-1.712,0.302-1.913
			c-0.201-0.302-0.604-0.302-0.906-0.604C32.02,70.385,31.517,70.083,31.517,68.271L31.517,68.271z"/>
		<path style="fill:#FFFFFF;" d="M56.892,68.573c0,0,0-10.17,0-10.573s-0.201-0.604-0.604-0.604s-5.337,0-5.337,0
			c-0.403,0-0.503,0.101-0.604,0.503s0,0.604-0.101,1.007c0,0.403,0.201,0.503,0.604,0.604c0.101,0.101,0.302,0.201,0.403,0.302
			c0.403,0.201,0.604,0.806,0.604,1.813v6.948c0,1.41-0.503,1.913-0.906,2.115c-0.101,0.101-0.302,0.201-0.503,0.302
			c-0.403,0.201-0.503,0.403-0.403,0.705c0,0.201,0,0.604,0.101,1.007s0.201,0.503,0.705,0.503h6.948
			c0.503,0,0.604-0.101,0.705-0.503c0.101-0.403,0.101-0.806,0.101-1.007c0.101-0.403,0-0.604-0.403-0.705
			c-0.201-0.101-0.302-0.201-0.503-0.201C57.496,70.587,56.892,69.983,56.892,68.573L56.892,68.573z"/>
		<path style="fill:#FFFFFF;" d="M53.972,56.389c1.611,0,2.819-1.208,2.819-2.719s-1.309-2.719-2.819-2.719
			c-1.611,0-2.819,1.208-2.819,2.719C51.152,55.281,52.36,56.389,53.972,56.389L53.972,56.389z"/>
		<path style="fill:#FFFFFF;" d="M66.659,62.934c0-1.611,0.906-2.517,1.913-2.618c0.705-0.101,1.611,0.403,1.611,1.611
			c0,1.007,0,5.84,0,8.257c0,2.316,1.913,3.222,3.524,3.222c1.712,0,3.021-0.705,3.726-2.014c0.201-0.403,0-0.705-0.302-0.906
			c-0.302-0.302-0.503-0.503-0.806-0.302c-0.503,0.201-1.208,1.007-1.208-0.302s0-5.337,0-8.458c0-2.719-1.309-3.927-2.719-4.33
			c-1.712-0.604-3.826,0.403-4.833,0.806c-0.604,0.302-0.806,0.403-0.806,0.403s-0.201-0.201-0.201-0.403
			c-0.201-0.403-0.201-0.604-0.604-0.604h-5.135c-0.403,0-0.503,0.101-0.604,0.503c-0.101,0.403,0,0.604-0.101,1.007
			c0,0.403,0.201,0.503,0.604,0.604c0.101,0.101,0.302,0.201,0.403,0.302c0.403,0.201,0.604,0.806,0.604,1.813v7.149
			c0,1.41-0.604,1.913-0.906,2.115c-0.101,0.101-0.302,0.201-0.503,0.302c-0.403,0.201-0.503,0.403-0.403,0.705
			c0,0.201,0,0.604,0.101,1.007c0.101,0.403,0.201,0.503,0.705,0.503h6.847c0.503,0,0.604-0.101,0.705-0.503
			c0.101-0.403,0.101-0.806,0.101-1.007c0.101-0.403,0-0.604-0.403-0.705c-0.201-0.101-0.302-0.201-0.503-0.201
			c-0.403-0.201-0.906-0.604-0.906-2.115L66.659,62.934L66.659,62.934z"/>
		<path style="fill:#FFFFFF;" d="M134.829,62.934c0-1.611,0.906-2.517,1.913-2.618c0.705-0.101,1.611,0.403,1.611,1.611
			c0,1.007,0,5.84,0,8.257c0,2.316,1.913,3.222,3.524,3.222c1.712,0,3.021-0.705,3.726-2.014c0.201-0.403,0-0.705-0.302-0.906
			c-0.302-0.302-0.503-0.503-0.806-0.302c-0.503,0.201-1.208,1.007-1.208-0.302s0-5.337,0-8.458c0-2.719-1.309-3.927-2.719-4.33
			c-1.712-0.604-3.826,0.403-4.833,0.806c-0.604,0.302-0.806,0.403-0.806,0.403s-0.201-0.201-0.201-0.403
			c-0.201-0.403-0.201-0.604-0.604-0.604h-5.135c-0.403,0-0.503,0.101-0.604,0.503s0,0.604-0.101,1.007
			c0,0.403,0.201,0.503,0.604,0.604c0.101,0.101,0.302,0.201,0.403,0.302c0.403,0.201,0.604,0.806,0.604,1.813v7.149
			c0,1.41-0.604,1.913-0.906,2.115c-0.101,0.101-0.302,0.201-0.503,0.302c-0.403,0.201-0.503,0.403-0.403,0.705
			c0,0.201,0,0.604,0.101,1.007s0.201,0.503,0.705,0.503h6.847c0.503,0,0.604-0.101,0.705-0.503
			c0.101-0.403,0.101-0.806,0.101-1.007c0.101-0.403,0-0.604-0.403-0.705c-0.201-0.101-0.302-0.201-0.503-0.201
			c-0.403-0.201-0.906-0.604-0.906-2.115L134.829,62.934L134.829,62.934z"/>
		<path style="fill:#FFFFFF;" d="M111.569,70.889c-0.201-0.101-1.208-0.201-1.813-1.41l-3.826-6.948l2.316-2.215
			c0,0,0.604-0.604,1.007-0.906c0.503-0.302,1.007-0.503,1.208-0.604c0.201,0,0.403-0.201,0.302-1.108
			c-0.101-0.806-0.201-0.806-0.403-0.806c-0.101,0-0.503,0-0.503,0s-1.611,0-2.92,0s-3.021,0-3.021,0s-0.403,0-0.503,0
			c-0.201,0-0.403,0.101-0.403,0.806c-0.101,0.705,0,0.906,0.201,1.007s0.403,0.201,0.604,0.302
			c0.403,0.201,0.503,0.503,0.101,0.806c-0.302,0.302-1.611,1.712-1.611,1.712l-1.611,1.309v-10.17
			c-0.101-0.806-0.302-1.208-1.208-1.208h-4.934c-0.403,0-0.604,0.101-0.604,0.503c-0.101,0.403-0.101,0.604-0.101,0.906
			s0.201,0.503,0.604,0.604c0.101,0.101,0.403,0.201,0.604,0.302c0.604,0.302,0.705,0.604,0.705,1.913v12.889
			c0,1.41-0.503,1.913-0.806,2.115c-0.101,0.101-0.302,0.201-0.503,0.302c-0.403,0.201-0.503,0.403-0.403,0.705
			c0,0.201,0,0.604,0.101,1.007s0.201,0.503,0.705,0.503h6.847c0.503,0,0.604-0.101,0.705-0.503
			c0.101-0.403,0.101-0.806,0.101-1.007c0.101-0.403,0-0.604-0.403-0.705c-0.201-0.101-0.302-0.201-0.503-0.201
			c-0.806-0.403-1.007-1.208-1.007-2.517v-0.906l1.41-1.108l3.625,6.646c0.201,0.403,0.302,0.503,0.705,0.503h4.33
			c0.503,0,0.604-0.101,0.705-0.503c0.101-0.403,0.101-0.806,0.101-1.007C112.072,71.292,111.972,71.09,111.569,70.889
			L111.569,70.889z"/>
		<path style="fill:#FFFFFF;" d="M143.59,55.281c-1.41,0-2.417-1.108-2.417-2.417s1.108-2.417,2.417-2.417
			c1.41,0,2.417,1.108,2.417,2.417C146.007,54.073,144.899,55.281,143.59,55.281L143.59,55.281z M140.468,52.764
			c0,1.712,1.41,3.021,3.021,3.021c1.712,0,3.021-1.41,3.021-3.021c0-1.712-1.41-3.021-3.021-3.021
			C141.878,49.642,140.468,51.052,140.468,52.764L140.468,52.764z"/>
		<path style="fill:#FFFFFF;" d="M143.691,52.26c-0.302,0-0.604,0-0.604,0v-0.705c0,0,0.302,0,0.604,0s0.604,0.101,0.604,0.403
			C144.093,52.059,143.892,52.26,143.691,52.26L143.691,52.26z M142.382,54.274h0.705v-1.309c0,0,0.101,0,0.302,0
			c0.403,0,0.604,0.101,0.705,0.503c0.101,0.302,0.101,0.503,0.302,0.806c0.403,0,0.503,0,0.705,0
			c-0.101-0.201-0.201-0.503-0.302-0.806c-0.101-0.403-0.201-0.604-0.503-0.705c0.302-0.101,0.503-0.403,0.503-0.806
			c0-0.705-0.705-0.906-1.007-0.906s-1.611,0-1.611,0L142.382,54.274L142.382,54.274z"/>
		<path style="fill:#555555;" d="M95.458,121.74c0.101,0,0.302,0,0.302,0v-0.101c0-0.101,0.101-0.302,0.101-0.403
			c0.101-0.302,0.201-0.604,0.201-0.806c0-0.101,0-0.201,0-0.302s0-0.302,0-0.403c0-0.302,0-0.503,0-0.604l0,0l0,0
			c0-0.101,0.101-0.101,0.101-0.101l0,0h0.101c0.101,0,0.101,0,0.201-0.101v-0.101c0-0.201-0.101-0.604-0.201-1.208
			c-0.201-0.705-0.503-1.812-0.503-1.812v-0.101l0.503-0.302c0-0.101-0.101-0.201-0.201-0.403c-0.101-0.302-0.302-0.604-0.503-0.806
			c-0.503-0.604-0.806-1.208-0.806-1.208l-0.101-0.101l0.403-0.302c-0.201-0.201-0.604-0.503-1.007-0.806
			c-0.302-0.302-0.604-0.503-0.906-0.604c-0.302-0.201-0.604-0.403-0.806-0.503c-0.302-0.101-0.604-0.201-1.007-0.201
			c-0.604,0-1.108,0.101-1.51,0.302c-0.201,0.101-0.403,0.101-0.503,0.201c-0.101,0-0.201,0.101-0.201,0.101h-0.101l-0.604-0.101
			v-0.101c-0.403-0.604-0.604-0.906-0.604-1.108c-0.101-0.101-0.101-0.101-0.101-0.201l0,0c-0.101,0-0.201-0.101-0.201-0.101
			c-0.101,0-0.201,0-0.302,0.101s-0.201,0.101-0.201,0.201c0,0.101-0.101,0.201,0,0.201l0,0c0,0,0,0.101,0.101,0.201
			c0.101,0.201,0.302,0.604,0.604,1.108v0.101v0.101c0,0-0.101,0.201-0.201,0.302c0,0.101-0.101,0.201-0.101,0.201s0,0,0,0.101l0,0
			l0,0l0,0l0,0l0,0c-0.101,0-0.302,0.201-0.604,0.503c-0.302,0.302-0.604,0.705-0.906,1.41c-0.201,0.403-0.201,0.705-0.302,1.208
			c0,0.503,0,0.906,0,1.41c0,0.604,0.101,1.208,0.201,1.51h0.403v0.101c0,0,0.302,0.705,0.604,1.41
			c0.201,0.503,0.604,1.007,0.705,1.309l0.403-0.201l0.101,0.101c0,0,0.201,0.201,0.503,0.503s0.604,0.604,0.806,0.705
			c0.101,0.101,0.201,0.201,0.403,0.302c0.201,0.101,0.403,0.201,0.503,0.302c0.201,0.101,0.503,0.302,0.604,0.302l0.201-0.201
			l0.101,0.101c0,0,0,0,0.101,0c0,0,0.101,0,0.201,0.101c0.201,0.101,0.403,0.201,0.604,0.302c0.503,0.101,0.806,0.201,1.108,0.302
			h0.101c0,0,0,0,0-0.101s0.101-0.201,0.101-0.201v-0.101h0.101c0,0,0.503,0.101,0.906,0.201c0.302,0.101,0.503,0.101,0.604,0.201
			c0.101,0,0.101,0,0.201,0c0-0.101,0-0.101,0.101-0.201c0.101-0.201,0.101-0.403,0.201-0.604c0.101-0.201,0.201-0.503,0.201-0.604
			c0.101-0.201,0.101-0.302,0.101-0.302L95.458,121.74L95.458,121.74L95.458,121.74z"/>
		<path style="fill:#555555;" d="M65.954,123.049c0,0,0,0.101,0.101,0.201c0,0,0,0,0,0.101h0.101c0.302,0,0.604-0.101,1.108-0.302
			c0.302-0.101,0.604-0.201,0.604-0.302c0.101,0,0.101-0.101,0.201-0.101h0.101l0.101-0.101l0.201,0.201
			c0.101-0.101,0.302-0.201,0.604-0.302c0.201-0.101,0.403-0.201,0.503-0.302c0.201-0.101,0.302-0.201,0.403-0.302
			c0.302-0.201,0.604-0.604,0.806-0.705c0.302-0.302,0.403-0.503,0.403-0.503l0.101-0.101l0.403,0.201
			c0.101-0.201,0.604-0.806,0.705-1.309c0.403-0.604,0.604-1.41,0.604-1.41v-0.101h0.403c0-0.201,0.101-0.806,0.201-1.51
			c0-0.503,0-0.906,0-1.41c0-0.503-0.101-0.906-0.302-1.208c-0.302-0.604-0.604-1.108-0.906-1.41s-0.604-0.503-0.604-0.503l0,0l0,0
			l0,0l0,0c0,0,0,0,0-0.101s-0.101-0.101-0.101-0.201c-0.101-0.201-0.201-0.302-0.201-0.302v-0.101v-0.101
			c0.403-0.604,0.604-0.906,0.604-1.108c0.101-0.101,0.101-0.201,0.101-0.201l0,0c0-0.101,0-0.201,0-0.201
			c0-0.101-0.101-0.101-0.201-0.201c-0.101-0.101-0.201-0.101-0.302-0.101s-0.201,0-0.201,0.101l0,0c0,0-0.101,0.101-0.101,0.201
			c-0.101,0.201-0.403,0.503-0.604,1.108v0.101l-0.604,0.101l0,0c0,0-0.101,0-0.201-0.101c-0.101,0-0.302-0.101-0.503-0.201
			c-0.403-0.101-0.906-0.302-1.51-0.302c-0.403,0-0.705,0.101-1.007,0.201c-0.201,0.101-0.604,0.302-0.806,0.503
			c-0.302,0.201-0.604,0.503-0.906,0.604c-0.503,0.403-0.806,0.604-1.007,0.806l0.403,0.302l-0.101,0.101
			c0,0-0.503,0.604-0.806,1.208c-0.201,0.302-0.403,0.604-0.503,0.806c-0.101,0.201-0.101,0.302-0.201,0.403l0.503,0.302v0.101
			c0,0-0.403,1.007-0.503,1.812c-0.101,0.604-0.201,1.007-0.201,1.208v0.101c0.101,0,0.201,0,0.201,0.101h0.101l0,0l0,0
			l-0.101,0.101h0.201l0,0c0,0.101,0,0.302,0,0.604c0,0.101,0,0.302,0,0.403s0,0.201,0,0.302c0.101,0.201,0.101,0.604,0.201,0.806
			c0,0.201,0.101,0.302,0.101,0.403s0,0.101,0,0.101h0.403v0.101c0,0,0.201,0.503,0.302,0.906c0.101,0.201,0.201,0.503,0.201,0.604
			s0,0.101,0.101,0.201c0.101,0,0.101,0,0.201,0c0.201,0,0.403-0.101,0.604-0.201c0.503-0.101,0.906-0.201,0.906-0.201h0.101
			L65.954,123.049L65.954,123.049z"/>
		<path style="fill:#555555;" d="M106.232,117.611C106.131,117.611,106.131,117.611,106.232,117.611
			c-0.101,0.101-0.201,0.201-0.201,0.302v0.101c0,0,0,0,0,0.101h0.101c0.101,0,0.101,0.101,0.101,0.101
			c0.101,0.101,0.101,0.201,0.101,0.302c0,0.201-0.201,0.503-0.503,0.604s-0.604,0.201-1.007,0.201
			c-0.503,0-1.007-0.101-1.611-0.503c-0.201-0.101-0.403-0.302-0.604-0.503s-0.403-0.403-0.503-0.604
			c-0.201-0.201-0.302-0.403-0.403-0.503c-0.101-0.101-0.201-0.201-0.201-0.201l-0.101-0.101h0.201c0,0,0.101,0,0.201,0
			c0.101,0,0.201-0.101,0.403-0.101c0.302-0.101,0.705-0.302,1.108-0.503s0.705-0.604,0.806-0.806s0.101-0.403,0.101-0.604
			c0-0.201-0.101-0.503-0.201-0.705c-0.302-0.604-0.604-0.906-0.906-1.108c-0.403-0.201-0.705-0.302-1.108-0.302
			s-0.705,0.101-1.208,0.101c-0.503,0.101-0.906,0.101-1.41,0.101c-0.503,0-0.806-0.101-1.309-0.201
			c-0.201-0.101-0.302-0.201-0.503-0.302c-0.101-0.101-0.302-0.302-0.403-0.503s-0.201-0.403-0.302-0.604
			c-0.101-0.201-0.201-0.403-0.302-0.604c-0.101-0.302-0.302-0.503-0.403-0.705c-0.101-0.201-0.302-0.403-0.403-0.604
			c-0.302-0.403-0.705-0.604-1.208-0.906c-0.302-0.101-0.503-0.201-0.604-0.302c-0.201-0.101-0.403-0.101-0.503-0.101
			s-0.101,0-0.101,0c-0.101,0-0.201,0.101-0.201,0.201c-0.101,0.101-0.101,0.201-0.101,0.302s0,0.201,0,0.302
			s0.101,0.201,0.201,0.302c0.201,0.201,0.403,0.201,0.604,0.302c0.201,0.101,0.503,0.101,0.705,0.302
			c0.302,0.201,0.604,0.403,0.906,0.806c0.101,0.101,0.101,0.201,0.201,0.302c0.101,0.101,0.101,0.201,0.201,0.403
			c0.302,0.503,0.604,0.906,0.906,1.41c0.403,0.503,0.806,0.806,1.41,0.906c0.201,0.101,0.503,0.101,0.705,0.101
			c0.503,0,0.906-0.101,1.51-0.101c0.302,0,0.503-0.101,0.705-0.101s0.503,0,0.604,0c0.403,0,0.604,0,0.906,0.201
			c0.302,0.101,0.604,0.403,0.604,0.604c0.101,0.201,0.201,0.403,0.101,0.604c0,0.201-0.101,0.403-0.201,0.503
			c-0.201,0.302-0.503,0.503-0.806,0.604c-0.302,0.201-0.604,0.302-0.906,0.302c-0.101,0-0.302,0.101-0.302,0.101
			c-0.101,0-0.101,0-0.101,0h-0.101v-0.101c0,0-0.302-0.503-0.604-1.007c-0.201-0.302-0.503-0.503-0.604-0.604
			s-0.201-0.201-0.403-0.302c-0.101-0.101-0.201-0.101-0.302-0.101s-0.201,0-0.302,0c-0.403,0-0.604,0.101-0.705,0.201
			c-0.201,0.101-0.302,0.302-0.302,0.503s0,0.503,0.101,0.604c0.101,0.201,0.302,0.503,0.403,0.604
			c1.007,0.705,1.813,0.806,2.215,0.806c0.101,0,0.101,0,0.101,0l0,0h0.101v0.101c0,0,0,0,0.101,0.101
			c0,0.101,0.101,0.201,0.201,0.302c0.101,0.302,0.403,0.604,0.604,0.906c0.604,0.604,1.51,1.41,2.719,1.51c0.101,0,0.302,0,0.403,0
			c0.806,0,1.309-0.302,1.611-0.604s0.403-0.604,0.503-0.906c0-0.201,0-0.503-0.201-0.604
			C106.736,117.712,106.534,117.611,106.232,117.611C106.333,117.611,106.232,117.611,106.232,117.611L106.232,117.611z"/>
		<path style="fill:#555555;" d="M57.899,116.906L57.899,116.906c0.101,0,0.101,0,0.201,0c0.403,0,1.208-0.101,2.215-0.806
			c0.201-0.101,0.403-0.302,0.403-0.604c0.101-0.201,0.101-0.503,0.101-0.604c0-0.201-0.101-0.403-0.302-0.503
			s-0.403-0.201-0.705-0.201c-0.101,0-0.201,0-0.302,0c-0.101,0-0.201,0.101-0.302,0.101c-0.101,0.101-0.201,0.201-0.403,0.302
			c-0.201,0.201-0.503,0.503-0.604,0.604c-0.403,0.503-0.604,1.007-0.604,1.007v0.101h-0.101c0,0-0.201,0-0.503-0.101
			s-0.604-0.201-0.906-0.302c-0.302-0.201-0.604-0.403-0.806-0.604c-0.101-0.201-0.201-0.302-0.201-0.503
			c0-0.201,0-0.403,0.101-0.604c0.201-0.302,0.403-0.604,0.604-0.604c0.302-0.101,0.604-0.201,0.906-0.201c0.201,0,0.503,0,0.604,0
			s0.503,0.101,0.705,0.101c0.503,0.101,1.007,0.101,1.51,0.101c0.302,0,0.503,0,0.705-0.101c0.604-0.101,1.007-0.503,1.41-0.906
			c0.403-0.503,0.705-1.007,0.906-1.41c0.101-0.101,0.201-0.302,0.201-0.403c0.101-0.101,0.101-0.201,0.201-0.302
			c0.403-0.503,0.604-0.604,0.906-0.806c0.302-0.201,0.503-0.201,0.705-0.302s0.403-0.101,0.604-0.302
			c0.101-0.101,0.201-0.201,0.201-0.302s0-0.201,0-0.302s-0.101-0.201-0.101-0.302c-0.101-0.101-0.201-0.101-0.201-0.201h-0.101
			c-0.101,0-0.302,0-0.503,0.101c-0.201,0.101-0.503,0.201-0.604,0.302c-0.503,0.302-0.906,0.604-1.208,0.906
			c-0.101,0.201-0.302,0.403-0.403,0.604s-0.302,0.503-0.403,0.705c-0.101,0.201-0.201,0.403-0.302,0.604
			c-0.101,0.201-0.201,0.403-0.302,0.604c-0.101,0.201-0.201,0.302-0.403,0.503c-0.101,0.101-0.302,0.201-0.403,0.302
			c-0.503,0.201-0.806,0.201-1.309,0.201s-0.906-0.101-1.41-0.101c-0.503-0.101-0.806-0.101-1.208-0.101
			c-0.403,0-0.806,0.101-1.108,0.302c-0.403,0.201-0.604,0.604-0.906,1.108c-0.101,0.302-0.201,0.503-0.201,0.705
			c0,0.201,0,0.403,0.101,0.604c0.201,0.403,0.503,0.604,0.806,0.806c0.403,0.201,0.705,0.403,1.108,0.503
			c0.201,0.101,0.302,0.101,0.403,0.101s0.201,0,0.201,0h0.201l-0.101,0.101c0,0-0.101,0.101-0.201,0.201
			c-0.101,0.101-0.201,0.302-0.403,0.503s-0.302,0.403-0.503,0.604s-0.403,0.403-0.604,0.503c-0.604,0.302-1.108,0.503-1.611,0.503
			s-0.806-0.101-1.007-0.201c-0.302-0.101-0.403-0.403-0.503-0.604c0-0.101,0-0.201,0.101-0.302c0-0.101,0.101-0.101,0.101-0.101
			h0.101c0,0,0,0,0-0.101v-0.101c0-0.101,0-0.101-0.101-0.201l-0.101-0.101H52.16c-0.201,0-0.403,0.101-0.604,0.302
			s-0.201,0.403-0.201,0.604c0,0.302,0.201,0.604,0.503,0.906s0.705,0.604,1.611,0.604c0.101,0,0.302,0,0.403,0
			c1.309-0.101,2.115-0.806,2.719-1.51c0.302-0.403,0.503-0.604,0.604-0.906c0.101-0.101,0.101-0.201,0.201-0.302
			C57.798,117.007,57.798,117.007,57.899,116.906L57.899,116.906L57.899,116.906L57.899,116.906z"/>
		<path style="fill:#555555;" d="M84.482,106.636c0.201,0.101,0.403,0.201,0.604,0.403c0.101,0.101,0.201,0.201,0.302,0.403
			c0.101,0.101,0.201,0.302,0.403,0.503c0.201,0.302,0.503,0.604,0.604,0.906c0.101,0.101,0.302,0.302,0.403,0.403
			s0.201,0.101,0.302,0.201h0.101c0.101,0,0.302,0,0.403-0.101c0.101,0,0.302-0.101,0.403-0.101h0.101l0,0c0,0,0,0,0.101,0l0,0
			c0,0,0,0,0.101,0l0.101,0.101c0,0,0,0,0.101,0.101l0,0c0.101,0.101,0.302,0.101,0.503,0.101s0.403,0.101,0.604,0.101h0.101
			c0.201,0,0.302-0.101,0.503-0.101c0.201-0.101,0.302-0.201,0.503-0.302c0.101-0.101,0.201-0.101,0.302-0.201
			c0.101-0.101,0.201-0.101,0.403-0.201c0.302-0.101,0.604-0.201,0.806-0.201s0.302-0.101,0.403-0.101l0,0l0,0l0,0l0.101-0.101
			c0-0.101,0-0.101,0.101-0.201c0-0.201,0-0.403,0.101-0.604c0-0.403,0-0.806,0-1.007c0,0,0,0,0-0.101
			c0-0.201-0.101-0.604-0.302-1.208c-0.201-0.604-0.503-1.108-0.806-1.51c-0.302-0.302-0.604-0.503-0.906-0.604
			s-0.604-0.201-0.806-0.201c-0.101,0-0.201,0-0.403-0.101c-0.201,0-0.503-0.101-0.705-0.101c-0.302-0.101-0.503-0.101-0.604-0.302
			c-0.201-0.101-0.302-0.302-0.302-0.503s0-0.403,0-0.503s0.101-0.201,0.201-0.201c0.101-0.101,0.201-0.101,0.302-0.101
			c0.201,0,0.302,0.101,0.503,0.201c0.101,0.101,0.201,0.101,0.302,0.201s0.201,0.201,0.302,0.302
			c0.201,0.201,0.403,0.302,0.503,0.403c0.101,0.101,0.201,0.101,0.201,0.101c0.101,0,0.101,0,0.101,0
			c0.201,0,0.302-0.101,0.503-0.201l0.101-0.101c0,0,0.101-0.101,0.201-0.101c0.101,0,0.201,0,0.201,0c0.101,0,0.201,0,0.201,0
			c0.201,0,0.403,0,0.503-0.101c0.101,0,0.201-0.101,0.302-0.201c0.101-0.101,0.302-0.201,0.403-0.302
			c0.101-0.101,0.201-0.201,0.302-0.302c0-0.101,0.101-0.101,0.101-0.101v-0.101c0,0,0,0,0-0.101c0,0,0-0.101-0.101-0.101
			c-0.101-0.101-0.101-0.201-0.201-0.302c-0.101-0.201-0.201-0.302-0.302-0.503s-0.201-0.403-0.201-0.604c0-0.101,0-0.201,0-0.302
			c0-0.101,0-0.201,0-0.403c0-0.403,0.101-0.806,0-1.208c-0.101-0.503-0.201-0.906-0.503-1.309
			c-0.101-0.101-0.201-0.201-0.403-0.403c-0.201-0.101-0.403-0.302-0.604-0.403s-0.403-0.201-0.604-0.302
			c-0.201-0.101-0.403-0.101-0.503-0.101c0,0,0,0-0.101-0.101l0,0l0,0c0-0.101-0.101-0.201-0.201-0.403
			c-0.101-0.201-0.201-0.302-0.503-0.403s-0.604-0.201-0.906-0.201c-0.403,0-0.806,0.101-1.208,0.201
			c-0.403,0.101-0.705,0.201-1.108,0.302c-0.201,0.101-0.302,0.101-0.403,0.101s-0.101,0-0.201,0c-0.101,0-0.101,0-0.101,0
			c-0.101,0-0.201,0-0.302-0.101c-0.101,0-0.101-0.101-0.201-0.201c0-0.101,0-0.101,0-0.201s0-0.101,0-0.201v-0.101
			c0-0.101-0.101-0.201-0.201-0.201c-0.101-0.101-0.302-0.101-0.403-0.101s-0.302,0-0.503,0.101
			c-0.302,0.101-0.503,0.201-0.705,0.403c-0.302,0.201-0.503,0.403-0.705,0.604c-0.101,0.101-0.302,0.302-0.403,0.403
			c-0.201,0.101-0.302,0.201-0.403,0.302c-0.302,0.201-0.604,0.302-0.806,0.302c-0.101,0-0.201,0-0.302,0
			c-0.201,0-0.302-0.101-0.403-0.201c-0.101-0.101-0.201-0.302-0.201-0.403c-0.101-0.302-0.101-0.705,0-1.208
			c0-0.302,0.201-0.604,0.403-0.906c0.201-0.302,0.403-0.604,0.604-0.705c0.201-0.201,0.302-0.302,0.302-0.403v0.503l0,0l0,0
			c0,0-0.101,0-0.201-0.101c-0.201,0-0.503-0.101-0.806-0.101c-0.201,0-0.302,0-0.403,0s-0.201,0.101-0.302,0.201
			s-0.201,0.201-0.302,0.403c-0.201,0.302-0.302,0.604-0.302,0.604l0,0l0,0c-0.101,0.101-0.101,0.302-0.201,0.503
			c0,0.201-0.101,0.503-0.101,0.604s0,0.302,0,0.403s0,0.302-0.101,0.403c0,0.101-0.101,0.201-0.101,0.302
			c-0.101,0.101-0.101,0.201-0.201,0.201c-0.101,0-0.201,0-0.302,0c-0.201,0-0.403-0.101-0.604-0.101
			c-0.201-0.101-0.503-0.201-0.705-0.302c-0.604-0.201-1.108-0.503-1.813-0.604c-0.604-0.201-1.108-0.302-1.611-0.302
			c-0.604,0-1.007,0.101-1.41,0.403l-0.101,0.101v0.101c0,0.101,0,0.101,0,0.201c0,0,0,0,0,0.101c0,0,0,0,0,0.101c0,0,0,0,0,0.101
			v0.101c0,0,0,0-0.101,0c0,0,0,0-0.101,0s-0.101,0-0.201,0.101c-0.101,0-0.302,0.101-0.604,0.101
			c-0.503,0.101-1.007,0.201-1.611,0.403c-0.302,0.101-0.503,0.201-0.604,0.403c-0.201,0.101-0.403,0.302-0.403,0.503v0.101
			c0,0,0,0.101,0.101,0.201c0,0.101,0.101,0.201,0.101,0.302c0,0.101,0,0.302,0,0.503c0,0.101,0,0.201-0.101,0.201
			c0,0.101-0.101,0.101-0.201,0.201c-0.101,0.101-0.302,0.302-0.403,0.403c-0.201,0.101-0.302,0.302-0.403,0.403
			c-0.101,0.101-0.101,0.101-0.101,0.201s0,0.101-0.101,0.101c0,0.101,0,0.101,0,0.201s0.101,0.101,0.101,0.201
			c0.101,0.201,0.201,0.503,0.201,0.806c0,0.302-0.101,0.503-0.201,0.604c0,0.101-0.101,0.201-0.101,0.302c0,0.101,0,0.201,0,0.302
			c0,0,0,0.101,0.101,0.201c0.101,0.101,0.201,0.101,0.302,0.201c0.201,0.101,0.503,0.302,0.705,0.403
			c0.302,0.101,0.604,0.302,0.806,0.403c0.302,0.101,0.503,0.201,0.604,0.201s0.302,0,0.403,0c0.403,0,0.806-0.101,1.208-0.503
			l0.101-0.101c0.201-0.201,0.403-0.503,0.604-0.604c0.101-0.101,0.302-0.201,0.403-0.302c0.201-0.101,0.302-0.101,0.503-0.101
			c0.101,0,0.302,0,0.403,0.101s0.201,0.201,0.201,0.302c0,0.101,0,0.201,0,0.302c0,0.101-0.101,0.201-0.201,0.302
			c-0.101,0.101-0.101,0.201-0.201,0.201c0,0.101-0.101,0.101-0.101,0.101c0,0.101-0.101,0.101-0.201,0.201
			c-0.101,0.101-0.201,0.101-0.302,0.201c-0.201,0.101-0.403,0.201-0.604,0.302c-0.503,0.201-1.007,0.403-1.611,0.503
			c-0.201,0.101-0.403,0.101-0.604,0.201c-0.201,0.101-0.302,0.101-0.403,0.101c-0.201,0.101-0.403,0.201-0.604,0.403
			c-0.302,0.201-0.503,0.503-0.705,0.604c-0.201,0.302-0.503,0.604-0.604,0.705c-0.201,0.302-0.201,0.503-0.201,0.604
			c0,0.201,0.101,0.302,0.101,0.403s0.101,0.101,0.201,0.201c0.101,0.101,0.201,0.101,0.201,0.201
			c0.101,0.101,0.101,0.302,0.201,0.503c0,0.101,0,0.302,0,0.403s0,0.302,0,0.403c0,0.201,0,0.403,0,0.503s0,0.201,0.101,0.302
			c0.101,0.101,0.302,0.101,0.503,0.101c0.101,0,0.201,0,0.302,0s0.101,0,0.201,0h0.101c0,0,0,0,0.101,0l0,0l0,0
			c0.201,0,0.503,0.101,0.705,0.201c0.201,0,0.302,0.101,0.503,0.101s0.302,0,0.403,0c0,0,0,0,0.101,0
			c0.604-0.101,0.906-0.604,1.208-0.806c0.101-0.101,0.101-0.101,0.101-0.201c0,0,0,0,0.101-0.101h0.101h0.101
			c0.101,0,0.101,0,0.201,0c0.101,0,0.101,0,0.201,0.101c0.201,0.101,0.302,0.101,0.503,0.101c0.101,0,0.201,0,0.302,0
			c0,0,0,0,0.101,0l0.101-0.101c0.101-0.101,0.201-0.201,0.302-0.403c0.201-0.201,0.302-0.403,0.604-0.604
			c0.201-0.201,0.403-0.403,0.604-0.503c0.101,0,0.201,0,0.302,0c0.201,0,0.302,0,0.503,0.101c0.101,0,0.101,0.101,0.201,0.101
			c0,0.101,0.101,0.101,0.101,0.201c0,0.201,0,0.302-0.101,0.503l0,0l0,0c0,0-0.101,0-0.101,0.101
			c-0.101,0.101-0.201,0.101-0.403,0.201c-0.302,0.201-0.604,0.302-1.007,0.403c-0.201,0.101-0.403,0.201-0.503,0.403
			c0,0,0,0,0,0.101c0,0,0,0-0.101,0c0,0,0,0-0.101,0.101c0,0,0,0.101-0.101,0.101c-0.101,0.101-0.101,0.302-0.101,0.403
			c-0.101,0.302-0.201,0.705-0.201,1.208s0,0.906,0.201,1.309c0.101,0.403,0.302,0.705,0.604,1.007
			c0.101,0.101,0.302,0.201,0.403,0.201s0.201,0,0.201,0l0,0l0,0l0,0c0,0,0,0,0.101,0.101c0.403,0.806,0.705,1.309,0.906,1.712
			c0.101,0.201,0.302,0.302,0.302,0.403c0.101,0.101,0.101,0.101,0.201,0.101l0,0l0,0c0.101,0.101,0.201,0.101,0.201,0.201
			c0.101,0,0.101,0,0.201,0h0.101h0.101h0.101c0,0,0,0,0.101,0l0,0c0,0,0,0.101,0.101,0.101c0,0.101,0.101,0.201,0.101,0.201
			c0.101,0.101,0.101,0.201,0.201,0.302c0.101,0.101,0.101,0.201,0.201,0.201c0.302,0.201,0.806,0.705,1.41,1.208
			c0.302,0.201,0.604,0.503,0.806,0.604c0.101,0.101,0.302,0.101,0.403,0.201c0.101,0,0.201,0.101,0.302,0.101l0,0
			c0.101,0,0.201,0,0.302-0.101s0.201-0.101,0.403-0.302c0.302-0.201,0.604-0.503,0.806-0.806c0.302-0.302,0.604-0.604,0.705-1.007
			c0.201-0.403,0.403-0.604,0.503-0.906c0,0,0-0.101,0.101-0.101c0,0,0,0,0.101,0l0,0l0,0c0.101,0,0.201,0,0.302-0.101
			c0.101-0.101,0.302-0.201,0.604-0.302c0,0,0.101-0.101,0.201-0.201c0.101-0.101,0.201-0.201,0.302-0.403
			c0.201-0.302,0.503-0.604,0.604-1.007c0.403-0.705,0.705-1.611,0.806-1.913c0.101-0.403,0.201-0.705,0.201-1.007s0-0.604,0-0.906
			s-0.201-0.503-0.302-0.604c-0.201-0.201-0.403-0.302-0.503-0.403c-0.101,0-0.101-0.101-0.101-0.101l-0.101-0.101l-0.101-0.101
			c-0.101,0-0.101-0.101-0.201-0.101c-0.101-0.101-0.302-0.201-0.503-0.302s-0.302-0.201-0.503-0.302
			c-0.101-0.101-0.201-0.302-0.302-0.403c0-0.101,0-0.201,0-0.302c0-0.101,0-0.201,0.101-0.302c0.101-0.201,0.302-0.201,0.503-0.201
			C84.079,106.434,84.281,106.535,84.482,106.636L84.482,106.636z"/>
		<path style="fill:#FFFFFF;" d="M99.385,114.893c-0.101,0-0.201-0.101-0.302-0.101s-0.201,0-0.201,0.101
			c-0.101,0-0.101,0.101-0.201,0.201c0,0.101-0.101,0.101-0.101,0.201s0,0.101,0,0.201c0,0.101,0.101,0.201,0.201,0.302
			c0.101,0.101,0.201,0.201,0.302,0.302c0.101,0.101,0.302,0.101,0.403,0.201c0.604,0.302,1.108,0.403,1.108,0.403l0.302,0.101
			l-0.201-0.302c0,0-0.201-0.403-0.604-0.705c-0.201-0.201-0.302-0.403-0.503-0.503C99.586,114.993,99.486,114.993,99.385,114.893
			L99.385,114.893z"/>
		<path style="fill:#FFFFFF;" d="M60.013,114.792c-0.101,0-0.201-0.101-0.201-0.101c-0.101,0-0.201,0-0.302,0.101
			c-0.101,0-0.201,0.101-0.302,0.201c-0.201,0.201-0.403,0.302-0.503,0.503c-0.201,0.201-0.302,0.403-0.403,0.503
			c-0.101,0.101-0.201,0.201-0.201,0.201l-0.201,0.302l0.302-0.101c0,0,0.604-0.201,1.108-0.403
			c0.101-0.101,0.302-0.101,0.403-0.201c0.101-0.101,0.201-0.201,0.302-0.302c0.101-0.101,0.201-0.201,0.201-0.302s0-0.101,0-0.201
			c0-0.101-0.101-0.101-0.101-0.201C60.215,114.792,60.114,114.792,60.013,114.792L60.013,114.792z"/>
		<path style="fill:#FFFFFF;" d="M80.152,102.507c0,0,0.101,0.101,0.201,0.201c0.201,0.101,0.403,0.302,0.604,0.403
			c0.604,0.302,1.208,0.604,1.913,0.806c0.705,0.201,1.813,0.403,2.215,0.503l0,0l0,0l0,0c0.503,0.101,0.806,0.201,1.108,0.302
			c0.101,0,0.201,0.101,0.302,0.101s0.101,0,0.201,0l0,0c0,0,0,0,0-0.101l0,0c0,0,0-0.101-0.101-0.101
			c-0.101-0.101-0.201-0.101-0.302-0.201c-0.302-0.101-0.604-0.201-0.705-0.302c-0.201-0.101-0.906-0.302-1.712-0.604
			c-0.403-0.101-0.705-0.302-1.108-0.403c-0.201-0.101-0.302-0.101-0.503-0.201c-0.101-0.101-0.302-0.101-0.403-0.201
			c-0.403-0.201-0.806-0.604-1.208-0.906c-0.201-0.201-0.403-0.403-0.604-0.604s-0.302-0.403-0.403-0.604
			c-0.099-0.102-0.099-0.303-0.099-0.404c0-0.201-0.101-0.302-0.101-0.503c-0.101-0.302-0.101-0.604-0.101-0.604v-0.201h0.202l0,0
			h0.101c0.101,0,0.302,0,0.503,0c0.503,0,1.108-0.101,1.813-0.503c0.503-0.302,0.906-0.503,1.41-0.604
			c0.503-0.201,0.906-0.302,1.41-0.302h0.101c0,0,0,0,0.101,0l0,0c0.101,0,0.201,0,0.302,0s0.201,0,0.302,0c0.101,0,0.101,0,0.201,0
			c0.101,0,0.201,0,0.302,0s0.302,0,0.302,0c0.101,0,0.101,0,0.101,0l0,0c0,0,0,0,0-0.101l0,0c0,0-0.101-0.101-0.201-0.101
			c-0.201-0.101-0.403-0.101-0.604-0.201c-0.503-0.101-1.108-0.101-1.611-0.101c-0.302,0-0.503,0-0.604,0
			c-0.201,0-0.503,0.101-0.604,0.201c-0.302,0.101-0.503,0.201-0.705,0.302c-0.201,0.101-0.403,0.201-0.604,0.201
			c-0.201,0.101-0.403,0.101-0.604,0.101c-0.101,0-0.201,0-0.403,0c-0.403,0-0.604-0.101-0.906-0.101
			c-0.101,0-0.302-0.101-0.403-0.101s-0.101-0.101-0.101-0.101l-0.101-0.101l-0.101-0.101c0-0.101,0-0.101-0.101-0.201
			c-0.101-0.201-0.101-0.302-0.201-0.503c0-0.101-0.101-0.101-0.201-0.101c-0.101,0-0.101-0.101-0.302-0.101
			c-0.101,0-0.101,0-0.201,0c-0.101,0-0.201,0.101-0.201,0.101c-0.101,0.101-0.101,0.101-0.101,0.201c0,0.201,0,0.403,0,0.503l0,0
			c0,0,0,0,0,0.101c-0.101,0.101-0.302,0.201-0.503,0.302c-0.201,0.101-0.403,0.101-0.604,0.101c-0.302,0-0.604,0-0.906-0.101
			c-0.101,0-0.302-0.101-0.503-0.101s-0.403-0.101-0.604-0.101l0,0c-0.403-0.101-0.705-0.201-1.108-0.201
			c-0.403-0.101-0.705-0.101-0.906-0.101l0,0c-0.201,0-0.403,0-0.604,0.101c-0.302,0.101-0.604,0.101-0.806,0.201
			c-0.101,0-0.302,0.101-0.403,0.201c-0.101,0.101-0.201,0.101-0.302,0.201s-0.101,0.101-0.101,0.201c0,0,0,0,0,0.101
			c0,0,0,0,0,0.101l0,0l0,0h0.101c0.101,0,0.101,0,0.201-0.101c0.302-0.101,0.705-0.302,1.41-0.302c0.302,0,0.604,0,0.906,0.101
			c0.503,0.101,1.108,0.302,1.813,0.604c0.302,0.101,0.604,0.201,0.906,0.302c0.302,0.101,0.604,0.101,0.604,0.101l0,0
			c0.101,0,0.201,0,0.302,0c0.302,0,0.604,0,0.705-0.101c0.302-0.101,0.503-0.101,0.503-0.101s0,0,0.101,0c0,0,0,0,0.101,0.101l0,0
			c0,0,0,0,0,0.101s0.101,0.201,0.101,0.201c0,0.101,0.101,0.201,0.101,0.302c0,0.101,0,0.201,0,0.302v0.101v0.101
			c0,0.101-0.101,0.101-0.101,0.201c-0.101,0.201-0.302,0.403-0.403,0.604c-0.403,0.503-0.806,0.906-1.51,1.41
			c0,0-0.101,0.101-0.201,0.101c-0.201,0.201-0.503,0.403-0.806,0.604c-0.403,0.201-0.705,0.403-0.906,0.604
			c-0.101,0.101-0.302,0.101-0.302,0.201c0,0,0,0-0.101,0c-0.201,0.101-0.604,0.302-0.806,0.503
			c-0.201,0.101-0.302,0.201-0.302,0.302s-0.101,0.101-0.101,0.101v0.101l0,0c0,0,0,0,0.101,0c0,0,0.101,0,0.201,0
			c0.101,0,0.201-0.101,0.302-0.101c0.201-0.101,0.403-0.302,0.503-0.403c0.101,0,0.101-0.101,0.201-0.101
			c0.101,0,0.101-0.101,0.101-0.101c0.101,0,0.201-0.101,0.302-0.101c0.101-0.101,0.302-0.101,0.403-0.201
			c0.302-0.101,0.604-0.302,0.906-0.403l0,0c0.201-0.101,0.403-0.201,0.503-0.201c0.101-0.101,0.201-0.101,0.302-0.101
			c0.604-0.302,1.108-0.604,1.51-1.007c0.201-0.201,0.403-0.302,0.503-0.403s0.201-0.201,0.201-0.201l0.201-0.201v0.201
			c0,0,0.201,1.208-0.201,2.719c0,0.101-0.101,0.302-0.101,0.604c-0.101,0.302-0.101,0.604-0.201,0.906
			c-0.101,0.403-0.101,0.705-0.201,1.007c0,0.403-0.101,0.604-0.101,0.806c0,0.604,0.201,1.309,0.503,2.014
			c0.302,0.604,0.503,1.309,0.604,1.712l0,0c0.101,0.201,0.101,0.302,0.101,0.302c0.201,0.503,0.201,0.705,0.201,1.007
			c0,0.101,0,0.101,0,0.201s0,0.101,0,0.101l0,0c0,0,0,0,0.101,0l0,0l0,0c0,0,0,0,0-0.101s0.101-0.201,0.101-0.302
			c0-0.302,0-0.604,0-0.705l0,0v-0.101v-0.101c0,0,0-0.101,0-0.201s0-0.201-0.101-0.302c-0.101-0.201-0.101-0.503-0.201-0.705
			c-0.101-0.503-0.302-0.906-0.403-1.51c-0.101-0.503-0.201-0.906-0.201-1.41c0-0.403,0.101-0.906,0.101-1.51
			c0.101-0.604,0.201-1.108,0.302-1.41c0.101-0.201,0.101-0.403,0.201-0.604c0.101-0.302,0.101-0.503,0.101-0.705
			c0.1-0.5,0.1-0.903,0.1-0.903v-0.201L80.152,102.507L80.152,102.507z"/>
		<path style="fill:#555555;" d="M106.031,112.274c0.101,0,0.302,0,0.403,0s0.201,0,0.302-0.101c0.101,0,0.101-0.101,0.201-0.201
			c0-0.101,0.101-0.201,0-0.302c0-0.101-0.101-0.201-0.101-0.302c-0.101-0.201-0.403-0.503-0.604-0.604
			c-0.101-0.101-0.201-0.201-0.201-0.302c-0.101-0.101-0.101-0.201-0.201-0.302c-0.101-0.101-0.101-0.201-0.101-0.302
			s-0.101-0.201-0.101-0.302s0-0.302,0.101-0.403c0-0.101,0-0.302,0-0.403s0-0.201,0-0.302s0-0.201-0.101-0.201
			c0-0.101-0.101-0.101-0.201-0.201c-0.302-0.101-0.604-0.201-0.806-0.302c-0.201,0-0.302-0.101-0.503-0.101
			s-0.302-0.101-0.403-0.201c-0.302-0.101-0.503-0.302-0.604-0.503s-0.201-0.403-0.201-0.604s0.101-0.302,0.201-0.403
			c0.201-0.101,0.403-0.201,0.604-0.201c0.101,0,0.302,0,0.403,0.101c0.101,0,0.101,0.101,0.201,0.101
			c0.101,0.101,0.201,0.101,0.201,0.201c0.201,0.201,0.403,0.302,0.604,0.604c0.302,0.302,0.604,0.604,0.906,0.806
			c0.302,0.302,0.604,0.503,0.906,0.604c0.604,0.201,0.906,0.302,1.108,0.302c0.101,0,0.201,0,0.302,0l0,0c0.101,0,0.201,0,0.302,0
			c0.201,0,0.302,0,0.403-0.101h0.101c0,0,0,0,0.101-0.101l0,0c0,0,0,0,0-0.101c0,0,0.101-0.101,0.201-0.101h0.101
			c0,0,0.101,0,0.201,0c0.101,0,0.302,0,0.403,0c0.302,0,0.604,0,1.007-0.101c0.201,0,0.403,0,0.503-0.101
			c0.201,0,0.302-0.101,0.403-0.101s0.101-0.101,0.101-0.101l0.101-0.101c0.101-0.101,0.101-0.201,0.101-0.403
			c0.101-0.302,0.201-0.604,0.503-1.007c0.201-0.201,0.403-0.403,0.604-0.503c0.101-0.101,0.101-0.101,0.201-0.201
			c0.101,0,0.101-0.101,0.101-0.101l0.101-0.101c0,0,0-0.101,0-0.201c0-0.201-0.101-0.302-0.201-0.403
			c-0.101-0.101-0.302-0.201-0.403-0.302c-0.101,0-0.101-0.101-0.201-0.101c-0.101,0-0.101-0.101-0.201-0.101
			c-0.101-0.101-0.101-0.101-0.101-0.201c0-0.101,0-0.101,0-0.201c0-0.101,0.101-0.201,0.101-0.302
			c0.101-0.101,0.201-0.101,0.302-0.201c0.201-0.101,0.503-0.201,0.705-0.201c0.101,0,0.302,0,0.403,0
			c0.503,0,0.906,0.101,1.309,0.403s0.604,0.503,0.906,0.705c0.503,0.403,0.806,0.705,1.309,0.906
			c0.503,0.302,0.906,0.403,1.51,0.503c0.101,0,0.201,0,0.302,0.101s0.101,0.101,0.201,0.201c0.101,0.201,0.201,0.403,0.201,0.604
			c0,0.302,0,0.503,0,0.705s-0.101,0.503-0.302,0.604c-0.201,0.302-0.503,0.503-0.604,0.604c-0.302,0.201-0.604,0.302-0.906,0.302
			s-0.604-0.101-0.906-0.302c0,0-0.101,0-0.101-0.101c0,0,0,0,0-0.101v-0.101c0,0,0-0.101,0.101-0.101c0,0,0-0.101,0.101-0.101
			c0.101-0.101,0.201-0.201,0.201-0.403s0-0.403-0.101-0.604s-0.302-0.302-0.403-0.403c-0.201-0.101-0.403-0.201-0.604-0.201
			s-0.302,0-0.503,0.201c-0.403,0.302-0.604,0.604-0.604,0.906c-0.101,0.302,0,0.604,0.201,0.806
			c0.201,0.302,0.403,0.503,0.604,0.604c0.302,0.201,0.604,0.302,0.705,0.302c0.302,0,0.503,0.101,0.604,0.101
			c1.611,0,2.618-0.906,2.92-1.913c0.201-0.604,0.201-1.007,0.101-1.41c-0.101-0.201-0.101-0.302-0.201-0.503
			c0-0.101,0-0.101-0.101-0.101l0,0l-0.101-0.101h0.201c0,0,0.604-0.201,1.208-0.503c0.302-0.101,0.503-0.201,0.604-0.302
			s0.201-0.101,0.302-0.101h0.101h0.101l0,0c0.101,0,0.101,0,0.101,0s0.101,0,0.101,0.101c0.101,0.101,0.201,0.201,0.302,0.302
			c0.403,0.403,1.007,0.806,1.813,1.108c0.302,0.101,0.705,0.101,1.108,0.101c0.806,0,1.712-0.201,1.913-0.201
			c0-0.101-0.101-0.101-0.101-0.302l-0.101-0.101h0.101c0,0,0.201-0.101,0.503-0.201c0.101-0.101,0.302-0.101,0.403-0.201
			c0.101-0.101,0.302-0.101,0.302-0.201c0.201-0.101,0.403-0.302,0.604-0.503c0.101-0.101,0.201-0.201,0.302-0.201l-0.302-0.201
			l0.101-0.101l0.101-0.101c0.101-0.101,0.201-0.201,0.302-0.302c0.101-0.101,0.302-0.302,0.403-0.403s0.201-0.201,0.302-0.302
			c0-0.101,0.101-0.201,0.201-0.302c0.101-0.101,0.201-0.302,0.302-0.403c0.101-0.101,0.201-0.302,0.201-0.302l0,0l0,0
			c-0.101,0-0.101-0.101-0.101-0.101l-0.101-0.101v-0.101c0,0,0.101-0.201,0.201-0.503c0.101-0.302,0.201-0.604,0.302-0.806
			c0.101-0.101,0.101-0.403,0.201-0.604c0-0.101,0.101-0.201,0.101-0.302l-0.302-0.201l0.503-1.51l-1.813-0.604l0.101-0.302
			c-1.007-0.302-1.41-0.403-1.611-0.403c-0.101,0-0.101,0-0.101,0l0,0l0,0l0,0c0,0-0.101,0-0.101-0.101l0,0l0,0c0,0,0,0,0-0.101
			v1.309l0,0c-0.101,0-0.201,0-0.403,0l0,0c-0.201,0-0.403,0.101-0.604,0.101s-0.403,0.101-0.403,0.101
			c-0.302,0.101-0.604,0.101-0.705,0.201c-0.101,0-0.201,0.101-0.201,0.101h-0.101l-0.101,0.101l-0.201-0.403
			c-0.101,0.101-0.302,0.101-0.403,0.201c-0.302,0.201-0.604,0.403-0.705,0.503c-0.302,0.201-1.007,0.705-1.007,0.705l-0.101,0.101
			l-0.101-0.101c-0.101-0.101-0.101-0.101-0.201-0.201l0,0c-0.403,0.403-0.705,0.906-1.007,1.41
			c-0.201,0.201-0.302,0.503-0.403,0.604c0,0.101-0.101,0.101-0.101,0.201c0,0,0,0,0,0.101l0,0
			c-0.302,0.604-0.302,1.208-0.403,1.813c0,0.604,0.101,1.208,0.101,1.51c0,0.101,0,0.101,0,0.201c0,0.101,0,0.201-0.101,0.302
			s-0.101,0.101-0.201,0.201c-0.201,0.101-0.403,0.302-0.604,0.403c-0.302,0.101-0.604,0.201-1.007,0.201
			c-0.302,0-0.503,0-0.705-0.101s-0.604-0.302-0.906-0.503s-0.604-0.403-0.906-0.604c-0.403-0.302-0.604-0.503-0.906-0.604
			c-0.302-0.201-0.604-0.302-0.705-0.403c-0.403-0.101-0.705-0.101-1.007-0.101c-0.101,0-0.302,0-0.403,0
			c-0.302,0-0.604,0.101-0.806,0.201c-0.101,0-0.201,0.101-0.302,0.101s-0.201,0-0.201,0s-0.101,0-0.201,0
			c-0.101,0-0.201-0.101-0.302-0.101s-0.302-0.101-0.503-0.101c-0.403-0.101-0.806-0.101-1.309-0.101l0,0l0,0l0,0
			c0,0-0.101,0-0.101-0.101c-0.101,0-0.101-0.101-0.201-0.201c-0.101-0.101-0.101-0.201-0.101-0.302c0-0.101,0-0.201,0.101-0.403
			c0.101-0.201,0.302-0.302,0.403-0.403s0.302-0.101,0.403-0.101s0.201,0,0.201,0c0.101,0,0.201,0,0.201,0h0.101l0,0h0.101h0.101
			c0.101,0,0.201,0.101,0.403,0.101c0.302,0.101,0.604,0.201,1.007,0.302c0.403,0.101,0.705,0.201,1.108,0.201
			c0.101,0,0.201,0,0.302,0c0.201,0,0.403-0.101,0.604-0.201c0.201-0.101,0.201-0.201,0.302-0.403l0,0c0,0,0-0.101,0-0.201
			s0-0.201,0-0.302c0-0.101,0.101-0.101,0.201-0.201c0.101,0,0.201-0.101,0.302-0.101s0.201-0.101,0.302-0.101
			s0.201-0.101,0.403-0.101c0.201,0,0.403-0.101,0.604-0.101c0.101,0,0.201-0.101,0.201-0.101c0.101,0,0.101-0.101,0.201-0.101
			c0.101,0,0.101-0.101,0.201-0.201c0-0.101,0.101-0.302,0.101-0.403c0.101-0.201,0.101-0.403,0.201-0.604
			c0.101-0.201,0.201-0.403,0.403-0.604c0.806-0.604,1.712-0.806,2.215-0.906c0.101,0,0.302-0.101,0.403-0.101
			s0.201-0.101,0.302-0.101s0.101-0.101,0.201-0.101c0-0.101,0.101-0.101,0.101-0.201l0,0c0,0,0-0.101-0.101-0.101
			c-0.101-0.101-0.201-0.201-0.403-0.302c-0.302-0.201-0.705-0.302-1.208-0.503c-0.503-0.101-1.007-0.302-1.51-0.302
			c-0.503-0.101-0.806-0.101-1.007-0.101c-0.101,0-0.101,0-0.201,0c-0.604,0-1.611,0.101-2.115,0.201c-0.101,0-0.201,0-0.302,0
			h-0.101c0,0,0,0-0.101,0s-0.101,0-0.101-0.101l-0.101-0.101l-0.101-0.101c0,0,0-0.101-0.101-0.101
			c0-0.101-0.101-0.101-0.101-0.101l0,0c-0.101,0-0.101,0-0.201,0c-0.201,0-0.403,0-0.604,0.101s-0.503,0.201-0.705,0.302
			c-0.604,0.201-1.108,0.503-1.611,0.705c-0.403,0.201-0.806,0.403-1.108,0.604c-0.201,0.101-0.302,0.101-0.503,0.201
			c-0.201,0-0.302,0.101-0.403,0.101s-0.201,0-0.302-0.101l-0.101-0.101v-0.101c0-0.101,0.101-0.101,0.101-0.201
			c0,0,0.101-0.101,0.201-0.101c0.101,0,0.101-0.101,0.201-0.101c0.101-0.101,0.302-0.201,0.503-0.302
			c0.101-0.101,0.302-0.201,0.403-0.403c0.101-0.101,0.101-0.201,0.101-0.201s0-0.101-0.101-0.201c0-0.101-0.101-0.101-0.101-0.201
			c0-0.101,0-0.201,0-0.302c0-0.302,0.201-0.604,0.302-0.604c0.101-0.101,0.101-0.201,0.201-0.302c0-0.101,0.101-0.201,0.101-0.302
			v-0.101c0,0-0.101-0.101-0.201-0.101c-0.201-0.101-0.403-0.101-0.604-0.101c-0.604,0-1.611,0.201-2.517,0.503h-0.101
			c-0.101,0-0.101,0-0.201,0c0,0-0.101,0-0.101-0.101c-0.101-0.101-0.302-0.101-0.403-0.101s-0.101,0-0.201,0
			c-0.906,0.201-1.611,0.705-2.014,1.309s-0.604,1.208-0.705,1.712c0,0.101,0,0.101-0.101,0.201c0,0.101,0,0.101-0.101,0.201
			c0,0,0,0.101-0.101,0.101c0,0,0,0-0.101,0.101h-0.101c-0.101,0-0.201,0-0.302-0.101s-0.101-0.101-0.201-0.201
			c-0.101-0.101-0.101-0.201-0.101-0.302c0-0.101-0.101-0.201-0.101-0.403c-0.101-0.403-0.302-0.705-0.503-1.208
			c-0.302-0.403-0.604-0.705-1.309-1.007c0,0-0.101,0-0.201,0c-0.101,0-0.201,0-0.302,0s-0.201,0.101-0.302,0.101
			c-0.201,0.101-0.403,0.201-0.403,0.201s0,0-0.101,0l0,0c0,0,0,0-0.101,0l0,0c-1.208-0.403-2.115-0.503-2.819-0.503
			c-0.604,0-0.906,0.101-1.208,0.302c-0.101,0.101-0.101,0.101-0.201,0.201c0,0.101-0.101,0.201-0.101,0.302
			c0,0.101,0,0.201-0.101,0.302c0,0.101-0.101,0.201-0.201,0.302c-0.101,0.201-0.201,0.302-0.302,0.403s-0.302,0.201-0.403,0.302
			c-0.201,0.101-0.302,0.201-0.503,0.403c-0.101,0.101-0.201,0.302-0.201,0.503s0.101,0.403,0.201,0.604
			c0.101,0.201,0.201,0.302,0.403,0.403l0.101,0.101l0.101,0.101c0.101,0.101,0.101,0.201,0.101,0.302
			c0,0.201,0.101,0.403,0.101,0.503s0,0.201,0,0.201s0,0,0,0.101c0.403,0.101,0.705,0.201,1.007,0.403
			c0.302,0.101,0.604,0.302,0.604,0.503c0.201,0.201,0.302,0.403,0.403,0.604s0.101,0.503,0.101,0.604
			c0,0.302-0.101,0.503-0.201,0.604c-0.101,0.201-0.302,0.403-0.503,0.503c-0.403,0.201-0.705,0.302-1.208,0.302
			s-0.806-0.101-1.208-0.201s-0.604-0.201-0.806-0.302l0,0c0,0,0,0-0.101,0.101c0,0.101-0.101,0.201-0.101,0.403
			c0,0.201-0.101,0.302,0,0.503c0,0.101,0,0.101,0,0.201s0,0.101,0.101,0.101l0,0c0,0,0.101,0,0.201,0c0.503,0,1.208,0,1.813,0.705
			c0.302,0.302,0.503,0.604,0.604,0.906c0.201,0.403,0.302,0.705,0.403,1.108c0.201,0.503,0.302,0.906,0.503,1.41
			c0.201,0.503,0.503,0.806,0.705,1.108c0.503,0.503,0.705,0.604,0.906,0.705c0.101,0.101,0.201,0.101,0.302,0.101
			s0.201,0.101,0.302,0.101c0.101,0,0.101,0,0.201,0c0.101,0,0.201,0,0.201,0c0.101,0,0.101-0.101,0.201-0.101
			c0,0,0.101,0,0.101-0.101h0.101h0.101c0,0,0.101,0,0.101,0.101c0.101,0,0.101,0.101,0.201,0.201
			c0.101,0.101,0.201,0.302,0.302,0.503c0.201,0.302,0.403,0.604,0.604,0.806c0.101,0.101,0.201,0.201,0.302,0.302
			s0.201,0.201,0.302,0.201h0.101h0.101l0.101-0.101c0.101,0,0.101-0.101,0.201-0.101c0.101,0,0.201-0.101,0.201-0.101
			c0.101,0,0.101,0,0.201,0c0.101,0,0.101,0,0.201,0.101c0.101,0,0.101,0.101,0.201,0.101c0.201,0.101,0.302,0.201,0.503,0.302
			s0.503,0.302,0.604,0.403s0.201,0.101,0.302,0.201c0.101,0,0.201,0.101,0.201,0.101c0.101,0,0.201,0,0.403,0s0.503,0,0.705-0.101
			c0.302-0.101,0.503-0.101,0.705-0.201c0.201,0,0.302-0.101,0.503-0.101c0.101,0,0.201,0,0.302,0
			C105.729,112.174,105.829,112.274,106.031,112.274L106.031,112.274z"/>
		<path style="fill:#555555;" d="M57.395,111.469c0.101,0,0.201-0.101,0.201-0.101c0.101,0,0.101-0.101,0.201-0.101
			c0.101,0,0.101,0,0.201,0c0.101,0,0.201,0,0.201,0.101c0.101,0,0.101,0.101,0.201,0.101c0.101,0,0.101,0.101,0.101,0.101h0.101
			c0,0,0,0,0.101,0s0.201-0.101,0.302-0.201c0.101-0.101,0.201-0.201,0.302-0.302c0.201-0.302,0.403-0.604,0.604-0.806
			c0.101-0.201,0.201-0.403,0.302-0.503s0.101-0.101,0.201-0.201c0,0,0.101,0,0.101-0.101h0.101c0.101,0,0.101,0,0.101,0
			s0.101,0,0.101,0.101c0.101,0,0.101,0.101,0.201,0.101c0.101,0,0.101,0,0.201,0c0,0,0.101,0,0.201,0
			c0.101,0,0.201-0.101,0.302-0.101s0.201-0.101,0.302-0.101c0.201-0.101,0.503-0.403,0.906-0.705s0.604-0.705,0.705-1.108
			c0.201-0.503,0.403-0.906,0.503-1.41c0.101-0.403,0.302-0.806,0.403-1.108c0.201-0.403,0.403-0.604,0.604-0.906
			c0.604-0.604,1.51-0.604,1.813-0.705c0.101,0,0.201,0,0.201,0l0,0l0,0c0,0,0-0.101,0.101-0.101c0-0.101,0-0.101,0-0.201
			c0-0.201,0-0.302,0-0.503s-0.101-0.302-0.101-0.403c0,0,0-0.101-0.101-0.101l0,0c-0.201,0.101-0.503,0.201-0.806,0.302
			c-0.403,0.101-0.806,0.201-1.208,0.201c-0.503,0-0.806-0.101-1.208-0.302c-0.201-0.101-0.403-0.302-0.503-0.503
			s-0.201-0.403-0.201-0.604c0-0.302,0-0.503,0.101-0.604c0.101-0.201,0.201-0.403,0.403-0.604c0.201-0.201,0.403-0.302,0.604-0.503
			c0.302-0.101,0.604-0.302,1.007-0.403c0,0,0,0,0-0.101s0-0.101,0.101-0.201c0-0.201,0.101-0.403,0.101-0.503
			s0.101-0.201,0.101-0.302l0.101-0.101l0.101-0.101c0.101-0.101,0.302-0.302,0.403-0.403c0.101-0.201,0.201-0.403,0.201-0.604
			c0-0.101,0-0.201-0.101-0.302c0-0.101-0.101-0.101-0.101-0.201c-0.101-0.101-0.302-0.201-0.503-0.403
			c-0.101-0.101-0.302-0.201-0.403-0.302c-0.101-0.101-0.302-0.201-0.302-0.403c-0.101-0.101-0.101-0.201-0.201-0.302
			c0-0.101-0.101-0.201-0.101-0.302c0-0.101-0.101-0.201-0.101-0.302c0-0.101-0.101-0.201-0.201-0.201
			c-0.302-0.201-0.604-0.302-1.208-0.302s-1.51,0.201-2.819,0.503l0,0c0,0,0,0-0.101,0l0,0c0,0,0,0-0.101,0
			c-0.101-0.101-0.302-0.101-0.403-0.201c-0.101,0-0.201-0.101-0.302-0.101c-0.101,0-0.201,0-0.302,0s-0.101,0-0.201,0
			c-0.604,0.302-1.007,0.604-1.309,1.007c-0.302,0.403-0.403,0.806-0.503,1.208c0,0.101-0.101,0.302-0.101,0.403
			s-0.101,0.201-0.101,0.302c-0.101,0.101-0.101,0.201-0.201,0.201c-0.101,0.101-0.201,0.101-0.302,0.101h-0.101c0,0,0,0,0-0.101
			c0,0,0-0.101-0.101-0.101c0,0,0-0.101-0.101-0.201c0-0.101,0-0.101-0.101-0.201c-0.101-0.403-0.403-1.007-0.705-1.611
			c-0.403-0.604-1.007-1.108-2.014-1.309c-0.101,0-0.101,0-0.201,0c-0.201,0-0.302,0.101-0.503,0.101c0,0-0.101,0-0.101,0.101
			c0,0-0.101,0-0.201,0h-0.101c-1.007-0.403-1.813-0.503-2.517-0.503c-0.302,0-0.503,0-0.604,0.101
			c-0.101,0-0.101,0.101-0.201,0.101v0.101c0,0.101,0,0.201,0.101,0.302c0,0.101,0.101,0.201,0.201,0.302
			c0.101,0.201,0.302,0.403,0.302,0.604c0,0.101,0,0.201,0,0.302c0,0.101-0.101,0.201-0.101,0.201c0,0.101-0.101,0.101-0.101,0.201
			c0,0,0,0.101,0.101,0.201s0.201,0.302,0.403,0.403c0.101,0.101,0.302,0.201,0.503,0.302c0.101,0,0.201,0.101,0.201,0.101
			c0.101,0,0.101,0.101,0.201,0.101c0,0,0.101,0.101,0.101,0.201v0.101c0,0,0,0.101-0.101,0.101
			c-0.101,0.101-0.201,0.101-0.302,0.101c-0.101,0-0.302,0-0.403-0.101c-0.201,0-0.302-0.101-0.503-0.201
			c-0.403-0.201-0.705-0.403-1.108-0.604c-0.604-0.302-1.108-0.604-1.611-0.705c-0.302-0.101-0.604-0.201-0.705-0.302
			c-0.302-0.101-0.503-0.101-0.604-0.101s-0.101,0-0.201,0l0,0c0,0,0,0-0.101,0.101c0,0,0,0.101-0.101,0.101l-0.101,0.101
			l-0.101,0.101l-0.101,0.101c0,0,0,0-0.101,0h-0.101c-0.101,0-0.201,0-0.302,0l0,0c-0.604-0.101-1.611-0.201-2.115-0.201
			c-0.101,0-0.201,0-0.201,0c-0.201,0-0.604,0.101-1.007,0.101c-0.503,0.101-0.906,0.201-1.51,0.302
			c-0.503,0.101-0.906,0.302-1.208,0.503c-0.201,0.101-0.302,0.201-0.403,0.302l-0.101,0.101v0.101c0,0.101,0.101,0.201,0.101,0.201
			c0,0.101,0.101,0.101,0.201,0.101s0.201,0.101,0.302,0.101c0.101,0,0.201,0.101,0.403,0.101c0.604,0.101,1.41,0.302,2.215,0.906
			c0.201,0.201,0.302,0.302,0.403,0.604c0.101,0.201,0.201,0.403,0.201,0.604s0.101,0.302,0.101,0.403s0.101,0.201,0.201,0.201
			c0,0,0.101,0.101,0.201,0.101s0.101,0.101,0.201,0.101c0.201,0.101,0.403,0.101,0.604,0.101c0.101,0,0.201,0.101,0.403,0.101
			c0.101,0,0.201,0.101,0.302,0.101c0.101,0,0.201,0.101,0.302,0.101c0.101,0,0.101,0.101,0.201,0.201c0,0.101,0,0.201,0,0.302
			c0,0.101,0,0.101,0,0.201l0,0c0,0.201,0.101,0.302,0.302,0.403c0.201,0.101,0.403,0.201,0.604,0.201c0.101,0,0.201,0,0.302,0
			c0.302,0,0.705-0.101,1.108-0.201c0.403-0.101,0.705-0.201,1.007-0.302c0.201-0.101,0.302-0.101,0.403-0.101s0.101,0,0.101,0
			h0.101l0,0h0.101c0.101,0,0.101,0,0.201,0s0.201,0,0.201,0c0.101,0,0.302,0,0.403,0.101s0.302,0.201,0.403,0.403
			c0.101,0.101,0.101,0.302,0.101,0.403s-0.101,0.201-0.101,0.302c-0.101,0.101-0.101,0.101-0.201,0.201c0,0-0.101,0-0.101,0.101
			l0,0l0,0l0,0c-0.604,0-0.906,0-1.309,0.101c-0.201,0-0.403,0.101-0.503,0.101c-0.101,0-0.302,0.101-0.302,0.101s-0.101,0-0.201,0
			s-0.101,0-0.201,0c-0.101,0-0.201,0-0.302-0.101c-0.201-0.101-0.503-0.101-0.806-0.201c-0.101,0-0.201,0-0.403,0
			c-0.403,0-0.604,0-1.007,0.101c-0.201,0-0.503,0.201-0.806,0.403c-0.302,0.201-0.604,0.403-0.906,0.604s-0.604,0.503-0.906,0.604
			c-0.302,0.201-0.604,0.403-0.906,0.503c-0.201,0.101-0.503,0.101-0.705,0.101c-0.403,0-0.705-0.101-1.007-0.201
			c-0.302-0.101-0.503-0.201-0.604-0.403c-0.101-0.101-0.201-0.101-0.201-0.201c-0.101-0.101-0.101-0.201-0.101-0.302
			c0,0,0-0.101,0-0.201c0-0.403,0.101-0.906,0.101-1.51s-0.101-1.309-0.403-1.813l0,0c0,0,0,0,0-0.101c0,0-0.101-0.101-0.101-0.201
			c-0.101-0.201-0.201-0.403-0.403-0.604c-0.302-0.503-0.604-0.906-1.007-1.41c0,0-0.101,0.101-0.201,0.201l-0.101,0.101
			l-0.101-0.101c0,0-0.705-0.604-1.007-0.705c-0.101-0.101-0.503-0.302-0.705-0.503c-0.201-0.101-0.302-0.201-0.403-0.201
			l-0.201,0.403l-0.101-0.101c0,0,0,0-0.101,0c0,0-0.101-0.101-0.201-0.101c-0.201-0.101-0.403-0.201-0.705-0.201
			c-0.101,0-0.201,0-0.403-0.101c-0.201,0-0.403-0.101-0.604-0.101l0,0c-0.101,0-0.302,0-0.403,0l0,0v0.101v0.101l0,0l0,0
			c0,0,0,0.101-0.101,0.101c0.101,0,0.403-0.101,0.403-0.101s-0.101,0-0.403,0.101l0,0c-0.302,0.101-0.806,0.201-1.813,0.403
			l0.101,0.302l-1.813,0.604l0.503,1.51l-0.302,0.201c0,0.101,0,0.201,0.101,0.302c0.101,0.201,0.101,0.403,0.201,0.604
			c0.201,0.503,0.503,1.208,0.503,1.208v0.101l-0.101,0.101c0,0-0.101,0-0.101,0.101l0,0l0,0c0.101,0.101,0.101,0.201,0.201,0.302
			c0.101,0.101,0.201,0.302,0.302,0.403s0.201,0.201,0.201,0.302c0.101,0.101,0.101,0.201,0.302,0.302
			c0.101,0.101,0.302,0.201,0.403,0.403c0.302,0.201,0.503,0.503,0.503,0.503l0.101,0.101l-0.201,0.201
			c0.101,0.101,0.201,0.101,0.302,0.201c0.201,0.201,0.503,0.403,0.604,0.503c0.101,0.101,0.201,0.101,0.403,0.201
			c0.101,0.101,0.302,0.101,0.403,0.201c0.302,0.101,0.503,0.201,0.503,0.201h0.101l-0.101,0.101
			c-0.101,0.101-0.101,0.201-0.101,0.302c0.302,0.101,1.108,0.201,1.913,0.201c0.403,0,0.705,0,1.108-0.101
			c0.806-0.302,1.41-0.705,1.813-1.108c0.101-0.101,0.201-0.201,0.302-0.302l0.101-0.101h0.101l0,0h0.101c0,0,0.101,0,0.101,0.101
			c0.101,0,0.201,0.101,0.302,0.101c0.201,0.101,0.503,0.201,0.604,0.302c0.604,0.302,1.208,0.503,1.208,0.503h0.201l-0.101,0.101
			l0,0c0,0,0,0.101-0.101,0.101c-0.101,0.101-0.101,0.302-0.201,0.503c-0.101,0.403-0.101,0.806,0.101,1.41
			c0.403,1.007,1.51,1.913,2.92,1.913c0.201,0,0.503,0,0.604-0.101c0.201,0,0.503-0.201,0.705-0.302
			c0.302-0.201,0.503-0.403,0.604-0.604c0.201-0.302,0.302-0.604,0.201-0.806c-0.101-0.302-0.201-0.604-0.604-0.906
			c-0.101-0.101-0.302-0.201-0.503-0.201s-0.403,0.101-0.604,0.201c-0.201,0.101-0.302,0.302-0.403,0.403
			c-0.101,0.201-0.101,0.403-0.101,0.604s0.101,0.302,0.201,0.403l0.101,0.101c0,0,0,0.101,0.101,0.101v0.101v0.101l-0.101,0.101
			c-0.403,0.201-0.604,0.302-0.906,0.302c-0.403,0-0.604-0.101-0.906-0.302c-0.302-0.201-0.503-0.503-0.604-0.604
			c-0.101-0.201-0.201-0.403-0.302-0.604c0-0.201-0.101-0.503,0-0.705c0-0.302,0.101-0.503,0.201-0.604s0.101-0.201,0.201-0.201
			c0.101-0.101,0.201-0.101,0.302-0.101c0.604,0,1.007-0.201,1.51-0.503s0.806-0.604,1.309-0.906
			c0.302-0.302,0.604-0.503,0.906-0.705c0.403-0.302,0.806-0.403,1.309-0.403c0.201,0,0.302,0,0.403,0
			c0.302,0,0.604,0.101,0.705,0.201c0.101,0.101,0.201,0.101,0.302,0.201c0.101,0.101,0.101,0.201,0.101,0.302
			c0,0.201-0.101,0.302-0.201,0.403c0,0.101-0.101,0.101-0.201,0.101s-0.101,0.101-0.201,0.101
			c-0.201,0.101-0.302,0.201-0.403,0.302s-0.201,0.302-0.201,0.403s0,0.101,0,0.201c0,0,0,0.101,0.101,0.101l0.101,0.101
			c0.101,0,0.101,0.101,0.201,0.201c0.201,0.101,0.403,0.302,0.604,0.503c0.302,0.403,0.403,0.604,0.503,1.007
			c0,0.201,0.101,0.302,0.101,0.403s0.101,0.101,0.101,0.101l0.101,0.101c0.101,0,0.201,0.101,0.403,0.101
			c0.201,0,0.302,0.101,0.503,0.101c0.403,0,0.705,0.101,1.007,0.101c0.201,0,0.302,0,0.403,0s0.101,0,0.101,0h0.101
			c0.101,0,0.101,0,0.201,0.101c0,0,0,0,0.101,0l0,0c0,0,0,0,0.101,0.101c0,0,0,0,0.101,0s0.201,0.101,0.403,0.101
			c0.101,0,0.201,0,0.302,0s0.201,0,0.302,0c0.201,0,0.503,0,1.108-0.302c0.302-0.101,0.604-0.302,0.906-0.604
			c0.302-0.302,0.604-0.604,0.906-0.806c0.201-0.201,0.403-0.403,0.604-0.604c0.101-0.101,0.201-0.101,0.201-0.201
			c0.101-0.101,0.101-0.101,0.201-0.101c0.101,0,0.302-0.101,0.403-0.101c0.201,0,0.403,0.101,0.604,0.201
			c0.101,0.101,0.201,0.302,0.201,0.403c0,0.201-0.101,0.403-0.201,0.604c-0.201,0.302-0.403,0.403-0.604,0.503
			c-0.101,0.101-0.302,0.101-0.403,0.201c-0.201,0-0.302,0.101-0.503,0.101c-0.302,0.101-0.604,0.201-0.806,0.302
			c-0.101,0-0.201,0.101-0.201,0.201s-0.101,0.101-0.101,0.201c0,0.101,0,0.201,0,0.302s0,0.302,0,0.403s0,0.302,0,0.403
			s0,0.201,0,0.302s-0.101,0.201-0.101,0.302c-0.101,0.101-0.101,0.201-0.201,0.302c-0.101,0.101-0.201,0.201-0.201,0.302
			c-0.201,0.201-0.403,0.503-0.604,0.604c-0.101,0.101-0.101,0.201-0.101,0.302s0,0.201,0,0.302
			c0.101,0.101,0.101,0.201,0.201,0.201c0.101,0,0.201,0.101,0.302,0.101c0.101,0,0.201,0,0.403,0c0.101,0,0.302,0,0.503,0
			c0.101,0,0.201,0,0.302,0s0.302,0.101,0.503,0.101c0.201,0.101,0.503,0.101,0.705,0.201c0.302,0.101,0.503,0.101,0.705,0.101
			c0.101,0,0.302,0,0.403,0s0.101,0,0.201-0.101c0.101,0,0.201-0.101,0.302-0.201c0.201-0.101,0.403-0.302,0.604-0.403
			C57.093,111.67,57.194,111.57,57.395,111.469L57.395,111.469z"/>
		<path style="fill:#FFFFFF;" d="M98.982,103.917L98.982,103.917L98.982,103.917c0-0.101,0-0.101,0.101-0.201c0,0,0,0,0.101-0.101
			c0.101,0,0.201-0.101,0.302-0.201c0.201-0.101,0.503-0.302,0.806-0.503s0.604-0.403,0.906-0.604s0.604-0.302,0.806-0.302
			c0.201,0,0.403-0.101,0.604-0.101c0.906,0,1.813,0.403,2.517,0.806c0.705,0.503,1.208,0.906,1.51,1.108
			c0.201,0.201,0.503,0.503,0.806,0.604c0.201,0.101,0.302,0.201,0.503,0.302s0.302,0.101,0.403,0.101s0.101,0,0.201-0.101l0,0l0,0
			c0,0,0,0,0-0.101c0,0-0.101-0.101-0.201-0.101c-0.101,0-0.201-0.101-0.201-0.201c-0.101-0.101-0.302-0.201-0.403-0.302
			c-0.101-0.101-0.302-0.201-0.302-0.302c0-0.101-0.101-0.101-0.201-0.201c-0.101-0.101-0.201-0.201-0.302-0.302
			c-0.201-0.201-0.403-0.403-0.604-0.604s-0.503-0.403-0.604-0.604c-0.201-0.201-0.403-0.302-0.403-0.302
			c-0.101-0.101-0.201-0.201-0.403-0.201c-0.201-0.101-0.302-0.201-0.503-0.201c-0.302-0.101-0.604-0.302-0.604-0.302l-0.302-0.101
			l0.302-0.101c0,0,0.503-0.201,0.906-0.403c0.302-0.101,0.604-0.201,0.806-0.302c0.302-0.101,0.503-0.201,0.604-0.201
			s0.503-0.101,0.806-0.101c0.403-0.101,0.906-0.101,1.309-0.201c0.503-0.101,0.806-0.201,1.108-0.201
			c0.101,0,0.201-0.101,0.302-0.101l0,0c0.201,0,0.302-0.101,0.403-0.101s0.201-0.101,0.302-0.101s0.101-0.101,0.201-0.101l0,0
			c0,0,0,0,0-0.101l0,0c0,0-0.101,0-0.201,0c-0.101,0-0.302,0-0.503,0.101c-0.201,0-0.403,0.101-0.604,0.101
			s-0.302,0.101-0.503,0.101c-0.101,0-0.302,0-0.302,0l0,0c-0.101,0-0.101,0-0.201,0c-0.604,0-1.611,0.101-2.316,0.302
			c-0.705,0.101-1.309,0.302-1.309,0.302h-0.201V99.59c0,0,0.101-0.302,0.101-0.604c0-0.101,0.101-0.302,0.101-0.403
			s0.101-0.302,0.201-0.403l0.101-0.101c0-0.101,0.101-0.201,0.101-0.302c0-0.101,0.101-0.201,0.101-0.201c0-0.101,0-0.101,0-0.101
			l0,0c0,0,0,0-0.101,0l0,0c0,0,0,0-0.101,0c0,0-0.101,0-0.101,0.101c-0.101,0.101-0.201,0.201-0.302,0.403
			c-0.201,0.302-0.403,0.604-0.604,1.007c-0.101,0.302-0.302,0.503-0.403,0.604s-0.101,0.201-0.201,0.302l-0.101,0.101l-0.101,0.101
			c-0.101,0.101-0.403,0.201-0.604,0.403c-0.302,0.201-0.604,0.302-1.007,0.503c-0.604,0.302-1.309,0.604-1.309,0.604l-0.201,0.101
			v-0.201l0,0v0.604c0-0.101,0-0.302,0-0.403c0-0.403-0.101-0.705-0.403-1.007c0,0,0,0-0.101-0.101
			c-0.101-0.201-0.503-0.604-0.705-0.906c-0.201-0.201-0.403-0.403-0.604-0.604c-0.101-0.101-0.201-0.201-0.302-0.302l-0.101-0.101
			l-0.101-0.101c-0.101-0.201-0.201-0.403-0.403-0.604c-0.101-0.101-0.201-0.201-0.201-0.201c-0.101-0.101-0.101-0.101-0.201-0.101
			l0,0l0,0l0,0v0.101c0,0.101,0.101,0.302,0.201,0.503c0.201,0.403,0.503,0.705,0.604,0.906c0.403,0.403,0.705,0.806,0.906,1.208
			c0.302,0.503,0.503,0.906,0.503,1.51c0,0.403-0.101,0.705-0.302,0.906c-0.201,0.302-0.403,0.403-0.604,0.604
			c-0.302,0.101-0.503,0.201-0.705,0.302c-0.302,0.101-0.503,0.101-0.604,0.101s-0.101,0-0.201,0c0,0,0,0-0.101,0l0,0
			c-0.201,0.101-0.302,0.201-0.403,0.302c-0.101,0.101-0.101,0.201-0.101,0.302s0.101,0.201,0.101,0.302
			c0.101,0.101,0.101,0.101,0.201,0.101h0.101c0.101,0,0.302,0,0.503-0.101c0.101,0,0.201,0,0.302,0s0.201,0,0.302,0
			s0.201,0,0.302,0c0.201,0,0.302,0.101,0.403,0.201c0.101,0.101,0.302,0.302,0.403,0.503c0.302,0.403,0.503,0.906,0.705,1.611
			c0.201,0.503,0.403,0.806,0.604,1.108c0.101,0.101,0.302,0.201,0.403,0.302c0.101,0,0.101,0.101,0.101,0.101h0.101
			c0,0,0,0,0-0.101s-0.101-0.201-0.302-0.503c-0.101-0.201-0.201-0.403-0.302-0.604c-0.101-0.201-0.201-0.403-0.201-0.604
			c0-0.101,0-0.302-0.101-0.503c0-0.201-0.101-0.403-0.201-0.604c-0.101-0.201-0.101-0.403-0.201-0.604
			c-0.101-0.201-0.201-0.302-0.201-0.403C99.284,104.118,99.083,104.017,98.982,103.917L98.982,103.917L98.982,103.917z"/>
		<path style="fill:#FFFFFF;" d="M32.826,102.004c0,0,0.503,1.611,1.813,2.014c0.806,0.302,1.41,0.302,1.813-0.101
			c0.503-0.604-0.302-1.41-0.604-1.611C34.336,101.299,32.826,102.004,32.826,102.004L32.826,102.004z"/>
		<path style="fill:#FFFFFF;" d="M32.322,101.299c0.101,0,1.108-0.302,2.014-0.403c0.101,0,0.101-0.302,0.101-0.302
			c-1.108-1.007-2.618-0.806-2.618-0.806S32.121,101.198,32.322,101.299L32.322,101.299z"/>
		<path style="fill:#FFFFFF;" d="M30.812,102.306c0.503,1.309,1.813,1.712,1.813,1.712c0-0.101,0.201-0.201,0.201-0.201
			c-0.604-0.604-0.705-1.813-0.806-1.813C31.819,101.903,30.711,102.306,30.812,102.306L30.812,102.306z"/>
		<path style="fill:#FFFFFF;" d="M32.322,105.629c0,0,1.813,0.302,2.618-0.604c0,0-0.705,0-1.712-0.604c0,0-0.302,0.201-0.503,0.503
			C32.524,105.226,32.322,105.629,32.322,105.629L32.322,105.629z"/>
		<path style="fill:#FFFFFF;" d="M30.208,104.42c0.503,0.302,1.41,0.604,1.611,0.604c0.101,0,0.302-0.604,0.201-0.604
			c-0.604-0.201-1.007-0.604-1.108-0.604C30.812,103.816,30.208,104.42,30.208,104.42L30.208,104.42z"/>
		<path style="fill:#FFFFFF;" d="M35.544,99.688c-0.101-0.101-0.604,1.51-0.403,1.611c0.906,0.302,1.41,1.007,1.41,0.906
			C36.652,102.104,36.652,100.795,35.544,99.688L35.544,99.688z"/>
		<path style="fill:#FFFFFF;" d="M33.329,99.083c-0.101-0.101,1.108,0.604,1.208,0.604c0.101,0,0.201-0.302,0.201-0.403
			c0-0.201-1.208-0.906-1.309-0.906C33.329,98.278,33.43,99.184,33.329,99.083L33.329,99.083z"/>
		<path style="fill:#FFFFFF;" d="M31.315,98.983c0,0,1.108,0,1.208-0.101c0.101-0.101,0.101-0.604,0.101-0.705
			c-0.101-0.101-1.208-0.403-1.41-0.403C31.013,97.875,31.214,98.983,31.315,98.983L31.315,98.983z"/>
		<path style="fill:#FFFFFF;" d="M29.402,98.177c0.101,0.201,0,0.302,0.101,0.503s0.201,0.302,0.302,0.503l0.705-0.101l-0.101-1.007
			L29.402,98.177L29.402,98.177z"/>
		<path style="fill:#FFFFFF;" d="M29.603,99.99c0,0,0.201,0.604,0.403,0.906c0.201,0.403,0.503,0.604,0.503,0.604
			s0.806-0.302,0.906-0.503c0-0.201-0.403-1.309-0.403-1.309L29.603,99.99L29.603,99.99z"/>
		<path style="fill:#FFFFFF;" d="M27.892,100.594c0,0,0.403,1.007,0.604,1.108c0,0,0.604-0.302,0.604-0.403
			s-0.302-0.906-0.302-0.906L27.892,100.594L27.892,100.594z"/>
		<path style="fill:#FFFFFF;" d="M28.798,102.608c0,0,0.302,0.503,0.503,0.604c0.201,0.201,0.604,0.604,0.604,0.604l0.503-0.503
			c-0.201-0.201-0.604-1.208-0.604-1.208L28.798,102.608L28.798,102.608z"/>
		<polygon style="fill:#FFFFFF;" points="28.194,99.688 28.596,99.587 28.596,99.386 28.798,99.285 28.596,98.781 27.791,99.083 		
			"/>
		<path style="fill:#FFFFFF;" d="M61.322,104.017c0.101,0,0.201,0,0.302,0c0.201,0,0.403,0.101,0.503,0.101h0.101
			c0.101,0,0.101-0.101,0.201-0.101c0.101-0.101,0.101-0.201,0.101-0.302c0-0.101,0-0.201-0.101-0.302s-0.201-0.201-0.403-0.302l0,0
			c0,0,0,0-0.101,0s-0.101,0-0.201,0c-0.201,0-0.403,0-0.604-0.101c-0.302-0.101-0.503-0.101-0.705-0.302
			c-0.302-0.101-0.503-0.302-0.604-0.604c-0.201-0.302-0.302-0.604-0.302-0.906c0-0.604,0.201-1.007,0.503-1.51
			s0.604-0.806,0.906-1.208c0.201-0.302,0.503-0.604,0.604-0.906c0.101-0.201,0.101-0.302,0.201-0.503c0-0.101,0-0.101,0-0.101l0,0
			l0,0l0,0c0,0-0.101,0-0.201,0.101c-0.101,0.101-0.201,0.101-0.201,0.201c-0.201,0.201-0.302,0.403-0.403,0.604l-0.2,0.2
			l-0.101,0.101c-0.101,0.101-0.201,0.201-0.302,0.302c-0.201,0.201-0.403,0.403-0.604,0.604c-0.403,0.403-0.604,0.705-0.705,0.906
			c0,0,0,0.101-0.101,0.101c-0.201,0.302-0.302,0.705-0.403,1.007c0,0.201,0,0.302,0,0.403s0,0.101,0,0.101l0,0v0.201l-0.201-0.101
			c0,0-0.604-0.302-1.309-0.604c-0.403-0.201-0.705-0.302-1.007-0.503s-0.604-0.302-0.604-0.403c0,0-0.101,0-0.101-0.101
			l-0.101-0.101c-0.101-0.101-0.101-0.201-0.201-0.302c-0.101-0.201-0.302-0.503-0.403-0.604c-0.201-0.403-0.403-0.705-0.604-1.007
			c-0.101-0.201-0.201-0.302-0.302-0.403l-0.101-0.101h-0.1l0,0c0,0,0,0-0.101,0l0,0v0.101c0,0.101,0.101,0.201,0.101,0.201
			c0,0.101,0.101,0.201,0.101,0.302c0,0.101,0.101,0.101,0.101,0.101c0,0.101,0.101,0.201,0.201,0.403
			c0,0.101,0.101,0.302,0.101,0.403c0.101,0.302,0.201,0.604,0.201,0.604v0.201h-0.201c0,0-0.604-0.101-1.309-0.302
			c-0.705-0.101-1.712-0.302-2.316-0.302c-0.101,0-0.101,0-0.201,0l0,0c-0.101,0-0.201,0-0.302,0c-0.101,0-0.302-0.101-0.503-0.101
			s-0.403-0.101-0.604-0.101s-0.403-0.101-0.503-0.101s-0.201,0-0.201,0l0,0c0,0,0,0,0,0.101l0,0c0,0,0.101,0.101,0.201,0.101
			s0.201,0.101,0.302,0.101c0.101,0,0.302,0.101,0.403,0.101s0.201,0.101,0.302,0.101c0.302,0.101,0.604,0.101,1.108,0.201
			c0.503,0.101,0.906,0.101,1.309,0.201c0.403,0,0.604,0.101,0.806,0.101c0.201,0,0.403,0.101,0.604,0.201
			c0.302,0.101,0.604,0.201,0.806,0.302c0.604,0.201,0.906,0.403,0.906,0.403l0.302,0.101l-0.302,0.101c0,0-0.302,0.101-0.604,0.302
			c-0.201,0.101-0.302,0.201-0.503,0.201c-0.201,0.101-0.302,0.201-0.403,0.201c-0.101,0.101-0.201,0.201-0.403,0.403
			s-0.403,0.403-0.604,0.604s-0.503,0.403-0.604,0.604c-0.101,0.101-0.201,0.201-0.302,0.302c-0.101,0.101-0.101,0.101-0.201,0.201
			c-0.101,0.101-0.201,0.201-0.302,0.302s-0.302,0.201-0.403,0.302s-0.201,0.101-0.201,0.201c-0.101,0.101-0.101,0.101-0.201,0.101
			c0,0,0,0,0,0.101l0,0l0,0l0,0c0,0,0.101,0.101,0.201,0.101s0.201,0,0.403-0.101c0.201-0.101,0.302-0.201,0.503-0.302
			c0.302-0.201,0.604-0.503,0.806-0.604c0.201-0.201,0.705-0.604,1.51-1.108c0.705-0.503,1.611-0.806,2.517-0.806
			c0.201,0,0.403,0,0.604,0.101c0.302,0,0.604,0.201,0.806,0.302c0.302,0.201,0.604,0.403,0.906,0.604s0.604,0.403,0.806,0.503
			c0.101,0.101,0.201,0.101,0.302,0.201h0.101c0,0,0,0.101,0.101,0.101c0,0,0,0,0,0.101l0,0l0,0
			c-0.101,0.101-0.201,0.201-0.403,0.503c-0.101,0.101-0.101,0.201-0.201,0.403c-0.101,0.201-0.201,0.403-0.201,0.604
			c-0.101,0.201-0.101,0.403-0.201,0.604c0,0.201-0.101,0.403-0.101,0.503c0,0.201-0.101,0.403-0.201,0.604
			c-0.101,0.201-0.201,0.403-0.302,0.604c-0.201,0.302-0.302,0.403-0.302,0.503v0.101l0,0c0,0,0,0,0.101,0c0,0,0.101,0,0.101-0.101
			c0.101-0.101,0.201-0.201,0.403-0.302c0.302-0.302,0.503-0.604,0.604-1.108c0.201-0.604,0.503-1.208,0.705-1.611
			c0.101-0.201,0.302-0.403,0.403-0.503c0.101-0.101,0.302-0.201,0.403-0.201s0.201,0,0.302,0
			C61.121,104.017,61.222,104.017,61.322,104.017L61.322,104.017z"/>
		<path style="fill:#FFFFFF;" d="M63.84,115.195c0,0,0.705,0.302,0.705,0.101c0.201-0.503,0.705-1.208,0.705-1.41
			c0-0.101-0.403-0.403-0.503-0.302C64.544,113.886,63.84,115.195,63.84,115.195L63.84,115.195z"/>
		<path style="fill:#FFFFFF;" d="M65.149,112.677c0,0,0.403,0.302,0.806,0.403c0.604,0.201,1.108,0.302,1.108,0.201
			c0.201-0.906,1.41-1.712,1.208-1.712C67.062,111.066,65.551,112.274,65.149,112.677L65.149,112.677z"/>
		<path style="fill:#FFFFFF;" d="M67.968,116.101c0,0,2.014-0.503,2.517-1.813c0.201-0.604,0.806-1.813-0.302-2.417
			c-0.906-0.403-1.712,0.604-2.215,1.611C67.666,114.288,67.968,116.101,67.968,116.101L67.968,116.101z"/>
		<path style="fill:#FFFFFF;" d="M65.551,117.209c0.101,0,0.604-0.101,0.906-0.201c0.403-0.201,0.705-0.403,0.705-0.403
			c-0.101-0.101-0.302-2.316-0.403-2.417c-0.101,0-0.302-0.101-0.403-0.101C65.149,114.59,65.249,117.108,65.551,117.209
			L65.551,117.209z"/>
		<path style="fill:#FFFFFF;" d="M63.336,118.115c0.101,0.101,1.108,0.101,1.309,0c0.101,0,0.201-0.403,0.101-0.503
			c-0.201-0.302-0.302-1.208-0.403-1.41c-0.101-0.101-0.503-0.101-0.604-0.101C63.638,116.202,63.235,118.014,63.336,118.115
			L63.336,118.115z"/>
		<path style="fill:#FFFFFF;" d="M63.739,120.531c0.201,0,1.007-0.101,1.108-0.201c0-0.101-0.201-1.208-0.302-1.309
			c-0.201-0.101-0.705,0-0.806,0.101C63.437,119.222,63.638,120.531,63.739,120.531L63.739,120.531z"/>
		<path style="fill:#FFFFFF;" d="M65.652,120.431c0.201,0,1.611-0.403,1.813-0.705c0.101-0.201-0.403-1.813-0.604-1.813
			c-0.201,0-1.41,0.302-1.51,0.403C65.249,118.518,65.551,120.431,65.652,120.431L65.652,120.431z"/>
		<path style="fill:#FFFFFF;" d="M64.645,122.344c0.101,0,0.806-0.201,0.806-0.302s-0.101-0.705-0.403-0.705
			c-0.201,0-0.806,0.201-0.705,0.302C64.444,121.639,64.544,122.445,64.645,122.344L64.645,122.344z"/>
		<path style="fill:#FFFFFF;" d="M66.558,122.243c0.201,0,1.208-0.403,1.208-0.403c0-0.101-0.503-1.007-0.604-1.007
			s-0.906,0.302-1.007,0.403C66.256,121.438,66.458,122.243,66.558,122.243L66.558,122.243z"/>
		<path style="fill:#FFFFFF;" d="M68.371,119.222c0,0,1.913-0.403,2.215-2.417c0,0-0.503-0.503-0.604-0.503
			c-0.503,0.201-1.309,0.503-1.813,0.705C67.767,117.209,68.371,119.222,68.371,119.222L68.371,119.222z"/>
		<path style="fill:#FFFFFF;" d="M70.888,115.597c0,0,0.201,0.403,0.503,0.604c0.503,0.403,1.108,0.806,1.108,0.705
			c0.604-1.913-0.705-3.927-0.705-3.524C71.694,114.59,70.888,115.597,70.888,115.597L70.888,115.597z"/>
		<path style="fill:#FFFFFF;" d="M71.19,119.625c0,0,0.705-0.906,0.806-1.813c0-0.101-0.604-0.503-0.604-0.302
			c-0.201,0.403-0.705,1.41-0.705,1.41L71.19,119.625L71.19,119.625z"/>
		<path style="fill:#FFFFFF;" d="M68.774,121.74c0,0,1.007-0.503,1.712-1.51c0,0-0.503-0.604-0.604-0.604
			c-0.604,0.403-1.712,0.604-1.712,0.604C68.169,120.431,68.774,121.74,68.774,121.74L68.774,121.74z"/>
		<path style="fill:#FFFFFF;" d="M95.055,115.295c0,0-0.705-1.309-1.007-1.611c-0.101-0.101-0.503,0.201-0.503,0.302
			c0.101,0.201,0.604,0.806,0.705,1.41C94.35,115.597,95.055,115.295,95.055,115.295L95.055,115.295z"/>
		<path style="fill:#FFFFFF;" d="M93.746,112.879c-0.503-0.403-1.913-1.712-3.222-1.208c-0.201,0.101,1.108,0.806,1.208,1.712
			c0,0.101,0.604,0,1.108-0.201C93.444,113.08,93.746,112.879,93.746,112.879L93.746,112.879z"/>
		<path style="fill:#FFFFFF;" d="M90.927,116.302c0,0,0.403-1.813,0-2.618c-0.604-1.007-1.208-1.913-2.215-1.611
			c-1.208,0.503-0.604,1.813-0.403,2.417C88.913,115.799,90.826,116.302,90.927,116.302L90.927,116.302z"/>
		<path style="fill:#FFFFFF;" d="M93.343,117.309c0.302-0.101,0.503-2.618-0.906-3.021c-0.101,0-0.302,0.101-0.403,0.101
			s-0.302,2.215-0.403,2.417c0,0,0.403,0.302,0.705,0.403C92.739,117.309,93.243,117.41,93.343,117.309L93.343,117.309z"/>
		<path style="fill:#FFFFFF;" d="M95.558,118.215c0.101-0.101-0.302-1.813-0.503-1.813c-0.201-0.101-0.503,0-0.604,0.101
			s-0.201,1.007-0.403,1.41c0,0.101,0,0.503,0.101,0.503C94.451,118.215,95.458,118.215,95.558,118.215L95.558,118.215z"/>
		<path style="fill:#FFFFFF;" d="M95.156,120.632c0.101,0,0.302-1.41,0.101-1.41c-0.201-0.101-0.705-0.201-0.806-0.101
			c-0.201,0.101-0.403,1.208-0.302,1.309C94.149,120.632,94.954,120.632,95.156,120.632L95.156,120.632z"/>
		<path style="fill:#FFFFFF;" d="M93.243,120.531c0.101,0,0.403-1.813,0.201-2.115c-0.101-0.101-1.309-0.403-1.51-0.403
			c-0.101,0-0.604,1.712-0.604,1.812C91.531,120.129,93.041,120.531,93.243,120.531L93.243,120.531z"/>
		<path style="fill:#FFFFFF;" d="M94.249,122.545c0.101,0,0.201-0.705,0.302-0.806c0.101,0-0.604-0.302-0.705-0.302
			c-0.201,0-0.403,0.604-0.403,0.705C93.444,122.344,94.149,122.545,94.249,122.545L94.249,122.545z"/>
		<path style="fill:#FFFFFF;" d="M92.336,122.445c0.101,0,0.403-0.906,0.302-1.007c0-0.201-0.806-0.403-1.007-0.403
			c-0.101,0-0.604,0.906-0.604,1.007C91.128,122.042,92.236,122.445,92.336,122.445L92.336,122.445z"/>
		<path style="fill:#FFFFFF;" d="M90.524,119.323c0,0,0.604-1.913,0.201-2.115c-0.604-0.302-1.41-0.503-1.813-0.705
			c-0.101,0-0.604,0.503-0.604,0.503C88.611,118.92,90.524,119.323,90.524,119.323L90.524,119.323z"/>
		<path style="fill:#FFFFFF;" d="M88.006,115.698c0,0-0.906-1.007-0.806-2.014c0-0.403-1.41,1.51-0.705,3.524
			c0,0,0.604-0.403,1.108-0.705C87.805,116,88.006,115.698,88.006,115.698L88.006,115.698z"/>
		<path style="fill:#FFFFFF;" d="M87.805,119.726l0.604-0.705c0,0-0.604-0.906-0.705-1.41c-0.101-0.201-0.604,0.201-0.604,0.302
			C86.999,118.82,87.805,119.726,87.805,119.726L87.805,119.726z"/>
		<path style="fill:#FFFFFF;" d="M90.222,121.74c0,0,0.604-1.309,0.604-1.41s-1.108-0.403-1.712-0.604
			c-0.101-0.101-0.604,0.604-0.604,0.604C89.114,121.337,90.222,121.74,90.222,121.74L90.222,121.74z"/>
		<path style="fill:#FFFFFF;" d="M126.069,102.104c0,0-1.51-0.604-2.92,0.403c-0.302,0.201-1.007,1.007-0.604,1.611
			c0.302,0.403,0.906,0.403,1.813,0.101C125.666,103.816,126.069,102.104,126.069,102.104L126.069,102.104z"/>
		<path style="fill:#FFFFFF;" d="M126.572,101.399c0.101,0,0.604-1.51,0.604-1.51s-1.611-0.201-2.618,0.806c0,0-0.101,0.302,0,0.302
			C125.465,101.097,126.472,101.399,126.572,101.399L126.572,101.399z"/>
		<path style="fill:#FFFFFF;" d="M128.184,102.507c0,0-1.007-0.403-1.208-0.403c-0.101,0-0.302,1.108-0.806,1.813
			c0,0,0.201,0.101,0.201,0.201C126.27,104.118,127.68,103.715,128.184,102.507L128.184,102.507z"/>
		<path style="fill:#FFFFFF;" d="M126.572,105.83c0,0-0.201-0.503-0.503-0.705c-0.201-0.302-0.503-0.503-0.503-0.503
			c-0.906,0.604-1.712,0.604-1.712,0.604C124.76,106.031,126.572,105.83,126.572,105.83L126.572,105.83z"/>
		<path style="fill:#FFFFFF;" d="M128.687,104.622l-0.604-0.604c-0.101,0-0.604,0.604-1.108,0.604l0.201,0.604
			C127.277,105.226,128.184,104.924,128.687,104.622L128.687,104.622z"/>
		<path style="fill:#FFFFFF;" d="M123.35,99.788c-1.108,1.108-1.108,2.417-1.007,2.517c0.101,0.101,0.503-0.604,1.41-0.906
			C123.954,101.299,123.451,99.688,123.35,99.788L123.35,99.788z"/>
		<path style="fill:#FFFFFF;" d="M125.465,99.184c-0.101,0.101,0-0.806-0.101-0.806s-1.309,0.705-1.309,0.906
			c0,0.101,0.101,0.403,0.201,0.403C124.357,99.788,125.566,99.184,125.465,99.184L125.465,99.184z"/>
		<path style="fill:#FFFFFF;" d="M127.579,99.184c0.101,0,0.302-1.108,0.201-1.108c-0.201,0-1.41,0.302-1.41,0.403
			c-0.101,0.101,0,0.604,0.101,0.705H127.579L127.579,99.184z"/>
		<path style="fill:#FFFFFF;" d="M129.493,98.379l-0.906-0.201l-0.101,1.007l0.705,0.101c0.101-0.201,0.201-0.302,0.302-0.503
			C129.392,98.681,129.392,98.479,129.493,98.379L129.493,98.379z"/>
		<path style="fill:#FFFFFF;" d="M129.392,100.191l-1.41-0.201c0,0-0.403,1.108-0.403,1.309s0.906,0.503,0.906,0.503
			s0.302-0.302,0.503-0.604C129.191,100.695,129.392,100.191,129.392,100.191L129.392,100.191z"/>
		<path style="fill:#FFFFFF;" d="M131.003,100.695l-0.906-0.201c0,0-0.403,0.806-0.302,0.906c0,0.101,0.604,0.403,0.604,0.403
			C130.6,101.702,131.003,100.695,131.003,100.695L131.003,100.695z"/>
		<path style="fill:#FFFFFF;" d="M130.097,102.708l-0.806-0.604c0,0-0.503,1.007-0.604,1.208l0.503,0.503
			c0,0,0.503-0.403,0.604-0.604C129.795,103.111,130.097,102.708,130.097,102.708L130.097,102.708z"/>
		<polygon style="fill:#FFFFFF;" points="130.298,98.882 130.097,99.486 130.298,99.587 130.298,99.788 130.701,99.788 
			131.104,99.184 		"/>
		<polygon style="fill:#616262;" points="44.506,25.476 44.506,25.476 44.506,25.576 44.506,25.576 		"/>
		<polygon style="fill:#616262;" points="46.319,24.972 46.419,24.771 46.52,24.771 46.52,27.187 46.822,27.187 46.822,27.187 
			47.124,27.187 47.124,27.087 47.124,23.764 47.024,23.663 46.218,23.663 46.218,23.764 45.815,26.08 45.715,26.18 45.715,26.18 
			45.614,26.08 45.11,23.764 45.01,23.764 44.305,23.764 44.305,23.764 44.305,27.087 44.406,27.187 44.909,27.187 44.909,27.087 
			44.909,26.785 44.909,25.778 44.909,25.778 44.909,25.173 44.909,24.771 45.01,24.771 45.412,27.087 45.412,27.187 46.017,27.187 
			46.017,27.087 		"/>
		<path style="fill:#616262;" d="M49.843,25.778L49.843,25.778l-0.604,0.101l-0.101-0.101v-0.101l0.302-1.007l0.101-0.101h0.101
			L49.843,25.778L49.843,25.778z M50.246,25.576l-0.101-0.403l-0.403-1.41v-0.101h-0.604h-0.101l-0.906,3.122l-0.101,0.302h0.101
			h0.101l0,0h0.302l0,0h0.101l0.201-0.604l0.101-0.101h0.705l0,0h0.302l0.101,0.201l0.101,0.503l0.101,0.101h0.503v-0.101
			L50.246,25.576L50.246,25.576L50.246,25.576z"/>
		<path style="fill:#616262;" d="M53.367,25.073l-0.201,0.101h-0.604l-0.201-0.101v-0.302v-0.605l0,0h0.906l0.201,0.101l0.101,0.201
			v0.201L53.367,25.073L53.367,25.073L53.367,25.073z M52.36,25.778L52.36,25.778h0.705h0.101l0.101,0.101l0.101,0.101v0.705
			l0.101,0.302l0.101,0.101h0.101h0.503h0.101v-0.102l-0.101-0.101v-0.302v-0.705l-0.101-0.201l-0.202-0.201l0.201-0.201
			l0.101-0.201l0.101-0.302l0,0v-0.101V24.47l-0.101-0.403l-0.201-0.302l-0.101-0.101l-0.201-0.101h-0.202h-1.712l0,0v2.013v1.51
			v0.101h0.503l0,0v-1.108L52.36,25.778L52.36,25.778z"/>
		<polygon style="fill:#616262;" points="62.631,26.684 62.631,26.986 62.732,27.087 64.746,27.087 64.746,27.087 64.746,26.583 
			64.746,26.583 63.235,26.583 63.235,26.583 63.235,26.482 63.135,25.677 63.235,25.576 63.235,25.576 64.544,25.576 
			64.544,25.576 64.544,25.073 64.544,25.073 63.336,25.073 63.235,24.972 63.135,24.67 63.235,24.368 63.235,24.267 63.336,24.267 
			64.142,24.267 64.142,24.267 64.645,24.267 64.645,24.267 64.746,23.764 64.645,23.663 62.732,23.663 62.631,23.663 62.631,24.67 
			62.631,24.771 62.631,25.677 62.631,25.778 		"/>
		<polygon style="fill:#616262;" points="60.718,26.18 60.718,26.382 60.517,26.583 60.517,26.583 60.114,26.684 60.114,26.684 
			60.013,26.583 59.812,26.583 59.61,26.18 59.61,24.771 59.61,24.67 59.61,24.67 59.61,24.368 59.61,23.764 59.61,23.663 
			59.107,23.663 59.107,23.663 59.107,25.979 59.208,26.482 59.208,26.684 59.308,26.785 59.51,26.986 59.711,27.087 60.114,27.187 
			60.416,27.187 60.416,27.187 60.617,27.187 60.819,26.986 61.121,26.785 61.322,26.583 61.322,26.18 61.322,23.663 61.322,23.663 
			60.919,23.663 60.819,23.663 60.718,23.663 		"/>
		<path style="fill:#616262;" d="M55.784,25.073l0.201-0.503l0.201-0.201l0.302-0.101h0.302h0.201l0.201,0.101l0.201,0.201
			l0.101,0.201l0.101,0.503v0.503l-0.101,0.503h-0.101l-0.302-0.302l0,0v-0.101H56.99l-0.201,0.302l-0.101,0.101l0.302,0.302l0,0
			l-0.201,0.101h-0.201l0,0h-0.101l-0.201-0.101l-0.201-0.201l-0.201-0.302l-0.101-0.403L55.784,25.073L55.784,25.073L55.784,25.073
			L55.784,25.073z M56.892,27.187l0.503-0.201l0.302,0.302h0.101v-0.101l0,0l0.201-0.201v-0.101l-0.302-0.302v-0.101l0.101-0.302
			l0.101-0.302L58,25.375v-0.302l-0.101-0.503l-0.101-0.404l-0.201-0.302l-0.201-0.201l-0.201-0.201l-0.302-0.101h-0.201h-0.404
			l-0.302,0.101l-0.302,0.201l-0.201,0.201l-0.302,0.403L55.08,24.67l-0.101,0.403v0.503l0.101,0.403l0.201,0.503l0.201,0.403
			l0.302,0.201l0.201,0.101l0.403,0.101h0.302l0,0h0.201L56.892,27.187L56.892,27.187z"/>
		<path style="fill:#616262;" d="M114.489,24.166L114.489,24.166L114.489,24.166z"/>
		<path style="fill:#616262;" d="M94.552,24.267h0.604l0.201,0.101l0.201,0.201l0.101,0.302l0.101,0.503v0.202l-0.101,0.503
			l-0.201,0.302l-0.101,0.101l-0.403,0.101h-0.503l0,0l-0.101-0.101L94.552,24.267L94.552,24.267L94.552,24.267z M93.746,25.778
			v1.309l0.101,0.101h1.41l0,0l0.302-0.101l0.201-0.201l0.201-0.302l0.201-0.302l0.101-0.503l0.101-0.604l-0.101-0.604l-0.101-0.201
			l-0.201-0.403l-0.302-0.403l-0.302-0.101h-1.51l-0.101,0.101l0,0L93.746,25.778L93.746,25.778z"/>
		<polygon style="fill:#616262;" points="97.27,25.173 97.27,26.986 97.371,27.087 99.486,27.087 99.586,26.986 99.586,26.583 
			99.486,26.583 97.975,26.583 97.975,26.482 97.975,26.482 97.975,25.576 98.076,25.576 99.284,25.576 99.284,25.576 
			99.284,25.073 99.284,25.073 99.183,24.972 97.975,24.972 97.975,24.972 97.975,24.871 97.975,24.368 97.975,24.267 
			98.076,24.267 99.385,24.267 99.486,24.166 99.486,23.864 99.486,23.864 99.486,23.663 98.579,23.663 97.371,23.663 97.27,24.368 
			97.27,24.368 		"/>
		<path style="fill:#616262;" d="M102.003,25.173l-0.201,0.101h-0.604l0,0h-0.101v-0.906h0.101h0.604h0.201l0.101,0.101l0.101,0.201
			v0.302L102.003,25.173L102.003,25.173L102.003,25.173z M101.197,26.684v-0.705l0.101-0.101h0.604h0.302l0.302-0.101l0.302-0.302
			l0.201-0.503v-0.101l0,0v-0.604l-0.101-0.403l-0.201-0.201l-0.201-0.101l-0.201-0.101h-1.51l0,0v2.316l0,0l0,0v0.906l0.101,0.101
			h0.503l0,0h0.101L101.197,26.684L101.197,26.684z"/>
		<polygon style="fill:#616262;" points="111.065,27.087 112.475,27.087 113.18,27.087 113.18,26.785 113.18,26.785 113.18,26.583 
			112.979,26.583 111.569,26.583 111.569,26.482 111.569,25.576 111.569,25.576 112.878,25.576 112.979,25.576 112.979,25.073 
			112.878,24.972 111.569,24.972 111.569,24.871 111.569,24.469 111.569,24.469 111.569,24.267 111.67,24.267 113.079,24.267 
			113.079,24.166 113.079,23.663 113.079,23.663 111.065,23.663 110.965,23.663 110.965,24.569 110.965,26.08 110.965,26.08 
			110.965,26.18 		"/>
		<polygon style="fill:#616262;" points="116,27.087 116.201,27.087 116.201,27.087 116.302,27.087 116.302,27.087 116.402,27.087 
			116.402,27.087 116.503,26.785 116.402,26.583 114.993,26.482 114.993,26.482 114.892,25.576 114.993,25.576 116.302,25.576 
			116.302,25.576 116.302,25.073 116.302,24.972 114.993,24.972 114.993,24.972 114.993,24.267 114.993,24.267 116.302,24.267 
			116.402,24.166 116.402,23.663 116.302,23.663 115.697,23.663 115.496,23.663 115.496,23.663 114.288,23.663 114.288,24.267 
			114.288,24.368 114.288,26.08 114.288,27.087 114.388,27.087 		"/>
		<path style="fill:#616262;" d="M105.326,26.583L105.326,26.583h-0.201l0,0h-0.201l-0.201-0.101l-0.201-0.201l-0.101-0.201
			l-0.101-0.403l-0.101-0.503l0.101-0.604l0.201-0.302l0.201-0.101l0.201-0.101h0.302h0.201l0.201,0.101l0.201,0.201l0.201,0.403
			l0.101,0.503v0.302l-0.101,0.604l-0.201,0.302l-0.201,0.101H105.326L105.326,26.583z M104.42,26.885l0.302,0.101l0.403,0.101
			h0.302l0,0h0.201l0.302-0.101l0.201-0.201l0.201-0.201l0.201-0.403l0.101-0.403l0.101-0.503v-0.302l-0.101-0.604l-0.201-0.503
			l-0.201-0.201l-0.302-0.201l-0.403-0.101h-0.503h-0.201l-0.302,0.101l-0.201,0.101l-0.302,0.201l-0.201,0.403l-0.101,0.403
			l-0.101,0.503v0.501l0.101,0.403l0.101,0.302l0.201,0.302L104.42,26.885L104.42,26.885z"/>
		<polygon style="fill:#616262;" points="108.447,24.166 108.85,24.166 109.052,24.267 109.152,24.368 109.253,24.67 109.354,24.67 
			109.656,24.67 109.656,24.67 109.756,24.67 109.756,24.469 109.756,24.267 109.555,23.965 109.454,23.764 109.152,23.663 
			108.951,23.562 108.548,23.562 108.145,23.663 107.944,23.764 107.843,23.965 107.743,24.166 107.642,24.368 107.642,24.771 
			107.743,25.173 107.944,25.375 108.246,25.576 108.85,25.576 109.052,25.677 109.152,25.778 109.253,25.979 109.253,26.281 
			109.253,26.382 109.152,26.583 108.85,26.684 108.649,26.684 108.347,26.583 108.145,26.281 108.045,26.08 108.045,26.08 
			107.541,26.08 107.541,26.18 107.541,26.382 107.642,26.583 107.843,26.785 107.944,26.986 108.145,27.087 108.548,27.187 
			108.85,27.187 108.85,27.187 109.152,27.087 109.454,26.986 109.656,26.785 109.857,26.583 109.857,26.18 109.857,25.979 
			109.857,25.778 109.756,25.576 109.656,25.375 109.454,25.274 109.152,25.173 108.347,24.972 108.145,24.771 108.045,24.67 
			108.045,24.469 108.145,24.368 108.246,24.267 		"/>
	</g>
</g>
</svg>
