<svg version="1.1" id="hyundai" xmlns="http://www.w3.org/2000/svg" xmlns:xlink="http://www.w3.org/1999/xlink" x="0px" y="0px"
	 width="154.24px" height="72.584px" viewBox="0 0 154.24 72.584" style="enable-background:new 0 0 154.24 72.584;"
	 xml:space="preserve">
<g>
	<polygon style="opacity:0.49;fill:#231F20;enable-background:new    ;" points="0,53.315 5.986,53.315 5.986,59.769 16.556,59.769 
		16.556,53.315 22.448,53.315 22.448,71.648 16.556,71.648 16.556,63.885 5.893,63.885 5.893,71.555 0,71.555 	"/>
	<polygon style="opacity:0.49;fill:#231F20;enable-background:new    ;" points="23.103,53.315 28.902,53.315 34.982,60.331 
		41.062,53.315 46.768,53.315 37.882,64.54 37.882,71.648 32.083,71.648 32.083,63.979 	"/>
	<path style="opacity:0.49;fill:#231F20;enable-background:new    ;" d="M47.516,53.315h5.893v14.217h9.447
		c1.497,0,2.432-1.497,2.432-3.087v-11.13h5.893V68c0,2.338-2.619,3.648-4.022,3.648H47.61V53.315H47.516z"/>
	<path style="opacity:0.49;fill:#231F20;enable-background:new    ;" d="M72.49,53.315h19.549c2.338,0,4.116,1.403,4.116,4.303
		v14.03h-5.893v-11.13c0-1.497-0.561-2.525-2.525-2.525h-8.792v13.656H72.49V53.315L72.49,53.315z"/>
	<path style="opacity:0.49;fill:#231F20;enable-background:new    ;" d="M98.025,53.315h17.117c3.461,0,5.986,2.806,5.986,4.864
		v8.418c0,1.497-2.151,5.051-4.77,5.051H97.932L98.025,53.315L98.025,53.315z M103.918,67.533h8.979
		c1.216,0,2.338-1.029,2.338-2.151v-5.425c0-1.216-1.122-2.058-2.432-2.058h-8.886v9.634H103.918z"/>
	<path style="opacity:0.49;fill:#231F20;enable-background:new    ;" d="M128.424,53.222h18.333v18.427h-6.548v-4.77h-11.224v4.77
		h-6.641V59.676C122.157,55.654,125.712,53.222,128.424,53.222L128.424,53.222z M128.892,59.769v2.993h11.318v-4.677h-9.541
		C129.547,58.086,128.892,58.647,128.892,59.769L128.892,59.769z"/>
	<polygon style="opacity:0.49;fill:#231F20;enable-background:new    ;" points="147.973,53.222 153.772,53.222 153.772,72.21 
		147.973,72.21 	"/>
	<path style="opacity:0.49;fill:#231F20;enable-background:new    ;" d="M77.26,0C52.847,0,33.111,9.728,33.111,21.794
		s19.83,21.794,44.149,21.794s44.149-9.728,44.149-21.794C121.409,9.821,101.58,0,77.26,0L77.26,0z M73.051,4.864
		c5.051-1.777,20.017,0,25.816,2.806c1.871,1.777-8.325,7.576-20.391,10.008C61.172,21.139,69.403,7.857,73.051,4.864L73.051,4.864z
		 M43.4,30.68c-3.741-2.713-11.224-10.476,1.122-18.52c6.454-3.741,10.195-4.677,14.685-5.612c2.151-0.468,3.648,0.094,1.777,1.684
		c-4.116,4.209-12.721,18.333-13.376,21.513C46.768,31.896,45.645,32.364,43.4,30.68L43.4,30.68z M78.944,39.659
		c-7.296,0.842-23.477-1.59-23.852-3.648c0.281-5.051,25.722-13.376,30.306-8.699C87.362,30.867,83.621,39.472,78.944,39.659
		L78.944,39.659z M115.984,25.068c-1.871,4.209-8.231,9.073-21.326,12.347c-1.964,0.468-2.713-0.842-1.403-1.964
		c2.151-1.31,12.721-18.801,13.937-22.355c0.842-1.777,2.245-1.122,3.18-0.374C114.581,15.434,117.761,19.923,115.984,25.068
		L115.984,25.068z"/>
	<polygon style="opacity:0.49;fill:#231F20;enable-background:new    ;" points="0.468,53.69 6.36,53.69 6.36,60.237 17.023,60.237 
		17.023,53.69 22.916,53.69 22.916,72.116 17.023,72.116 17.023,64.353 6.36,64.353 6.36,72.023 0.468,72.023 	"/>
	<polygon style="opacity:0.49;fill:#231F20;enable-background:new    ;" points="23.571,53.69 29.37,53.69 35.45,60.705 
		41.53,53.69 47.235,53.69 38.349,65.007 38.349,72.116 32.457,72.116 32.457,64.446 	"/>
	<path style="opacity:0.49;fill:#231F20;enable-background:new    ;" d="M47.984,53.69h5.893v14.217h9.447
		c1.497,0,2.432-1.497,2.432-3.087V53.69h5.893v14.685c0,2.338-2.619,3.648-4.022,3.648h-19.55V53.69H47.984z"/>
	<path style="opacity:0.49;fill:#231F20;enable-background:new    ;" d="M72.864,53.69h19.549c2.338,0,4.116,1.403,4.116,4.303
		v14.03h-5.893V60.892c0-1.497-0.561-2.525-2.525-2.525h-8.699v13.656h-6.548V53.69L72.864,53.69z"/>
	<path style="opacity:0.49;fill:#231F20;enable-background:new    ;" d="M98.493,53.69h17.117c3.461,0,5.986,2.806,5.986,4.864
		v8.418c0,1.497-2.151,5.051-4.77,5.051H98.399L98.493,53.69L98.493,53.69z M104.386,67.907h8.979c1.216,0,2.338-1.029,2.338-2.151
		v-5.425c0-1.216-1.122-2.058-2.432-2.058h-8.886v9.634H104.386z"/>
	<path style="opacity:0.49;fill:#231F20;enable-background:new    ;" d="M128.892,53.596h18.333v18.427h-6.548v-4.77h-11.224v4.77
		h-6.641V60.05C122.625,56.028,126.179,53.596,128.892,53.596L128.892,53.596z M129.36,60.237v2.993h11.318v-4.677h-9.541
		C129.921,58.46,129.36,59.115,129.36,60.237L129.36,60.237z"/>
	<polygon style="opacity:0.49;fill:#231F20;enable-background:new    ;" points="148.441,53.596 154.24,53.596 154.24,72.584 
		148.441,72.584 	"/>
	<path style="opacity:0.49;fill:#231F20;enable-background:new    ;" d="M77.634,0.561c-24.413,0-44.149,9.728-44.149,21.794
		s19.83,21.794,44.149,21.794s44.149-9.728,44.149-21.794C121.877,10.289,102.141,0.561,77.634,0.561L77.634,0.561z M73.519,5.332
		c5.051-1.777,20.017,0,25.816,2.806c1.871,1.777-8.325,7.576-20.391,10.008C61.64,21.607,69.871,8.325,73.519,5.332L73.519,5.332z
		 M43.868,31.241c-3.741-2.713-11.224-10.476,1.122-18.52c6.454-3.741,10.195-4.677,14.685-5.612
		c2.151-0.468,3.648,0.094,1.777,1.684c-4.116,4.209-12.721,18.333-13.376,21.513C47.329,32.27,46.113,32.831,43.868,31.241
		L43.868,31.241z M79.412,40.22c-7.296,0.842-23.477-1.59-23.852-3.648c0.281-5.051,25.722-13.376,30.306-8.699
		C87.83,31.335,84.088,39.94,79.412,40.22L79.412,40.22z M116.452,25.535c-1.871,4.209-8.231,9.073-21.326,12.347
		c-1.964,0.468-2.713-0.842-1.403-1.964c2.151-1.31,12.721-18.801,13.937-22.355c0.842-1.777,2.245-1.122,3.18-0.374
		C115.049,15.901,118.229,20.297,116.452,25.535L116.452,25.535z"/>
</g>
</svg>
