<svg version="1.1" id="Calque_1" xmlns="http://www.w3.org/2000/svg" xmlns:xlink="http://www.w3.org/1999/xlink" x="0px" y="0px"
	 width="146.832px" height="75.496px" viewBox="0 0 146.832 75.496" style="enable-background:new 0 0 146.832 75.496;"
	 xml:space="preserve">
<g id="Layer_2" style="opacity:0.7;">
	<path style="fill:#010101;" d="M70.149,22.477"/>
	<g>
		<path style="fill:#010101;" d="M74.227,0C49.757,0,29.908,10.151,29.908,22.749c0,12.507,19.848,22.749,44.319,22.749
			s44.319-10.151,44.319-22.749C118.546,10.151,98.698,0,74.227,0z M74.499,40.241c-22.386,0-40.512-7.794-40.512-17.401
			S52.113,5.438,74.499,5.438s40.512,7.794,40.512,17.401C114.921,32.446,96.795,40.241,74.499,40.241z"/>
		<path style="fill:#010101;" d="M88.91,13.685c0-0.091,0.091-0.181,0.091-0.272c0-0.272-0.272-0.453-0.453-0.453l0,0h-0.634
			c-0.091,0-0.091,0-0.091-0.091v-1.088c0-0.091,0.091-0.091,0.091-0.091h2.356h0.453h5.438c0.272,0,0.453,0.091,0.544,0.363
			l7.251,21.027v0.091c0,0.272-0.181,0.363-0.363,0.363l0,0h-5.257c-0.272,0-0.453-0.272-0.544-0.453l-4.441-13.595
			c0-0.091-0.091-0.272-0.272-0.272c-0.181,0-0.181,0.091-0.272,0.272l-4.441,13.595c-0.091,0.272-0.363,0.453-0.544,0.453h-5.257
			c-0.272,0-0.363-0.181-0.363-0.363v-0.091L88.91,13.685z"/>
		<path style="fill:#010101;" d="M71.599,13.685v-0.181l0,0c0-0.272-0.272-0.453-0.453-0.453h-0.725
			c-0.091,0-0.091-0.091-0.091-0.091v-1.088c0-0.091,0.091-0.091,0.091-0.091h1.088h0.544h0.363H77.4
			c0.272,0,0.453,0.272,0.453,0.453v21.027c0,0.272-0.272,0.453-0.453,0.453h-5.257c-0.272,0-0.453-0.272-0.453-0.453V14.229v-0.091
			L71.599,13.685z"/>
		<path style="fill:#010101;" d="M67.158,33.534h-6.072c-0.272,0-0.634-0.272-0.816-0.453l-5.982-8.338
			c-0.091-0.091-0.091-0.181-0.181-0.181c-0.091,0-0.091-0.091-0.181-0.091c-0.181,0-0.272,0.091-0.272,0.272v0.272l0,0v8.157
			c0,0.272-0.272,0.453-0.453,0.453h-5.166c-0.272,0-0.453-0.272-0.453-0.453V13.504l0,0c0-0.272-0.181-0.453-0.453-0.453l0,0
			h-0.725c-0.091,0-0.091-0.091-0.091-0.091v-1.088c0-0.091,0.091-0.091,0.091-0.091h1.088h0.544h5.166
			c0.272,0,0.453,0.272,0.453,0.453v5.438v0.363v1.088l0,0v0.091c0,0.181,0.091,0.272,0.272,0.272c0.091,0,0.181,0,0.181-0.091
			c0.091-0.091,0.091-0.091,0.181-0.181l0.816-1.088l4.169-5.891c0.181-0.272,0.544-0.453,0.816-0.453h5.8
			c0.272,0,0.363,0.181,0.363,0.363c0,0.091,0,0.181-0.091,0.272l-6.435,9.335c-0.091,0.091-0.091,0.181-0.091,0.363
			c0,0.091,0,0.181,0.091,0.272l7.794,10.604c0.091,0.091,0.091,0.181,0.091,0.272C67.611,33.353,67.339,33.534,67.158,33.534z"/>
	</g>
	<g>
		<g>
			<g>
				<path style="fill:#010101;" d="M30.634,58.095h-1.813L22.839,74.59h3.716l1.088-3.172h2.9h2.9l1.088,3.172h4.532l-5.982-16.495
					L30.634,58.095L30.634,58.095z M30.634,68.971h-2.085l2.085-5.71l2.085,5.71H30.634z"/>
				<polygon style="fill:#010101;" points="60.995,58.095 57.642,67.611 54.198,58.095 49.485,58.095 47.129,74.59 50.935,74.59 
					52.295,64.349 55.739,74.59 58.911,74.59 62.536,64.258 63.895,74.59 68.064,74.59 65.708,58.095 				"/>
				<rect x="16.858" y="58.095" style="fill:#010101;" width="4.532" height="16.495"/>
				<path style="fill:#010101;" d="M13.232,72.052L8.61,65.436l5.71-7.341H9.698L4.532,64.53v-6.435H0V74.59h4.532v-7.704
					l4.441,6.254c0,0,1.088,1.45,2.266,1.45h4.713C15.951,74.59,15.407,74.681,13.232,72.052z"/>
				<path style="fill:#010101;" d="M132.413,72.324l-3.807-5.71c3.535-1.088,3.353-4.532,3.353-4.532
					c0-3.897-4.532-4.078-4.532-4.078s-2.356,0-3.807,0h-4.803v16.495h4.532V60.451h1.631c0,0,2.628,0.181,2.628,2.356
					c0,0,0.363,3.444-3.897,3.444l4.713,7.16c0,0,0.816,1.178,2.538,1.178h3.535h0.363c0,0-0.181,0-0.363-0.181
					C134.226,74.227,133.501,73.684,132.413,72.324z"/>
				<path style="fill:#010101;" d="M146.824,69.696c-0.181-3.172-3.716-4.35-3.716-4.35c-4.713-1.722-4.35-3.444-4.35-3.444
					c0-1.903,3.081-1.994,3.081-1.994c2.175,0,3.444,1.088,3.444,1.088v-2.447c0,0-1.813-1.088-4.803-0.906
					c0,0-4.622,0.363-5.891,3.444c-0.272,0.453-0.363,1.088-0.363,1.722c0,0-0.091,0.816,0.363,1.813
					c0.363,0.997,1.359,2.085,3.353,3.081c0,0,4.622,1.45,4.532,3.353c-0.091,2.538-3.444,1.994-3.444,1.994
					c-1.903-0.363-3.897-1.178-4.532-1.45c-0.181-0.091-0.272-0.091-0.272-0.091l0.272,0.634l0.453,1.903
					c2.085,1.269,4.894,1.359,4.894,1.359C147.367,75.678,146.824,69.696,146.824,69.696z"/>
				<path style="fill:#010101;" d="M108.305,57.37c-3.988,0-7.432,2.447-8.791,5.891c-0.363,1.088-0.544,2.085-0.544,3.172
					s0.272,2.266,0.544,3.172c1.359,3.444,4.713,5.891,8.791,5.891c5.166,0,9.426-3.988,9.426-9.063
					C117.731,61.358,113.471,57.37,108.305,57.37z M108.305,72.777c-2.719,0-4.894-2.9-4.894-6.435c0-3.535,2.175-6.435,4.894-6.435
					s4.894,2.9,4.894,6.435C113.29,69.968,111.115,72.777,108.305,72.777z"/>
				<polygon style="fill:#010101;" points="100.148,60.542 100.148,58.095 99.604,58.095 86.644,58.095 86.1,58.095 86.1,60.542 
					86.644,60.542 90.813,60.542 90.813,74.59 95.435,74.59 95.435,60.542 99.604,60.542 				"/>
				<path style="fill:#010101;" d="M77.581,57.37c-5.257,0-9.426,3.988-9.426,9.063c0,5.075,4.26,9.063,9.426,9.063
					c4.26,0,7.794-2.628,8.973-6.344c0.272-0.906,0.363-1.722,0.363-2.628s-0.181-1.813-0.363-2.628
					C85.375,59.998,81.841,57.37,77.581,57.37z M77.581,72.777c-2.719,0-4.894-2.9-4.894-6.435c0-3.535,2.266-6.435,4.894-6.435
					c2.628,0,4.894,2.9,4.894,6.435C82.475,69.968,80.3,72.777,77.581,72.777z"/>
			</g>
		</g>
	</g>
</g>
<g>
</g>
<g>
</g>
<g>
</g>
<g>
</g>
<g>
</g>
<g>
</g>
<g>
</g>
<g>
</g>
<g>
</g>
<g>
</g>
<g>
</g>
<g>
</g>
<g>
</g>
<g>
</g>
<g>
</g>
</svg>
