<svg version="1.1" id="Calque_1" xmlns="http://www.w3.org/2000/svg" xmlns:xlink="http://www.w3.org/1999/xlink" x="0px" y="0px"
	 width="246.723px" height="40.415px" viewBox="0 0 246.723 40.415" style="enable-background:new 0 0 246.723 40.415;"
	 xml:space="preserve">
<g id="Layer_3">
	<g>
		<path d="M99.605,29.801c1.967,0,3.933,0.015,5.9-0.008c0.672-0.008,1.267-0.27,1.771-0.742c0.821-0.768,1.768-0.805,2.649-0.132
			c0.608,0.465,0.538,1.791-0.06,2.382c-1.162,1.148-2.301,2.321-3.406,3.524c-0.199,0.216-0.336,0.691-0.231,0.924
			c0.098,0.217,0.588,0.425,0.85,0.37c0.729-0.152,1.44-0.413,2.138-0.683c1.427-0.552,2.855-1.108,4.255-1.726
			c0.511-0.226,0.988-0.584,1.4-0.967c0.862-0.802,1.719-1.61,2.903-1.877c0.319-0.072,0.769-0.003,1.022,0.186
			c0.33,0.246,0.41,0.686,0.213,1.121c-0.151,0.334-0.276,0.68-0.395,1.028c-0.131,0.386-0.272,0.772-0.356,1.17
			c-0.483,2.271,1.184,3.248,3.034,2.903c1.192-0.222,2.385-0.605,3.483-1.118c1.268-0.593,2.457-1.368,3.632-2.139
			c1.108-0.728,2.155-1.55,3.224-2.338c0.609-0.448,1.038-1.005,1.226-1.771c0.223-0.907,0.626-1.043,1.498-0.702
			c0.682,0.267,1.416,0.41,2.084,0.705c1.17,0.515,1.54,1.787,0.902,2.876c-0.48,0.818-0.228,1.612,0.2,2.319
			c0.398,0.656,1.109,0.629,1.774,0.473c2.713-0.634,5.216-1.754,7.62-3.159c1.529-0.894,3.156-1.622,4.759-2.383
			c0.357-0.17,0.792-0.207,1.197-0.235c0.55-0.039,0.9,0.288,0.886,0.865c-0.013,0.549-0.166,1.095-0.187,1.645
			c-0.017,0.466-0.249,1.037,0.269,1.362c0.549,0.344,1.036-0.018,1.466-0.324c0.868-0.618,1.671-1.332,2.568-1.902
			c1.021-0.649,2.117-1.2,3.398-0.931c0.433,0.091,0.866,0.241,1.259,0.443c0.547,0.281,0.67,0.795,0.578,1.408
			c-0.126,0.839-0.262,1.7-0.204,2.538c0.056,0.813,0.582,1.042,1.372,0.763c0.249-0.088,0.482-0.224,0.716-0.35
			c0.487-0.263,0.625-0.592,0.396-1.161c-0.537-1.33-0.22-2.485,1.009-3.23c1.727-1.046,3.482-2.077,5.324-2.89
			c1.159-0.511,2.489-0.655,3.793-0.217c0.73,0.246,1.225,0.709,1.38,1.427c0.161,0.747-0.292,1.274-0.863,1.707
			c-0.831,0.629-1.691,1.23-2.457,1.931c-0.306,0.28-0.396,0.796-0.585,1.204c0.416,0.092,0.846,0.304,1.245,0.255
			c1.812-0.218,3.511-0.861,5.019-1.85c1.879-1.233,3.686-2.585,5.445-3.985c0.79-0.629,1.403-1.486,2.072-2.26
			c0.628-0.726,1.392-1.142,2.36-1.099c1.376,0.06,1.994,1.109,1.299,2.299c-0.598,1.023-1.313,1.977-1.969,2.967
			c-0.203,0.307-0.391,0.624-0.571,0.946c-0.37,0.663-0.357,1.183,0.024,1.581c0.468,0.49,1.242,0.7,1.793,0.363
			c2.022-1.236,3.754-2.769,4.31-5.188c0.202-0.877,0.172-1.851,0.043-2.751c-0.313-2.188-0.691-4.37-1.154-6.531
			c-0.262-1.225-0.838-2.242-2.242-2.657c-1.091-0.323-1.972-1.093-2.483-2.17c-0.385-0.811-0.066-1.372,0.811-1.483
			c1.993-0.253,3.86,0.218,5.672,0.997c1.062,0.457,2.16,0.689,3.326,0.773c1.364,0.098,2.71,0.426,4.07,0.602
			c1.501,0.194,3.008,0.339,4.514,0.488c2.103,0.209,4.281,0.312,6.185,1.203c2.267,1.061,4.531,0.799,6.86,0.742
			c1.756-0.043,3.519,0.159,5.278,0.276c2.249,0.149,4.493,0.376,6.744,0.472c3.299,0.14,6.602,0.17,9.901,0.296
			c1.245,0.048,2.496,0.168,3.725,0.372c1.397,0.232,1.774,0.983,1.136,2.247c-0.331,0.656-0.786,1.288-1.313,1.798
			c-0.705,0.683-1.833,0.697-2.519,0.01c-0.96-0.961-2.169-1.289-3.407-1.556c-1.18-0.254-2.376-0.477-3.577-0.579
			c-0.687-0.058-1.437,0.043-2.086,0.276c-0.643,0.232-1.107,0.114-1.585-0.262c-0.242-0.19-0.466-0.404-0.714-0.585
			c-0.494-0.362-1.021-0.509-1.611-0.211c-0.608,0.308-1.233,0.315-1.911,0.217c-1.744-0.254-3.499-0.43-5.251-0.631
			c-2.666-0.306-5.337-0.572-7.997-0.922c-1.662-0.218-3.299-0.631-4.963-0.828c-2.3-0.271-4.623-0.356-6.92-0.642
			c-2.13-0.266-4.239-0.694-6.359-1.044c-0.282-0.047-0.571-0.079-0.856-0.076c-1.023,0.011-1.486,0.666-1.188,1.639
			c0.366,1.191,0.794,2.37,1.06,3.584c0.346,1.579,0.533,3.192,0.847,4.778c0.076,0.383,0.305,0.913,0.598,1.026
			c0.298,0.115,0.771-0.181,1.149-0.339c0.181-0.076,0.324-0.246,0.48-0.379c0.655-0.557,1.309-1.115,1.963-1.673
			c0.062-0.053,0.12-0.115,0.191-0.155c0.603-0.342,1.239-0.853,1.931-0.46c0.724,0.41,0.82,1.235,0.833,2.008
			c0.031,1.793-1.041,2.755-2.584,3.325c-1.283,0.474-2.288,1.239-3.124,2.358c-1.086,1.454-2.344,2.78-3.541,4.15
			c-0.767,0.877-1.172,1.902-1.388,3.033c-0.075,0.39-0.26,0.769-0.45,1.124c-0.236,0.441-0.757,0.539-1.067,0.317
			c-0.785-0.565-1.526-1.213-2.179-1.925c-0.198-0.216-0.123-0.77-0.034-1.134c0.09-0.365,0.388-0.673,0.53-1.032
			c0.097-0.247,0.203-0.629,0.086-0.783c-0.121-0.158-0.513-0.168-0.778-0.144c-0.425,0.039-0.843,0.161-1.264,0.247
			c-1.942,0.398-2.802-0.08-3.503-1.947c-0.358-0.954-0.674-1.188-1.614-0.844c-1.226,0.449-2.409,1.018-3.592,1.575
			c-2.658,1.252-5.28,2.605-8.139,3.349c-1.476,0.384-2.968,0.421-4.186-0.804c-0.131-0.132-0.421-0.232-0.587-0.181
			c-0.954,0.293-1.906,0.602-2.832,0.972c-0.992,0.396-1.857,0.046-2.691-0.393c-0.578-0.305-0.606-0.937-0.613-1.521
			c-0.007-0.59,0.085-1.191,0.001-1.767c-0.127-0.868-0.495-1.077-1.256-0.658c-0.89,0.49-1.71,1.105-2.552,1.68
			c-1.282,0.875-2.539,1.789-3.842,2.631c-0.684,0.443-1.561,0.314-2.056-0.176c-0.47-0.465-0.521-1.187-0.195-1.945
			c0.274-0.636,0.544-1.283,0.715-1.951c0.068-0.265-0.048-0.718-0.246-0.868c-0.191-0.145-0.647-0.112-0.896,0.017
			c-1.76,0.913-3.486,1.893-5.245,2.81c-2.235,1.165-4.573,1.999-7.141,1.939c-0.463-0.011-0.938-0.096-1.383-0.23
			c-0.787-0.238-1.127-0.76-1.019-1.586c0.079-0.605,0.256-1.197,0.398-1.794c0.122-0.514,0.218-1.028-0.286-1.401
			c-0.511-0.378-1.049-0.353-1.521,0.053c-0.867,0.747-1.699,1.534-2.558,2.291c-1.667,1.471-3.474,2.728-5.565,3.528
			c-2.86,1.094-5.797,1.203-8.756,0.538c-0.951-0.214-1.665-0.746-1.668-2.046c-0.003-1.35-0.742-1.978-2-1.476
			c-1.605,0.641-3.121,1.503-4.701,2.213c-1.241,0.558-2.493,1.13-3.794,1.506c-0.943,0.272-1.973,0.186-2.753-0.601
			c-0.627-0.633-0.629-1.185-0.021-1.821c1.132-1.185,2.297-2.339,3.398-3.552c0.272-0.3,0.35-0.775,0.518-1.169
			c-0.39-0.133-0.799-0.421-1.166-0.374c-2.862,0.371-5.692-0.283-8.543-0.211c-0.78,0.02-1.357,0.151-1.91,0.808
			c-1.531,1.818-3.533,3.096-5.464,4.443c-2.162,1.508-4.474,2.728-7.045,3.37c-1.455,0.363-2.928,0.512-4.422,0.086
			c-2.054-0.585-3.123-2.048-3.716-3.978c-0.066-0.215-0.143-0.427-0.23-0.635c-0.389-0.936-1.173-1.217-2.068-0.687
			c-0.453,0.269-0.85,0.636-1.261,0.974c-1.396,1.15-2.591,0.392-2.972-1.09c-0.418-1.623,0.008-3.046,0.949-4.342
			c1.023-1.407,2.035-2.831,3.175-4.14c1.336-1.534,2.808-2.951,4.215-4.424c0.169-0.176,0.343-0.368,0.442-0.585
			c0.164-0.358,0.209-0.763-0.244-0.94c-0.587-0.229-0.6-0.693-0.528-1.167c0.081-0.541,0.16-1.163,0.829-1.3
			c0.898-0.185,1.832-0.479,2.715-0.388c1.686,0.174,2.868-0.591,4.148-1.516c2.571-1.857,5.223-3.611,7.922-5.277
			c1.325-0.817,2.711-1.604,4.292-1.913c2.467-0.481,3.984-0.172,5.462,2.132c1.127,1.756,1.315,3.604,0.954,5.576
			c-0.173,0.946-0.801,1.636-1.42,2.305c-0.981,1.06-2.237,1.721-3.574,2.206c-1.26,0.456-1.285,1.254-1.057,2.186
			c0.126,0.516,0.3,1.019,0.444,1.531c0.325,1.152,0.125,2.267-0.201,3.387c-0.29,0.993,0.165,2.048,1.431,1.996
			c1.065-0.044,2.132-0.009,3.199-0.009C99.605,29.885,99.605,29.843,99.605,29.801z M82.314,21.875
			c-1.24-0.314-1.818,0.043-2.319,0.683c-0.794,1.017-1.654,1.984-2.443,3.005c-0.385,0.498-0.737,1.044-0.985,1.62
			c-0.334,0.773,0.061,1.281,0.911,1.276c1.292-0.008,2.587-0.095,3.874-0.026c1.633,0.088,3.262,0.274,4.888,0.465
			c1.3,0.153,2.592,0.379,3.889,0.566c0.429,0.062,0.772-0.091,0.977-0.482c0.389-0.741,0.827-1.465,1.128-2.241
			c0.2-0.516,0.362-1.145,0.252-1.663c-0.277-1.308-1.899-2.812-3.469-2.88C86.645,22.098,84.273,21.971,82.314,21.875z
			 M81.876,30.557c-0.006,0.069-0.012,0.139-0.018,0.208c-2.111,0-4.222,0.017-6.333-0.013c-0.486-0.007-0.711,0.202-0.865,0.601
			c-0.488,1.264-0.513,2.552,0.013,3.783c0.676,1.584,2.106,2.907,4.261,2.361c1.065-0.27,2.131-0.596,3.133-1.038
			c2.34-1.033,4.46-2.418,6.222-4.3c0.125-0.133,0.258-0.38,0.213-0.517c-0.045-0.138-0.298-0.271-0.475-0.295
			C85.979,31.072,83.927,30.817,81.876,30.557z M90.052,18.769c1.066-0.138,2.277-0.212,3.448-0.468
			c1.356-0.297,2.633-0.883,2.991-2.396c0.293-1.242,0.282-2.532-0.224-3.745c-0.35-0.839-1.343-1.167-2.185-0.752
			c-0.495,0.244-0.965,0.54-1.435,0.831c-1.701,1.056-3.398,2.116-5.093,3.181c-0.814,0.511-1.655,0.988-2.415,1.571
			c-0.594,0.456-0.508,0.799,0.156,1.136c0.144,0.073,0.299,0.154,0.455,0.172C87.133,18.458,88.517,18.603,90.052,18.769z
			 M169.25,32.615c0.977-0.089,1.539-0.361,2.565-1.365c0.137-0.134,0.186-0.359,0.276-0.542c-0.198-0.079-0.39-0.194-0.595-0.227
			c-0.172-0.028-0.378-0.003-0.536,0.071c-0.645,0.3-1.299,0.59-1.903,0.961c-0.274,0.169-0.439,0.516-0.653,0.783
			C168.687,32.402,168.969,32.509,169.25,32.615z"/>
		<path d="M37.544,31.191c2.491-0.096,4.548-0.629,6.627-1.084c1.924-0.421,3.064-1.796,4.283-3.115
			c0.617-0.668,0.72-0.689,1.513-0.281c1.748,0.901,3.345,1.993,4.538,3.586c0.353,0.471,0.735,0.98,0.881,1.531
			c0.136,0.511,0.14,1.18-0.084,1.642c-0.813,1.68-2.181,2.867-3.706,3.917c-1.316,0.905-2.741,1.56-4.246,2.011
			c-2.045,0.613-4.13,1.049-6.292,0.675c-1.48-0.256-2.4-1.861-1.849-3.359c0.316-0.858,0.787-1.658,1.149-2.5
			c0.109-0.254,0.213-0.641,0.096-0.827c-0.124-0.197-0.525-0.338-0.785-0.311c-0.686,0.073-1.356,0.29-2.041,0.38
			c-2.193,0.287-4.386,0.61-6.589,0.781c-1.044,0.081-2.117-0.121-3.169-0.255c-0.779-0.099-1.48-0.129-2.264,0.203
			c-1.082,0.458-2.258,0.74-3.421,0.953c-1.852,0.338-3.722,0.598-5.593,0.81c-0.993,0.113-2.024,0.175-3.004,0.031
			c-0.636-0.094-1.222-0.581-1.81-0.928c-0.604-0.356-1.137-0.904-1.783-1.102c-0.982-0.302-1.69,0.415-2.367,1.017
			c-0.274,0.244-0.539,0.513-0.75,0.811c-0.673,0.955-1.558,1.487-2.729,1.659c-0.497,0.073-0.953,0.437-1.421,0.682
			c-0.324,0.17-0.631,0.373-0.956,0.541c-0.447,0.23-0.919,0.424-1.37,0.038C0,38.35-0.141,37.46,0.167,36.912
			c0.298-0.53,0.608-1.113,1.067-1.481c1.367-1.097,2.824-2.082,4.22-3.145c1.922-1.464,3.861-2.909,5.717-4.453
			c2.139-1.779,4.195-3.657,6.286-5.493c0.845-0.742,1.687-1.487,2.529-2.234c0.396-0.352,0.356-0.657-0.173-0.938
			c-0.396-0.21-0.817-0.396-1.248-0.514c-2.572-0.702-4.316-2.295-5.342-4.753c-0.301-0.72-0.691-1.386-0.665-2.199
			c0.03-0.945,1.057-1.583,1.817-1.032c0.578,0.419,1.146,0.977,1.465,1.603c1.1,2.158,2.949,3.199,5.176,3.765
			c0.317,0.08,0.649,0.159,0.927,0.32c0.669,0.389,1.099,0.138,1.591-0.369c2.74-2.822,5.454-5.675,8.299-8.389
			c1.871-1.785,3.55-3.803,5.852-5.114c1.713-0.976,3.416-1.964,5.378-2.333c2.271-0.428,3.882-0.034,4.926,2.249
			c0.61,1.335,0.342,2.713-0.267,3.982c-1.307,2.721-3.329,4.843-5.757,6.594c-1.08,0.779-2.14,1.599-3.286,2.268
			c-2.008,1.173-4.205,1.901-6.453,2.473c-1.624,0.413-3.243,0.844-4.868,1.253c-1.051,0.265-2.111,0.495-3.162,0.762
			c-0.204,0.052-0.423,0.163-0.569,0.311c-1.462,1.49-2.8,3.127-4.396,4.454c-1.46,1.214-2.204,2.742-2.787,4.427
			c-0.287,0.828-0.508,1.682-0.716,2.534c-0.191,0.784,0.299,1.422,1.076,1.661c1.738,0.536,3.403,0.261,5.033-0.383
			c1.042-0.412,2.056-0.896,3.079-1.354c0.647-0.289,1.018-0.849,1.221-1.476c0.675-2.084,2.295-3.209,4.152-4.006
			c1.132-0.486,2.372-0.737,3.58-1.023c1.203-0.285,2.166,0.055,2.626,0.818c0.495,0.82,0.342,2.131-0.388,2.986
			c-0.304,0.357-0.691,0.641-1.016,0.981c-0.561,0.586-0.471,0.952,0.322,1.137C36.224,30.993,37.054,31.105,37.544,31.191z
			 M43.418,2.667c-0.972,0.11-2.192,0.416-3.326,1.025c-2.045,1.097-3.798,2.577-5.408,4.222c-1.559,1.593-3.104,3.204-4.564,4.887
			c-0.755,0.87-1.369,1.88-1.941,2.887c-0.391,0.688-0.088,1.037,0.693,0.982c3.169-0.221,6.12-1.216,8.809-2.833
			c2.957-1.778,5.385-4.204,7.454-6.959C45.521,6.364,45.727,5.651,45.829,5C46.058,3.542,45.206,2.652,43.418,2.667z
			 M44.712,38.071c0.297-0.18,0.645-0.279,0.805-0.509c0.417-0.598,1.034-0.846,1.668-0.921c1.687-0.201,3.188-0.727,4.525-1.833
			c1.157-0.958,1.642-2.141,1.191-3.568c-0.487-1.539-2.082-2.267-3.475-1.562c-0.417,0.211-0.84,0.45-1.183,0.762
			c-1.102,1.004-2.207,2.011-3.236,3.088c-0.873,0.913-1.651,1.917-2.454,2.895c-0.35,0.427-0.168,0.806,0.267,0.996
			C43.408,37.674,44.034,37.842,44.712,38.071z M28.989,29.144c0.226,0.173,0.27,0.236,0.321,0.242
			c1.489,0.17,2.749-0.389,3.888-1.274c0.118-0.092,0.175-0.403,0.111-0.545c-0.061-0.137-0.339-0.288-0.483-0.257
			c-0.609,0.134-1.242,0.257-1.794,0.53C30.341,28.182,29.721,28.668,28.989,29.144z"/>
	</g>
</g>
<g>
</g>
<g>
</g>
<g>
</g>
<g>
</g>
<g>
</g>
<g>
</g>
<g>
</g>
<g>
</g>
<g>
</g>
<g>
</g>
<g>
</g>
<g>
</g>
<g>
</g>
<g>
</g>
<g>
</g>
</svg>
