<svg version="1.1" id="mrm-mccann" xmlns="http://www.w3.org/2000/svg" xmlns:xlink="http://www.w3.org/1999/xlink" x="0px" y="0px"
	 width="243.116px" height="31.296px" viewBox="0 0 243.116 31.296" style="enable-background:new 0 0 243.116 31.296;"
	 xml:space="preserve">
<g>
	<g>
		<path style="fill:#424242;" d="M52.517,13.349c0,0.681,0,1.362,0,2.043c0.001,3.209,0.003,6.418,0.005,9.627
			c0.001,1.278-0.687,1.98-1.965,1.985c-1.696,0.007-3.395-0.06-5.087,0.017c-2.106,0.096-3.741-0.691-5.13-2.236
			c-1.587-1.765-3.27-3.445-4.904-5.168c-0.17-0.179-0.346-0.273-0.596-0.27c-0.857,0.009-1.715,0.02-2.572-0.003
			c-0.371-0.01-0.439,0.148-0.437,0.473c0.013,1.728,0.011,3.456,0.009,5.184c-0.002,1.321-0.678,1.995-2.003,2.006
			c-0.4,0.003-0.8,0.007-1.2,0c-1.074-0.019-1.778-0.702-1.825-1.774c-0.012-0.265-0.001-0.532,0-0.797
			c0.002-4.975,0.004-9.95,0.004-14.925c0-0.627,0.012-1.252,0.145-1.87c0.325-1.504,1.245-2.439,2.727-2.823
			c0.348-0.09,0.712-0.15,1.071-0.163c2.304-0.083,4.621-0.217,6.91,0.034c5.481,0.601,8.168,5.954,6.122,10.439
			c-0.548,1.202-1.46,2.123-2.589,2.808c-0.398,0.241-0.504,0.383-0.114,0.767c1.84,1.813,3.648,3.659,5.469,5.492
			c0.107,0.108,0.217,0.216,0.339,0.305c0.334,0.242,0.53,0.145,0.567-0.259c0.019-0.207,0.018-0.417,0.018-0.626
			c0.001-5.203-0.002-10.406,0.003-15.608c0.001-0.905,0.045-1.82,0.878-2.412c0.836-0.594,1.777-0.951,2.815-0.981
			c1.015-0.03,1.66,0.588,2.184,1.345c1.924,2.779,3.836,5.567,5.745,8.357c0.206,0.301,0.319,0.487,0.617,0.049
			c1.674-2.465,3.374-4.914,5.068-7.366c0.345-0.499,0.686-1.003,1.058-1.482c0.576-0.741,1.354-1.027,2.275-0.878
			c0.738,0.12,1.431,0.393,2.086,0.749c0.691,0.376,1.031,0.999,1.111,1.757c0.048,0.452,0.042,0.91,0.042,1.365
			c0.002,5.469,0.002,10.937-0.001,16.406c-0.001,1.44-0.649,2.085-2.082,2.092c-0.324,0.002-0.648,0.002-0.972-0.001
			c-1.295-0.014-1.968-0.689-1.968-1.979c-0.001-3.456,0.001-6.912,0.001-10.368c0-0.453,0-0.905,0-1.483
			c-0.619,0.612-0.987,1.268-1.433,1.858c-0.882,1.166-1.729,2.357-2.595,3.535c-0.135,0.183-0.284,0.356-0.436,0.527
			c-1.518,1.713-3.39,1.742-4.904,0.029c-1.045-1.182-1.876-2.53-2.815-3.795c-0.502-0.677-0.991-1.363-1.486-2.045
			C52.621,13.305,52.569,13.327,52.517,13.349z M31.831,12.006c0,0.854,0.01,1.709-0.005,2.563
			c-0.006,0.342,0.111,0.466,0.463,0.462c1.448-0.018,2.896-0.003,4.344-0.015c1.184-0.01,2.016-0.564,2.524-1.634
			c0.76-1.601,0.032-4.306-2.449-4.348c-1.486-0.025-2.972,0-4.458-0.016c-0.326-0.003-0.431,0.105-0.425,0.425
			C31.841,10.297,31.83,11.152,31.831,12.006z"/>
		<path style="fill:#424242;" d="M11.951,14.748c0.651-0.938,1.269-1.82,1.88-2.708c1.398-2.034,2.783-4.076,4.191-6.103
			c0.932-1.341,2.061-1.656,3.579-1.044c1.962,0.79,2.277,1.256,2.277,3.364c0.001,5.505-0.032,11.01,0.024,16.514
			c0.016,1.613-0.96,2.356-2.258,2.24c-0.321-0.029-0.647-0.001-0.971-0.009c-1.109-0.025-1.812-0.732-1.813-1.835
			c-0.003-3.739,0-7.479-0.006-11.218c0-0.215,0.078-0.449-0.099-0.683c-0.546,0.549-0.92,1.206-1.366,1.805
			c-0.918,1.233-1.793,2.497-2.72,3.724c-0.508,0.672-1.122,1.251-1.972,1.48c-1.322,0.356-2.35-0.17-3.196-1.135
			c-1.003-1.144-1.813-2.433-2.718-3.652c-0.551-0.742-1.084-1.496-1.656-2.288c-0.16,0.249-0.102,0.46-0.103,0.654
			c-0.003,3.701-0.039,7.403,0.023,11.104c0.022,1.332-0.984,2.161-2.095,2.055c-0.377-0.036-0.762,0.006-1.142-0.006
			c-1.091-0.032-1.8-0.712-1.802-1.793c-0.01-5.885-0.011-11.769,0-17.654c0.002-1.177,0.54-2.031,1.694-2.438
			c0.215-0.076,0.425-0.167,0.64-0.245c1.624-0.586,2.586-0.274,3.58,1.165c1.876,2.717,3.75,5.435,5.625,8.152
			C11.663,14.363,11.789,14.527,11.951,14.748z"/>
		<path style="fill:#B5B5B5;" d="M126.227,12.339c-0.418,1.239-0.756,2.36-1.172,3.451c-1.464,3.841-2.955,7.672-4.438,11.505
			c-0.052,0.134-0.051,0.336-0.238,0.347c-0.163,0.01-0.173-0.17-0.22-0.289c-1.185-2.972-2.356-5.95-3.56-8.915
			c-0.777-1.913-1.604-3.805-2.166-5.797c-0.018-0.065-0.083-0.116-0.184-0.25c-0.18,0.544-0.323,1.022-0.495,1.49
			c-0.568,1.546-1.142,3.091-1.721,4.633c-0.912,2.428-1.838,4.85-2.742,7.281c-0.448,1.205-0.432,1.212-1.734,1.211
			c-0.629-0.001-1.258-0.025-1.886,0.003c-0.488,0.022-0.564-0.173-0.406-0.578c0.6-1.534,1.2-3.069,1.791-4.607
			c1.44-3.748,2.876-7.499,4.312-11.249c0.812-2.121,1.621-4.244,2.435-6.365c0.044-0.115,0.061-0.293,0.234-0.276
			c0.121,0.011,0.148,0.152,0.192,0.259c0.641,1.58,1.283,3.159,1.93,4.736c0.999,2.436,2.007,4.867,3.001,7.305
			c0.35,0.86,0.667,1.733,0.999,2.6c0.064,0.168,0.126,0.338,0.221,0.594c0.484-1.298,0.907-2.504,1.382-3.69
			c1.325-3.306,2.672-6.603,4.01-9.903c0.199-0.492,0.395-0.985,0.593-1.477c0.055-0.137,0.07-0.335,0.247-0.35
			c0.224-0.019,0.245,0.215,0.302,0.357c0.415,1.036,0.819,2.077,1.218,3.12c0.772,2.015,1.542,4.031,2.307,6.049
			c0.859,2.266,1.704,4.537,2.568,6.801c0.769,2.016,1.555,4.026,2.337,6.036c0.236,0.606,0.219,0.639-0.434,0.639
			c-0.876,0-1.753-0.011-2.629-0.001c-0.3,0.003-0.472-0.069-0.593-0.385c-0.984-2.582-2.004-5.151-2.99-7.733
			c-0.79-2.069-1.548-4.15-2.321-6.225C126.352,12.599,126.317,12.534,126.227,12.339z"/>
		<path style="fill:#B5B5B5;" d="M214.388,19.971c0-0.368,0-0.609,0-0.85c0-4.614,0.014-9.228-0.015-13.842
			c-0.004-0.609,0.19-0.743,0.741-0.707c0.645,0.042,1.295,0.009,1.943,0.01c0.765,0.002,0.766,0.003,0.766,0.742
			c0.001,6.893,0.002,13.785,0.003,20.678c0,0.437,0.003,0.873-0.001,1.31c-0.001,0.109,0.042,0.248-0.069,0.315
			c-0.16,0.096-0.237-0.072-0.325-0.153c-1.021-0.936-2.038-1.877-3.055-2.818c-2.006-1.856-4.018-3.706-6.014-5.572
			c-1.744-1.631-3.454-3.297-5.209-4.916c-0.809-0.746-1.547-1.55-2.272-2.447c-0.195,0.367-0.206,0.714-0.206,1.065
			c0,4.519-0.009,9.038,0.011,13.557c0.002,0.52-0.131,0.701-0.662,0.671c-0.741-0.042-1.488-0.046-2.228,0.001
			c-0.542,0.035-0.564-0.231-0.563-0.647c0.01-6.532,0.007-13.064,0.008-19.595c0-0.873-0.002-1.747,0.001-2.62
			c0-0.107-0.044-0.245,0.086-0.304c0.135-0.061,0.198,0.07,0.276,0.144c2.209,2.078,4.414,4.159,6.626,6.233
			c2.157,2.024,4.315,4.048,6.484,6.059c1.171,1.086,2.298,2.213,3.354,3.41C214.129,19.765,214.209,19.818,214.388,19.971z"/>
		<path style="fill:#B5B5B5;" d="M226.06,11.621c-0.179,0.269-0.114,0.482-0.114,0.682c-0.004,4.69-0.01,9.379,0.008,14.069
			c0.002,0.488-0.106,0.677-0.631,0.644c-0.759-0.047-1.524-0.035-2.285-0.003c-0.434,0.018-0.545-0.13-0.543-0.552
			c0.016-3.019,0.006-6.038,0.006-9.056c0-4.31,0.001-8.62,0.007-12.93c0-0.179-0.101-0.433,0.089-0.522
			c0.205-0.096,0.31,0.167,0.438,0.287c1.956,1.825,3.883,3.682,5.864,5.479c1.757,1.593,3.454,3.247,5.196,4.856
			c1.422,1.314,2.888,2.582,4.202,4.007c0.346,0.375,0.665,0.774,1.001,1.159c0.07,0.081,0.141,0.201,0.277,0.138
			c0.106-0.049,0.073-0.163,0.074-0.253c0.004-0.513,0.006-1.025,0.006-1.538c0-4.291,0.006-8.582-0.012-12.873
			c-0.002-0.481,0.092-0.68,0.622-0.648c0.778,0.047,1.562,0.025,2.343,0.003c0.368-0.01,0.503,0.106,0.495,0.485
			c-0.021,1.101-0.007,2.202-0.008,3.303c-0.001,6.246-0.002,12.493-0.008,18.739c0,0.178,0.105,0.432-0.085,0.522
			c-0.204,0.097-0.309-0.165-0.444-0.28c-1.569-1.343-3.035-2.797-4.537-4.212c-2.418-2.277-4.861-4.529-7.295-6.789
			c-0.959-0.89-1.948-1.751-2.874-2.673C227.223,13.042,226.605,12.398,226.06,11.621z"/>
		<path style="fill:#B5B5B5;" d="M164.013,4.104c2.327-0.058,4.377,0.542,6.355,1.597c0.823,0.439,1.159,0.889,1.035,1.781
			c-0.091,0.654-0.084,1.322-0.127,1.983c-0.009,0.143,0.068,0.325-0.104,0.412c-0.174,0.088-0.281-0.078-0.393-0.164
			c-0.896-0.684-1.857-1.261-2.925-1.62c-3.285-1.103-6.437-0.998-9.284,1.201c-1.502,1.161-2.362,2.755-2.702,4.594
			c-0.291,1.577-0.269,3.165,0.204,4.726c0.825,2.728,2.649,4.55,5.356,5.252c3.319,0.861,6.394,0.049,9.137-1.997
			c0.106-0.079,0.208-0.167,0.321-0.235c0.274-0.165,0.409-0.05,0.373,0.236c-0.141,1.116-0.045,2.236-0.075,3.354
			c-0.009,0.318-0.22,0.483-0.445,0.616c-1.591,0.939-3.308,1.559-5.149,1.702c-1.902,0.148-3.804,0.058-5.647-0.522
			c-3.1-0.975-5.478-2.831-6.924-5.765c-1.673-3.392-1.784-6.868-0.243-10.315c1.476-3.302,4.044-5.413,7.545-6.397
			C161.559,4.196,162.817,4.063,164.013,4.104z"/>
		<path style="fill:#B5B5B5;" d="M193.004,27.002c-0.248,0-0.495,0-0.743,0c-1.249,0-1.222-0.011-1.741-1.211
			c-0.601-1.39-1.266-2.752-1.878-4.137c-0.146-0.331-0.349-0.449-0.693-0.448c-2.685,0.006-5.371,0.006-8.056-0.004
			c-0.377-0.001-0.59,0.153-0.744,0.488c-0.742,1.619-1.517,3.222-2.238,4.85c-0.164,0.371-0.368,0.47-0.731,0.465
			c-0.914-0.014-1.828-0.002-2.742-0.004c-0.61-0.001-0.697-0.108-0.414-0.65c0.597-1.142,1.115-2.321,1.667-3.484
			c1.187-2.498,2.383-4.991,3.583-7.482c1.101-2.286,2.216-4.565,3.315-6.852c0.688-1.432,1.359-2.872,2.035-4.31
			c0.055-0.117,0.058-0.284,0.218-0.301c0.2-0.022,0.234,0.17,0.296,0.297c1.041,2.148,2.076,4.298,3.114,6.447
			c1.268,2.625,2.496,5.268,3.816,7.868c1.027,2.024,1.958,4.096,2.931,6.146c0.268,0.564,0.534,1.128,0.802,1.692
			c0.261,0.552,0.222,0.623-0.368,0.628C193.956,27.006,193.48,27.003,193.004,27.002z M183.948,18.223c0,0.001,0,0.003,0,0.005
			c0.78,0,1.56-0.001,2.34,0c0.908,0.001,0.897-0.008,0.535-0.815c-0.938-2.088-2.053-4.101-2.725-6.304
			c-0.026-0.086-0.01-0.212-0.134-0.219c-0.146-0.009-0.17,0.121-0.201,0.229c-0.083,0.29-0.15,0.586-0.252,0.87
			c-0.705,1.982-1.707,3.834-2.568,5.747c-0.208,0.462-0.025,0.485,0.321,0.486C182.159,18.225,183.053,18.223,183.948,18.223z"/>
		<path style="fill:#B5B5B5;" d="M88.13,29.759c0.114-0.873,0.517-1.655,0.821-2.465c1.109-2.96,2.238-5.912,3.366-8.864
			c0.953-2.494,1.923-4.982,2.874-7.477c1.22-3.201,2.438-6.403,3.637-9.612c0.542-1.449,2.018-1.793,3.161-0.692
			c0.338,0.326,0.526,0.706,0.362,1.227c-0.312,0.997-0.764,1.937-1.112,2.918c-1.254,3.532-2.708,6.988-3.989,10.511
			c-1.113,3.06-2.337,6.08-3.508,9.119c-0.755,1.961-1.502,3.925-2.25,5.888c-0.33,0.867-0.866,1.152-1.729,0.89
			c-0.344-0.104-0.686-0.229-1.012-0.38C88.309,30.618,88.122,30.244,88.13,29.759z"/>
		<path style="fill:#B5B5B5;" d="M79.104,29.788c0.075-0.88,0.5-1.656,0.802-2.466c0.97-2.609,1.979-5.204,2.974-7.804
			c1.591-4.155,3.185-8.309,4.775-12.464c0.731-1.91,1.454-3.824,2.186-5.734c0.215-0.561,0.353-1.241,1.116-1.28
			c0.844-0.043,1.622,0.223,2.215,0.846c0.218,0.229,0.27,0.564,0.161,0.908C92.963,2.969,92.476,4.1,92.04,5.25
			c-1.135,2.992-2.269,5.984-3.411,8.973c-1.542,4.033-3.094,8.062-4.637,12.094c-0.508,1.327-1.007,2.659-1.502,3.991
			c-0.302,0.813-0.931,1.148-1.744,0.897c-0.326-0.101-0.645-0.227-0.963-0.352C79.303,30.665,79.047,30.329,79.104,29.788z"/>
		<path style="fill:#B5B5B5;" d="M148.755,16.564c-1.049-0.818-2.041-1.434-3.249-1.593c-3.48-0.46-5.818,2.009-5.393,5.459
			c0.134,1.086,0.473,2.045,1.262,2.841c0.845,0.852,1.913,1.135,3.043,1.229c1.514,0.126,2.856-0.306,3.961-1.381
			c0.076-0.074,0.146-0.203,0.278-0.153c0.134,0.051,0.1,0.191,0.1,0.299c0.002,0.987-0.006,1.975,0.003,2.962
			c0.003,0.323-0.189,0.465-0.443,0.592c-0.86,0.432-1.797,0.63-2.732,0.721c-2.112,0.206-4.153-0.059-5.937-1.329
			c-1.909-1.358-2.924-3.244-3.112-5.557c-0.114-1.409,0.001-2.812,0.573-4.125c0.88-2.02,2.394-3.367,4.498-4.055
			c1.894-0.619,3.804-0.675,5.726-0.156c0.384,0.103,0.755,0.251,1.13,0.386c0.169,0.061,0.295,0.156,0.294,0.368
			C148.753,14.189,148.755,15.306,148.755,16.564z"/>
	</g>
</g>
</svg>
