<svg version="1.1" id="nokia" xmlns="http://www.w3.org/2000/svg" xmlns:xlink="http://www.w3.org/1999/xlink" x="0px" y="0px"
	 width="178.353px" height="30.061px" viewBox="0 0 178.353 30.061" style="enable-background:new 0 0 178.353 30.061;"
	 xml:space="preserve">
<g>
	<path style="fill:#444444;" d="M8.588,29.692H0V0.487h14.853L31.892,22.29V0.487h8.588v29.205H25.928L8.588,7.516V29.692
		 M81.567,20.66c0,4.06-0.718,5.46-1.906,6.802c-1.822,1.998-4.472,2.599-9.58,2.599H55.419c-5.108,0-7.763-0.602-9.582-2.599
		c-1.188-1.342-1.906-2.742-1.906-6.802V9.402c0-4.058,0.718-5.455,1.906-6.8C47.659,0.602,50.311,0,55.419,0h14.663
		c5.108,0,7.758,0.602,9.58,2.602c1.188,1.344,1.906,2.742,1.906,6.8L81.567,20.66 M69.72,22.662c1.962,0,2.653-0.116,3.123-0.544
		c0.439-0.399,0.633-0.914,0.633-2.631v-8.912c0-1.717-0.194-2.227-0.633-2.629c-0.471-0.43-1.161-0.544-3.123-0.544H55.778
		c-1.962,0-2.653,0.114-3.121,0.544c-0.442,0.401-0.635,0.912-0.635,2.629v8.913c0,1.717,0.194,2.231,0.635,2.631
		c0.468,0.428,1.16,0.544,3.121,0.544L69.72,22.662L69.72,22.662 M94.047,0.487v29.205h-8.973V0.487H94.047 M109.207,0.487h11.847
		l-15.989,13.659l18.033,15.546h-12.675L94.048,14.461L109.207,0.487 M124.753,0.487h8.976v29.205h-8.976 M167.943,29.692
		l-2.655-5.087h-17.364L145.3,29.69h-9.914l15.907-29.203h11.156l15.904,29.205H167.943 M151.041,18.261h11.158l-5.58-10.574
		L151.041,18.261"/>
</g>
</svg>
