<svg version="1.1" id="pfiser" xmlns="http://www.w3.org/2000/svg" xmlns:xlink="http://www.w3.org/1999/xlink" x="0px" y="0px"
	 width="138.93px" height="87.546px" viewBox="5.535 31.227 138.93 87.546"
	 style="enable-background:new 5.535 31.227 138.93 87.546;" xml:space="preserve">
<g>
	<g>
		<path style="fill:#7B7B7B;" d="M144.465,75.046c0,24.078-31.089,43.727-69.465,43.727c-11.255,0-22.048-1.753-31.365-4.705
			L55.904,68.22H61.9L56.457,88.7h8.856l6.273-23.34H56.734l4.705-17.804c0.646-2.214,2.952-5.535,6.273-5.535
			c1.937,0,4.336,0.923,4.428,2.122c-2.491,0-4.52,2.306-4.52,4.982c0,2.583,2.122,4.705,4.52,4.705
			c1.568,0,5.166-1.845,4.982-5.812c-0.092-2.399-1.568-7.38-9.41-7.565c-9.225-0.185-15.498,7.934-17.804,16.236
			c-1.292,4.982-4.705,16.605-7.472,27.306l-7.288,26.753C17.251,102.906,5.535,89.806,5.535,74.954
			c0-24.078,31.089-43.727,69.465-43.727C113.376,31.411,144.465,50.969,144.465,75.046L144.465,75.046z M22.97,88.699l2.86-10.701
			c14.76,0.277,17.62-3.413,19.649-12.546c1.476-6.458-2.122-11.439-8.579-11.439H19.28l-0.738,2.952h3.875L13.93,88.884
			L22.97,88.699L22.97,88.699z M31.457,56.78c4.613-0.184,6.458,0.923,4.613,8.487c-2.306,9.779-5.074,9.594-9.41,9.594
			L31.457,56.78L31.457,56.78z M140.591,69.419c0-2.675-2.03-4.797-4.428-4.797c-2.03,0-4.797,1.292-6.642,4.52l0.923-3.782h-12.085
			l-0.738,2.952h3.229l-5.443,20.48h8.856l3.321-12.269c1.292-3.782,3.69-8.21,4.428-7.657c-0.738,3.598,1.937,5.535,4.244,5.535
			C138.561,74.216,140.591,72.186,140.591,69.419L140.591,69.419z M99.723,77.906h14.852c0.092-0.369,0.185-0.646,0.277-1.015
			c1.661-7.749-2.214-12.638-8.303-12.638c-6.55,0-12.731,2.214-15.314,12.638c-1.753,6.919,2.03,12.454,8.579,12.638
			c5.904,0.185,11.439-1.476,14.207-9.41h-9.041l-0.554,2.03c-1.015,4.059-2.491,4.52-4.059,4.52s-2.306-2.03-1.753-4.52
			L99.723,77.906L99.723,77.906z M101.384,71.633c0.738-2.491,2.122-4.613,4.059-4.52c1.937,0,2.306,2.03,1.753,4.52l-0.83,3.137
			h-5.812L101.384,71.633L101.384,71.633z M87.915,85.747H80.35l13.007-20.48H74.539l-0.738,2.952h7.565l-12.731,20.48h18.727
			L87.915,85.747L87.915,85.747z"/>
	</g>
</g>
</svg>
