<svg version="1.1" id="qatar" xmlns="http://www.w3.org/2000/svg" xmlns:xlink="http://www.w3.org/1999/xlink" x="0px" y="0px"
	 width="189.78px" height="57.368px" viewBox="9.752 10.513 189.78 57.368"
	 style="enable-background:new 9.752 10.513 189.78 57.368;" xml:space="preserve">
<g>
	<g style="opacity:0.73;">
		<g>
			<path style="fill:#676767;" d="M156.779,18.625l14.352-0.876c-7.56-0.219-12.051-0.219-13.476-0.11l-2.082,0.438
				C155.245,18.405,155.684,18.515,156.779,18.625L156.779,18.625z"/>
			<path style="fill:#676767;" d="M153.602,22.24l23.555-0.548l-22.788-0.767c-3.068-0.219-4.711,0-4.93,0.548
				C148.891,22.24,150.425,22.459,153.602,22.24L153.602,22.24z"/>
			<path style="fill:#676767;" d="M145.275,26.732l35.607-1.315l-32.101-0.438c-2.41,0-3.725,0.219-3.725,0.767L145.275,26.732
				L145.275,26.732z"/>
			<path style="fill:#676767;" d="M147.576,31.443l35.716-1.643l-38.784-0.657c-0.986,0.11-1.534,0.329-1.643,0.876
				C142.756,31.224,144.289,31.662,147.576,31.443L147.576,31.443z"/>
			<path style="fill:#676767;" d="M142.427,35.606l42.29-1.096l-39.112-1.096c-2.52,0-3.835,0.438-4.054,1.315
				C141.55,35.168,141.879,35.497,142.427,35.606L142.427,35.606z"/>
			<path style="fill:#676767;" d="M142.098,39.879l13.366-0.11l1.862-2.082H143.96c-1.972,0-2.958,0.438-2.629,1.315
				C141.331,39.441,141.55,39.879,142.098,39.879L142.098,39.879z"/>
			<path style="fill:#676767;" d="M145.056,44.371l8.436-0.657l1.096-1.972l-9.97,0.11c-1.972,0-2.849,0.438-2.849,1.205
				c0,0.657,0.219,0.986,0.657,0.986L145.056,44.371L145.056,44.371z"/>
			<path style="fill:#676767;" d="M146.371,48.425l21.583-0.876l-1.534-1.534l-20.816,0.11l-2.191,0.219
				c-0.219,0.219-0.329,0.548-0.219,0.986C143.303,48.315,144.508,48.644,146.371,48.425L146.371,48.425z"/>
			<path style="fill:#676767;" d="M170.803,51.054l-21.474-0.11c-2.629,0-3.835,0.329-3.725,1.096
				c0.219,0.986,1.753,1.205,4.492,0.986l22.021-0.548L170.803,51.054L170.803,51.054z"/>
			<path style="fill:#828283;" d="M173.542,55.436l-23.117-0.219c-0.548,0-0.767,0.219-0.767,0.657c0,0.767,1.643,1.096,4.821,0.876
				l21.364-0.767L173.542,55.436L173.542,55.436z"/>
			<path style="fill:#828283;" d="M158.97,59.928l12.599-0.438l-13.257-0.548c-1.753-0.219-2.629-0.11-2.629,0.548L158.97,59.928
				L158.97,59.928z"/>
			<path style="fill:#010101;" d="M194.906,12.599c-4.601,1.972-13.585,7.121-26.732,15.776c6.793-3.835,13.037-6.683,18.844-8.874
				l10.408-3.396l1.972,0.11c0.438,0.219-0.219,0.657-1.643,0.986c-2.41,0.767-6.902,2.629-13.476,5.697
				c-7.56,3.396-11.942,5.916-13.147,7.34l8.765,0.219c-1.315,1.534-2.739,2.41-4.601,2.52h-1.643
				c1.972,3.177,5.04,4.93,9.312,5.149l2.958,0.11l0.11,2.301l-12.271,1.205l11.832,0.767c0.11,1.753,0.11,2.629-0.11,2.629h-11.942
				l11.065,1.643l-0.657,2.849l-9.97,0.767l8.874,0.986l-2.082,2.849l-5.368,0.657l4.163,0.876l-4.601,3.177
				c-3.287-3.287-5.807-6.026-7.34-8.107l-3.287-4.492l-4.492,0.986c3.944-2.739,5.916-4.93,6.354-6.135
				c-0.11-2.41-0.219-4.054-0.548-4.93l-1.643,1.643c-0.219-2.41-0.657-3.944-1.096-4.601l-0.657,1.862l-2.629,2.301l1.972-0.11
				c-1.205,6.464-3.835,10.627-7.888,12.271l-2.41-2.52l1.643-1.534l-2.52,0.767l-0.548-0.767c2.52-4.054,4.382-7.012,5.916-8.655
				l7.34-6.683c4.163-3.396,7.888-6.354,11.504-8.546c9.312-5.697,16.105-9.203,20.159-10.737c1.643-0.657,2.301-0.548,1.863,0.11
				L194.906,12.599L194.906,12.599z"/>
		</g>
		<path style="fill:#010101;" d="M126.103,61.791v-1.315c0-0.657,0.876-1.424,2.629-2.082l0.986-0.438v4.93h2.082v-5.368
			l-0.329-0.11c0-0.11,0-0.219,0.11-0.329c0.219-0.219,0.767-0.548,1.753-1.205v8.436H109.45c0,0.767-0.329,1.424-0.986,1.862
			l-1.315,0.438c-0.438,0-0.876-0.219-1.315-0.657c-0.219-0.219-0.219-0.329,0.11-0.329c0.657,0.219,1.096,0.11,1.534-0.219
			c0.329-0.219,0.548-0.548,0.548-1.096l0.11-4.163l-0.438-0.11c-0.11-0.11,0-0.219,0.11-0.329l1.643-1.205v4.492h1.862v-5.259
			c-0.438-0.219-0.438-0.548,0-0.876l1.534-1.096v4.273c0.438-0.438,0.986-0.657,1.753-0.657h5.807c0.657,0,1.205,0.219,1.753,0.657
			c0.548,0.438,0.876,1.096,0.876,1.862v1.096h5.04v-0.986h-1.972L126.103,61.791L126.103,61.791z M99.699,56.422v6.354h4.601
			v-1.753c-0.548-0.11-0.548-0.329-0.11-0.767l1.643-1.096v5.04H94.988l0.219-2.41c0-0.438,0.438-1.096,1.424-1.643
			c0.548-0.329,1.096-0.657,1.534-0.876l0.11-0.657c-0.329-0.11-0.548-0.219-0.329-0.329L99.699,56.422L99.699,56.422z
			 M128.184,59.819c-0.657,0.219-0.986,0.438-0.986,0.876h0.986V59.819L128.184,59.819z M96.631,62.777h1.643v-1.972l-1.205,0.657
			C96.631,61.681,96.412,62.119,96.631,62.777L96.631,62.777z M96.193,55.546c0.657,0,0.876,0.219,0.876,0.657
			c0,0.329-0.329,0.548-0.876,0.548c-0.438,0-0.767-0.219-0.767-0.548C95.426,55.765,95.645,55.546,96.193,55.546L96.193,55.546z
			 M98.165,55.546c0.657,0,0.986,0.219,0.986,0.657c0,0.329-0.329,0.548-0.986,0.548c-0.438,0-0.767-0.219-0.767-0.548
			C97.398,55.765,97.727,55.546,98.165,55.546L98.165,55.546z M101.233,64.639c0.548,0,0.876,0.219,0.876,0.767
			c0,0.329-0.329,0.548-0.876,0.548c-0.548,0-0.767-0.219-0.767-0.548C100.466,64.968,100.685,64.639,101.233,64.639L101.233,64.639
			z M103.314,64.639c0.548,0,0.876,0.219,0.876,0.767c0,0.329-0.329,0.548-0.876,0.548c-0.548,0-0.767-0.219-0.767-0.548
			C102.547,64.968,102.767,64.639,103.314,64.639L103.314,64.639z M126.541,55.436c0.657,0,0.876,0.219,0.876,0.657
			c0,0.329-0.329,0.548-0.876,0.548c-0.438,0-0.767-0.219-0.767-0.548C125.774,55.655,126.103,55.436,126.541,55.436L126.541,55.436
			z M128.622,55.436c0.657,0,0.876,0.219,0.876,0.657c0,0.329-0.329,0.548-0.876,0.548c-0.438,0-0.767-0.219-0.767-0.548
			C127.856,55.655,128.184,55.436,128.622,55.436L128.622,55.436z M121.611,62.777h-8.655v-1.534
			c0.219-0.438,0.657-0.657,1.205-0.657h6.354c0.657,0,0.986,0.11,1.096,0.438l0.11,0.767L121.611,62.777L121.611,62.777z
			 M136.072,55.765v8.436h-1.534v-6.793c-0.11,0-0.219,0-0.329-0.11l0.11-0.329L136.072,55.765L136.072,55.765z"/>
		<g>
			<path style="fill:#010101;" d="M61.353,49.739h5.916L55.547,23.336h-2.191L41.852,49.739h3.396l3.287-8.217h9.422L61.353,49.739z
				 M49.521,39.112l3.725-9.203l3.725,9.203H49.521z"/>
			<path style="fill:#010101;" d="M104.739,49.739h5.916L98.932,23.336h-2.191L85.237,49.739h3.396l3.287-8.217h9.422
				L104.739,49.739z M92.906,39.112l3.725-9.203l3.725,9.203H92.906z"/>
			<polygon style="fill:#010101;" points="66.283,23.336 86.223,23.336 86.223,26.513 79.102,26.513 79.102,49.739 73.514,49.739 
				73.514,26.513 66.283,26.513 			"/>
			<g>
				<g>
					<path style="fill:#010101;" d="M39.332,36.921c0-7.888-6.683-14.243-14.79-14.243c-8.217,0-14.79,6.354-14.79,14.243
						s6.683,14.243,14.79,14.243c0.767,0,1.424-0.11,2.191-0.219l7.888,7.121l4.163-3.396l-8.326-4.821
						C35.717,47.658,39.332,42.728,39.332,36.921z M24.542,48.534c-5.478,0-9.86-5.259-9.86-11.613
						c0-6.464,4.382-11.613,9.86-11.613s9.86,5.259,9.86,11.613S29.91,48.534,24.542,48.534z"/>
				</g>
			</g>
			<path style="fill:#010101;" d="M126.103,37.469c2.739-0.548,6.683-3.177,6.683-8.326s-6.135-5.697-6.135-5.697h-7.121h-2.191
				h-2.41V49.85h4.601V38.126h1.534l7.56,11.394h6.464L126.103,37.469z M119.639,35.825V24.76h5.916c0,0,3.177,1.753,3.177,5.149
				c0,3.287-1.424,5.916-3.396,5.916S119.639,35.825,119.639,35.825z"/>
		</g>
		<g>
			<path style="fill:#676767;" d="M43.495,54.889h1.315l3.396,8.655h-1.315l-0.986-2.629H42.29l-0.986,2.629h-1.205L43.495,54.889z
				 M42.619,59.928h2.958l-1.424-4.054l0,0L42.619,59.928z"/>
			<path style="fill:#676767;" d="M49.083,54.889h1.096v8.655h-1.096V54.889z"/>
			<path style="fill:#676767;" d="M52.15,54.889h4.054c1.643,0,2.629,0.876,2.629,2.301c0,0.986-0.438,1.862-1.534,2.191l0,0
				c0.986,0.219,1.205,0.876,1.315,1.753c0.11,0.876,0,1.753,0.548,2.41h-1.315c-0.329-0.329-0.11-1.315-0.329-2.082
				c-0.11-0.876-0.329-1.534-1.424-1.534h-2.849v3.725h-1.096L52.15,54.889L52.15,54.889z M55.656,58.833
				c1.096,0,1.972-0.329,1.972-1.534c0-0.876-0.438-1.424-1.534-1.424h-2.849v2.958H55.656L55.656,58.833z"/>
			<path style="fill:#676767;" d="M67.927,63.544h-1.205l-1.972-7.231l0,0l-1.972,7.231h-1.205l-2.191-8.655h1.205l1.643,7.121l0,0
				l1.972-7.121h1.205l1.862,7.121l0,0l1.753-7.121h1.096L67.927,63.544z"/>
			<path style="fill:#676767;" d="M73.295,54.889h1.315l3.396,8.655h-1.315l-0.986-2.629H72.09l-0.986,2.629h-1.205L73.295,54.889z
				 M72.528,59.928h2.958l-1.424-4.054l0,0L72.528,59.928z"/>
			<path style="fill:#676767;" d="M81.512,59.928v3.506h-1.096v-3.506l-3.287-5.04h1.315l2.629,4.054l2.52-4.054h1.315
				L81.512,59.928z"/>
			<path style="fill:#676767;" d="M90.715,57.408c-0.11-1.205-0.986-1.753-2.082-1.753c-0.986,0-1.972,0.329-1.972,1.424
				s1.424,1.205,2.739,1.534c1.424,0.329,2.739,0.767,2.739,2.52c0,1.862-1.753,2.52-3.396,2.52c-1.972,0-3.506-0.986-3.506-3.068
				h1.096c0,1.424,1.205,2.082,2.52,2.082c0.986,0,2.191-0.329,2.191-1.534s-1.424-1.424-2.739-1.643
				c-1.424-0.329-2.739-0.657-2.739-2.301c0-1.753,1.534-2.52,3.068-2.52c1.753,0,3.068,0.876,3.177,2.739H90.715L90.715,57.408z"/>
		</g>
	</g>
	<rect x="0" y="0" style="fill:none;" width="204.327" height="78.773"/>
</g>
</svg>
