<svg version="1.1" id="Calque_1" xmlns="http://www.w3.org/2000/svg" xmlns:xlink="http://www.w3.org/1999/xlink" x="0px" y="0px"
	 width="197.074px" height="54.09px" viewBox="0 0 197.074 54.09" style="enable-background:new 0 0 197.074 54.09;"
	 xml:space="preserve">
<path style="fill:#010101;" d="M2.663,13.591v37.192c31.499-6.612,63.732-10.01,95.874-10.01s64.283,3.398,95.874,10.01V13.591
	C163.004,6.336,130.77,2.755,98.537,2.755C66.303,2.663,34.07,6.336,2.663,13.591z M18.642,44.08c-0.276,0-0.459,0.092-0.735,0.092
	c-0.092,0-0.092,0-0.276,0.092c6.245-1.469,8.357-4.775,8.357-9.183c0-2.663-1.194-4.5-2.939-6.153
	c1.286,1.377,2.112,3.03,2.112,5.326c0,4.408-2.112,7.714-8.357,9.183c-2.02,0.459-4.5,0.918-6.52,1.286
	c-0.275,0-0.551,0.092-0.826,0.092v-4.683c0,0,2.02,0.551,3.398,0.367c1.01-0.092,2.02-0.367,2.939-0.551
	c2.296-0.551,3.949-2.02,3.949-4.5c0-0.918-0.367-1.745-0.918-2.479c-0.918-0.826-2.204-1.653-3.581-2.663
	c-1.194-0.918-2.02-1.653-2.663-2.479c-2.112-2.02-2.939-3.765-2.939-6.428c0-3.214,1.745-6.52,7.989-7.898
	c1.653-0.367,4.5-0.826,5.785-1.01c0,0,0,0.367,0,0.826c0.367,0,0.735-0.092,0.918-0.092l0,0c0.092,0,0.276,0,0.367,0
	c0,0,0,0,0.092,0c0.092,0,0.276,0,0.367,0v4.959c0,0-0.367-0.092-0.918-0.367c0-0.276,0-4.5,0-4.683
	c-0.276,0-0.459,0.092-0.826,0.092c0,1.286,0,3.765,0,3.765s-1.653-0.551-3.03-0.459c-0.826,0.092-1.653,0.367-2.296,0.459
	c-2.204,0.551-2.939,2.02-2.939,3.214s0.551,2.204,2.02,3.49c-0.826-0.918-1.194-1.745-1.01-2.663c0-1.286,0.735-2.663,2.939-3.214
	c0.735-0.276,1.469-0.367,2.296-0.459c-0.276,0-0.459,0.092-0.735,0.092l0,0c-0.276,0-0.459,0.092-0.551,0.092H20.02
	c-2.204,0.551-2.939,2.02-2.939,3.214c0,1.745,1.194,3.122,4.224,5.234c3.398,2.296,6.061,4.5,6.061,8.632
	C26.999,39.305,24.887,42.519,18.642,44.08z M23.693,17.907c-0.459-0.092-1.01-0.276-1.469-0.276
	C22.775,17.632,23.417,17.816,23.693,17.907z M47.661,38.937l-0.276-15.336l-5.234,17.173l-0.459-1.377l5.694-18.458l-0.092-3.214
	l-6.428,20.938l-4.5-14.234c0,0.367,0,0.735,0,1.01c0,0.276,0,0.459,0,0.551s0,0.276,0,0.367c0,0.459,0,0.826,0,1.286
	c0,0.551,0,1.286,0,1.837c0,0.367,0,0.735,0,1.194c-0.092,3.122-0.092,6.061-0.276,7.255c0,0,0,0,0,0.092v0.092
	c0,0.092,0,0.092,0,0.276c0,1.653,0.367,2.939,0.367,2.939l-5.326,0.826l4.408-0.551c0,0-0.367-1.286-0.367-2.755
	s0.367-12.489,0.459-16.622l-0.826-2.479c0,0-0.367,16.53-0.459,18.275c0,1.653,0.367,2.755,0.367,2.755l-3.49,0.459l-0.826,0.092
	l1.01-29.938c0,0,2.663-0.459,3.122-0.459c1.01-0.092,2.112-0.276,2.755,0.459c0.092,0,0.092,0,0.276,0c0,0,0,0,0.092,0h0.092
	c0,0,0,0,0.092,0s0.276,0,0.276,0s0,0,0.092,0h0.092h0.092h0.276c0,0,0.092,0,0.092,0.092h0.092c0.092,0,0.092,0.092,0.276,0.092
	c0,0,0,0,0.092,0.092l0.092,0.092c0,0,0,0,0.092,0.092l0.092,0.092c0,0,0,0,0.092,0.092c0.092,0.092,0.092,0.092,0.276,0.276
	c0,0,0,0,0,0.092s0.092,0.092,0.092,0.276v0.092c0,0.092,0.092,0.092,0.092,0.276v0.092c0,0.092,0.092,0.276,0.092,0.459
	c0,0.092,0.092,0.276,0.092,0.367c0,0.092,0,0.092,0.092,0.276c0,0.092,0,0.092,0.092,0.276l0,0c0,0.092,0.092,0.276,0.092,0.367
	c0.092,0.276,0.092,0.367,0.276,0.551c0,0.092,0,0.092,0.092,0.276c0,0.092,0.092,0.367,0.092,0.551c0,0.092,0,0.092,0,0.276
	c0,0,0,0,0,0.092c0,0.092,0.092,0.276,0.092,0.367c0.092,0.276,0.092,0.459,0.276,0.826v0.092c0,0.092,0.092,0.367,0.092,0.459
	c0.092,0.276,0.092,0.367,0.276,0.551c0.092,0.367,0.276,0.826,0.367,1.194v0.092c0.276,0.551,0.367,1.194,0.459,1.653
	c0.918-3.122,2.571-8.173,3.03-9.642c0.826-2.571,2.112-2.939,3.765-3.122l2.939-0.367c0,0,0,0.276,0,0.826
	c0.092,4.5,0.826,24.795,0.826,26.172c0.092,1.469,0.551,2.755,0.551,2.755s-4.316,0.459-4.959,0.459
	C48.029,38.937,47.661,38.937,47.661,38.937z M48.58,39.764c0.735-0.092,5.694-0.551,5.694-0.551s-0.459-1.194-0.551-2.755
	c-0.092-1.561-0.918-27.091-0.918-27.091l0.918-0.092c0,0,0.826,25.438,0.826,26.999c0.092,1.469,0.551,2.939,0.551,2.939
	C55.284,39.029,49.314,39.764,48.58,39.764z M60.61,7.806l6.245-0.459c0,0,0,0.276,0,0.735v26.448c0,1.653,0.459,2.939,0.459,2.939
	l-5.326,0.367l-0.826,0.092c0,0,0-25.254,0-26.999C61.161,9.091,60.61,7.806,60.61,7.806z M61.987,38.478l6.153-0.459
	c0,0-0.459-1.286-0.459-2.939V7.898l0.918-0.092c0,0,0,25.254,0,27.091c0,1.653,0.459,3.03,0.459,3.03L61.987,38.478z
	 M93.394,37.101c1.745,0,2.571-0.092,2.939-0.092C95.598,37.101,94.588,37.101,93.394,37.101z M96.517,37.101
	c0,0-1.194-1.469-2.112-3.949c-0.459-1.194-3.949-10.469-4.5-11.846l0.826-0.551c2.479-1.653,3.122-3.949,3.122-6.612v-0.276
	c0-1.837-0.551-3.949-2.296-5.326c1.01,1.286,1.377,3.03,1.377,4.5v0.276c0,2.663-0.735,5.143-3.122,6.612l-0.826,0.551
	c0.551,1.377,4.041,10.744,4.5,11.846c0.918,2.479,2.112,3.949,2.112,3.949s-0.826,0-3.122,0.092c-1.194,0-2.02-0.276-2.663-0.735
	c-0.826-0.551-1.377-1.653-2.02-3.122l-2.939-7.806l-2.02,1.286v11.295l-6.428,0.276l5.51-0.276V26.172l2.755-1.745l-0.367-1.01
	l-3.214,2.112v11.204l-4.683,0.276h-0.826c0,0,0-25.438,0-26.999c0-1.653-0.551-2.939-0.551-2.939l10.561-0.459
	c1.653-0.092,3.03,0.276,3.949,0.826c1.378,0.367,2.479,0.918,3.122,1.745l0,0c0.092,0.092,0.276,0.276,0.367,0.459l0,0
	c0.459,0.551,0.735,1.194,0.918,1.745v0.092c0,0.092,0.092,0.276,0.092,0.367c0,0.092,0,0.092,0.092,0.276
	c0,0.092,0,0.276,0.092,0.276c0,0.092,0,0.276,0,0.367c0,0.092,0,0.092,0,0.276s0,0.276,0,0.367c0,0.092,0,0.092,0,0.276
	c0,0.276,0,0.367,0,0.551v0.276c0,2.663-0.735,5.143-3.122,6.612l-0.826,0.551c0.551,1.377,4.041,10.744,4.5,11.846
	c0.918,2.479,2.204,4.224,2.204,4.224S97.159,37.101,96.517,37.101z M152.718,40.131l6.153,0.826
	c-0.275-0.459-0.551-1.469-0.551-2.939s0-10.928,0-10.928s0.367,0,0.918,0.092v10.561c0,1.377,0.459,2.663,0.735,3.214
	L152.718,40.131z M180.176,44.08l-7.255-1.194l6.153,1.01c-0.276-0.551-0.551-1.469-0.551-2.939c0-1.469,0-10.744,0-10.744
	s0.826,0.092,2.02,0.367c-0.367-0.092-0.735-0.092-1.01-0.276v10.377C179.442,42.06,179.901,43.437,180.176,44.08z M190.921,42.243
	c0,1.469-1.286,2.755-2.755,2.755s-2.755-1.286-2.755-2.755c0-1.653,1.286-2.755,2.755-2.755
	C189.635,39.396,190.921,40.682,190.921,42.243z M187.156,15.52c0.367,0.092,0.735,0.092,1.01,0.276v4.5l0,0
	c-0.092-0.092-0.367-0.367-0.918-0.551L187.156,15.52c-0.092,0-0.276,0-0.459-0.092C186.88,15.428,187.064,15.428,187.156,15.52z
	 M186.421,15.061v0.276v4.316c0,0-1.01-0.918-2.571-1.286c-2.02-0.459-4.408-0.826-6.245-1.286v8.632
	c0.275,0,0.551,0.092,0.826,0.092v-7.898c0.459,0.092,0.918,0.276,1.378,0.276c-0.092,0-0.367-0.092-0.459-0.092v7.898
	c2.571,0.459,5.785,1.194,5.785,1.194s0,0.092-0.092,0.276c1.01,0.276,1.745,0.367,1.745,0.367s0,0,0,0.092l0,0v0.092l0,0v0.092l0,0
	c0,0.092,0,0.092-0.092,0.276l0,0c0,0.092,0,0.092-0.092,0.276l0,0c0,0.092-0.092,0.092-0.092,0.276l0,0
	c0,0.092-0.092,0.092-0.092,0.276l0,0c0,0.092-0.092,0.092-0.092,0.276l0,0c-0.092,0.092-0.092,0.276-0.275,0.276l0,0
	c-0.459,0.551-1.01,0.918-1.837,0.918l0,0c-0.092,0.092-0.367,0.092-0.551,0.092c1.837-0.459,2.571-3.398,2.571-3.398
	s-0.367-0.092-1.01-0.276c-0.459,1.377-1.378,3.122-3.214,2.663c-2.02-0.367-4.224-0.826-4.224-0.826s0,9.183,0,10.744
	c0,1.286,0.367,2.296,0.551,2.939l-5.326-0.918l-0.826-0.092c0,0,0-24.887,0-26.632s-0.551-3.03-0.551-3.03
	C175.217,12.857,182.289,14.326,186.421,15.061z M166.585,11.479v0.367c0.092,0,0.367,0,0.459,0.092c0.092,0,0.275,0,0.367,0.092
	c0.367,0,0.551,0.092,0.826,0.092v4.775c0,0-0.367-0.276-0.918-0.551V12.03c-0.275,0-0.551-0.092-0.826-0.092v4.408
	c0,0-1.286-1.01-2.755-1.286c-2.02-0.367-4.224-0.551-6.153-0.918v8.54c0.276,0,0.551,0.092,0.826,0.092v-7.806
	c0.367,0,0.551,0.092,0.918,0.092v7.806c2.571,0.367,5.969,0.918,5.969,0.918s0,0.092-0.092,0.367
	c0.826,0.092,1.378,0.276,1.653,0.276l0,0c0.092,0,0.092,0,0.092,0l0,0l0,0c0,0,0,0,0,0.092c0,0,0,0,0,0.092c0,0,0,0,0,0.092v0.092
	v0.092v0.092v0.092v0.092v0.276c0,0,0,0.092-0.092,0.092c0,0,0,0.092-0.092,0.092c0,0,0,0.092-0.092,0.092c0,0,0,0.092-0.092,0.092
	l-0.092,0.092l-0.092,0.092l-0.092,0.092l-0.092,0.092l-0.092,0.092l-0.092,0.092l-0.092,0.092l-0.092,0.092l-0.092,0.092
	l-0.092,0.092c0,0-0.092,0.092-0.276,0.092c-0.092,0-0.092,0-0.275,0.092c-0.092,0-0.092,0-0.275,0c-0.092,0-0.092,0-0.275,0
	c-0.092,0-0.092,0-0.276,0l0,0c-0.275,0.092-0.551,0.276-0.826,0.276c2.204-0.092,2.939-3.49,2.939-3.49s-0.367-0.092-1.01-0.092
	c-0.459,1.377-1.378,3.122-3.214,2.755c-2.112-0.367-4.316-0.551-4.316-0.551s0,9.459,0,10.928c0,1.377,0.367,2.296,0.551,2.939
	l-5.326-0.735l-0.826-0.092c0,0,0-24.979,0-26.723c0-1.469-0.551-3.122-0.551-3.122C154.555,9.734,161.902,10.836,166.585,11.479z
	 M126.546,14.326c0-4.867,3.214-7.255,8.724-6.887c1.837,0.092,3.398,0.459,4.683,1.01c0.276,0,0.459,0.092,0.735,0.276
	c0.092,0,0.275,0.092,0.275,0.092c0.092,0,0.275,0.092,0.459,0.092c0.092,0,0.275,0.092,0.275,0.092
	c0.092,0,0.275,0.092,0.367,0.276c0.092,0,0.275,0.092,0.275,0.092c0.092,0.092,0.276,0.092,0.367,0.276
	c0.092,0,0.092,0.092,0.275,0.092c0.275,0.092,0.367,0.276,0.459,0.367l0.092,0.092c0.092,0.092,0.276,0.276,0.367,0.367
	c0,0.092,0.092,0.092,0.092,0.276c0.092,0.092,0.092,0.276,0.276,0.367c0,0.092,0.092,0.092,0.092,0.276
	c0.092,0.092,0.092,0.276,0.276,0.367c0,0.092,0.092,0.092,0.092,0.276c0.092,0.276,0.276,0.459,0.276,0.551v0.092
	c0.092,0.276,0.092,0.367,0.092,0.551c0,0.092,0,0.092,0.092,0.276c0,0.092,0.092,0.367,0.092,0.459c0,0.092,0,0.276,0,0.367
	c0,0.276,0,0.367,0.092,0.551c0,0.092,0,0.276,0,0.276c0,0.367,0,0.551,0,0.918v15.703c0,0.276,0,0.459,0,0.551s0,0.092,0,0.276
	s0,0.276,0,0.459c0,0.092,0,0.092,0,0.276s0,0.276-0.092,0.367c0,0.092,0,0.092,0,0.276c0,0.092-0.092,0.367-0.092,0.459v0.092
	c-0.092,0.276-0.092,0.367-0.275,0.551c0,0,0,0.092-0.092,0.092c-0.092,0.092-0.092,0.276-0.275,0.367
	c0,0.092-0.092,0.092-0.092,0.276c-0.092,0.092-0.092,0.276-0.275,0.367c0,0.092-0.092,0.092-0.092,0.276
	c-0.092,0.092-0.275,0.276-0.367,0.367l-0.092,0.092c-0.092,0.092-0.367,0.276-0.459,0.459l-0.092,0.092
	c-0.092,0.092-0.276,0.276-0.459,0.276c-0.092,0-0.092,0.092-0.276,0.092c-0.092,0.092-0.275,0.092-0.459,0.276
	c-0.092,0-0.276,0.092-0.276,0.092c-0.092,0.092-0.367,0.092-0.459,0.092c-0.092,0-0.275,0.092-0.275,0.092
	c-0.275,0.092-0.459,0.092-0.735,0.092h-0.092l0,0c3.398-1.01,4.5-3.765,4.5-6.428V16.254c0-2.939-0.826-4.867-2.296-6.153
	c1.01,1.286,1.469,3.03,1.469,5.326v15.703c0,3.581-2.112,7.255-8.724,6.887c-2.663-0.092-4.683-0.826-6.061-2.02
	c-1.745-1.377-2.479-3.581-2.479-6.428V14.326H126.546z M104.139,6.153c0.918,0,1.653,0.276,2.112,0.551
	c0.276,0,0.459,0,0.551,0.092l0,0c0.276,0,0.367,0.092,0.459,0.092l0,0c0.092,0.092,0.276,0.092,0.367,0.276l0,0
	c0.092,0.092,0.276,0.276,0.367,0.276l0,0c0.092,0.092,0.275,0.276,0.367,0.367l0,0c0.092,0.092,0.275,0.276,0.275,0.459l0,0
	c0.092,0.092,0.092,0.367,0.276,0.459l0,0c0.092,0.276,0.092,0.367,0.276,0.551c0,0,0,0.092,0.092,0.092l0,0
	c0.367,0.735,1.01,2.571,2.02,4.683c0.092,0.092,0.092,0.367,0.276,0.459v0.092c0,0.092,0.092,0.276,0.092,0.276
	c0,0.092,0,0.092,0.092,0.276c0.826,1.837,1.653,3.949,2.296,5.694V8.908c0-1.469-0.459-2.939-0.459-2.939l4.683,0.276v0.551
	l1.745,0.092v30.397h-0.918V6.979h-0.826v29.478l-4.867-0.092h-0.459l-6.153-15.152v12.489c0,1.653,0.551,3.214,0.551,3.214h-5.602
	h4.683c0,0-0.459-1.377-0.459-3.03V19.009l-0.826-2.02c0,0,0,14.51,0,16.071c0,1.653,0.459,3.03,0.459,3.03h-3.857h-0.826
	c0,0,0-25.438,0-27.091c0-1.377-0.551-3.03-0.551-3.03S102.394,6.061,104.139,6.153z M98.537,0C65.11,0,32.233,3.857,0,11.387V54.09
	c32.233-6.979,65.293-10.561,98.537-10.561s66.303,3.581,98.537,10.561V11.387C164.84,3.857,131.872,0,98.537,0z M195.145,51.886
	c-31.866-6.704-64.283-10.102-96.7-10.102s-64.926,3.398-96.7,10.102V12.765c31.682-7.347,64.191-11.02,96.7-11.02
	c32.417,0,65.018,3.765,96.7,11.02V51.886z M133.433,33.795c-0.367-0.459-0.459-1.194-0.459-2.02c0,0,0-15.795,0-17.54
	c0-1.469,0.918-2.296,2.296-2.571l0,0c-0.367,0.092-0.551,0.367-0.826,0.551l0,0c-0.092,0.092-0.092,0.092-0.275,0.276l0,0
	c-0.092,0.276-0.275,0.367-0.275,0.551v0.092c0,0.092,0,0.092,0,0.276v0.092c0,0.092,0,0.276,0,0.367c0,1.745,0,17.54,0,17.54
	c0,0.276,0,0.459,0,0.735v0.092c0,0.276,0.092,0.367,0.092,0.551v0.092c0,0.092,0.092,0.276,0.092,0.367s0.092,0.092,0.092,0.276
	c0,0.092,0.092,0.276,0.275,0.276c0,0.092,0.092,0.092,0.092,0.092c0.092,0.092,0.275,0.092,0.275,0.276l0,0
	c1.837,0.092,3.031-0.735,3.031-2.755c0,0,0-15.336,0-17.54c0-0.735-0.092-1.286-0.459-1.745c-0.459-0.918-1.469-1.286-2.479-1.286
	c-1.745-0.092-3.031,0.735-3.031,2.571c0,1.745,0,17.54,0,17.54C132.148,32.325,132.607,33.244,133.433,33.795z M114.24,24.795
	c0,0,0-0.459,0-1.194c-1.653-3.949-5.234-12.673-5.694-13.867c-0.459-1.01-0.918-1.837-1.653-2.296
	c0.276,0.459,0.551,0.918,0.826,1.469C108.271,10.469,114.24,24.795,114.24,24.795z M37.652,11.938
	c0.276,0.367,0.459,0.826,0.551,1.286c1.01,3.122,3.49,10.928,3.49,10.928s0.092-0.367,0.276-0.918
	c-0.826-2.479-2.204-6.979-2.939-9.183C38.754,12.857,38.294,12.306,37.652,11.938z M84.119,9.734l-2.663,0.092v12.306l0.826-0.735
	V10.836h0.918v10.01l2.204-2.02c1.194-1.194,2.02-2.479,2.02-4.683v-0.826c0-0.918-0.275-1.653-0.551-2.204
	C86.048,10.193,85.129,9.734,84.119,9.734z M188.901,41.509c0-0.459-0.367-0.459-0.735-0.459h-0.735v1.01h0.918
	C188.809,41.968,188.901,41.692,188.901,41.509z M185.686,42.243c0,1.286,1.01,2.296,2.479,2.296c1.286,0,2.296-1.01,2.296-2.296
	c0-1.377-1.01-2.479-2.296-2.479C186.697,39.856,185.686,40.958,185.686,42.243z M189.36,41.509c0,0.551-0.459,0.826-0.826,0.826
	l0.918,1.469h-0.459l-0.826-1.469h-0.735v1.469h-0.367v-3.122h1.377C188.992,40.682,189.36,41.049,189.36,41.509z"/>
<g>
</g>
<g>
</g>
<g>
</g>
<g>
</g>
<g>
</g>
<g>
</g>
<g>
</g>
<g>
</g>
<g>
</g>
<g>
</g>
<g>
</g>
<g>
</g>
<g>
</g>
<g>
</g>
<g>
</g>
</svg>
