<svg version="1.1" id="Calque_1" xmlns="http://www.w3.org/2000/svg" xmlns:xlink="http://www.w3.org/1999/xlink" x="0px" y="0px"
	 width="175.02px" height="30.588px" viewBox="0 0 175.02 30.588" style="enable-background:new 0 0 175.02 30.588;"
	 xml:space="preserve">
<g>
	<path style="fill:#231F20;" d="M172.396,24.695c-1.497,0-2.713,1.216-2.713,2.619c0,1.497,1.216,2.713,2.713,2.713
		c1.497,0,2.619-1.216,2.619-2.713C175.109,25.911,173.893,24.695,172.396,24.695L172.396,24.695L172.396,24.695L172.396,24.695z
		 M172.396,29.652c-1.31,0-2.339-1.029-2.339-2.339s1.029-2.339,2.339-2.339c1.31,0,2.339,1.029,2.339,2.339
		S173.705,29.652,172.396,29.652L172.396,29.652L172.396,29.652L172.396,29.652z"/>
	<path style="fill:#231F20;" d="M173.799,26.659c0-0.281-0.094-0.561-0.374-0.655c-0.187-0.094-0.468-0.187-0.748-0.187l0,0h-1.31
		v2.993h0.374v-1.403h0.655l0.842,1.403h0.468l-0.935-1.403l0,0C173.425,27.407,173.799,27.22,173.799,26.659L173.799,26.659
		L173.799,26.659L173.799,26.659z M172.396,27.127h-0.561v-1.029h0.842l0,0c0.374,0,0.748,0.094,0.748,0.561
		C173.425,27.22,172.77,27.127,172.396,27.127L172.396,27.127L172.396,27.127L172.396,27.127z"/>
	<path style="fill:#231F20;" d="M156.775,12.254l5.425-5.8l0,0c0.281-0.468,0.468-0.748,0.468-1.029
		c0-0.468-0.374-0.561-1.497-0.561l0,0h-1.403V1.216h14.873v3.648h-1.964l0,0c-2.245,0-2.713,0.374-5.8,4.303l0,0l-8.606,9.354
		v5.706l0,0c0,1.497,0.748,1.964,2.806,1.964l0,0h3.274v3.555h-20.86v-3.555h3.274l0,0c2.058,0,2.806-0.468,2.806-1.964l0,0v-5.706
		L139.376,7.296l0,0c-1.684-1.964-1.403-2.432-6.08-2.432l0,0V1.216h18.895v3.648h-1.31l0,0c-1.403,0-1.964,0.281-1.964,0.748
		s0.374,0.748,0.655,1.122l0,0l5.145,5.612l0,0C155.371,12.909,156.12,13.002,156.775,12.254L156.775,12.254L156.775,12.254
		L156.775,12.254z"/>
	<path style="fill:#231F20;" d="M30.214,1.122h4.584v10.289h-4.209l0,0c-0.374-2.058-1.684-2.806-2.806-3.929
		c-2.151-1.964-6.641-3.555-10.57-3.555c-4.958,0-9.167,1.497-9.167,3.835c0,6.267,28.343,1.31,28.343,13.189
		c0,6.174-6.08,9.635-17.024,9.635c-3.742,0-9.541-1.216-12.909-2.993c-1.029-0.655-1.497,0.561-1.684,2.058l0,0H0.094v-10.57h4.209
		l0,0c0.935,2.713,2.245,3.274,3.367,4.303c2.058,1.871,6.922,3.274,11.412,3.18c6.735-0.094,9.073-1.497,9.073-3.648
		s-2.245-2.619-9.635-3.835l0,0l-6.267-1.029l0,0C5.145,17.024,0,15.434,0,9.728c0-5.893,6.548-9.541,16.837-9.541
		c4.303,0,7.951,0.561,11.412,2.526C29.278,3.461,30.214,3.461,30.214,1.122L30.214,1.122L30.214,1.122L30.214,1.122z"/>
	<path style="fill:#231F20;" d="M118.984,18.334l0.094-11.412l0,0c0-1.497-0.748-1.964-2.993-1.964l0,0h-2.619V1.403h16.65v3.555
		h-2.151l0,0c-2.245,0-2.993,0.468-2.993,1.964l0,0V29.84l-6.548-0.094L97.376,9.822v14.499l0,0c0,1.497,0.748,1.964,2.993,1.964
		l0,0h2.9v3.461H85.964v-3.461h2.9l0,0c2.245,0,2.993-0.561,2.993-1.964l0,0V6.922l0,0c0-1.497-0.748-1.964-2.993-1.964l0,0h-2.9
		V1.403h14.967L118.984,18.334L118.984,18.334L118.984,18.334z"/>
	<path style="fill:#231F20;" d="M63.327,0C50.044,0,41.813,5.893,41.813,15.247c0,9.261,8.138,15.06,21.14,15.06
		c13.751,0,21.795-5.706,21.795-15.528C84.748,5.987,76.049,0,63.327,0L63.327,0L63.327,0L63.327,0z M63.047,26.659
		c-7.296,0-11.506-4.209-11.506-11.506c0-7.109,4.396-11.412,11.88-11.412c7.203,0,11.412,4.303,11.412,11.693
		C74.833,22.543,70.53,26.659,63.047,26.659L63.047,26.659L63.047,26.659L63.047,26.659z"/>
</g>
<g>
</g>
<g>
</g>
<g>
</g>
<g>
</g>
<g>
</g>
<g>
</g>
<g>
</g>
<g>
</g>
<g>
</g>
<g>
</g>
<g>
</g>
<g>
</g>
<g>
</g>
<g>
</g>
<g>
</g>
</svg>
