<svg version="1.1" id="suzuki" xmlns="http://www.w3.org/2000/svg" xmlns:xlink="http://www.w3.org/1999/xlink" x="0px" y="0px"
	 width="71.098px" height="85.75px" viewBox="0 0 71.098 85.75" style="enable-background:new 0 0 71.098 85.75;"
	 xml:space="preserve">
<g>
	<path style="fill:#7C7C7C;" d="M25.701,18.175c0.641-2.162,2.322-1.041,2.322-1.041s4.323,3.283,16.253,10.889
		c11.85,7.606,26.662-2.962,26.662-2.962L35.709,0C20.257,16.334,0.561,22.178,0.561,22.178h0.08l44.916,31.465
		c-0.641,2.162-2.322,1.041-2.322,1.041s-4.323-3.283-16.253-10.889C15.132,36.189,0.32,46.757,0.32,46.757l35.148,24.98
		c15.453-16.333,35.148-22.178,35.148-22.178h-0.08L25.701,18.175z"/>
	<g>
		<g>
			<path style="fill:#7C7C7C;" d="M0,81.907h5.444c0.08,0.48-0.08,0.48,0.24,0.801c0.4,0.4,1.121,0.48,1.681,0.4
				c0.48-0.08,1.201-0.24,1.201-0.801c0.08-0.641-0.4-0.881-0.961-0.961c-0.801-0.08-1.601-0.16-2.322-0.24
				c-2.002-0.32-2.962-0.48-3.843-0.961c-0.881-0.56-0.961-1.681-0.961-2.562c0-0.56,0.24-1.041,0.641-1.601
				c0.4-0.48,1.041-0.881,1.922-1.121c0.881-0.32,2.082-0.4,3.603-0.4c1.841,0,3.283,0.32,4.324,0.801
				c0.961,0.48,1.601,1.681,1.681,2.722H8.086c0-0.08-0.08-0.32-0.16-0.4c-0.16-0.641-0.801-0.881-1.361-0.961
				c-0.48-0.08-0.961-0.16-1.521,0.16c-0.32,0.16-0.48,0.32-0.48,0.56c0,0.16,0.16,0.32,0.32,0.4c0.24,0.16,0.721,0.32,1.521,0.32
				c2.002,0.32,3.363,0.641,4.243,0.961c0.881,0.32,1.521,0.721,1.841,1.121c0.32,0.48,0.56,0.961,0.56,1.601
				c0,0.721-0.32,1.281-0.801,1.841c-0.48,0.56-1.201,0.961-2.162,1.281s-2.082,0.4-3.523,0.4c-2.482,0-4.243-0.32-5.124-1.041
				C0.641,83.668,0.16,82.947,0,81.907z"/>
			<path style="fill:#7C7C7C;" d="M21.938,74.621h4.003v7.526c0,1.601-0.961,2.642-2.882,3.283c-0.881,0.32-1.922,0.32-3.123,0.32
				c-1.041,0-2.082,0-2.962-0.24c-2.162-0.881-3.123-2.002-3.123-3.363v-7.526h4.003v6.405c0,1.121,0.16,2.082,2.082,2.082
				c2.002,0,2.002-0.961,2.002-2.082L21.938,74.621z"/>
			<path style="fill:#7C7C7C;" d="M48.119,74.621h4.003v7.526c0,1.601-0.961,2.642-2.882,3.283c-0.881,0.32-1.922,0.32-3.123,0.32
				c-1.041,0-2.082,0-2.962-0.24c-2.162-0.881-3.123-2.002-3.123-3.363v-7.526h4.003v6.405c0,1.121,0.16,2.082,2.082,2.082
				c2.002,0,2.002-0.961,2.002-2.082L48.119,74.621z"/>
			<path style="fill:#7C7C7C;" d="M26.822,74.621h12.33v2.322l-6.085,5.444h6.085v2.962h-12.33v-2.562l5.925-5.364h-5.925V74.621z"
				/>
			<path style="fill:#7C7C7C;" d="M53.083,85.429V74.62h4.003v4.003l4.323-4.003h4.964l-5.685,5.204l5.925,5.605h-5.364
				l-4.083-3.843l0.08,3.843L53.083,85.429L53.083,85.429z"/>
			<path style="fill:#7C7C7C;" d="M71.098,74.621V85.43h-3.923V74.621H71.098z"/>
		</g>
	</g>
</g>
</svg>
