<svg version="1.1" id="Calque_1" xmlns="http://www.w3.org/2000/svg" xmlns:xlink="http://www.w3.org/1999/xlink" x="0px" y="0px"
	 width="116.463px" height="44.316px" viewBox="0 0 116.463 44.316" style="enable-background:new 0 0 116.463 44.316;"
	 xml:space="preserve">
<g>
	<path style="fill:#A5A4A4;" d="M31.916,12.964L18.953,43.471h-5.918L0,12.964h7.398l8.666,21.207l8.596-21.207H31.916z"/>
	<path style="fill:#010101;" d="M91.522,15.571c-2.114-2.325-5.707-3.382-10.921-3.382c-3.03,0-6.905,0.564-10.075,1.691v4.932
		c2.818-0.282,6.341-0.634,8.807-0.634c3.734,0,5.707,0.423,6.764,1.409c0.845,0.775,1.127,1.902,1.127,3.875v0.845
		c-2.043-0.352-4.509-0.493-5.918-0.493c-4.227,0-7.891,0.916-10.286,2.889c-2.043,1.62-3.241,4.016-3.241,7.116
		c0,6.059,5.002,10.498,11.484,10.498c3.382,0,6.975-1.127,9.371-2.748l1.691,1.973h3.664V23.603
		C94.058,19.939,93.213,17.332,91.522,15.571z M80.531,38.469c-3.664,0-6.059-1.761-6.059-4.932c0-1.339,0.352-2.325,1.268-3.03
		c1.127-0.916,3.1-1.409,6.2-1.409c1.62,0,3.593,0.141,5.355,0.282v7.68C85.533,37.835,82.785,38.469,80.531,38.469z"/>
	<path style="fill:#010101;" d="M115.899,43.119c-1.62,0.564-4.368,1.127-6.623,1.127c-3.241,0-5.777-0.845-7.398-2.466
		c-1.62-1.62-2.466-4.016-2.466-7.186V4.439h6.764v8.525h10.286l-0.916,5.496h-9.371v15.359c0,1.761,0.282,2.818,1.057,3.593
		c0.775,0.775,1.902,1.127,3.875,1.127h4.861L115.899,43.119L115.899,43.119z"/>
	<path style="fill:#010101;" d="M50.305,12.189c-2.395,0-5.355,0.634-7.186,1.268V8.314C43.119,3.805,41.076,0,34.805,0h-2.607
		v5.707h0.493c2.677,0,3.664,1.268,3.664,4.016v24.659c0,2.748-0.986,4.016-3.664,4.016c-0.07,0-0.493,0-0.493,0v5.707h2.607
		c3.593,0,5.777-1.198,7.046-3.1c2.536,1.973,5.636,3.1,8.877,3.1c7.68,0,13.387-5.425,13.387-16.205
		C64.114,17.332,58.619,12.189,50.305,12.189z M49.882,37.975c-2.184,0-4.861-0.916-6.693-2.395V19.023
		c1.761-0.423,3.805-0.705,5.636-0.705c5.777,0,8.455,2.325,8.455,9.723C57.28,33.96,55.378,37.975,49.882,37.975z"/>
</g>
<g>
</g>
<g>
</g>
<g>
</g>
<g>
</g>
<g>
</g>
<g>
</g>
<g>
</g>
<g>
</g>
<g>
</g>
<g>
</g>
<g>
</g>
<g>
</g>
<g>
</g>
<g>
</g>
<g>
</g>
</svg>
