<svg version="1.1" id="Calque_1" xmlns="http://www.w3.org/2000/svg" xmlns:xlink="http://www.w3.org/1999/xlink" x="0px" y="0px"
	 width="172.55px" height="45.638px" viewBox="0 0 172.55 45.638" style="enable-background:new 0 0 172.55 45.638;"
	 xml:space="preserve">
<g>
	<path style="fill:#231F20;" d="M73.093,6.818h-7.727V5.546c0-0.818-0.545-1.455-1.727-1.545c-0.818,0-1.545,0.909-1.545,1.545
		c-0.091,1.182,1.273,1.727,2.818,2.273c5.364,1.545,8.455,2.636,8.364,7.182c-0.091,3.727-3.727,6-9.728,6
		c-4.091,0-9.818-0.545-9.909-6.818h8c0,0.364,0,0.727,0,1.091c-0.091,1,0.909,1.545,1.636,1.545c1.273,0,1.909-0.909,1.909-1.727
		c0.091-1.455-1.636-2-2.636-2.182c-5.455-0.909-8.728-3-8.455-6.637C54.365,1,60.093,0,64.002,0
		C67.638,0,72.911,1.818,73.093,6.818L73.093,6.818z"/>
	<path style="fill:#231F20;" d="M127.549,24.546h3.546c5.091,0,9.364,4.091,9.364,9.273v2.546c0,5.091-4.182,9.273-9.364,9.273
		h-3.546c-5.091,0-9.273-4.091-9.273-9.273v-2.546C118.276,28.728,122.458,24.546,127.549,24.546L127.549,24.546z"/>
	<path style="fill:#231F20;" d="M74.366,25.637v12.364c0,4.091-3.364,7.546-7.546,7.546h-5.182c-4.091,0-7.546-3.364-7.546-7.546
		V25.637h8.182v12.546c0,1.091,0.909,2,2,2c1.091,0,2-0.909,2-2V25.637H74.366L74.366,25.637z"/>
	<polygon style="fill:#231F20;" points="105.458,45.092 113.821,45.092 113.821,25.637 105.458,25.637 	"/>
	<polygon style="fill:#231F20;" points="144.731,25.637 154.914,25.637 158.368,34.728 158.368,25.637 165.005,25.637 
		165.005,45.092 155.277,45.092 151.277,34.546 151.277,45.092 144.731,45.092 	"/>
	<polygon style="fill:#231F20;" points="79.911,25.637 90.094,25.637 93.457,34.728 93.457,25.637 100.094,25.637 100.094,45.092 
		90.457,45.092 86.457,34.546 86.457,45.092 79.911,45.092 	"/>
	<polygon style="fill:#231F20;" points="144.822,0.818 155.004,0.818 158.55,10 158.55,0.818 165.096,0.818 165.096,20.364 
		155.368,20.364 151.368,9.818 151.368,20.364 144.822,20.364 	"/>
	<path style="fill:#231F20;" d="M130.095,13.637h-2v6.637h-8.091V0.818h14.819c2.273,0,4.546,1.273,4.637,4.909
		c0.091,2.091-0.818,3.818-3.727,4.909c2.455,0.455,3.636,2.364,3.636,4.182v3.273c0,0.818,0.091,1.455,0.545,2.182h-8
		c-0.455-0.545-0.727-1.455-0.727-2.273v-2.364C131.458,14.728,131.004,13.637,130.095,13.637L130.095,13.637z"/>
	<polygon style="fill:#231F20;" points="75.548,0.818 94.185,0.818 94.185,5.637 89.003,5.637 89.003,20.364 80.73,20.364 
		80.73,5.637 75.548,5.637 	"/>
	<polygon style="fill:#231F20;" points="98.003,0.818 114.458,0.818 114.458,5.546 106.003,5.546 106.003,8.091 114.458,8.091 
		114.458,12.909 106.003,12.909 106.003,15.455 114.458,15.455 114.458,20.364 98.003,20.364 	"/>
	<polygon style="fill:#231F20;" points="33.001,0.818 49.365,0.818 49.365,5.546 40.91,5.546 40.91,8.091 49.365,8.091 
		49.365,12.909 40.91,12.909 40.91,15.455 49.365,15.455 49.365,20.364 33.001,20.364 	"/>
	<polygon style="fill:#231F20;" points="14.637,9.364 12.637,20.364 4.364,20.364 0,0.818 6.909,0.818 8.818,10.909 10.546,0.818 
		18.819,0.818 20.637,10.909 22.273,0.818 29.364,0.818 25.183,20.364 16.637,20.364 	"/>
	<polygon style="fill:#231F20;" points="171.187,0.909 172.55,0.909 172.55,44.638 171.187,44.638 	"/>
	<path style="fill:#FFFFFF;" d="M129.367,29.183c2.091,0,2.455,2.636,2.455,5.909s-0.273,5.909-2.455,5.909
		c-2.091,0-2.455-2.636-2.455-5.909C126.913,31.819,127.276,29.183,129.367,29.183L129.367,29.183z"/>
	<path style="fill:#FFFFFF;" d="M130.004,9.182h-1.727V5h1.727c1.182,0,1.727,1.091,1.727,2.182
		C131.913,8.091,131.186,9.182,130.004,9.182L130.004,9.182z"/>
</g>
<g>
</g>
<g>
</g>
<g>
</g>
<g>
</g>
<g>
</g>
<g>
</g>
<g>
</g>
<g>
</g>
<g>
</g>
<g>
</g>
<g>
</g>
<g>
</g>
<g>
</g>
<g>
</g>
<g>
</g>
</svg>
