<svg version="1.1" id="wieden" xmlns="http://www.w3.org/2000/svg" xmlns:xlink="http://www.w3.org/1999/xlink" x="0px" y="0px"
	 width="161.604px" height="72.119px" viewBox="0 0 161.604 72.119" style="enable-background:new 0 0 161.604 72.119;"
	 xml:space="preserve">
<g>
	<g>
		<path d="M33.393,2.453h0.079l7.945,23.995h3.323L51.829,0h-2.351l-6.23,24.068h-0.074L34.962,0.001h-2.946l-7.875,24.068h-0.074
			L17.798,0.001h-2.575l7.017,26.448h3.432L33.393,2.453"/>
		<path d="M55.271,8.059v18.39h2.24V8.059H55.271z M57.699,0.001h-2.616v2.748h2.616V0.001"/>
		<path d="M79.489,17.766c0-5.748-2.275-10.257-8.546-10.257c-5.558,0-8.358,4.763-8.358,9.744c0,5.021,2.612,9.744,8.211,9.744
			c4.513,0,7.312-2.015,8.468-6.41h-2.349c-0.56,2.527-2.761,4.395-5.412,4.395c-4.589,0-6.418-3.298-6.492-7.217L79.489,17.766
			L79.489,17.766z M65.086,15.752c0.3-3.221,2.24-6.228,5.897-6.228c3.88,0,5.821,2.674,6.083,6.228H65.086"/>
		<path d="M97.206,16.814c0,4.176-1.496,8.17-6.383,8.17c-4.292,0-5.298-4.653-5.298-8.058c0-3.517,1.38-7.401,5.633-7.401
			C95.526,9.524,97.206,13.08,97.206,16.814z M97.389,26.449h2.314c-0.074-1.246-0.186-2.713-0.186-4.139V0.001h-2.238V10.77
			l-0.074,0.074c-1.308-2.161-3.92-3.335-6.418-3.335c-5.564,0-7.689,4.911-7.689,9.674c0,4.612,2.124,9.815,7.689,9.815
			c2.612,0,4.887-1.209,6.418-3.407l0.074,0.145L97.389,26.449"/>
		<path d="M121.021,17.766c0-5.748-2.275-10.257-8.546-10.257c-5.558,0-8.358,4.763-8.358,9.744c0,5.021,2.612,9.744,8.211,9.744
			c4.513,0,7.312-2.015,8.468-6.41h-2.349c-0.56,2.527-2.761,4.395-5.412,4.395c-4.589,0-6.418-3.298-6.492-7.217L121.021,17.766
			L121.021,17.766z M106.617,15.752c0.3-3.221,2.24-6.228,5.897-6.228c3.88,0,5.821,2.674,6.083,6.228H106.617"/>
		<path d="M128.344,15.863c0-3.298,1.68-6.339,5.376-6.339c3.056,0,4.924,1.87,4.924,5.056v11.869h2.24V14.946
			c0-2.124-0.488-7.436-6.606-7.436c-2.424,0-4.552,1.062-5.86,3.335l-0.074-0.074L128.23,8.06h-2.31
			c0.074,1.246,0.186,2.711,0.186,4.139V26.45h2.238V15.863"/>
		<path d="M2.389,65.088l0.037-13.809L15.34,65.088h3.318L5.114,50.583L17.541,38.64h-3.06L2.426,50.287L2.389,38.64H0v26.448H2.389
			"/>
		<path d="M37.751,56.405c0-5.748-2.275-10.257-8.546-10.257c-5.558,0-8.358,4.763-8.358,9.744c0,5.021,2.612,9.744,8.211,9.744
			c4.513,0,7.312-2.015,8.468-6.41h-2.349c-0.56,2.527-2.761,4.395-5.412,4.395c-4.589,0-6.418-3.298-6.492-7.217h14.478
			C37.751,56.404,37.751,56.405,37.751,56.405z M23.347,54.391c0.3-3.221,2.24-6.228,5.897-6.228c3.88,0,5.821,2.674,6.083,6.228
			H23.347"/>
		<path d="M45.074,54.502c0-3.298,1.68-6.339,5.376-6.339c3.056,0,4.924,1.87,4.924,5.056v11.869h2.24V53.585
			c0-2.124-0.488-7.436-6.606-7.436c-2.424,0-4.552,1.062-5.86,3.335l-0.074-0.074l-0.114-2.711h-2.31
			c0.074,1.246,0.186,2.711,0.186,4.139v14.251h2.238V54.502"/>
		<path d="M65.736,54.502c0-3.298,1.68-6.339,5.376-6.339c3.056,0,4.924,1.87,4.924,5.056v11.869h2.24V53.585
			c0-2.124-0.488-7.436-6.606-7.436c-2.424,0-4.552,1.062-5.86,3.335l-0.074-0.074l-0.114-2.711h-2.31
			c0.074,1.246,0.186,2.711,0.186,4.139v14.251h2.238L65.736,54.502"/>
		<path d="M100.152,56.405c0-5.748-2.275-10.257-8.546-10.257c-5.558,0-8.358,4.763-8.358,9.744c0,5.021,2.612,9.744,8.211,9.744
			c4.513,0,7.312-2.015,8.468-6.41h-2.349c-0.56,2.527-2.761,4.395-5.412,4.395c-4.589,0-6.418-3.298-6.492-7.217h14.478V56.405z
			 M85.748,54.391c0.3-3.221,2.24-6.228,5.897-6.228c3.88,0,5.821,2.674,6.083,6.228H85.748"/>
		<path d="M118.075,55.453c0,4.176-1.496,8.17-6.383,8.17c-4.292,0-5.298-4.653-5.298-8.058c0-3.517,1.38-7.401,5.633-7.401
			C116.395,48.163,118.075,51.719,118.075,55.453z M118.259,65.088h2.314c-0.074-1.246-0.186-2.713-0.186-4.139V38.64h-2.238v10.769
			l-0.074,0.074c-1.308-2.161-3.92-3.335-6.418-3.335c-5.564,0-7.689,4.911-7.689,9.674c0,4.612,2.124,9.815,7.689,9.815
			c2.612,0,4.887-1.209,6.418-3.407l0.074,0.145L118.259,65.088"/>
		<path d="M123.418,46.698l7.765,18.39l-2.839,7.031h2.463l10.337-25.421h-2.428l-6.265,15.387l-6.308-15.387H123.418"/>
	</g>
	<g>
		<path style="stroke:#000000;stroke-miterlimit:10;" d="M151.26,26.454v20.28"/>
		<path style="stroke:#000000;stroke-miterlimit:10;" d="M140.91,36.591h20.694"/>
	</g>
</g>
</svg>
