<svg xmlns="http://www.w3.org/2000/svg" xmlns:xlink="http://www.w3.org/1999/xlink" viewBox="0 0 89.244 69.517" enable-background="new 0 0 89.244 69.517" xml:space="preserve">
<g>
	<path d="M89.244,23.775c0,1.878-1.084,7.659-3.252,17.342H23.124c-6.841,0-12.478-1.781-16.909-5.348
		C2.07,32.446,0,28.399,0,23.631c0-2.312,1.252-6.215,3.758-11.707c2.697-5.877,4.961-8.816,6.792-8.816
		c0.097,0.098,0.145,0.193,0.145,0.289c0,0.387-0.722,2.193-2.167,5.42c-1.445,3.229-2.168,5.565-2.168,7.01
		c0,4.384,1.301,7.925,3.901,10.622c2.601,2.698,6.095,4.047,10.478,4.047h62.435c0-4.673-2.554-11.2-7.659-19.583
		c1.059-2.07,2.986-5.709,5.78-10.912c1.301,1.688,2.818,4.697,4.553,9.033C88.111,14.67,89.244,19.584,89.244,23.775z
		 M52.246,61.062l-5.131,8.454l-11.562-7.081l5.131-8.311L52.246,61.062z"/>
</g>
</svg>
