<svg xmlns="http://www.w3.org/2000/svg" xmlns:xlink="http://www.w3.org/1999/xlink" viewBox="0 0 69.854 47.012" enable-background="new 0 0 69.854 47.012" xml:space="preserve">
<g>
	<g>
		<path d="M22.407,18.502c1.871-0.272,3.237-0.639,4.1-1.1c1.335-0.704,2.003-1.761,2.003-3.17c0-2.142-1.113-3.606-3.338-4.392
			c-1.196-0.406-2.795-0.61-4.798-0.61c-3.06,0-5.187,0.839-6.382,2.516c-0.641,0.895-1.002,2.152-1.085,3.775H1.552
			C1.854,9.395,4.426,5.064,9.264,2.532C12.48,0.844,16.576,0,21.553,0c3.547,0,6.681,0.602,9.402,1.805
			c1.513,0.656,3.093,1.655,4.743,2.995c1.673-1.422,3.592-2.577,5.759-3.466C43.624,0.445,46.133,0,48.985,0
			c9.106,0,15.262,3.717,18.471,11.15c1.7,3.949,2.496,8.945,2.388,14.99H39.088c0,3.099,0.373,5.471,1.12,7.115
			c1.383,3.018,4.037,4.525,7.964,4.525c2.212,0,4.135-0.377,5.766-1.132c1.631-0.755,2.834-2.241,3.608-4.464h11.808
			c-0.329,2.723-1.688,5.446-4.075,8.168c-3.925,4.439-9.496,6.658-16.714,6.658c-3.705,0-6.882-0.698-9.53-2.094
			c-2.648-1.395-4.7-3.188-6.154-5.377c-2.036,2.586-4.477,4.478-7.323,5.675c-2.847,1.196-6.112,1.796-9.798,1.796
			c-5.556,0-9.57-1.334-12.046-4.003C1.237,40.341,0,37.154,0,33.451c0-5.037,1.885-8.713,5.654-11.027
			c2.09-1.252,5.268-2.206,9.531-2.859L22.407,18.502z M28.426,24.221c-0.585,0.408-1.113,0.701-1.585,0.878
			c-0.474,0.178-1.53,0.43-3.171,0.758l-4.547,0.903c-2.615,0.52-4.363,1.078-5.247,1.677c-1.49,0.979-2.235,2.599-2.235,4.856
			c0,1.278,0.485,2.476,1.458,3.592c0.971,1.115,2.623,1.672,4.957,1.672c2.414,0,4.428-0.428,6.039-1.285
			c2.887-1.553,4.331-4.41,4.331-8.573V24.221z M57.754,18.625c-0.194-2.859-1.023-5.139-2.489-6.842
			c-1.467-1.701-3.679-2.553-6.638-2.553c-2.986,0-5.255,0.769-6.804,2.309c-1.549,1.538-2.406,3.9-2.572,7.086H57.754z"/>
	</g>
</g>
</svg>
