<svg xmlns="http://www.w3.org/2000/svg" xmlns:xlink="http://www.w3.org/1999/xlink" viewBox="0 0 50.238 44.613" enable-background="new 0 0 50.238 44.613" xml:space="preserve">
<g>
	<path d="M50.238,0v7.91h-7.98v36.633h-1.512l-6.926-7.33V7.91H22.148c2.508,3.516,3.762,6.947,3.762,10.297
		c0,6.068-2.784,10.778-8.352,14.129l7.82,10.859l-3.581,1.418L13.929,33.93c-1.099,0.303-2.139,0.453-3.12,0.453
		c-2.057-0.023-3.723-0.633-4.996-1.828c-1.273-1.195-1.922-2.659-1.945-4.394c0.023-1.453,0.422-2.631,1.195-3.533
		c0.773-0.901,1.746-1.354,2.918-1.354c1.969,0,3.914,1.289,5.836,3.867c1.875-2.039,3.363-4.417,4.465-7.137
		c-1.055,0.234-2.086,0.351-3.094,0.351c-2.602,0-4.846-0.703-6.733-2.109c-1.887-1.406-2.842-2.93-2.865-4.57
		c0-2.32,1.465-4.241,4.395-5.766H0V0H50.238z M18.773,7.91h-2.285c-1.875,1.055-2.812,2.953-2.812,5.695
		c0,1.313,0.316,2.356,0.949,3.129c0.633,0.773,1.394,1.173,2.285,1.195c0.891,0,1.682-0.492,2.373-1.476s1.025-2.343,1.002-4.078
		C20.285,10.641,19.781,9.153,18.773,7.91z"/>
</g>
</svg>
