<svg xmlns="http://www.w3.org/2000/svg" xmlns:xlink="http://www.w3.org/1999/xlink" viewBox="0 0 49.364 56.313" enable-background="new 0 0 49.364 56.313" xml:space="preserve">
<g>
	<g>
		<path d="M26.662,34.66c0.969-0.107,1.965-0.282,2.989-0.524c1.023-0.243,1.951-0.593,2.787-1.05
			c0.834-0.457,1.521-1.037,2.061-1.738c0.537-0.699,0.808-1.535,0.808-2.504c0-1.131-0.351-2.154-1.051-3.07
			c-0.7-0.916-1.575-1.737-2.625-2.465c-1.051-0.727-2.195-1.346-3.435-1.857c-1.239-0.512-2.424-0.982-3.555-1.414
			c-1.185,0.377-2.424,0.822-3.717,1.333c-1.292,0.513-2.464,1.118-3.514,1.817c-1.051,0.701-1.927,1.524-2.626,2.465
			c-0.701,0.943-1.051,2.008-1.051,3.191c0,0.969,0.269,1.805,0.809,2.504c0.537,0.701,1.238,1.281,2.101,1.738
			c0.86,0.457,1.817,0.807,2.868,1.05c1.05,0.242,2.086,0.417,3.11,0.524v7.029c-2.209-0.161-4.403-0.553-6.585-1.172
			c-2.182-0.617-4.12-1.453-5.817-2.504C8.524,36.963,7.15,35.67,6.1,34.136c-1.051-1.535-1.575-3.299-1.575-5.292
			c0-1.939,0.471-3.649,1.414-5.131c0.941-1.48,2.167-2.8,3.676-3.959c1.507-1.157,3.163-2.167,4.969-3.029
			c1.804-0.861,3.596-1.616,5.373-2.262V6.948H0V0h49.364v6.948H29.166v7.515c1.777,0.646,3.567,1.4,5.373,2.262
			c1.804,0.862,3.46,1.872,4.969,3.029c1.508,1.159,2.733,2.479,3.676,3.959c0.942,1.482,1.414,3.191,1.414,5.131
			c0,1.993-0.513,3.744-1.535,5.252c-1.023,1.508-2.383,2.787-4.08,3.838c-1.696,1.05-3.623,1.885-5.776,2.504
			c-2.155,0.619-4.337,1.037-6.544,1.252V34.66z"/>
		<path d="M27.146,56.313c-0.97,0-2.113-0.068-3.434-0.202c-1.319-0.135-2.733-0.351-4.242-0.646
			c-1.507-0.297-3.042-0.674-4.604-1.131c-1.562-0.458-3.07-1.01-4.524-1.656l1.939-5.736c2.64,0.97,5.32,1.75,8.039,2.343
			c2.721,0.593,4.997,0.89,6.827,0.89c1.832,0,4.108-0.297,6.827-0.89c2.721-0.593,5.4-1.373,8.039-2.343l1.938,5.736
			c-1.454,0.646-2.961,1.198-4.524,1.656c-1.562,0.457-3.097,0.834-4.604,1.131c-1.508,0.296-2.922,0.512-4.242,0.646
			C29.261,56.245,28.116,56.313,27.146,56.313z"/>
	</g>
</g>
</svg>
