<svg xmlns="http://www.w3.org/2000/svg" xmlns:xlink="http://www.w3.org/1999/xlink" viewBox="0 0 35.051 55.969" enable-background="new 0 0 35.051 55.969" xml:space="preserve">
<g>
	<path d="M10.16,27.176c0.212,1.781,0.671,3.047,1.378,3.797c1.248,1.336,3.556,2.004,6.923,2.004c1.979,0,3.551-0.293,4.717-0.879
		c1.165-0.586,1.748-1.465,1.748-2.637c0-1.125-0.471-1.98-1.41-2.566c-0.939-0.586-4.429-1.594-10.468-3.023
		c-4.362-1.078-7.435-2.42-9.216-4.025C2.051,18.24,1.16,15.938,1.16,12.938c0-3.539,1.392-6.58,4.175-9.123S12.035,0,17.085,0
		c4.791,0,8.696,0.955,11.714,2.865c3.019,1.91,4.751,5.209,5.197,9.896h-10.02c-0.142-1.289-0.506-2.309-1.093-3.059
		c-1.106-1.359-2.985-2.039-5.641-2.039c-2.186,0-3.742,0.34-4.671,1.02c-0.929,0.68-1.393,1.476-1.393,2.391
		c0,1.148,0.493,1.986,1.481,2.514c0.987,0.527,4.477,1.447,10.471,2.76c7.946,1.898,11.92,5.719,11.92,11.461
		c0,3.797-1.415,6.896-4.245,9.299c-2.83,2.402-6.875,3.604-12.136,3.604l-2.25,3.305c0.773-0.164,1.324-0.275,1.652-0.334
		c0.328-0.059,0.679-0.088,1.052-0.088c1.888,0,3.392,0.463,4.511,1.389c1.118,0.926,1.678,2.256,1.678,3.99
		c0,2.156-0.879,3.861-2.637,5.115c-1.758,1.254-4.02,1.881-6.785,1.881c-1.195,0-2.637-0.246-4.324-0.738
		c-0.773-0.234-1.863-0.609-3.269-1.125l1.342-3.023c1.342,0.398,2.261,0.656,2.755,0.773c1.13,0.281,2.048,0.422,2.753,0.422
		c1.406,0,2.414-0.299,3.023-0.897c0.609-0.598,0.914-1.225,0.914-1.881c0-0.984-0.34-1.676-1.019-2.074
		c-0.68-0.398-1.406-0.598-2.18-0.598c-0.445,0-0.902,0.053-1.373,0.158c-0.47,0.105-1,0.252-1.589,0.439l-1.518-1.406l3.425-5.309
		c-4.133,0-7.638-1.271-10.515-3.814C1.439,34.354,0,31.113,0,27.176H10.16z"/>
</g>
</svg>
